<svg width="133" height="90" viewBox="0 0 133 90" fill="none" xmlns="http://www.w3.org/2000/svg">
<path d="M32.9275 73.4951L12.7441 89.0324" stroke="#1CA6DA" stroke-miterlimit="10"/>
<path d="M116.76 85.0973L98.7344 73.2666" stroke="#1CA6DA" stroke-miterlimit="10"/>
<path d="M94.087 53.3879H96.4735C96.7869 53.3879 97.0972 53.3261 97.3868 53.2062C97.6763 53.0863 97.9394 52.9105 98.161 52.6889C98.3826 52.4673 98.5584 52.2042 98.6783 51.9147C98.7982 51.6251 98.86 51.3148 98.86 51.0014C98.86 50.688 98.7982 50.3777 98.6783 50.0881C98.5584 49.7986 98.3826 49.5355 98.161 49.3139C97.9394 49.0923 97.6763 48.9165 97.3868 48.7966C97.0972 48.6767 96.7869 48.6149 96.4735 48.6149H90.6597L86.3184 41.3032C85.4666 39.8888 84.2644 38.7181 82.8278 37.9042C81.3913 37.0903 79.7691 36.6608 78.1181 36.6573H52.7302C51.0825 36.6603 49.4636 37.0897 48.031 37.9039C46.5985 38.718 45.4011 39.8891 44.5553 41.3032L40.2394 48.5896H34.4509C33.818 48.5896 33.211 48.841 32.7634 49.2885C32.3159 49.7361 32.0645 50.3431 32.0645 50.976C32.0645 51.6089 32.3159 52.216 32.7634 52.6635C33.211 53.111 33.818 53.3625 34.4509 53.3625H36.8374L33.9686 57.196C32.7293 58.8423 32.0608 60.8478 32.0645 62.9083V72.4542C32.0645 73.72 32.5673 74.934 33.4624 75.8291C34.3575 76.7242 35.5715 77.2271 36.8374 77.2271V79.6135C36.8374 80.875 37.3367 82.0852 38.2264 82.9796C39.116 83.8739 40.3235 84.3797 41.5849 84.3865H46.3578C47.6237 84.3865 48.8377 83.8836 49.7328 82.9885C50.6279 82.0934 51.1308 80.8794 51.1308 79.6135V77.2271H79.7683V79.6135C79.7683 80.8794 80.2711 82.0934 81.1662 82.9885C82.0613 83.8836 83.2753 84.3865 84.5412 84.3865H89.3141C90.58 84.3865 91.794 83.8836 92.6891 82.9885C93.5842 82.0934 94.087 80.8794 94.087 79.6135V77.2271C95.3529 77.2271 96.5669 76.7242 97.462 75.8291C98.3571 74.934 98.86 73.72 98.86 72.4542V62.9083C98.8509 60.8498 98.1837 58.8482 96.9559 57.196L94.087 53.3879ZM42.7782 70.0677C41.8288 70.0677 40.9182 69.6906 40.2469 69.0192C39.5756 68.3479 39.1985 67.4374 39.1985 66.488C39.1985 65.5386 39.5756 64.6281 40.2469 63.9568C40.9182 63.2855 41.8288 62.9083 42.7782 62.9083C43.7275 62.9083 44.6381 63.2855 45.3094 63.9568C45.9807 64.6281 46.3578 65.5386 46.3578 66.488C46.3578 67.4374 45.9807 68.3479 45.3094 69.0192C44.6381 69.6906 43.7275 70.0677 42.7782 70.0677ZM84.4396 51.3568C82.4803 52.6711 80.1727 53.3696 77.8134 53.3625H53.0856C50.7268 53.3665 48.4201 52.6683 46.4594 51.3568L44.8092 50.2652L48.7189 43.7659C49.1415 43.0595 49.7405 42.4751 50.457 42.0701C51.1736 41.665 51.9832 41.4533 52.8064 41.4556H78.1942C79.0212 41.4514 79.835 41.6621 80.556 42.0671C81.277 42.4721 81.8804 43.0575 82.3071 43.7659L86.1914 50.2652L84.5412 51.3568H84.4396ZM88.1209 70.0677C87.4129 70.0677 86.7208 69.8578 86.1321 69.4644C85.5434 69.0711 85.0846 68.512 84.8137 67.8579C84.5427 67.2038 84.4719 66.484 84.61 65.7896C84.7481 65.0953 85.089 64.4574 85.5897 63.9568C86.0903 63.4562 86.7281 63.1152 87.4225 62.9771C88.1169 62.839 88.8367 62.9099 89.4908 63.1808C90.1449 63.4517 90.704 63.9106 91.0973 64.4992C91.4906 65.0879 91.7006 65.78 91.7006 66.488C91.7006 67.4374 91.3234 68.3479 90.6521 69.0192C89.9808 69.6906 89.0703 70.0677 88.1209 70.0677Z" fill="#1CA6DA"/>
<path d="M32.5974 73.622L12.4141 89.134" stroke="#1CA6DA" stroke-miterlimit="10"/>
<path d="M116.455 85.1989L98.4297 73.3935" stroke="#1CA6DA" stroke-miterlimit="10"/>
<path d="M9.97743 31.9605C12.7914 30.721 15.9626 30.5583 18.8886 31.5035L20.158 31.9097V34.1693L22.6968 32.6206L25.2355 31.0719L22.8491 29.5487L20.158 28V30.1072L18.9901 29.7264C16.0067 28.7276 12.7586 28.8724 9.87588 30.1326C7.65346 31.1175 5.19498 31.4435 2.79267 31.0719L0 30.5388V32.4683L2.53879 33.0776C4.95254 33.4839 7.43244 33.175 9.67278 32.189L9.97743 31.9605Z" fill="#1CA6DA"/>
<path d="M9.97743 40.6939C12.7885 39.4425 15.9642 39.2797 18.8886 40.237L20.158 40.6432V42.8773L22.6968 41.354L25.2355 39.8054L22.8491 38.3329L20.3103 36.8096V38.9168L19.1425 38.5106C16.1594 37.4949 12.902 37.6491 10.0282 38.9422C7.80845 39.937 5.34457 40.2549 2.94499 39.8561L0 39.3992V41.354L2.53879 41.7856C4.95254 42.1919 7.43244 41.8831 9.67278 40.897L9.97743 40.6939Z" fill="#1CA6DA"/>
<path d="M9.97743 49.5543C12.7914 48.3147 15.9626 48.1521 18.8886 49.0973L20.158 49.5035V51.763L22.6968 50.2144L25.2355 48.6911L22.8491 47.1424L20.3103 45.5938V47.701L19.1425 47.3202C16.159 46.3214 12.911 46.4662 10.0282 47.7264C7.81062 48.7283 5.34708 49.055 2.94499 48.6657L0 48.3103V50.2652L2.53879 50.5952C4.95517 50.9847 7.43262 50.6673 9.67278 49.6812L9.97743 49.5543Z" fill="#1CA6DA"/>
<path d="M16.9838 33.5599C16.9889 33.7578 16.9344 33.9527 16.8276 34.1194C16.7208 34.286 16.5664 34.4168 16.3845 34.4949C16.2026 34.573 16.0014 34.5947 15.807 34.5573C15.6126 34.5199 15.4339 34.4251 15.2939 34.2851C15.1539 34.1451 15.0591 33.9664 15.0217 33.772C14.9843 33.5776 15.0061 33.3765 15.0841 33.1945C15.1622 33.0126 15.293 32.8583 15.4597 32.7514C15.6263 32.6446 15.8212 32.5902 16.0191 32.5952C16.275 32.5952 16.5204 32.6968 16.7013 32.8778C16.8822 33.0587 16.9838 33.3041 16.9838 33.5599Z" fill="#E52330"/>
<path d="M9.74972 36.1749C9.74972 36.5115 9.61599 36.8344 9.37793 37.0725C9.13987 37.3105 8.817 37.4443 8.48033 37.4443C8.14367 37.4443 7.82079 37.3105 7.58273 37.0725C7.34468 36.8344 7.21094 36.5115 7.21094 36.1749C7.21094 35.8382 7.34468 35.5153 7.58273 35.2773C7.82079 35.0392 8.14367 34.9055 8.48033 34.9055C8.817 34.9055 9.13987 35.0392 9.37793 35.2773C9.61599 35.5153 9.74972 35.8382 9.74972 36.1749Z" fill="#E52330"/>
<path d="M2.53893 34.347C2.53893 34.5086 2.47474 34.6636 2.36047 34.7778C2.2462 34.8921 2.09122 34.9563 1.92962 34.9563C1.76802 34.9563 1.61304 34.8921 1.49877 34.7778C1.38451 34.6636 1.32031 34.5086 1.32031 34.347C1.32031 34.1854 1.38451 34.0304 1.49877 33.9161C1.61304 33.8019 1.76802 33.7377 1.92962 33.7377C2.09122 33.7377 2.2462 33.8019 2.36047 33.9161C2.47474 34.0304 2.53893 34.1854 2.53893 34.347Z" fill="#E52330"/>
<path d="M7.99784 45.7715C7.99784 45.9623 7.94126 46.1488 7.83525 46.3075C7.72924 46.4661 7.57857 46.5898 7.40229 46.6628C7.22601 46.7358 7.03203 46.7549 6.84489 46.7177C6.65775 46.6805 6.48585 46.5886 6.35093 46.4537C6.216 46.3188 6.12412 46.1469 6.0869 45.9597C6.04967 45.7726 6.06878 45.5786 6.1418 45.4023C6.21481 45.226 6.33847 45.0754 6.49712 44.9694C6.65577 44.8633 6.84229 44.8068 7.0331 44.8068C7.15979 44.8068 7.28524 44.8317 7.40229 44.8802C7.51934 44.9287 7.62569 44.9997 7.71527 45.0893C7.80486 45.1789 7.87592 45.2853 7.9244 45.4023C7.97288 45.5194 7.99784 45.6448 7.99784 45.7715Z" fill="#E52330"/>
<path d="M15.74 42.3441C15.7373 42.4746 15.6946 42.601 15.6176 42.7062C15.5405 42.8115 15.4329 42.8904 15.3094 42.9324C15.1859 42.9743 15.0525 42.9772 14.9273 42.9406C14.8021 42.904 14.6913 42.8297 14.6098 42.7278C14.5283 42.626 14.4802 42.5015 14.472 42.3714C14.4637 42.2412 14.4958 42.1116 14.5638 42.0004C14.6319 41.8891 14.7325 41.8014 14.8521 41.7494C14.9717 41.6973 15.1044 41.6834 15.2322 41.7095C15.4005 41.7095 15.562 41.7763 15.681 41.8954C15.8 42.0144 15.8669 42.1758 15.8669 42.3441" fill="#E52330"/>
<path d="M2.53892 43.5882C2.53892 43.7565 2.47206 43.9179 2.35303 44.037C2.234 44.156 2.07256 44.2229 1.90423 44.2229C1.7359 44.2229 1.57446 44.156 1.45543 44.037C1.3364 43.9179 1.26953 43.7565 1.26953 43.5882C1.27581 43.4218 1.3447 43.264 1.4624 43.1463C1.58009 43.0286 1.7379 42.9597 1.90423 42.9535C2.07256 42.9535 2.234 43.0203 2.35303 43.1394C2.47206 43.2584 2.53892 43.4198 2.53892 43.5882Z" fill="#E52330"/>
<path d="M63.7239 83.8533C65.4941 83.0695 67.49 82.9611 69.3346 83.5486L70.1217 83.8025V85.2242L71.7973 84.2595L73.4729 83.2948L71.7973 82.33L70.1217 81.3145V82.6601L69.3854 82.4062C67.5092 81.765 65.4601 81.8557 63.6478 82.6601C62.2513 83.301 60.6937 83.5045 59.1795 83.244L57.4277 82.9647V84.1833L59.0272 84.4626C60.5359 84.6874 62.0775 84.476 63.47 83.8533H63.7239Z" fill="#1CA6DA"/>
<path d="M63.7239 88.4231C65.4941 87.6393 67.49 87.531 69.3346 88.1185L70.1217 88.3977V89.7941L71.7973 88.8293L73.4729 87.8646L71.7973 86.8999L70.1217 85.9097V87.2553L69.3854 87.0014C67.5074 86.3727 65.4629 86.4631 63.6478 87.2553C62.2513 87.8962 60.6937 88.0997 59.1795 87.8392L57.4277 87.5599V88.7786L59.0272 89.0578C60.5311 89.2985 62.0725 89.1047 63.47 88.4993L63.7239 88.4231Z" fill="#1CA6DA"/>
<path d="M117.419 31.9605C120.233 30.721 123.404 30.5583 126.33 31.5035L127.599 31.9097V34.1693L130.265 32.6206L132.804 31.0719L130.265 29.5487L127.599 28V30.1072L126.432 29.7264C123.448 28.7276 120.2 28.8724 117.317 30.1326C115.087 31.1223 112.619 31.4485 110.209 31.0719L107.441 30.5388V32.4683L109.98 32.8999C112.386 33.3086 114.858 32.9996 117.089 32.0113L117.419 31.9605Z" fill="#1CA6DA"/>
<path d="M117.419 40.6939C120.23 39.4425 123.406 39.2797 126.33 40.237L127.599 40.6432V42.8773L130.265 41.354L132.804 39.8054L130.265 38.2567L127.599 36.7334V38.9168L126.432 38.5106C123.448 37.4949 120.191 37.6491 117.317 38.9422C115.089 39.9376 112.617 40.2554 110.209 39.8561L107.441 39.3992V41.354L109.98 41.7856C112.386 42.1944 114.858 41.8853 117.089 40.897L117.419 40.6939Z" fill="#1CA6DA"/>
<path d="M117.419 49.5543C120.233 48.3147 123.404 48.1521 126.33 49.0973L127.599 49.5035V51.763L130.265 50.2144L132.804 48.6911L130.265 47.1424L127.599 45.5938V47.701L126.432 47.3202C123.448 46.3214 120.2 46.4662 117.317 47.7264C115.091 48.7304 112.619 49.0571 110.209 48.6657L107.441 48.3103V50.2652L109.98 50.6967C112.388 51.0812 114.856 50.7639 117.089 49.7828L117.419 49.5543Z" fill="#1CA6DA"/>
<path d="M73.4724 12.6784C73.4781 14.4753 72.9947 16.2399 72.0739 17.7831C71.1532 19.3262 69.8298 20.5897 68.2458 21.4381C66.6617 22.2864 64.8766 22.6877 63.0819 22.5989C61.2871 22.5101 59.5504 21.9345 58.0578 20.9339C56.5652 19.9333 55.3731 18.5454 54.6092 16.9189C53.8452 15.2924 53.5384 13.4887 53.7214 11.7011C53.9045 9.91347 54.5706 8.20938 55.6483 6.77148C56.726 5.33358 58.1747 4.21608 59.8391 3.53876" stroke="#1CA6DA" stroke-miterlimit="10"/>
<path d="M63.597 2.77715C61.8277 3.88684 60.2572 5.28569 58.951 6.91537L59.3572 3.7165L57.6309 1C59.5078 1.91784 61.5238 2.51836 63.597 2.77715Z" fill="#1CA6DA"/>
<path d="M60.9405 8.95719V16.2299H60.0598V9.88049H60.0172L58.2417 11.0595V10.1646L60.0598 8.95719H60.9405ZM63.8844 12.9487V16.2299H63.0463V8.95719H63.8844V11.6276H63.9554C64.0833 11.3459 64.275 11.1222 64.5307 10.9565C64.7888 10.7884 65.132 10.7044 65.5605 10.7044C65.9322 10.7044 66.2578 10.7789 66.5371 10.9281C66.8165 11.0749 67.0331 11.3009 67.187 11.6063C67.3432 11.9094 67.4213 12.2953 67.4213 12.764V16.2299H66.5833V12.8208C66.5833 12.3876 66.4708 12.0526 66.2459 11.8159C66.0234 11.5767 65.7144 11.4572 65.3191 11.4572C65.0444 11.4572 64.7982 11.5152 64.5804 11.6312C64.365 11.7472 64.1945 11.9165 64.0691 12.139C63.946 12.3615 63.8844 12.6314 63.8844 12.9487Z" fill="#E52330"/>
</svg>
