<svg width="45" height="45" viewBox="0 0 45 45" fill="none" xmlns="http://www.w3.org/2000/svg">
<g clip-path="url(#clip0_137_1070)">
<path d="M27.631 30.5756C28.5886 31.2686 29.7724 31.6681 31.0518 31.6391C34.125 31.5695 36.5942 28.9992 36.546 25.9255C36.4978 22.8605 33.9982 20.3906 30.9217 20.3906C30.8378 20.3906 29.4492 10.6297 28.6611 5.093C28.3529 2.92702 26.4984 1.31836 24.3105 1.31836H20.6912C18.5033 1.31836 16.6489 2.92702 16.3406 5.093C15.5526 10.6297 14.1639 20.3906 14.0801 20.3906C11.0035 20.3906 8.50394 22.8605 8.45577 25.9255C8.40752 28.9992 10.8767 31.5695 13.95 31.6391C15.2293 31.6681 16.4131 31.2685 17.3708 30.5756M18.9852 40.0781L17.579 43.6816M26.0165 40.0781L27.4227 43.6816M32.3446 37.2656L35.1571 40.0781M12.6571 37.2656L9.84462 40.0781" stroke="#1CA6DA" stroke-width="3" stroke-miterlimit="10" stroke-linecap="round" stroke-linejoin="round"/>
<path d="M16.1445 28.125C16.8731 30.9554 19.4424 33.0469 22.5003 33.0469C25.5581 33.0469 28.1274 30.9554 28.856 28.125" stroke="#1CA6DA" stroke-width="3" stroke-miterlimit="10" stroke-linecap="round" stroke-linejoin="round"/>
</g>
<defs>
<clipPath id="clip0_137_1070">
<rect width="45" height="45" fill="white"/>
</clipPath>
</defs>
</svg>
