<svg width="158" height="160" viewBox="0 0 158 160" fill="none" xmlns="http://www.w3.org/2000/svg">
<path d="M155.603 68.5437C153.944 66.0387 151.429 64.3125 148.506 63.6584C150.392 60.0512 150.315 55.5506 147.913 51.924C146.204 49.3421 143.626 47.6746 140.819 47.0434C141.326 46.0763 141.693 45.0422 141.91 43.9721C142.523 40.9509 141.925 37.8721 140.222 35.3028C138.563 32.7965 136.048 31.0706 133.125 30.4174C135.011 26.8103 134.934 22.3096 132.532 18.6815C129.02 13.3778 121.844 11.919 116.539 15.4321L105.053 23.0396C98.9345 19.9362 92.4032 17.7258 85.6579 16.4759C83.5219 13.2321 81.0375 10.2171 78.2569 7.52181L73.5047 2.91619C70.0244 -0.457876 64.5666 -0.964439 60.5263 1.71244C55.746 4.87806 54.4325 11.3428 57.5978 16.1231C57.7222 16.3121 57.8444 16.5028 57.965 16.6931C42.3878 19.8449 28.1909 28.1115 17.6831 40.2243C6.28063 53.3706 0 70.2062 0 87.6309C0 90.9706 0.228125 94.3165 0.68 97.5734C4.16031 122.892 21.0253 144.711 44.6925 154.517C53.4694 158.154 62.7819 160 72.3682 160C87.55 160 102.083 155.35 114.396 146.555C126.442 137.949 135.454 126.073 140.46 112.211C140.575 111.902 140.628 111.574 140.616 111.246C140.603 110.917 140.526 110.594 140.388 110.295C140.25 109.997 140.054 109.729 139.811 109.506C139.568 109.284 139.284 109.112 138.975 109C138.665 108.889 138.337 108.839 138.008 108.856C137.68 108.872 137.358 108.953 137.061 109.094C136.764 109.236 136.498 109.435 136.278 109.68C136.058 109.925 135.89 110.211 135.781 110.521C131.119 123.43 122.725 134.49 111.503 142.506C100.039 150.696 86.5063 155.024 72.3685 155.024C65.0585 155.024 57.9213 153.871 51.0903 151.595L71.3319 138.191L71.3353 138.188L71.3378 138.186L88.1603 127.046H88.1616C88.9059 126.556 89.5457 125.923 90.044 125.184C90.5423 124.445 90.8892 123.614 91.0647 122.741C91.426 120.964 91.0741 119.153 90.0732 117.643L89.8513 117.306L93.1188 115.142C95.4426 113.599 98.2624 112.99 101.016 113.435C105.002 114.079 109.084 113.197 112.448 110.963L139.552 93.014C139.368 95.3575 139.062 97.6897 138.635 100.001C138.576 100.322 138.58 100.652 138.647 100.972C138.715 101.292 138.845 101.595 139.03 101.864C139.215 102.134 139.452 102.364 139.726 102.542C140 102.72 140.306 102.842 140.628 102.902C140.78 102.931 140.934 102.944 141.084 102.944C141.664 102.943 142.226 102.739 142.673 102.368C143.119 101.996 143.421 101.48 143.527 100.909C144.216 97.2 144.613 93.3997 144.716 89.5947L152.354 84.5362C154.923 82.8343 156.677 80.2331 157.29 77.2131C157.904 74.1918 157.305 71.1131 155.603 68.5437ZM100.222 26.2374L92.621 31.2718L91.1241 27.2399C90.4991 25.5578 89.7828 23.9087 88.9894 22.2949C92.8435 23.2721 96.6026 24.5915 100.222 26.2374ZM21.4419 43.4853C31.541 31.8434 45.2969 24.0174 60.3456 21.304C62.7603 27.1537 63.3391 33.6893 61.896 39.9184L55.8303 66.1234C54.8734 65.0982 53.62 64.3979 52.2453 64.1203C51.3723 63.9396 50.4721 63.9341 49.597 64.1042C48.7219 64.2744 47.8893 64.6166 47.1475 65.1112L29.9663 76.4884L29.9638 76.4897L29.9625 76.4909L5.18188 92.9C5.04527 91.1467 4.97647 89.3888 4.97563 87.6303C4.97563 71.4046 10.8244 55.7265 21.4419 43.4853ZM86.1894 121.748C86.1424 121.982 86.0496 122.204 85.9163 122.401C85.783 122.599 85.6119 122.768 85.4128 122.898H85.4141L70.6388 132.682L43.2156 91.785C42.8482 91.237 42.2781 90.8575 41.6308 90.7298C40.9835 90.6022 40.312 90.7369 39.7641 91.1043C39.2161 91.4718 38.8366 92.0419 38.7089 92.6892C38.5813 93.3364 38.716 94.0079 39.0835 94.5559L66.4897 135.43L45.3972 149.399C24.4378 140.231 9.43875 120.871 5.83282 98.3425L30.6422 81.9668L33.4975 86.2272C33.7253 86.5668 34.0333 86.845 34.3942 87.0373C34.7552 87.2295 35.1579 87.3298 35.5669 87.3293C36.0175 87.3288 36.4596 87.206 36.8458 86.9738C37.2321 86.7417 37.548 86.409 37.76 86.0113C37.9719 85.6136 38.0718 85.1658 38.0491 84.7158C38.0264 84.2657 37.8819 83.8302 37.631 83.4559L34.7953 79.2262L49.8953 69.2593C50.0928 69.1275 50.3145 69.0362 50.5476 68.991C50.7806 68.9457 51.0204 68.9472 51.2528 68.9956C51.4862 69.0426 51.7079 69.1352 51.9052 69.2682C52.1026 69.4012 52.2717 69.572 52.4028 69.7706L85.925 120.391C86.0566 120.588 86.1477 120.81 86.193 121.043C86.2383 121.276 86.2375 121.516 86.1894 121.748ZM152.415 76.2218C152.245 77.0676 151.91 77.8713 151.428 78.5865C150.946 79.3016 150.326 79.914 149.606 80.3881L140.874 86.1706C140.872 86.1718 140.869 86.1743 140.866 86.1756L109.7 106.815C107.376 108.358 104.556 108.967 101.803 108.522C97.8172 107.878 93.7351 108.761 90.371 110.993L87.1032 113.158L59.6472 71.699L66.7444 41.0412C68.5719 33.1434 67.6088 24.824 64.1272 17.5768C64.0959 17.5015 64.0609 17.4277 64.0222 17.3559C63.3507 15.9809 62.5902 14.6512 61.7456 13.3753C60.0953 10.8824 60.78 7.51213 63.2738 5.86056C65.381 4.46525 68.2275 4.729 70.0416 6.48806L74.7938 11.0949C79.9344 16.0793 83.9688 22.2606 86.4588 28.9721L89.0466 35.9437L89.0613 35.9803L89.081 36.029C89.0991 36.0718 89.1163 36.1109 89.1344 36.1437C89.1844 36.2487 89.2394 36.3524 89.3054 36.4515C89.4856 36.724 89.7178 36.9583 89.9886 37.141C90.2595 37.3238 90.5637 37.4513 90.8839 37.5164C91.2041 37.5814 91.5339 37.5828 91.8546 37.5203C92.1753 37.4578 92.4805 37.3327 92.7528 37.1521L119.287 19.5812C122.305 17.5831 126.386 18.4118 128.384 21.4293C130.383 24.4468 129.553 28.5278 126.536 30.5262L124.232 32.0518L124.23 32.0531L119.092 35.4562C119.084 35.4615 119.079 35.4662 119.072 35.4699C119.043 35.4906 119.015 35.5103 118.992 35.5296C117.93 36.3096 117.655 37.7928 118.391 38.9037C118.572 39.1762 118.804 39.4106 119.075 39.5933C119.346 39.776 119.65 39.9036 119.97 39.9686C120.291 40.0337 120.621 40.035 120.941 39.9725C121.262 39.91 121.567 39.7849 121.84 39.6043L126.981 36.1987C127.699 35.7215 128.504 35.3913 129.35 35.227C130.195 35.0627 131.065 35.0676 131.909 35.2415C132.755 35.4109 133.558 35.7464 134.273 36.2286C134.988 36.7108 135.6 37.3301 136.074 38.0506C136.552 38.768 136.884 39.5732 137.048 40.4195C137.213 41.2658 137.209 42.1364 137.035 42.9809C136.866 43.8266 136.53 44.6304 136.048 45.3455C135.566 46.0607 134.947 46.673 134.226 47.1471L126.782 52.0775C126.51 52.2576 126.275 52.4898 126.093 52.7607C125.91 53.0315 125.782 53.3357 125.717 53.6559C125.652 53.9761 125.651 54.306 125.713 54.6267C125.776 54.9474 125.901 55.2527 126.082 55.525C126.262 55.7975 126.494 56.0319 126.765 56.2146C127.036 56.3974 127.34 56.525 127.66 56.59C127.98 56.6551 128.31 56.6564 128.631 56.5939C128.951 56.5313 129.257 56.4062 129.529 56.2256L130.681 55.4625L134.668 52.8221C137.687 50.824 141.766 51.6528 143.765 54.6703C145.763 57.689 144.934 61.7687 141.917 63.7684L138.198 66.2303C138.179 66.2428 138.159 66.2562 138.14 66.2693L134.473 68.6975C134.2 68.8778 133.966 69.1101 133.783 69.381C133.6 69.6519 133.473 69.9562 133.408 70.2765C133.343 70.5967 133.341 70.9267 133.404 71.2475C133.466 71.5682 133.591 71.8735 133.772 72.1459C133.952 72.4185 134.184 72.6529 134.455 72.8357C134.726 73.0185 135.03 73.1461 135.35 73.2111C135.671 73.2762 136.001 73.2775 136.321 73.2149C136.642 73.1524 136.947 73.0272 137.219 72.8465L138.372 72.0837L138.373 72.0825L142.36 69.4434C143.077 68.9651 143.882 68.634 144.729 68.4693C145.575 68.3046 146.446 68.3096 147.29 68.484C149.009 68.8318 150.488 69.8303 151.456 71.2915C151.934 72.0092 152.265 72.8145 152.429 73.6608C152.594 74.507 152.589 75.3775 152.415 76.2218Z" fill="#1CA6DA"/>
</svg>
