<svg width="59" height="65" viewBox="0 0 59 65" fill="none" xmlns="http://www.w3.org/2000/svg">
<path d="M29.5138 49.4117L27.9837 48.6006C25.6375 47.2825 23.4954 45.6602 21.5573 43.7337C19.6192 41.8072 17.9871 39.4752 16.559 36.9404C15.1309 34.2028 13.9068 31.2624 13.0908 28.0178C12.2747 24.8746 11.8667 21.4272 11.7647 17.8785V16.0534L13.3968 15.1408C14.6209 14.4311 16.661 13.4172 19.3132 12.5046C22.6794 11.3893 26.1476 10.8823 29.5138 10.8823C32.982 10.8823 36.3482 11.3893 39.6124 12.5046C42.2645 13.4172 44.3047 14.4311 45.5287 15.1408L47.1608 16.0534V17.8785C47.0588 21.4272 46.6508 24.7732 45.8348 28.0178C45.0187 31.2624 43.8966 34.3042 42.3665 36.9404C40.9385 39.4752 39.3064 41.7059 37.3682 43.7337C35.4301 45.6602 33.288 47.3839 30.9419 48.6006L29.5138 49.4117ZM13.9068 17.1687V17.7771C14.0088 21.123 14.4169 24.3676 15.1309 27.4094C15.845 30.4512 16.967 33.2902 18.3951 35.825C19.7212 38.1571 21.2513 40.2863 22.9854 42.1114C24.7195 43.9365 26.7596 45.4574 28.9017 46.6741L29.4118 46.9783L29.9218 46.6741C32.0639 45.4574 34.1041 43.9365 35.8382 42.1114C37.5723 40.2863 39.2044 38.1571 40.4284 35.825C41.8565 33.2902 42.8766 30.4512 43.6926 27.4094C44.4067 24.3676 44.8147 21.123 44.9167 17.7771V17.1687L44.3047 16.8645C43.1826 16.1548 41.2445 15.2422 38.7963 14.4311C35.7361 13.4172 32.472 12.9102 29.3098 12.9102C26.3516 12.9102 23.0874 13.4172 20.0272 14.4311C17.4771 15.2422 15.6409 16.2562 14.5189 16.8645L13.9068 17.1687Z" fill="#0097D8"/>
<path d="M29.4795 55.8822L27.4453 54.8357C24.3261 53.1353 21.4782 51.0424 18.9015 48.5571C16.3248 46.0718 14.1549 43.0633 12.2563 39.7931C10.3577 36.2614 8.73026 32.4681 7.64533 28.2823C6.56041 24.2274 6.01794 19.78 5.88232 15.2018V12.8473L8.05218 11.6701C9.67958 10.7544 12.3919 9.44639 15.9179 8.26915C20.3933 6.83029 25.0042 6.17627 29.4795 6.17627C34.0905 6.17627 38.5658 6.83029 42.9056 8.26915C46.4316 9.44639 49.1439 10.7544 50.7713 11.6701L52.9411 12.8473V15.2018C52.8055 19.78 52.2631 24.0965 51.1781 28.2823C50.0932 32.4681 48.6014 36.3922 46.5672 39.7931C44.6686 43.0633 42.4987 45.941 39.922 48.5571C37.3453 51.0424 34.4973 53.2661 31.3782 54.8357L29.4795 55.8822ZM8.73026 14.2862V15.071C8.86588 19.3876 9.40835 23.5733 10.3577 27.4975C11.307 31.4216 12.7988 35.0842 14.6974 38.3543C16.4604 41.3628 18.4946 44.1097 20.8001 46.4642C23.1056 48.8187 25.8179 50.7808 28.6658 52.3504L29.3439 52.7428L30.022 52.3504C32.87 50.7808 35.5823 48.8187 37.8878 46.4642C40.1932 44.1097 42.3631 41.3628 43.9905 38.3543C45.8891 35.0842 47.2453 31.4216 48.3302 27.4975C49.2795 23.5733 49.822 19.3876 49.9576 15.071V14.2862L49.1439 13.8938C47.6521 12.9781 45.0754 11.8009 41.8206 10.7544C37.7521 9.44639 33.4124 8.79237 29.2083 8.79237C25.2754 8.79237 20.9357 9.44639 16.8672 10.7544C13.4768 11.8009 11.0357 13.1089 9.54396 13.8938L8.73026 14.2862Z" fill="#0097D8" fill-opacity="0.4"/>
<path d="M29.4795 55.8822L27.4453 54.8357C24.3261 53.1353 21.4782 51.0424 18.9015 48.5571C16.3248 46.0718 14.1549 43.0633 12.2563 39.7931C10.3577 36.2614 8.73026 32.4681 7.64533 28.2823C6.56041 24.2274 6.01794 19.78 5.88232 15.2018V12.8473L8.05218 11.6701C9.67958 10.7544 12.3919 9.44639 15.9179 8.26915C20.3933 6.83029 25.0042 6.17627 29.4795 6.17627C34.0905 6.17627 38.5658 6.83029 42.9056 8.26915C46.4316 9.44639 49.1439 10.7544 50.7713 11.6701L52.9411 12.8473V15.2018C52.8055 19.78 52.2631 24.0965 51.1781 28.2823C50.0932 32.4681 48.6014 36.3922 46.5672 39.7931C44.6686 43.0633 42.4987 45.941 39.922 48.5571C37.3453 51.0424 34.4973 53.2661 31.3782 54.8357L29.4795 55.8822ZM8.73026 14.2862V15.071C8.86588 19.3876 9.40835 23.5733 10.3577 27.4975C11.307 31.4216 12.7988 35.0842 14.6974 38.3543C16.4604 41.3628 18.4946 44.1097 20.8001 46.4642C23.1056 48.8187 25.8179 50.7808 28.6658 52.3504L29.3439 52.7428L30.022 52.3504C32.87 50.7808 35.5823 48.8187 37.8878 46.4642C40.1932 44.1097 42.3631 41.3628 43.9905 38.3543C45.8891 35.0842 47.2453 31.4216 48.3302 27.4975C49.2795 23.5733 49.822 19.3876 49.9576 15.071V14.2862L49.1439 13.8938C47.6521 12.9781 45.0754 11.8009 41.8206 10.7544C37.7521 9.44639 33.4124 8.79237 29.2083 8.79237C25.2754 8.79237 20.9357 9.44639 16.8672 10.7544C13.4768 11.8009 11.0357 13.1089 9.54396 13.8938L8.73026 14.2862Z" fill="#0097D8" fill-opacity="0.4"/>
<path d="M29.4965 65L26.9537 63.6316C23.0548 61.4079 19.4948 58.6711 16.2739 55.4211C13.0531 52.1711 10.3407 48.2368 7.96745 43.9605C5.59417 39.3421 3.55993 34.3816 2.20376 28.9079C0.847601 23.6053 0.16952 17.7895 0 11.8026V8.72368L2.71232 7.18421C4.74657 5.98684 8.13697 4.27632 12.5445 2.73684C18.1387 0.855263 23.9024 0 29.4965 0C35.2602 0 40.8544 0.855263 46.279 2.73684C50.6866 4.27632 54.077 5.98684 56.1112 7.18421L58.8235 8.72368V11.8026C58.654 17.7895 57.9759 23.4342 56.6198 28.9079C55.2636 34.3816 53.3989 39.5132 50.8561 43.9605C48.4828 48.2368 45.7705 52 42.5496 55.4211C39.3287 58.6711 35.7688 61.579 31.8698 63.6316L29.4965 65ZM3.55993 10.6053V11.6316C3.72945 17.2763 4.40753 22.75 5.59417 27.8816C6.78081 33.0132 8.64553 37.8026 11.0188 42.079C13.2226 46.0132 15.7654 49.6053 18.6472 52.6842C21.5291 55.7632 24.9195 58.329 28.4794 60.3816L29.327 60.8947L30.1746 60.3816C33.7345 58.329 37.1249 55.7632 40.0068 52.6842C42.8886 49.6053 45.601 46.0132 47.6352 42.079C50.0085 37.8026 51.7037 33.0132 53.0598 27.8816C54.2465 22.75 54.9246 17.2763 55.0941 11.6316V10.6053L54.077 10.0921C52.2122 8.89474 48.9914 7.35526 44.9229 5.98684C39.8373 4.27632 34.4126 3.42105 29.1575 3.42105C24.2414 3.42105 18.8167 4.27632 13.7311 5.98684C9.49314 7.35526 6.44177 9.06579 4.57705 10.0921L3.55993 10.6053Z" fill="#0097D8" fill-opacity="0.1"/>
<path d="M29.4965 65L26.9537 63.6316C23.0548 61.4079 19.4948 58.6711 16.2739 55.4211C13.0531 52.1711 10.3407 48.2368 7.96745 43.9605C5.59417 39.3421 3.55993 34.3816 2.20376 28.9079C0.847601 23.6053 0.16952 17.7895 0 11.8026V8.72368L2.71232 7.18421C4.74657 5.98684 8.13697 4.27632 12.5445 2.73684C18.1387 0.855263 23.9024 0 29.4965 0C35.2602 0 40.8544 0.855263 46.279 2.73684C50.6866 4.27632 54.077 5.98684 56.1112 7.18421L58.8235 8.72368V11.8026C58.654 17.7895 57.9759 23.4342 56.6198 28.9079C55.2636 34.3816 53.3989 39.5132 50.8561 43.9605C48.4828 48.2368 45.7705 52 42.5496 55.4211C39.3287 58.6711 35.7688 61.579 31.8698 63.6316L29.4965 65ZM3.55993 10.6053V11.6316C3.72945 17.2763 4.40753 22.75 5.59417 27.8816C6.78081 33.0132 8.64553 37.8026 11.0188 42.079C13.2226 46.0132 15.7654 49.6053 18.6472 52.6842C21.5291 55.7632 24.9195 58.329 28.4794 60.3816L29.327 60.8947L30.1746 60.3816C33.7345 58.329 37.1249 55.7632 40.0068 52.6842C42.8886 49.6053 45.601 46.0132 47.6352 42.079C50.0085 37.8026 51.7037 33.0132 53.0598 27.8816C54.2465 22.75 54.9246 17.2763 55.0941 11.6316V10.6053L54.077 10.0921C52.2122 8.89474 48.9914 7.35526 44.9229 5.98684C39.8373 4.27632 34.4126 3.42105 29.1575 3.42105C24.2414 3.42105 18.8167 4.27632 13.7311 5.98684C9.49314 7.35526 6.44177 9.06579 4.57705 10.0921L3.55993 10.6053Z" fill="#0097D8" fill-opacity="0.1"/>
</svg>
