<svg width="44" height="44" viewBox="0 0 44 44" fill="none" xmlns="http://www.w3.org/2000/svg">
<g clip-path="url(#clip0_412_466)">
<mask id="mask0_412_466" style="mask-type:luminance" maskUnits="userSpaceOnUse" x="0" y="0" width="44" height="44">
<path d="M44 0H0V44H44V0Z" fill="white"/>
</mask>
<g mask="url(#mask0_412_466)">
<path d="M37.107 14.6273C36.1496 11.4433 33.2303 9.10929 29.7344 9.10929C28.6704 9.11083 27.6184 9.33312 26.6448 9.7621C25.6712 10.1911 24.7971 10.8174 24.078 11.6015C23.4548 9.8968 22.2509 8.46623 20.6777 7.56109C19.1045 6.65595 17.2627 6.33412 15.4757 6.65215C13.6888 6.97018 12.0711 7.90773 10.9068 9.30008C9.74252 10.6924 9.10611 12.4505 9.10938 14.2655C4.83742 14.2655 1.28906 17.728 1.28906 21.9999C1.28906 25.4958 3.70906 28.4151 6.89305 29.3725C7.85039 32.5565 10.7697 34.8905 14.2656 34.8905C15.3296 34.8891 16.3817 34.6669 17.3553 34.2379C18.3289 33.8089 19.2029 33.1825 19.922 32.3983C20.5452 34.103 21.7491 35.5336 23.3223 36.4387C24.8955 37.3439 26.7373 37.6657 28.5243 37.3477C30.3112 37.0296 31.9289 36.0921 33.0932 34.6997C34.2575 33.3074 34.8939 31.5493 34.8906 29.7343C39.1626 29.7343 42.7109 26.2719 42.7109 21.9999C42.7109 18.504 40.2909 15.5847 37.107 14.6273Z" stroke="black" stroke-width="3" stroke-linecap="round" stroke-linejoin="round"/>
<path d="M42.7109 3.86719C42.7109 4.37709 42.5597 4.87555 42.2764 5.29952C41.9932 5.72349 41.5905 6.05393 41.1194 6.24906C40.6483 6.4442 40.13 6.49525 39.6298 6.39577C39.1297 6.2963 38.6704 6.05075 38.3098 5.6902C37.9492 5.32964 37.7037 4.87026 37.6042 4.37015C37.5047 3.87005 37.5558 3.35167 37.7509 2.88058C37.9461 2.40949 38.2765 2.00684 38.7005 1.72355C39.1245 1.44027 39.6229 1.28906 40.1328 1.28906C40.8166 1.28906 41.4723 1.56069 41.9558 2.04418C42.4393 2.52767 42.7109 3.18343 42.7109 3.86719Z" stroke="black" stroke-width="3" stroke-linecap="round" stroke-linejoin="round"/>
<path d="M6.44531 40.1328C6.44531 40.6427 6.29411 41.1412 6.01082 41.5651C5.72753 41.9891 5.32489 42.3196 4.85379 42.5147C4.3827 42.7098 3.86433 42.7609 3.36422 42.6614C2.86411 42.5619 2.40474 42.3164 2.04418 41.9558C1.68362 41.5953 1.43808 41.1359 1.3386 40.6358C1.23912 40.1357 1.29018 39.6173 1.48531 39.1462C1.68044 38.6751 2.01089 38.2725 2.43486 37.9892C2.85883 37.7059 3.35728 37.5547 3.86719 37.5547C4.55095 37.5547 5.20671 37.8263 5.6902 38.3098C6.17369 38.7933 6.44531 39.4491 6.44531 40.1328Z" stroke="black" stroke-width="3" stroke-linecap="round" stroke-linejoin="round"/>
<path d="M23.2891 22C23.2891 22.255 23.2135 22.5042 23.0718 22.7162C22.9302 22.9282 22.7289 23.0934 22.4933 23.1909C22.2578 23.2885 21.9986 23.314 21.7485 23.2643C21.4985 23.2146 21.2688 23.0918 21.0885 22.9115C20.9082 22.7312 20.7854 22.5015 20.7357 22.2515C20.686 22.0014 20.7115 21.7422 20.8091 21.5067C20.9066 21.2712 21.0719 21.0698 21.2838 20.9282C21.4958 20.7865 21.745 20.7109 22 20.7109C22.3419 20.7109 22.6698 20.8467 22.9115 21.0885C23.1533 21.3302 23.2891 21.6581 23.2891 22Z" fill="black"/>
<path d="M41.3359 34.8906C41.3359 35.1456 41.2603 35.3948 41.1187 35.6068C40.977 35.8188 40.7757 35.984 40.5402 36.0816C40.3046 36.1791 40.0454 36.2047 39.7954 36.1549C39.5453 36.1052 39.3157 35.9824 39.1354 35.8021C38.9551 35.6219 38.8323 35.3922 38.7826 35.1421C38.7328 34.8921 38.7584 34.6329 38.8559 34.3973C38.9535 34.1618 39.1187 33.9605 39.3307 33.8188C39.5427 33.6772 39.7919 33.6016 40.0469 33.6016C40.3888 33.6016 40.7166 33.7374 40.9584 33.9791C41.2001 34.2209 41.3359 34.5487 41.3359 34.8906Z" fill="black"/>
<path d="M5.24219 9.10938C5.24219 9.36433 5.16659 9.61355 5.02494 9.82554C4.8833 10.0375 4.68197 10.2027 4.44643 10.3003C4.21088 10.3979 3.9517 10.4234 3.70164 10.3737C3.45159 10.3239 3.2219 10.2012 3.04162 10.0209C2.86134 9.8406 2.73857 9.61091 2.68883 9.36086C2.63909 9.1108 2.66462 8.85162 2.76219 8.61607C2.85975 8.38053 3.02498 8.1792 3.23696 8.03756C3.44895 7.89591 3.69817 7.82031 3.95313 7.82031C4.29501 7.82031 4.62288 7.95612 4.86463 8.19787C5.10638 8.43962 5.24219 8.76749 5.24219 9.10938Z" fill="black"/>
<path d="M18.1328 16.8438C18.1328 17.0987 18.0572 17.3479 17.9156 17.5599C17.7739 17.7719 17.5726 17.9371 17.3371 18.0347C17.1015 18.1323 16.8423 18.1578 16.5923 18.108C16.3422 18.0583 16.1125 17.9355 15.9322 17.7553C15.752 17.575 15.6292 17.3453 15.5795 17.0952C15.5297 16.8452 15.5552 16.586 15.6528 16.3504C15.7504 16.1149 15.9156 15.9136 16.1276 15.7719C16.3396 15.6303 16.5888 15.5547 16.8438 15.5547C17.1856 15.5547 17.5135 15.6905 17.7553 15.9322C17.997 16.174 18.1328 16.5019 18.1328 16.8438Z" fill="black"/>
<path d="M28.4453 27.1562C28.4453 27.4112 28.3697 27.6604 28.2281 27.8724C28.0864 28.0844 27.8851 28.2496 27.6496 28.3472C27.414 28.4448 27.1548 28.4703 26.9048 28.4205C26.6547 28.3708 26.425 28.248 26.2447 28.0678C26.0645 27.8875 25.9417 27.6578 25.892 27.4077C25.8422 27.1577 25.8677 26.8985 25.9653 26.6629C26.0629 26.4274 26.2281 26.2261 26.4401 26.0844C26.6521 25.9428 26.9013 25.8672 27.1563 25.8672C27.4981 25.8672 27.826 26.003 28.0678 26.2447C28.3095 26.4865 28.4453 26.8144 28.4453 27.1562Z" fill="black"/>
<path d="M31.0234 16.8438C31.0234 17.0987 30.9478 17.3479 30.8062 17.5599C30.6645 17.7719 30.4632 17.9371 30.2277 18.0347C29.9921 18.1323 29.7329 18.1578 29.4829 18.108C29.2328 18.0583 29.0032 17.9355 28.8229 17.7553C28.6426 17.575 28.5198 17.3453 28.4701 17.0952C28.4203 16.8452 28.4459 16.586 28.5434 16.3504C28.641 16.1149 28.8062 15.9136 29.0182 15.7719C29.2302 15.6303 29.4794 15.5547 29.7344 15.5547C30.0763 15.5547 30.4041 15.6905 30.6459 15.9322C30.8876 16.174 31.0234 16.5019 31.0234 16.8438Z" fill="black"/>
<path d="M15.5547 27.1562C15.5547 27.4112 15.4791 27.6604 15.3374 27.8724C15.1958 28.0844 14.9945 28.2496 14.7589 28.3472C14.5234 28.4448 14.2642 28.4703 14.0141 28.4205C13.7641 28.3708 13.5344 28.248 13.3541 28.0678C13.1738 27.8875 13.0511 27.6578 13.0013 27.4077C12.9516 27.1577 12.9771 26.8985 13.0747 26.6629C13.1723 26.4274 13.3375 26.2261 13.5495 26.0844C13.7614 25.9428 14.0107 25.8672 14.2656 25.8672C14.6075 25.8672 14.9354 26.003 15.1771 26.2447C15.4189 26.4865 15.5547 26.8144 15.5547 27.1562Z" fill="black"/>
<path d="M10.3984 22C10.3984 22.255 10.3228 22.5042 10.1812 22.7162C10.0395 22.9282 9.83822 23.0934 9.60268 23.1909C9.36713 23.2885 9.10795 23.314 8.85789 23.2643C8.60784 23.2146 8.37815 23.0918 8.19787 22.9115C8.01759 22.7312 7.89482 22.5015 7.84508 22.2515C7.79534 22.0014 7.82087 21.7422 7.91844 21.5067C8.016 21.2712 8.18123 21.0698 8.39321 20.9282C8.6052 20.7865 8.85442 20.7109 9.10938 20.7109C9.45126 20.7109 9.77913 20.8467 10.0209 21.0885C10.2626 21.3302 10.3984 21.6581 10.3984 22Z" fill="black"/>
<path d="M36.1797 22C36.1797 22.255 36.1041 22.5042 35.9624 22.7162C35.8208 22.9282 35.6195 23.0934 35.3839 23.1909C35.1484 23.2885 34.8892 23.314 34.6391 23.2643C34.3891 23.2146 34.1594 23.0918 33.9791 22.9115C33.7988 22.7312 33.6761 22.5015 33.6263 22.2515C33.5766 22.0014 33.6021 21.7422 33.6997 21.5067C33.7973 21.2712 33.9625 21.0698 34.1745 20.9282C34.3864 20.7865 34.6357 20.7109 34.8906 20.7109C35.2325 20.7109 35.5604 20.8467 35.8021 21.0885C36.0439 21.3302 36.1797 21.6581 36.1797 22Z" fill="black"/>
<path d="M18.1328 40.0469C18.1328 40.3018 18.0572 40.5511 17.9156 40.763C17.7739 40.975 17.5726 41.1402 17.3371 41.2378C17.1015 41.3354 16.8423 41.3609 16.5923 41.3112C16.3422 41.2614 16.1125 41.1387 15.9322 40.9584C15.752 40.7781 15.6292 40.5484 15.5795 40.2984C15.5297 40.0483 15.5552 39.7891 15.6528 39.5536C15.7504 39.318 15.9156 39.1167 16.1276 38.9751C16.3396 38.8334 16.5888 38.7578 16.8438 38.7578C17.1856 38.7578 17.5135 38.8936 17.7553 39.1354C17.997 39.3771 18.1328 39.705 18.1328 40.0469Z" fill="black"/>
<path d="M25.8672 3.95312C25.8672 4.20808 25.7916 4.4573 25.6499 4.66929C25.5083 4.88127 25.307 5.0465 25.0714 5.14406C24.8359 5.24163 24.5767 5.26716 24.3266 5.21742C24.0766 5.16768 23.8469 5.04491 23.6666 4.86463C23.4863 4.68435 23.3636 4.45466 23.3138 4.20461C23.2641 3.95455 23.2896 3.69537 23.3872 3.45982C23.4848 3.22428 23.65 3.02295 23.862 2.88131C24.0739 2.73966 24.3232 2.66406 24.5781 2.66406C24.92 2.66406 25.2479 2.79987 25.4896 3.04162C25.7314 3.28337 25.8672 3.61124 25.8672 3.95312Z" fill="black"/>
</g>
</g>
<defs>
<clipPath id="clip0_412_466">
<rect width="44" height="44" fill="white"/>
</clipPath>
</defs>
</svg>
