<svg width="81" height="90" viewBox="0 0 81 90" fill="none" xmlns="http://www.w3.org/2000/svg">
<g clip-path="url(#clip0_412_358)">
<path d="M63.3 44.6001C63.3 44.1001 63.2 43.7001 62.9 43.5001C62.6 43.3001 62.2 43.1001 61.6 43.1001H59.5V46.2001H61C61.8 46.2001 62.4 46.1001 62.8 45.8001C63.1 45.6001 63.3 45.2001 63.3 44.6001Z" fill="white"/>
<path d="M81 10.6999C80.9 10.5999 80.9 10.5999 80.8 10.5999C80.6 10.4999 80.5 10.3999 80.3 10.2999C79.9 10.0999 79.6 9.89991 79.2 9.69991C78.3 9.19991 77.4 8.79991 76.5 8.29991C75.5 7.79991 74.5 7.39991 73.5 6.89991C72.4 6.39991 71.3 5.99991 70.2 5.49991C69.1 5.09991 67.9 4.59991 66.7 4.19991C65.5 3.79991 64.4 3.39991 63.2 3.09991C62.6 2.89991 62 2.69991 61.3 2.59991L61.2 2.49991L61.1 2.59991C60.6 2.49991 60.1 2.29991 59.6 2.19991C58.6 1.99991 57.6 1.69991 56.6 1.49991C55.5 1.29991 54.5 1.09991 53.4 0.899913C52.3 0.699913 51.2 0.599913 50.1 0.399913C48.9 0.299913 47.8 0.0999132 46.6 0.0999132C45.4 -8.68067e-05 44.2 -0.100087 43 -0.100087C41.8 -0.100087 40.5 -0.200087 39.3 -0.100087C38.1 -0.100087 36.9 -8.67993e-05 35.7 -8.67993e-05C34.5 0.0999132 33.4 0.199913 32.2 0.299913C31.1 0.399913 29.9 0.599913 28.8 0.699913C27.7 0.899913 26.6 0.999913 25.6 1.19991C24.6 1.39991 23.5 1.59991 22.5 1.79991C21.4 2.09991 20.3 2.29991 19.2 2.59991C18 2.89991 16.8 3.29991 15.7 3.59991C14.5 3.99991 13.4 4.39991 12.2 4.79991C11 5.49991 9.9 5.89991 8.8 6.39991C7.7 6.89991 6.6 7.39991 5.5 7.89991C4.5 8.39991 3.6 8.79991 2.6 9.29991C1.8 9.69991 1.1 10.0999 0.3 10.4999C0.2 10.4999 0.1 10.5999 0.1 10.5999C0.1 10.5999 0.1 10.5999 0 10.5999C0 10.6999 0 10.7999 0 10.8999C0 11.1999 0 11.4999 0 11.7999C0 12.3999 0 13.0999 0.1 13.6999C0.2 14.8999 0.2 16.1999 0.3 17.3999C0.4 18.6999 0.5 19.8999 0.6 21.1999C0.7 22.3999 0.9 23.6999 1 24.8999C1 25.0999 1.1 25.3999 1.1 25.5999V25.6999H1.2C1.3 26.6999 1.5 27.5999 1.6 28.5999C1.8 29.7999 2 30.8999 2.2 31.9999C2.4 33.0999 2.7 34.2999 2.9 35.3999C3.2 36.4999 3.4 37.5999 3.7 38.6999C4 39.7999 4.3 40.8999 4.6 41.9999C4.6 42.0999 4.6 42.0999 4.7 42.1999C5 43.1999 5.3 44.1999 5.7 45.1999C6 46.2999 6.4 47.2999 6.8 48.2999C7 48.8999 7.3 49.5999 7.5 50.1999C7.7 50.5999 7.8 50.9999 8 51.3999C8.4 52.3999 8.8 53.3999 9.3 54.3999C9.7 55.3999 10.2 56.3999 10.7 57.2999C11.2 58.2999 11.7 59.1999 12.2 60.0999C12.7 60.9999 13.2 61.9999 13.8 62.8999C14.3 63.7999 14.9 64.6999 15.5 65.5999C16.1 66.4999 16.6 67.2999 17.2 68.1999C17.8 68.9999 18.4 69.8999 19 70.6999C19.6 71.4999 20.3 72.2999 20.9 73.0999C21.5 73.8999 22.2 74.6999 22.9 75.3999C23.6 76.0999 24.3 76.8999 25 77.5999C25.7 78.2999 26.4 78.9999 27.1 79.6999C27.8 80.3999 28.6 80.9999 29.3 81.6999C30 82.2999 30.8 82.9999 31.6 83.5999C32.4 84.1999 33.2 84.7999 33.9 85.3999C34.7 85.9999 35.5 86.4999 36.3 86.9999C37.1 87.4999 37.9 87.9999 38.8 88.4999C39.2 88.6999 39.6 88.9999 40.1 89.1999C40.2 89.2999 40.3 89.2999 40.4 89.3999C40.4 89.3999 40.4 89.3999 40.5 89.3999C40.5 89.3999 40.5 89.3999 40.6 89.3999C40.7 89.3999 40.7 89.2999 40.8 89.2999C41 89.1999 41.2 89.0999 41.4 88.8999C42.2 88.3999 43.1 87.8999 43.9 87.3999C44.7 86.8999 45.5 86.2999 46.3 85.7999C47.1 85.1999 47.9 84.6999 48.7 84.0999C49.5 83.4999 50.2 82.8999 51 82.2999C51.8 81.6999 52.5 80.9999 53.2 80.2999C53.9 79.5999 54.7 78.8999 55.4 78.1999C56.1 77.4999 56.8 76.7999 57.5 75.9999C58.2 75.2999 58.9 74.4999 59.5 73.6999C60.2 72.8999 60.8 72.0999 61.4 71.2999C62 70.4999 62.7 69.6999 63.3 68.7999C63.9 67.9999 64.5 67.0999 65.1 66.1999C65.7 65.2999 66.2 64.3999 66.8 63.4999C67.4 62.5999 67.9 61.6999 68.4 60.6999C68.9 59.7999 69.4 58.7999 69.9 57.8999C70.4 56.8999 70.9 55.9999 71.3 54.9999C71.8 53.9999 72.2 52.9999 72.6 51.9999C72.9 51.3999 73.1 50.6999 73.4 50.0999C73.5 49.6999 73.7 49.3999 73.8 48.9999C74.2 47.9999 74.6 46.8999 74.9 45.8999C75.3 44.7999 75.6 43.7999 75.9 42.6999C76.2 41.5999 76.5 40.4999 76.8 39.4999C76.9 39.1999 77 38.8999 77.1 38.4999C77.3 37.6999 77.5 36.8999 77.7 36.0999C78 34.9999 78.2 33.7999 78.5 32.6999C78.7 31.5999 79 30.3999 79.2 29.2999C79.4 28.0999 79.6 26.8999 79.8 25.6999C80 24.4999 80.1 23.1999 80.3 21.9999C80.4 20.6999 80.6 19.4999 80.7 18.1999C80.8 16.9999 80.9 15.6999 81 14.4999C81.1 13.1999 81.1 11.9999 81.2 10.6999C81 11.0999 81 10.9999 81 10.6999ZM77.4 12.1999C77.5 12.2999 77.6 12.2999 77.7 12.3999C77.8 12.3999 77.8 12.4999 77.9 12.4999C77.9 12.4999 77.9 12.4999 77.9 12.5999V12.6999C77.9 12.9999 77.9 13.1999 77.9 13.4999C77.9 14.0999 77.8 14.5999 77.8 15.1999L75.2 11.0999C75.5 11.1999 75.8 11.3999 76 11.4999C76.5 11.6999 77 11.8999 77.4 12.1999ZM70.5 8.89991C71.5 9.29991 72.4 9.69991 73.4 10.0999L77.8 16.9999C77.7 17.8999 77.7 18.7999 77.6 19.6999C77.6 20.1999 77.5 20.6999 77.5 21.1999L70.1 8.79991C70.2 8.79991 70.3 8.89991 70.5 8.89991ZM76.6 27.0999L66.1 7.29991C66.6 7.49991 67.1 7.59991 67.5 7.79991C67.8 7.89991 68.1 7.99991 68.3 8.09991L77 23.0999C76.9 24.0999 76.7 25.0999 76.6 26.0999C76.7 26.3999 76.6 26.6999 76.6 27.0999ZM55.2 4.39991C55.6 4.49991 56 4.49991 56.3 4.59991L69.1 38.9999H66.1L64.6 34.1999V32.3999V31.5999V31.0999L64.4 30.6999L62.3 26.7999L55.2 4.39991C55.1 4.39991 55.1 4.39991 55.2 4.39991ZM58.3 42.2999H61.6C62.5 42.2999 63.3 42.4999 63.8 42.8999C64.3 43.2999 64.6 43.8999 64.6 44.6999C64.6 45.4999 64.3 46.0999 63.8 46.4999C63.3 46.8999 62.5 47.0999 61.4 47.0999H58.4V42.2999H58.3ZM57.7 38.9999L56.7 34.2999H59.5L60.7 38.9999H57.7ZM61.9 38.9999L60.7 34.2999H62.7H63.4L64.9 38.9999H61.9ZM53.8 4.19991L59.3 21.5999L55.3 14.3999L52.6 3.99991C53 3.99991 53.4 4.09991 53.8 4.19991ZM51.4 3.79991L53.1 10.1999L52.4 8.89991L51.9 7.89991H51.2L50.3 3.69991C50.6 3.69991 51 3.69991 51.4 3.79991ZM48.8 3.39991C48.9 3.39991 49 3.39991 49 3.39991L49.9 7.69991H48.5L47.8 3.29991C48.2 3.39991 48.5 3.39991 48.8 3.39991ZM45.5 3.19991C45.9 3.19991 46.3 3.29991 46.6 3.29991L47.3 7.89991H46.5L46 8.79991L45.5 3.19991ZM44.4 3.09991L45.2 10.3999L43.8 12.9999L43.3 3.09991C43.6 3.09991 44 3.09991 44.4 3.09991ZM40.9 2.99991C41.3 2.99991 41.7 2.99991 42 2.99991L42.6 14.8999L40.8 18.0999V2.99991H40.9ZM40.4 29.9999V28.0999V23.3999V22.9999L47.7 9.69991H50.6L62.6 31.4999V32.2999H56L54.4 29.4999H44L42.4 32.2999H38.1V29.9999H38.5H40.4ZM50.3 42.2999H51.5V46.2999H55.3V47.1999H50.3V42.2999ZM49.3 38.9999L48.5 31.4999H51.1L52.3 38.9999H49.3ZM53.5 38.9999L52.3 31.4999H53.3L54.3 33.2999L54.8 34.2999H55.4L56.4 38.9999H53.5ZM41.7 42.2999H46.9V43.1999H42.9V44.2999H45.2V45.0999H42.9V46.2999H47V47.1999H41.7V42.2999ZM40.9 38.9999V34.2999H42.4H43.5L43.7 33.9999L44 38.9999H40.9ZM44.5 38.9999H45.1L44.7 32.1999L45.1 31.5999H47.4L48.2 39.0999H44.5V38.9999ZM36.8 38.9999L37 34.2999H38.1H39.7V38.9999H36.8ZM37.9 42.2999V47.1999H36.7V42.2999H37.9ZM38.2 12.5999L38.7 2.99991C38.8 2.99991 39 2.99991 39.1 2.99991C39.3 2.99991 39.6 2.99991 39.8 2.99991V20.1999L39.1 21.4999H38.6H38.2V12.5999ZM36.4 3.09991C36.8 3.09991 37.2 3.09991 37.5 2.99991L37.2 7.99991H36.2H35.8L36.4 3.09991ZM36.2 9.99991V23.3999H38H38.5C38.5 24.3999 38.5 25.4999 38.5 26.4999C38.5 26.9999 38.5 27.5999 38.5 28.0999H37.6H36.2V30.6999V32.3999H35.7C35.1 32.3999 34.4 32.3999 33.8 32.3999C32.5 32.3999 31.2 32.3999 29.9 32.3999V28.1999H18.4V25.6999L28.9 9.99991H36.2ZM28 45.0999V47.1999H26.8V42.2999H28V44.1999H31.7V42.2999H32.9V47.1999H31.7V45.0999H28ZM17.5 29.9999L14.7 38.9999H11.7L16.4 26.1999V28.0999V29.9999H17.5ZM18.7 29.9999H21.2L18.9 38.9999H15.9L18.7 29.9999ZM17.3 45.8999L18.4 45.6999V46.2999H22V45.1999H18.8C18.3 45.1999 18 45.0999 17.8 44.9999C17.6 44.7999 17.5 44.4999 17.5 44.0999V43.5999C17.5 43.1999 17.6 42.8999 17.8 42.6999C18 42.4999 18.3 42.4999 18.8 42.4999H21.7C22.2 42.4999 22.5 42.5999 22.7 42.6999C22.9 42.8999 23 43.0999 23 43.4999V43.5999L22 43.7999V43.2999H18.6V44.2999H21.8C22.3 44.2999 22.6 44.3999 22.8 44.4999C23 44.6999 23.1 44.9999 23.1 45.3999V45.9999C23.1 46.3999 23 46.6999 22.8 46.8999C22.6 47.0999 22.3 47.0999 21.8 47.0999H18.6C18.1 47.0999 17.7 46.9999 17.6 46.8999C17.4 46.6999 17.3 46.3999 17.3 45.9999V45.8999ZM20.1 38.9999L22.5 30.0999H25L23.1 38.9999H20.1ZM26.1 29.9999H28V32.2999V34.0999L27.3 38.9999H24.3L26.1 29.9999ZM28.4 38.9999L29.1 34.2999H29.9H31.9L31.4 38.9999H28.4ZM32.6 38.9999L33.1 34.2999H33.9H35.8H35.9L35.6 38.9999H32.6ZM34.1 3.29991C34.5 3.29991 34.9 3.19991 35.2 3.19991L34.7 8.09991H33.3L34.1 3.29991ZM31.7 3.49991C32 3.49991 32.3 3.39991 32.6 3.39991C32.7 3.39991 32.8 3.39991 32.9 3.39991L32.2 8.09991H30.8L31.7 3.49991ZM29.4 3.79991C29.8 3.69991 30.2 3.69991 30.6 3.59991L29.7 7.99991H29.1H28.4L29.4 3.79991ZM26.9 4.19991C27.3 4.09991 27.7 4.09991 28.1 3.99991L26.4 10.2999L23.6 14.3999L26.9 4.19991ZM25.6 4.39991L21.4 17.5999L17.3 23.5999L24.3 4.59991C24.8 4.59991 25.2 4.49991 25.6 4.39991ZM5.3 32.0999C5.1 31.0999 4.9 30.0999 4.7 29.0999C4.7 28.8999 4.6 28.6999 4.6 28.5999L16.2 6.89991C16.4 6.79991 16.7 6.79991 16.9 6.69991C17.1 6.59991 17.4 6.59991 17.6 6.49991L5.3 32.0999ZM4.3 25.9999C4.2 25.0999 4.1 24.2999 4 23.3999L13 7.99991C13.3 7.89991 13.6 7.79991 14 7.59991C14.3 7.49991 14.5 7.39991 14.8 7.29991L4.4 26.6999C4.3 26.3999 4.3 26.1999 4.3 25.9999ZM3.1 12.4999C3.2 12.3999 3.2 12.3999 3.3 12.3999C3.5 12.2999 3.7 12.1999 4 11.9999C4.5 11.7999 4.9 11.4999 5.4 11.2999C6 10.9999 6.5 10.7999 7.1 10.4999L3.4 16.2999C3.3 15.1999 3.3 14.0999 3.2 13.0999C3.2 12.9999 3.2 12.7999 3.2 12.6999C3.1 12.5999 3.1 12.5999 3.1 12.4999ZM3.5 19.4999C3.5 19.0999 3.4 18.5999 3.4 18.1999L8.9 9.59991C9.6 9.29991 10.3 8.99991 11 8.69991C11.1 8.69991 11.2 8.59991 11.2 8.59991L3.7 21.4999C3.6 20.7999 3.6 20.1999 3.5 19.4999ZM5.7 33.9999L19.1 5.99991C19.4 5.89991 19.7 5.79991 20 5.79991C20.1 5.79991 20.3 5.69991 20.4 5.69991L6.6 37.6999C6.4 36.8999 6.2 36.0999 6 35.2999C5.9 34.7999 5.8 34.3999 5.7 33.9999ZM10.5 38.9999H7.3L21.8 5.29991C22.2 5.19991 22.6 5.09991 23.1 4.99991L10.5 38.9999ZM10.8 50.3999H13.3H13.2C13.1 50.6999 12.9 50.8999 12.7 51.1999L11.7 52.1999C11.3 51.5999 11.1 50.9999 10.8 50.3999ZM18.6 65.0999C18.1 64.2999 17.5 63.4999 17 62.5999C16.5 61.7999 16 60.8999 15.5 59.9999C15 59.1999 14.6 58.2999 14.1 57.3999C13.7 56.5999 13.2 55.6999 12.8 54.7999C12.5 54.1999 12.2 53.4999 11.9 52.8999L13.2 51.5999C13.6 51.1999 13.9 50.6999 14 50.1999H17.1C17 50.4999 16.8 50.6999 16.6 50.9999L15.2 52.3999C13.8 53.7999 13.8 55.9999 15.2 57.2999L15.9 57.9999C16.8 58.8999 16.9 60.2999 16.2 61.2999C16.4 61.5999 16.5 61.7999 16.7 62.0999C17.2 61.4999 17.5 60.6999 17.5 59.8999C17.5 58.9999 17.1 58.0999 16.5 57.3999L15.8 56.6999C14.8 55.6999 14.8 53.9999 15.8 52.9999L17.2 51.5999C17.6 51.1999 17.9 50.6999 18 50.1999H21.1C21 50.4999 20.8 50.6999 20.6 50.8999L19.2 52.2999C17.8 53.6999 17.8 55.8999 19.2 57.1999L19.9 57.8999C20.9 58.8999 20.9 60.5999 19.9 61.5999L19.8 61.6999C19.1 62.3999 18.8 63.1999 18.8 64.1999C18.8 64.7999 19 65.3999 19.2 65.8999C19 65.7999 18.8 65.4999 18.6 65.0999ZM20.3 67.4999C20.1 67.1999 19.9 66.8999 19.7 66.5999C19.8 66.6999 19.8 66.6999 19.9 66.7999C20.2 67.0999 20.3 67.2999 20.5 67.6999C20.7 67.8999 20.8 68.1999 21 68.3999C20.7 68.0999 20.5 67.7999 20.3 67.4999ZM27.7 76.2999C27 75.5999 26.3 74.8999 25.7 74.1999C25.1 73.4999 24.4 72.7999 23.8 72.0999C23.9 71.7999 24.1 71.5999 24.3 71.2999L24.4 71.1999C25.1 70.4999 25.4 69.6999 25.4 68.6999C25.4 67.7999 25 66.8999 24.4 66.1999C23.4 65.1999 23.4 63.4999 24.4 62.4999L24.5 62.3999C25.2 61.6999 25.5 60.8999 25.5 59.8999C25.5 58.9999 25.1 58.0999 24.5 57.3999L23.8 56.6999C22.8 55.6999 22.8 53.9999 23.8 52.9999L25.2 51.5999C25.6 51.1999 25.9 50.7999 26 50.2999H25.1C25 50.5999 24.8 50.7999 24.6 50.9999L23.2 52.3999C21.8 53.7999 21.8 55.9999 23.2 57.2999L23.9 57.9999C24.9 58.9999 24.9 60.6999 23.9 61.6999L23.8 61.7999C23.1 62.4999 22.8 63.2999 22.8 64.2999C22.8 65.1999 23.2 66.0999 23.8 66.7999C24.3 67.2999 24.6 67.9999 24.6 68.6999C24.6 69.3999 24.3 70.0999 23.8 70.5999L23.7 70.6999C23.5 70.8999 23.3 71.0999 23.2 71.3999C22.8 70.8999 22.4 70.3999 22 69.8999C21.8 69.5999 21.6 69.3999 21.4 69.0999C21.4 68.9999 21.4 68.7999 21.4 68.6999C21.4 67.7999 21 66.8999 20.4 66.1999C19.4 65.1999 19.4 63.4999 20.4 62.4999L20.5 62.3999C21.2 61.6999 21.5 60.8999 21.5 59.8999C21.5 58.9999 21.1 58.0999 20.5 57.3999L19.8 56.6999C18.8 55.6999 18.8 53.9999 19.8 52.9999L21.2 51.5999C21.6 51.1999 21.9 50.6999 22 50.1999H29.1C29 50.4999 28.8 50.6999 28.6 50.8999L27.2 52.2999C25.8 53.6999 25.8 55.8999 27.2 57.1999L27.9 57.8999C28.9 58.8999 28.9 60.5999 27.9 61.5999L27.8 61.6999C27.1 62.3999 26.8 63.1999 26.8 64.1999C26.8 65.0999 27.2 65.9999 27.8 66.6999C28.3 67.1999 28.6 67.8999 28.6 68.5999C28.6 69.2999 28.3 69.9999 27.8 70.4999L27.7 70.5999C27 71.2999 26.7 72.0999 26.7 73.0999C26.7 73.9999 27.1 74.8999 27.7 75.5999L28.1 75.9999C28.5 76.3999 28.7 76.8999 28.8 77.3999C28.4 76.9999 28.1 76.5999 27.7 76.2999ZM32 79.6999C31.9 79.7999 31.8 79.8999 31.8 79.9999C31.2 79.4999 30.5 78.8999 29.9 78.2999C29.8 78.1999 29.8 78.1999 29.7 78.0999C29.8 77.0999 29.5 76.0999 28.7 75.2999L28.3 74.9999C27.3 73.9999 27.3 72.2999 28.3 71.2999L28.4 71.1999C29.1 70.4999 29.4 69.6999 29.4 68.6999C29.4 67.7999 29 66.8999 28.4 66.1999C27.4 65.1999 27.4 63.4999 28.4 62.4999L28.5 62.3999C29.2 61.6999 29.5 60.8999 29.5 59.8999C29.5 58.9999 29.1 58.0999 28.5 57.3999L27.8 56.6999C26.8 55.6999 26.8 53.9999 27.8 52.9999L29.2 51.5999C29.6 51.1999 29.9 50.7999 30 50.2999H29.3H33.6H33C32.9 50.5999 32.7 50.7999 32.5 50.9999L31.1 52.3999C29.7 53.7999 29.7 55.9999 31.1 57.2999L31.8 57.9999C32.8 58.9999 32.8 60.6999 31.8 61.6999L31.7 61.7999C31 62.4999 30.7 63.2999 30.7 64.2999C30.7 65.1999 31.1 66.0999 31.7 66.7999C32.2 67.2999 32.5 67.9999 32.5 68.6999C32.5 69.3999 32.2 70.0999 31.7 70.5999L31.6 70.6999C30.9 71.3999 30.6 72.1999 30.6 73.1999C30.6 74.0999 31 74.9999 31.6 75.6999L32 76.0999C33.1 76.9999 33.1 78.5999 32 79.6999ZM34.4 82.0999C33.6 81.4999 32.8 80.8999 32.1 80.2999C32.2 80.3999 32.3 80.4999 32.4 80.5999C32.5 80.4999 32.5 80.4999 32.6 80.3999L32.7 80.2999C34.1 78.8999 34.1 76.6999 32.7 75.3999L32.3 74.9999C31.3 73.9999 31.3 72.2999 32.3 71.2999L32.4 71.1999C33.1 70.4999 33.4 69.6999 33.4 68.6999C33.4 67.7999 33 66.8999 32.4 66.1999C31.4 65.1999 31.4 63.4999 32.4 62.4999L32.5 62.3999C33.2 61.6999 33.5 60.8999 33.5 59.8999C33.5 58.9999 33.1 58.0999 32.5 57.3999L31.8 56.6999C30.8 55.6999 30.8 53.9999 31.8 52.9999L33.2 51.5999C33.6 51.1999 33.9 50.7999 34 50.2999H37.1C37 50.5999 36.8 50.7999 36.6 50.9999L35.2 52.3999C33.8 53.7999 33.8 55.9999 35.2 57.2999L35.9 57.9999C36.9 58.9999 36.9 60.6999 35.9 61.6999L35.8 61.7999C35.1 62.4999 34.8 63.2999 34.8 64.2999C34.8 65.1999 35.2 66.0999 35.8 66.7999C36.3 67.2999 36.6 67.9999 36.6 68.6999C36.6 69.3999 36.3 70.0999 35.8 70.5999L35.7 70.6999C35 71.3999 34.7 72.1999 34.7 73.1999C34.7 74.0999 35.1 74.9999 35.7 75.6999L36.1 76.0999C37.1 77.0999 37.1 78.7999 36.1 79.7999L36 79.6999C35.3 80.3999 35 81.1999 35 82.1999C35 82.2999 35 82.3999 35 82.4999C34.8 82.3999 34.6 82.1999 34.4 82.0999ZM64.7 61.5999C64.9 61.1999 65.2 60.7999 65.4 60.3999C65.2 60.6999 64.9 61.1999 64.7 61.5999ZM69.3 52.4999C68.9 53.3999 68.5 54.2999 68.1 55.0999C67.7 55.9999 67.3 56.7999 66.8 57.6999C66.4 58.5999 65.9 59.3999 65.4 60.2999C65.4 60.2999 65.4 60.2999 65.4 60.3999C65.4 60.2999 65.4 60.1999 65.4 60.0999C65.4 59.1999 65 58.2999 64.4 57.5999L63.7 56.8999C62.7 55.8999 62.7 54.1999 63.7 53.1999L65.1 51.7999C65.5 51.3999 65.7 50.9999 65.9 50.5999H65C64.9 50.7999 64.7 50.9999 64.5 51.1999L63.1 52.5999C61.7 53.9999 61.7 56.1999 63.1 57.4999L63.8 58.1999C64.8 59.1999 64.8 60.8999 63.8 61.8999L63.7 61.9999C63 62.6999 62.7 63.4999 62.7 64.4999C62.7 64.5999 62.7 64.6999 62.7 64.7999C62.6 64.9999 62.5 65.1999 62.3 65.3999C61.8 66.1999 61.2 66.9999 60.6 67.7999C60 68.5999 59.5 69.2999 58.9 70.0999C58.3 70.7999 57.7 71.5999 57.1 72.2999C56.5 72.9999 55.9 73.6999 55.2 74.3999C54.6 75.0999 53.9 75.6999 53.3 76.3999C53.1 76.0999 52.9 75.6999 52.6 75.4999L52.2 74.9999C51.2 73.9999 51.2 72.2999 52.2 71.2999L52.3 71.1999C53 70.4999 53.3 69.6999 53.3 68.6999C53.3 67.7999 52.9 66.8999 52.3 66.1999C51.3 65.1999 51.3 63.4999 52.3 62.4999L52.4 62.3999C53.1 61.6999 53.4 60.8999 53.4 59.8999C53.4 58.9999 53 58.0999 52.4 57.3999L51.7 56.6999C50.7 55.6999 50.7 53.9999 51.7 52.9999L53.1 51.5999C53.5 51.1999 53.7 50.7999 53.9 50.2999H53C52.9 50.4999 52.7 50.7999 52.5 50.9999L51.1 52.3999C49.7 53.7999 49.7 55.9999 51.1 57.2999L51.8 57.9999C52.8 58.9999 52.8 60.6999 51.8 61.6999L51.7 61.7999C51 62.4999 50.7 63.2999 50.7 64.2999C50.7 65.1999 51.1 66.0999 51.7 66.7999C52.2 67.2999 52.5 67.9999 52.5 68.6999C52.5 69.3999 52.2 70.0999 51.7 70.5999L51.6 70.6999C50.9 71.3999 50.6 72.1999 50.6 73.1999C50.6 74.0999 51 74.9999 51.6 75.6999L52 75.9999C52.3 76.2999 52.5 76.5999 52.6 76.9999C52.8 76.7999 53 76.6999 53.1 76.4999C52.4 77.1999 51.7 77.8999 50.9 78.4999C50.2 79.1999 49.4 79.7999 48.7 80.3999C48.5 80.5999 48.3 80.6999 48.1 80.8999C48.2 80.6999 48.4 80.4999 48.5 80.2999L48.6 80.1999C50 78.7999 50 76.5999 48.6 75.2999L48.3 74.9999C47.3 73.9999 47.3 72.2999 48.3 71.2999L48.4 71.1999C49.1 70.4999 49.4 69.6999 49.4 68.6999C49.4 67.7999 49 66.8999 48.4 66.1999C47.4 65.1999 47.4 63.4999 48.4 62.4999L48.5 62.3999C49.2 61.6999 49.5 60.8999 49.5 59.8999C49.5 58.9999 49.1 58.0999 48.5 57.3999L47.8 56.6999C46.8 55.6999 46.8 53.9999 47.8 52.9999L49.2 51.5999C49.6 51.1999 49.8 50.7999 50 50.2999H49.1C49 50.4999 48.8 50.7999 48.6 50.9999L47.2 52.3999C45.8 53.7999 45.8 55.9999 47.2 57.2999L47.9 57.9999C48.9 58.9999 48.9 60.6999 47.9 61.6999L47.8 61.7999C47.1 62.4999 46.8 63.2999 46.8 64.2999C46.8 65.1999 47.2 66.0999 47.8 66.7999C48.3 67.2999 48.6 67.9999 48.6 68.6999C48.6 69.3999 48.3 70.0999 47.8 70.5999L47.7 70.6999C47 71.3999 46.7 72.1999 46.7 73.1999C46.7 74.0999 47.1 74.9999 47.7 75.6999L48 75.9999C49 76.9999 49 78.6999 48 79.6999C47.4 80.2999 47.1 80.9999 47 81.7999C47.2 81.5999 47.4 81.4999 47.6 81.2999C47.2 81.5999 46.9 81.8999 46.5 82.0999C45.7 82.6999 44.9 83.1999 44.1 83.7999C44.2 83.6999 44.2 83.6999 44.3 83.5999C44 83.1999 43.8 82.5999 43.8 82.0999C43.8 81.3999 44.1 80.6999 44.6 80.1999L44.7 80.0999C46.1 78.6999 46.1 76.4999 44.7 75.1999L44.3 74.9999C43.3 73.9999 43.3 72.2999 44.3 71.2999L44.4 71.1999C45.1 70.4999 45.4 69.6999 45.4 68.6999C45.4 67.7999 45 66.8999 44.4 66.1999C43.4 65.1999 43.4 63.4999 44.4 62.4999L44.5 62.3999C45.2 61.6999 45.5 60.8999 45.5 59.8999C45.5 58.9999 45.1 58.0999 44.5 57.3999L43.8 56.6999C42.8 55.6999 42.8 53.9999 43.8 52.9999L45.2 51.5999C45.6 51.1999 45.8 50.7999 46 50.2999H45.1C45 50.4999 44.8 50.7999 44.6 50.9999L43.2 52.3999C41.8 53.7999 41.8 55.9999 43.2 57.2999L43.9 57.9999C44.9 58.9999 44.9 60.6999 43.9 61.6999L43.8 61.7999C43.1 62.4999 42.8 63.2999 42.8 64.2999C42.8 65.1999 43.2 66.0999 43.8 66.7999C44.3 67.2999 44.6 67.9999 44.6 68.6999C44.6 69.3999 44.3 70.0999 43.8 70.5999L43.7 70.6999C43 71.3999 42.7 72.1999 42.7 73.1999C42.7 74.0999 43.1 74.9999 43.7 75.6999L44 75.9999C45 76.9999 45 78.6999 44 79.6999C43.3 80.3999 43 81.1999 43 82.1999C43 82.8999 43.2 83.5999 43.7 84.1999C43.1 84.5999 42.5 84.9999 41.8 85.3999C41.6 85.0999 41.4 84.7999 41.2 84.5999L40.6 83.9999C40.1 83.4999 39.8 82.7999 39.8 82.0999C39.8 81.3999 40.1 80.6999 40.6 80.1999L40.7 80.0999C42.1 78.6999 42.1 76.4999 40.7 75.1999L40.3 74.9999C39.3 73.9999 39.3 72.2999 40.3 71.2999L40.4 71.1999C41.1 70.4999 41.4 69.6999 41.4 68.6999C41.4 67.7999 41 66.8999 40.4 66.1999C39.4 65.1999 39.4 63.4999 40.4 62.4999L40.5 62.3999C41.2 61.6999 41.5 60.8999 41.5 59.8999C41.5 58.9999 41.1 58.0999 40.5 57.3999L39.8 56.6999C38.8 55.6999 38.8 53.9999 39.8 52.9999L41.2 51.5999C41.6 51.1999 41.8 50.7999 42 50.2999H41.1C41 50.5999 40.8 50.7999 40.6 50.9999L39.2 52.3999C37.8 53.7999 37.8 55.9999 39.2 57.2999L39.9 57.9999C40.9 58.9999 40.9 60.6999 39.9 61.6999L39.8 61.7999C39.1 62.4999 38.8 63.2999 38.8 64.2999C38.8 65.1999 39.2 66.0999 39.8 66.7999C40.3 67.2999 40.6 67.9999 40.6 68.6999C40.6 69.3999 40.3 70.0999 39.8 70.5999L39.7 70.6999C39 71.3999 38.7 72.1999 38.7 73.1999C38.7 74.0999 39.1 74.9999 39.7 75.6999L40 75.9999C41 76.9999 41 78.6999 40 79.6999C39.3 80.3999 39 81.1999 39 82.1999C39 83.0999 39.4 83.9999 40 84.6999L40.6 85.2999C40.8 85.4999 40.9 85.6999 41.1 85.8999C41 85.9999 40.9 85.9999 40.8 86.0999L40.7 86.1999C40.7 86.1999 40.7 86.1999 40.6 86.1999C40.6 86.1999 40.6 86.1999 40.5 86.1999C40.1 85.9999 39.7 85.6999 39.3 85.4999C38.5 84.9999 37.7 84.4999 36.9 83.8999C36.7 83.6999 36.4 83.5999 36.2 83.3999C36 83.0999 35.9 82.6999 35.9 82.2999C35.9 81.5999 36.2 80.8999 36.7 80.3999L36.8 80.2999C38.2 78.8999 38.2 76.6999 36.8 75.3999L36.3 74.9999C35.3 73.9999 35.3 72.2999 36.3 71.2999L36.4 71.1999C37.1 70.4999 37.4 69.6999 37.4 68.6999C37.4 67.7999 37 66.8999 36.4 66.1999C35.4 65.1999 35.4 63.4999 36.4 62.4999L36.5 62.3999C37.2 61.6999 37.5 60.8999 37.5 59.8999C37.5 58.9999 37.1 58.0999 36.5 57.3999L35.8 56.6999C34.8 55.6999 34.8 53.9999 35.8 52.9999L37.2 51.5999C37.6 51.1999 37.9 50.7999 38 50.2999H37.7L70.2 50.3999C69.9 51.1999 69.6 51.8999 69.3 52.4999ZM70.3 38.9999L57.6 4.89991C57.9 4.99991 58.1 4.99991 58.3 5.09991C58.5 5.09991 58.7 5.19991 58.9 5.19991L73.4 38.9999H70.3ZM74.3 38.0999L60.3 5.59991C60.7 5.69991 61 5.79991 61.4 5.89991C61.5 5.89991 61.5 5.89991 61.6 5.99991L75.1 34.3999H75.2C75.1 34.7999 75 35.1999 74.9 35.5999C74.7 36.2999 74.5 37.1999 74.3 38.0999ZM75.6 32.3999V32.4999L63.1 6.29991C63.6 6.39991 64 6.59991 64.5 6.69991L76.3 28.8999C76.3 28.9999 76.3 29.0999 76.2 29.1999C76 30.2999 75.8 31.2999 75.6 32.3999Z" fill="white"/>
<path d="M49.2 18.7998L46.2 24.6998H52.2L49.2 18.7998Z" fill="white"/>
<path d="M30.2 23.4997V21.1997V16.6997L25.9 23.4997H30.2Z" fill="white"/>
<path d="M56.2 71.2999C57 70.4999 57.3 69.6999 57.3 68.6999C57.3 67.7999 56.9 66.8999 56.3 66.1999C55.3 65.1999 55.3 63.4999 56.3 62.4999L56.4 62.3999C57.1 61.6999 57.4 60.8999 57.4 59.8999C57.4 58.9999 57 58.0999 56.4 57.3999L55.7 56.6999C54.7 55.6999 54.7 53.9999 55.7 52.9999L57.1 51.5999C57.5 51.1999 57.7 50.7999 57.9 50.3999H57C56.9 50.5999 56.7 50.7999 56.5 50.9999L55.1 52.3999C53.7 53.7999 53.7 55.9999 55.1 57.2999L55.8 57.9999C56.8 58.9999 56.8 60.6999 55.8 61.6999L55.7 61.7999C55 62.4999 54.7 63.2999 54.7 64.2999C54.7 65.1999 55.1 66.0999 55.7 66.7999C56.2 67.2999 56.5 67.9999 56.5 68.6999C56.5 69.3999 56.2 70.0999 55.7 70.5999L55.6 70.6999C54.9 71.3999 54.6 72.1999 54.6 73.1999C54.6 73.6999 54.7 74.1999 54.9 74.6999C55 74.5999 55.1 74.4999 55.2 74.3999C55.3 74.2999 55.5 74.0999 55.6 73.9999C55.3 72.9999 55.5 71.9999 56.2 71.2999Z" fill="white"/>
<path d="M60.3 66.3C59.3 65.3 59.3 63.6 60.3 62.6L60.4 62.5C61.1 61.8 61.4 61 61.4 60C61.4 59.1 61 58.2 60.4 57.5L59.7 56.8C58.7 55.8 58.7 54.1 59.7 53.1L61.1 51.7C61.5 51.3 61.7 50.9 61.9 50.5H61C60.9 50.7 60.7 50.9 60.5 51.1L59.1 52.5C57.7 53.9 57.7 56.1 59.1 57.4L59.8 58.1C60.8 59.1 60.8 60.8 59.8 61.8L59.7 61.9C59 62.6 58.7 63.4 58.7 64.4C58.7 65.3 59.1 66.2 59.7 66.9C60 67.2 60.3 67.6 60.4 68.1C60.5 68 60.6 67.9 60.7 67.7C60.8 67.5 60.9 67.4 61 67.2C60.8 66.9 60.6 66.5 60.3 66.3Z" fill="white"/>
<path d="M67.4 56.5C66.7 55.5 66.7 54 67.7 53.1L69.1 51.7C69.5 51.3 69.7 50.9 69.9 50.5H69C68.9 50.7 68.7 50.9 68.6 51.1L67.2 52.5C65.9 53.8 65.8 56 67.1 57.3C67.1 57.1 67.3 56.8 67.4 56.5Z" fill="white"/>
</g>
<defs>
<clipPath id="clip0_412_358">
<rect width="81" height="89.6" fill="white"/>
</clipPath>
</defs>
</svg>
