<svg width="125" height="90" viewBox="0 0 125 90" fill="none" xmlns="http://www.w3.org/2000/svg">
<g clip-path="url(#clip0_137_1008)">
<path d="M32.1537 74.6444L13.6309 88.9685" stroke="#1CA6DA" stroke-miterlimit="10"/>
<path d="M109.111 85.3582L92.5684 74.4334" stroke="#1CA6DA" stroke-miterlimit="10"/>
<path d="M61.2066 -1.24853e-05C60.3922 0.0022559 59.5904 0.201514 58.8686 0.580961C58.1468 0.960409 57.5263 1.50892 57.0593 2.18024C56.8221 1.88831 56.5236 1.65284 56.1852 1.49071C55.8468 1.32858 55.477 1.24382 55.1022 1.2425C54.9642 0.822247 54.6811 0.465634 54.3043 0.23725C53.9275 0.00886639 53.4819 -0.0761862 53.0481 -0.00250253C52.6144 0.0711811 52.2212 0.298728 51.9398 0.638926C51.6584 0.979123 51.5074 1.40947 51.5141 1.85203C51.5127 2.18346 51.6009 2.50903 51.7691 2.79396C51.9374 3.07888 52.1794 3.31243 52.4694 3.46964C52.4582 3.60225 52.4582 3.73558 52.4694 3.86818C52.4726 4.24036 52.553 4.60778 52.7054 4.94689C52.8579 5.286 53.079 5.58933 53.3548 5.83745C53.0477 6.12809 52.7812 6.45932 52.5626 6.82208C52.0433 6.8342 51.549 7.04876 51.1839 7.42051C50.8187 7.79227 50.6114 8.29216 50.6055 8.81478C50.6105 9.24511 50.7507 9.6628 51.006 10.0081C51.2613 10.3534 51.6186 10.6086 52.0267 10.7372C52.2344 11.5233 52.6232 12.2492 53.1616 12.856C53.6999 13.4629 54.3727 13.9337 55.1255 14.2303C54.9849 14.6857 54.9142 15.16 54.9158 15.6369C54.9194 16.9371 55.4154 18.187 56.3028 19.1322C57.1902 20.0773 58.4022 20.6466 59.6921 20.7241C59.3839 21.4668 59.2255 22.2637 59.2262 23.0685C59.2133 23.1224 59.2133 23.1787 59.2262 23.2326C58.7994 23.4201 58.4179 23.6981 58.1077 24.0474C57.7974 24.3968 57.5656 24.8094 57.4282 25.257C57.2908 25.7047 57.2509 26.1769 57.3113 26.6415C57.3717 27.1061 57.5309 27.5521 57.7782 27.9491C58.0254 28.3461 58.3549 28.6848 58.744 28.9421C59.1332 29.1994 59.5729 29.3693 60.0332 29.4401C60.4935 29.5109 60.9635 29.4809 61.4113 29.3524C61.8591 29.2238 62.274 28.9995 62.6278 28.695C63.4413 29.1254 64.3388 29.3705 65.2569 29.413C66.175 29.4555 67.0911 29.2943 67.9404 28.9408C68.7896 28.5874 69.5512 28.0503 70.1713 27.3677C70.7913 26.6851 71.2545 25.8737 71.5281 24.9909C71.8509 24.8261 72.1219 24.5746 72.3111 24.2642C72.5003 23.9538 72.6003 23.5967 72.5999 23.2326C72.5735 22.8677 72.4442 22.518 72.2271 22.2245C72.7101 21.6934 72.9764 20.9986 72.9727 20.2787C72.9682 19.6294 72.7513 18.9997 72.3554 18.4869C71.9595 17.9741 71.4067 17.6069 70.7825 17.442C71.0056 16.8662 71.124 16.2548 71.132 15.6369C71.1236 15.2179 71.0689 14.8012 70.9689 14.3944C72.0944 14.1332 73.0977 13.4939 73.8135 12.5818C74.5293 11.6698 74.9149 10.5395 74.9065 9.37743C74.9017 8.47111 74.6607 7.58192 74.2075 6.79863C74.6578 6.32558 74.9083 5.69536 74.9065 5.04036C74.8974 4.69552 74.8209 4.35584 74.6814 4.04076C74.5418 3.72567 74.3419 3.44135 74.093 3.20404C73.8442 2.96673 73.5513 2.78108 73.2312 2.65771C72.911 2.53433 72.5698 2.47565 72.2271 2.48501H71.6679C71.2262 1.72942 70.5964 1.1028 69.8405 0.666998C69.0845 0.231201 68.2288 0.00129826 67.3576 -1.24853e-05C66.3287 0.0042843 65.3391 0.397579 64.585 1.10184C63.5962 0.397912 62.4178 0.0135888 61.2066 -1.24853e-05ZM67.3576 0.937732C68.0628 0.933868 68.7571 1.11307 69.3734 1.45803C69.9897 1.803 70.5071 2.30205 70.8757 2.90699C70.5062 3.14062 70.2027 3.46613 69.9946 3.85213C69.7864 4.23813 69.6807 4.67159 69.6875 5.11069C69.6872 5.79505 69.9526 6.45246 70.4269 6.9429C70.9013 7.43334 71.5472 7.71805 72.2271 7.73638C72.6311 7.72915 73.0287 7.63313 73.392 7.45505C73.7304 8.06389 73.9069 8.75023 73.9046 9.44776C73.8985 10.4507 73.5356 11.4182 72.8817 12.1751C72.2277 12.932 71.326 13.4282 70.3399 13.5738C70.2721 13.5875 70.208 13.6155 70.1518 13.6559C70.0956 13.6963 70.0485 13.7482 70.0137 13.8083C69.9789 13.8689 69.9606 13.9376 69.9606 14.0075C69.9606 14.0775 69.9789 14.1462 70.0137 14.2068C70.1793 14.6654 70.266 15.149 70.27 15.6369C70.2652 16.2347 70.1383 16.8253 69.8972 17.3717C69.5136 17.3863 69.1386 17.4906 68.8021 17.6765C68.6469 17.7484 68.4987 17.8347 68.3594 17.9343L67.9866 18.2626C67.6348 18.6556 67.3865 19.1312 67.2644 19.6457C66.8945 19.7593 66.5094 19.8147 66.1227 19.8098C65.1097 19.8038 64.1331 19.4291 63.3734 18.7549C63.2686 18.7131 63.152 18.7131 63.0472 18.7549C62.9498 18.7169 62.8418 18.7169 62.7443 18.7549C62.3619 19.0991 61.9195 19.3693 61.4396 19.552C61.1976 19.6438 60.9481 19.7144 60.694 19.7629H60.1115H59.9717C58.8961 19.7387 57.8719 19.2947 57.1154 18.5249C56.359 17.755 55.9295 16.7194 55.9177 15.6369C55.9137 15.1732 55.9926 14.7127 56.1507 14.2771V14.1365V14.0662L56.4536 13.0346C56.4712 12.9746 56.4768 12.9116 56.4699 12.8494C56.463 12.7872 56.4437 12.727 56.4133 12.6723C56.3829 12.6177 56.342 12.5698 56.2929 12.5313C56.2437 12.4929 56.1875 12.4647 56.1274 12.4485C56.0692 12.431 56.0081 12.4256 55.9478 12.4328C55.8875 12.44 55.8293 12.4596 55.7769 12.4904C55.7244 12.5211 55.6789 12.5625 55.6429 12.6117C55.607 12.661 55.5816 12.7172 55.5682 12.7768L55.3818 13.3628C54.7419 13.1081 54.176 12.6954 53.7363 12.1628C53.2965 11.6302 52.9971 10.9948 52.8655 10.3152C52.8468 10.2188 52.7985 10.1307 52.7275 10.0634C52.6564 9.99614 52.5661 9.95299 52.4694 9.94008C52.3287 9.93084 52.1911 9.8938 52.0646 9.83107C51.9381 9.76834 51.8251 9.68116 51.732 9.57449C51.639 9.46782 51.5678 9.34375 51.5224 9.20938C51.477 9.07501 51.4584 8.93296 51.4675 8.79134C51.4767 8.64972 51.5135 8.51131 51.5759 8.384C51.6382 8.2567 51.7249 8.143 51.8309 8.04939C51.9369 7.95578 52.0602 7.8841 52.1937 7.83844C52.3273 7.79278 52.4685 7.77403 52.6092 7.78326H52.7723C52.8668 7.79324 52.9621 7.77387 53.0454 7.72778C53.1287 7.68169 53.196 7.61106 53.2383 7.52538C53.4751 7.08061 53.791 6.68331 54.1702 6.3532L54.6129 6.00155C55.2243 5.59246 55.9308 5.35011 56.6633 5.29824C56.7642 5.29226 56.8591 5.24764 56.9284 5.17354C56.9977 5.09944 57.0362 5.00146 57.036 4.8997C57.036 4.8997 57.036 4.66527 57.036 4.54805C57.0252 4.4076 57.0252 4.26651 57.036 4.12606C57.1177 3.80143 57.2349 3.48692 57.3855 3.18832C57.7504 2.49188 58.3016 1.91202 58.9768 1.51431C59.6521 1.11659 60.4244 0.916875 61.2066 0.937732C62.3262 0.943664 63.4107 1.33218 64.2821 2.03958L65.4936 3.25865C65.5797 3.34699 65.6969 3.39755 65.8198 3.39931C65.8811 3.40128 65.9421 3.38971 65.9984 3.36541C66.0548 3.3411 66.1052 3.30466 66.146 3.25865C66.1912 3.21692 66.2273 3.1662 66.252 3.1097C66.2767 3.0532 66.2894 2.99216 66.2894 2.93044C66.2894 2.86872 66.2767 2.80767 66.252 2.75117C66.2273 2.69467 66.1912 2.64395 66.146 2.60223L65.2373 1.73481C65.8177 1.20759 66.5758 0.92258 67.3576 0.937732ZM72.297 3.28209C72.744 3.28825 73.1707 3.47128 73.4846 3.79156C73.7986 4.11184 73.9746 4.54362 73.9745 4.99348C73.9736 5.34476 73.8681 5.68771 73.6716 5.97811C73.5752 6.10627 73.4659 6.22411 73.3454 6.32976L72.9494 6.5642C72.7445 6.65784 72.522 6.70582 72.297 6.70486C71.8459 6.70486 71.4133 6.52455 71.0943 6.20361C70.7753 5.88266 70.5961 5.44736 70.5961 4.99348C70.596 4.72709 70.6594 4.46457 70.7811 4.22796C70.9027 3.99135 71.079 3.78757 71.2951 3.63375C71.4131 3.53379 71.547 3.45454 71.6912 3.39931C71.8458 3.37719 72.0026 3.37719 72.1572 3.39931H72.2271M71.6446 21.5681C71.5791 21.6576 71.5006 21.7367 71.4116 21.8025C71.3431 21.8745 71.2949 21.9635 71.2718 22.0604C71.2479 22.1447 71.2479 22.234 71.2718 22.3183C71.4553 22.5242 71.5551 22.792 71.5514 23.0685C71.5541 23.227 71.5197 23.3839 71.4509 23.5264C71.3821 23.669 71.2808 23.7932 71.1553 23.889C71.0118 24.0172 70.8331 24.0989 70.6427 24.1235H70.5961C70.3138 24.1175 70.0446 24.0019 69.8449 23.801C69.6452 23.6 69.5303 23.3292 69.5244 23.0451C69.4917 22.8905 69.4917 22.7307 69.5244 22.5762C69.5529 22.522 69.5679 22.4617 69.5679 22.4004C69.5679 22.339 69.5529 22.2787 69.5244 22.2245C69.501 22.1665 69.4662 22.1138 69.4222 22.0695C69.3782 22.0252 69.3258 21.9902 69.2681 21.9666C68.9059 21.8185 68.5953 21.5659 68.3755 21.2405C68.1558 20.915 68.0367 20.5315 68.0332 20.138C68.022 19.9741 68.022 19.8096 68.0332 19.6457C68.1195 19.343 68.2706 19.0629 68.4759 18.8252L68.8021 18.7549L69.0817 18.5439H69.2215C69.3614 18.448 69.5205 18.384 69.6875 18.3563H69.9205H70.1302H70.4564C70.9215 18.4335 71.3448 18.6733 71.6516 19.0335C71.9584 19.3937 72.1292 19.8512 72.1339 20.3256C72.1307 20.8007 71.957 21.2587 71.6446 21.615M65.5169 28.6481C64.5828 28.577 63.6834 28.2618 62.9074 27.7338C62.8312 27.7128 62.7507 27.7128 62.6744 27.7338C62.5515 27.7355 62.4343 27.7861 62.3482 27.8744C62.1071 28.1493 61.8053 28.3634 61.467 28.4995C61.1287 28.6357 60.7634 28.6901 60.4004 28.6584C60.0374 28.6267 59.6868 28.5099 59.3769 28.3171C59.0669 28.1244 58.8062 27.8613 58.6157 27.5488C58.4252 27.2363 58.3101 26.8832 58.2798 26.5178C58.2495 26.1525 58.3048 25.7851 58.4412 25.4451C58.5776 25.1052 58.7913 24.8022 59.0652 24.5604C59.3391 24.3187 59.6656 24.1449 60.0183 24.0531C60.1122 24.0181 60.1923 23.9535 60.2468 23.8691C60.3014 23.7847 60.3275 23.6848 60.3212 23.5843C60.3096 23.436 60.3096 23.2871 60.3212 23.1388C60.3277 22.3247 60.519 21.5229 60.8804 20.7945C61.7295 20.6631 62.5314 20.3161 63.2103 19.7864C64.101 20.4692 65.1894 20.8397 66.3091 20.8414C66.6733 20.8771 67.04 20.8771 67.4042 20.8414C67.4535 21.2889 67.6054 21.7188 67.848 22.0971C68.0906 22.4755 68.4172 22.792 68.8021 23.0216C68.7907 23.162 68.7907 23.3032 68.8021 23.4436C68.8067 23.9508 69.0012 24.4375 69.3466 24.8069C69.6921 25.1762 70.1632 25.4009 70.666 25.4363C70.2506 26.4067 69.5609 27.2328 68.6828 27.8122C67.8047 28.3915 66.7767 28.6985 65.7266 28.695M53.3548 3.86818C53.3345 3.69687 53.3345 3.52374 53.3548 3.35242C53.4016 3.23182 53.4016 3.09793 53.3548 2.97733C53.2876 2.86282 53.1791 2.77883 53.0519 2.74289C52.857 2.69087 52.6848 2.57511 52.5625 2.41383C52.4402 2.25255 52.3746 2.05491 52.3762 1.85203C52.3722 1.72476 52.3953 1.5981 52.444 1.48058C52.4927 1.36306 52.5659 1.25742 52.6587 1.17078C52.7514 1.08413 52.8615 1.0185 52.9816 0.978296C53.1017 0.938095 53.2289 0.924263 53.3548 0.937732C53.5881 0.93102 53.8151 1.01493 53.9886 1.17206C54.1621 1.3292 54.2689 1.5475 54.2867 1.7817C54.2894 1.84157 54.3054 1.90007 54.3337 1.95283C54.3619 2.0056 54.4016 2.05128 54.4498 2.08647C54.5086 2.11229 54.5721 2.12561 54.6362 2.12561C54.7004 2.12561 54.7638 2.11229 54.8226 2.08647H55.0556C55.3655 2.09125 55.6682 2.18113 55.931 2.3464C56.1938 2.51167 56.4067 2.74605 56.5468 3.02421C56.3697 3.43501 56.252 3.86922 56.1973 4.31361C55.4294 4.43168 54.6973 4.71995 54.0537 5.15758C53.8376 5.00375 53.6613 4.79997 53.5397 4.56337C53.4181 4.32676 53.3546 4.06424 53.3548 3.79785" fill="#1CA6DA"/>
<path d="M51.6072 16.5981C52.0035 16.5981 52.3909 16.4798 52.7205 16.2583C53.05 16.0367 53.3068 15.7219 53.4584 15.3535C53.6101 14.9851 53.6498 14.5797 53.5725 14.1886C53.4952 13.7975 53.3043 13.4382 53.0241 13.1563C52.7439 12.8743 52.3868 12.6823 51.9981 12.6045C51.6095 12.5267 51.2066 12.5666 50.8404 12.7192C50.4743 12.8718 50.1614 13.1302 49.9412 13.4618C49.721 13.7934 49.6035 14.1832 49.6035 14.5819C49.6035 15.1166 49.8146 15.6294 50.1904 16.0075C50.5662 16.3857 51.0758 16.5981 51.6072 16.5981ZM51.6072 13.5035C51.7499 13.5004 51.8918 13.526 52.0245 13.5788C52.1573 13.6316 52.2782 13.7105 52.3802 13.811C52.4822 13.9114 52.5632 14.0314 52.6185 14.1637C52.6739 14.2961 52.7023 14.4383 52.7023 14.5819C52.6641 14.8436 52.5336 15.0826 52.3347 15.2555C52.1358 15.4284 51.8817 15.5235 51.6189 15.5235C51.3561 15.5235 51.102 15.4284 50.9031 15.2555C50.7042 15.0826 50.5737 14.8436 50.5355 14.5819C50.5355 14.2959 50.6484 14.0216 50.8494 13.8194C51.0504 13.6171 51.323 13.5035 51.6072 13.5035Z" fill="#1CA6DA"/>
<path d="M104.147 28.7887C100.504 29.1127 97.1092 30.7831 94.618 33.4774L93.5462 34.6496L94.8277 36.994H91.1697H87.5117L89.3989 33.8291L91.2862 30.4767L92.4977 32.6804L93.4763 31.602C96.0018 28.8111 99.4785 27.0787 103.215 26.7491C106.101 26.5057 108.853 25.4223 111.137 23.6311L113.77 21.5446L114.888 23.5842L112.558 25.5066C110.286 27.3291 107.531 28.438 104.637 28.6949L104.147 28.7887Z" fill="#1CA6DA"/>
<path d="M109.204 38.0021C105.564 38.3369 102.173 40.0054 99.6746 42.6908L98.6028 43.863L99.8843 46.2073H96.2263H92.5684L94.4556 43.0659L96.3428 39.8541L97.5544 42.0578L98.5329 40.9794C101.057 38.1897 104.536 36.4643 108.272 36.15C111.177 35.8337 113.928 34.6774 116.194 32.821L118.827 30.8049L119.945 32.8445L117.615 34.7668C115.293 36.6276 112.467 37.7389 109.507 37.9552L109.204 38.0021Z" fill="#1CA6DA"/>
<path d="M114.282 47.2154C110.633 47.5446 107.233 49.2137 104.729 51.9041L103.658 53.0763L104.962 55.4207H101.281H97.623L99.5103 52.2558L101.398 49.0909L102.609 51.2946L103.611 50.2162C106.123 47.4242 109.596 45.6977 113.327 45.3868C116.187 45.104 118.905 43.997 121.155 42.1985L123.788 40.112L124.906 42.1516L122.576 44.074C120.306 45.9001 117.55 47.0094 114.655 47.2623L114.282 47.2154Z" fill="#1CA6DA"/>
<path d="M109.669 39.2915C109.347 39.2915 109.039 39.4199 108.812 39.6485C108.585 39.8771 108.457 40.1872 108.457 40.5105C108.529 40.7653 108.682 40.9894 108.892 41.1489C109.103 41.3085 109.359 41.3948 109.622 41.3948C109.885 41.3948 110.141 41.3085 110.352 41.1489C110.562 40.9894 110.715 40.7653 110.787 40.5105C110.787 40.1872 110.659 39.8771 110.432 39.6485C110.205 39.4199 109.897 39.2915 109.575 39.2915M109.575 41.167C109.49 41.167 109.405 41.15 109.326 41.117C109.247 41.084 109.175 41.0357 109.114 40.9747C109.054 40.9137 109.005 40.8414 108.973 40.7617C108.94 40.6821 108.923 40.5967 108.923 40.5105C108.923 40.3364 108.992 40.1695 109.114 40.0464C109.236 39.9233 109.402 39.8541 109.575 39.8541C109.748 39.8541 109.914 39.9233 110.037 40.0464C110.159 40.1695 110.228 40.3364 110.228 40.5105C110.228 40.6846 110.159 40.8516 110.037 40.9747C109.914 41.0978 109.748 41.167 109.575 41.167Z" fill="#E52330"/>
<path d="M97.8572 32.188C97.4967 32.1942 97.153 32.3426 96.9002 32.6014C96.6474 32.8601 96.5058 33.2084 96.5059 33.5712C96.5492 33.9041 96.7114 34.2097 96.9622 34.4312C97.213 34.6526 97.5352 34.7747 97.8689 34.7747C98.2025 34.7747 98.5248 34.6526 98.7756 34.4312C99.0263 34.2097 99.1885 33.9041 99.2319 33.5712C99.2319 33.3896 99.1963 33.2097 99.1272 33.0419C99.0581 32.8741 98.9569 32.7216 98.8292 32.5932C98.7016 32.4647 98.5501 32.3628 98.3833 32.2933C98.2165 32.2238 98.0377 32.188 97.8572 32.188ZM97.8572 34.298C97.685 34.267 97.5291 34.176 97.4168 34.041C97.3045 33.906 97.2429 33.7356 97.2429 33.5595C97.2429 33.3834 97.3045 33.213 97.4168 33.078C97.5291 32.943 97.685 32.852 97.8572 32.821C97.9645 32.8017 98.0748 32.8063 98.1801 32.8345C98.2855 32.8627 98.3834 32.9138 98.467 32.9842C98.5506 33.0546 98.6179 33.1426 98.664 33.242C98.7102 33.3414 98.7341 33.4498 98.7341 33.5595C98.7341 33.6692 98.7102 33.7776 98.664 33.877C98.6179 33.9764 98.5506 34.0644 98.467 34.1348C98.3834 34.2052 98.2855 34.2563 98.1801 34.2845C98.0748 34.3127 97.9645 34.3173 97.8572 34.298Z" fill="#E52330"/>
<path d="M110.113 28.1323C109.924 28.0959 109.728 28.1192 109.553 28.1989C109.378 28.2787 109.232 28.411 109.134 28.5777C109.011 28.7907 108.973 29.0433 109.03 29.2833C109.086 29.5233 109.232 29.7323 109.437 29.8671C109.546 29.9271 109.664 29.9668 109.787 29.9844C109.777 30.2069 109.825 30.4281 109.928 30.6257C110.03 30.8233 110.182 30.9902 110.369 31.1097C110.521 31.1873 110.687 31.2325 110.857 31.2425C111.027 31.2524 111.197 31.2269 111.357 31.1674C111.517 31.108 111.663 31.0159 111.785 30.897C111.908 30.7782 112.005 30.635 112.07 30.4767C112.172 30.2942 112.226 30.0883 112.226 29.8789C112.226 29.6694 112.172 29.4636 112.07 29.281C112.19 29.0111 112.207 28.706 112.116 28.4245C112.026 28.1431 111.835 27.9053 111.581 27.7572C111.349 27.6161 111.077 27.5557 110.807 27.5853C110.538 27.615 110.286 27.7331 110.089 27.9213M111.65 29.3983C111.731 29.5284 111.774 29.6787 111.774 29.832C111.774 29.9853 111.731 30.1355 111.65 30.2657C111.554 30.437 111.398 30.5662 111.212 30.6285C111.027 30.6909 110.825 30.6819 110.645 30.6032C110.466 30.5246 110.322 30.382 110.24 30.2028C110.159 30.0236 110.147 29.8205 110.206 29.6327C110.224 29.6006 110.234 29.5642 110.234 29.5272C110.234 29.4902 110.224 29.4538 110.206 29.4217C110.179 29.4025 110.146 29.3923 110.113 29.3923C110.079 29.3923 110.047 29.4025 110.02 29.4217C109.905 29.4505 109.785 29.4505 109.67 29.4217C109.572 29.3508 109.501 29.2471 109.471 29.129C109.442 29.0108 109.454 28.8859 109.508 28.7764C109.561 28.6669 109.65 28.5797 109.761 28.5305C109.872 28.4813 109.997 28.4731 110.113 28.5074C110.149 28.5359 110.194 28.5514 110.241 28.5514C110.287 28.5514 110.332 28.5359 110.369 28.5074C110.485 28.3524 110.655 28.247 110.845 28.2123C111.035 28.1775 111.231 28.2159 111.394 28.3199C111.561 28.4306 111.682 28.5992 111.734 28.7938C111.785 28.9883 111.764 29.1951 111.674 29.3748C111.649 29.4044 111.636 29.4417 111.636 29.4803C111.636 29.5189 111.649 29.5563 111.674 29.5858" fill="#E52330"/>
<path d="M106.314 45.715C106.522 45.4981 106.649 45.2144 106.671 44.9133C106.694 44.6121 106.61 44.3127 106.435 44.0671C106.261 43.8216 106.006 43.6456 105.715 43.5697C105.425 43.4938 105.117 43.5229 104.846 43.652C104.699 43.7325 104.565 43.8353 104.45 43.9567C104.208 43.7762 103.922 43.6655 103.622 43.6366C103.322 43.6077 103.02 43.6616 102.749 43.7926C102.54 43.8895 102.353 44.0287 102.2 44.2014C102.046 44.3741 101.93 44.5768 101.858 44.7966C101.786 45.0165 101.759 45.249 101.78 45.4796C101.801 45.7102 101.869 45.9339 101.98 46.137C102.112 46.3927 102.304 46.612 102.539 46.7755C102.775 46.939 103.047 47.0417 103.331 47.0747C103.548 47.388 103.865 47.6169 104.229 47.7231C104.593 47.8293 104.983 47.8062 105.332 47.6579C105.682 47.5096 105.97 47.2449 106.149 46.9083C106.327 46.5717 106.386 46.1835 106.314 45.8088M103.494 46.4886C103.244 46.5017 102.997 46.4261 102.797 46.2751C102.596 46.1241 102.455 45.9072 102.397 45.662C102.338 45.4168 102.367 45.1589 102.479 44.9331C102.59 44.7072 102.776 44.5277 103.005 44.4256C103.22 44.3231 103.462 44.2951 103.694 44.346C103.926 44.3969 104.134 44.5239 104.287 44.7069C104.33 44.7295 104.378 44.7413 104.426 44.7413C104.475 44.7413 104.523 44.7295 104.566 44.7069C104.624 44.7161 104.684 44.7048 104.735 44.6749C104.786 44.645 104.825 44.5984 104.846 44.5428C104.906 44.3883 105.023 44.2626 105.172 44.1912C105.253 44.1517 105.341 44.1289 105.431 44.1241C105.52 44.1193 105.61 44.1326 105.695 44.1631C105.779 44.1937 105.857 44.2409 105.923 44.3021C105.99 44.3633 106.043 44.4372 106.081 44.5194C106.159 44.6604 106.182 44.8264 106.143 44.9834C106.104 45.1403 106.006 45.2763 105.871 45.3634C105.837 45.4112 105.818 45.4686 105.818 45.5275C105.818 45.5863 105.837 45.6437 105.871 45.6916C105.95 45.9388 105.939 46.2062 105.841 46.4464C105.743 46.6866 105.564 46.8842 105.335 47.0044C105.084 47.1281 104.795 47.1482 104.53 47.0607C104.264 46.9731 104.043 46.7847 103.914 46.5355C103.89 46.4886 103.853 46.45 103.808 46.4249C103.762 46.3998 103.709 46.3893 103.658 46.3949" fill="#E52330"/>
<path d="M106.617 31.6723C106.773 31.6923 106.924 31.7442 107.061 31.8248C107.197 31.9054 107.315 32.013 107.409 32.1412C107.608 32.3999 107.698 32.7271 107.658 33.0519C107.619 33.3767 107.454 33.6729 107.199 33.876C107.003 34.0221 106.767 34.1039 106.523 34.1104C106.535 34.2462 106.512 34.3827 106.454 34.5062C106.397 34.6297 106.308 34.7358 106.197 34.8137C106.023 34.9482 105.804 35.0088 105.586 34.9825C105.369 34.9562 105.17 34.8451 105.032 34.6731V34.509C104.855 34.516 104.679 34.4853 104.514 34.4188C104.349 34.3523 104.201 34.2516 104.078 34.1233C103.954 33.9949 103.86 33.8418 103.799 33.674C103.739 33.5062 103.715 33.3275 103.728 33.1496C103.741 32.9717 103.792 32.7986 103.876 32.6417C103.96 32.4848 104.077 32.3476 104.218 32.2391C104.358 32.1306 104.52 32.0532 104.693 32.0121C104.865 31.971 105.045 31.967 105.219 32.0005H105.615L105.824 31.813C106.074 31.613 106.392 31.5203 106.71 31.5551M106.477 33.5478C106.602 33.5632 106.729 33.5474 106.847 33.5018C106.964 33.4562 107.069 33.3823 107.151 33.2864C107.234 33.1905 107.292 33.0757 107.32 32.9521C107.348 32.8285 107.345 32.6998 107.312 32.5774C107.279 32.455 107.217 32.3426 107.131 32.2502C107.044 32.1577 106.937 32.0881 106.817 32.0473C106.698 32.0065 106.571 31.9959 106.446 32.0164C106.322 32.0368 106.204 32.0877 106.104 32.1646C106.009 32.2421 105.93 32.3377 105.871 32.4459C105.818 32.4657 105.761 32.4657 105.708 32.4459C105.68 32.4624 105.648 32.4711 105.615 32.4711C105.582 32.4711 105.55 32.4624 105.522 32.4459C105.411 32.3636 105.284 32.3075 105.149 32.2818C105.045 32.268 104.939 32.2749 104.838 32.3021C104.736 32.3294 104.641 32.3765 104.558 32.4407C104.475 32.5049 104.405 32.585 104.352 32.6764C104.3 32.7678 104.266 32.8687 104.252 32.9734C104.238 33.0781 104.245 33.1845 104.272 33.2865C104.299 33.3885 104.346 33.4841 104.41 33.5679C104.474 33.6517 104.553 33.7221 104.644 33.7749C104.735 33.8278 104.835 33.8621 104.939 33.876H105.172C105.203 33.8728 105.234 33.8757 105.263 33.8845C105.293 33.8934 105.32 33.9081 105.344 33.9277C105.368 33.9473 105.388 33.9715 105.402 33.9988C105.417 34.0262 105.425 34.0561 105.428 34.087C105.419 34.1334 105.419 34.1812 105.428 34.2276C105.498 34.2936 105.589 34.3304 105.685 34.3304C105.78 34.3304 105.872 34.2936 105.941 34.2276C106 34.1594 106.032 34.072 106.032 33.9815C106.032 33.891 106 33.8036 105.941 33.7353C105.918 33.6961 105.907 33.6517 105.907 33.6064C105.907 33.5611 105.918 33.5167 105.941 33.4775C105.976 33.4569 106.017 33.446 106.057 33.446C106.098 33.446 106.139 33.4569 106.174 33.4775" fill="#E52330"/>
<path d="M20.9687 27.7103C24.6178 28.0374 28.019 29.7068 30.5214 32.3991L31.5932 33.5712L30.2884 35.9156H33.9697H37.6276L35.7404 32.7507L33.8299 29.6093L32.6183 31.813L31.5233 30.4767C28.9702 27.7483 25.4975 26.0764 21.7842 25.788C18.9297 25.5113 16.2173 24.4033 13.979 22.5996L11.2297 20.5366L10.1113 22.5762L12.4412 24.4986C14.7198 26.3253 17.4837 27.4344 20.3863 27.6869L20.9687 27.7103Z" fill="#1CA6DA"/>
<path d="M15.7976 36.9471C19.4378 37.2819 22.829 38.9505 25.3269 41.6358L26.422 42.808L25.1172 45.1524H28.7752H32.4565L30.5459 42.0109L28.6587 38.6819L27.4471 40.8856L26.4686 39.8541C23.9507 37.0568 20.4681 35.3299 16.7295 35.0247C13.8444 34.7627 11.0948 33.6723 8.80781 31.8833L6.175 29.7968L5.05664 31.8364L7.38656 33.7588C9.65868 35.5812 12.4138 36.6901 15.3083 36.9471H15.7976Z" fill="#1CA6DA"/>
<path d="M10.7409 46.1604C14.3812 46.4953 17.7723 48.1638 20.2703 50.8492L21.342 52.0213L20.0606 54.3657H23.7185H27.3765L25.4893 51.2243L23.602 48.0594L22.3905 50.2631L21.4119 49.1847C18.9124 46.325 15.4187 44.538 11.6496 44.1912C8.762 43.9397 6.00954 42.8481 3.72787 41.0497L1.11836 38.9633L0 41.0028L2.32992 42.9252C4.60204 44.7477 7.35719 45.8566 10.2516 46.1136L10.7409 46.1604Z" fill="#1CA6DA"/>
<path d="M7.10625 37.1816C6.95794 37.4489 6.71016 37.646 6.41741 37.7296C6.12466 37.8131 5.81092 37.7762 5.5452 37.627C5.27949 37.4778 5.08358 37.2284 5.00056 36.9339C4.91754 36.6393 4.95422 36.3236 5.10252 36.0563C5.17312 35.9241 5.26926 35.8075 5.38529 35.7133C5.50132 35.6191 5.6349 35.5492 5.77817 35.5077C5.92144 35.4662 6.07152 35.454 6.21957 35.4717C6.36762 35.4894 6.51065 35.5367 6.64026 35.6108C6.77435 35.6821 6.89297 35.7796 6.9892 35.8976C7.08542 36.0155 7.15733 36.1516 7.20071 36.2978C7.24409 36.4441 7.25808 36.5975 7.24186 36.7493C7.22564 36.901 7.17954 37.048 7.10625 37.1816Z" fill="#E52330"/>
<path d="M14.1428 39.4556C14.1429 39.6977 14.2145 39.9343 14.3487 40.1352C14.4829 40.3362 14.6735 40.4924 14.8963 40.5839C15.119 40.6754 15.3638 40.6982 15.5994 40.6492C15.8351 40.6002 16.0509 40.4818 16.2193 40.3089C16.3878 40.1361 16.5013 39.9167 16.5454 39.6787C16.5895 39.4407 16.5622 39.1949 16.4669 38.9726C16.3716 38.7503 16.2127 38.5615 16.0104 38.4304C15.8081 38.2994 15.5716 38.2318 15.3311 38.2365C15.173 38.2365 15.0166 38.2682 14.8709 38.3297C14.7252 38.3912 14.5931 38.4814 14.4825 38.5949C14.3718 38.7085 14.2848 38.843 14.2265 38.9908C14.1682 39.1386 14.1397 39.2966 14.1428 39.4556ZM14.6787 39.4556C14.6845 39.2833 14.7551 39.1197 14.8762 38.9979C14.9973 38.876 15.1599 38.805 15.3311 38.7991C15.5041 38.7991 15.67 38.8683 15.7924 38.9914C15.9147 39.1145 15.9834 39.2815 15.9834 39.4556C15.9834 39.6297 15.9147 39.7966 15.7924 39.9197C15.67 40.0428 15.5041 40.112 15.3311 40.112C15.1599 40.1061 14.9973 40.0351 14.8762 39.9132C14.7551 39.7914 14.6845 39.6278 14.6787 39.4556Z" fill="#E52330"/>
<path d="M25.7463 32.5163C25.7463 32.8769 25.8887 33.2227 26.1421 33.4777C26.3955 33.7327 26.7392 33.876 27.0976 33.876C27.2916 33.9016 27.4887 33.8852 27.6759 33.828C27.863 33.7707 28.0359 33.674 28.1829 33.5442C28.3299 33.4144 28.4477 33.2545 28.5284 33.0752C28.6091 32.8959 28.6509 32.7014 28.6509 32.5045C28.6509 32.3077 28.6091 32.1132 28.5284 31.9339C28.4477 31.7546 28.3299 31.5947 28.1829 31.4649C28.0359 31.3351 27.863 31.2383 27.6759 31.1811C27.4887 31.1239 27.2916 31.1075 27.0976 31.1331C26.9182 31.1331 26.7406 31.169 26.5751 31.2388C26.4096 31.3086 26.2596 31.4108 26.1338 31.5396C26.008 31.6684 25.9089 31.821 25.8424 31.9887C25.7759 32.1564 25.7432 32.3357 25.7463 32.5163ZM26.3754 32.5163C26.3708 32.366 26.4112 32.2178 26.4913 32.0909C26.5714 31.964 26.6876 31.8643 26.8247 31.8046C26.9619 31.7449 27.1137 31.7281 27.2604 31.7563C27.4072 31.7845 27.5421 31.8564 27.6478 31.9627C27.7534 32.069 27.8249 32.2048 27.8529 32.3525C27.881 32.5002 27.8642 32.6529 27.8049 32.7909C27.7456 32.9289 27.6465 33.0458 27.5204 33.1264C27.3943 33.207 27.247 33.2476 27.0976 33.243C26.9061 33.243 26.7224 33.1664 26.5869 33.0302C26.4515 32.8939 26.3754 32.709 26.3754 32.5163Z" fill="#E52330"/>
<path d="M13.3969 26.796C13.1463 26.9478 12.9587 27.1857 12.8687 27.4658C12.7788 27.7459 12.7926 28.0492 12.9076 28.3199C12.8056 28.5024 12.752 28.7083 12.752 28.9177C12.752 29.1271 12.8056 29.333 12.9076 29.5155C12.9535 29.6694 13.0291 29.8128 13.1301 29.9373C13.231 30.0618 13.3553 30.1652 13.496 30.2413C13.6366 30.3175 13.7908 30.3651 13.9497 30.3814C14.1086 30.3976 14.2691 30.3822 14.4221 30.336C14.5751 30.2898 14.7175 30.2138 14.8413 30.1122C14.9651 30.0106 15.0677 29.8855 15.1435 29.744C15.2192 29.6025 15.2665 29.4474 15.2826 29.2875C15.2988 29.1276 15.2834 28.9661 15.2375 28.8122C15.3532 28.8323 15.4714 28.8323 15.587 28.8122C15.6934 28.7497 15.786 28.6662 15.8593 28.5666C15.9326 28.467 15.985 28.3534 16.0133 28.2328C16.0416 28.1123 16.0453 27.9871 16.0241 27.8651C16.0029 27.743 15.9572 27.6265 15.8899 27.5228C15.7924 27.356 15.646 27.2237 15.4708 27.144C15.2956 27.0642 15.1002 27.041 14.9114 27.0774C14.7152 26.8891 14.4629 26.771 14.1934 26.7414C13.9239 26.7117 13.6522 26.7721 13.4202 26.9132M13.4202 28.3433C13.3187 28.166 13.2911 27.9555 13.3435 27.7577C13.3959 27.56 13.524 27.3912 13.6998 27.2883C13.8617 27.187 14.0545 27.1478 14.2428 27.1779C14.4311 27.208 14.6023 27.3055 14.725 27.4525C14.7402 27.468 14.7583 27.4804 14.7783 27.4889C14.7983 27.4974 14.8198 27.5017 14.8415 27.5017C14.8632 27.5017 14.8846 27.4974 14.9046 27.4889C14.9246 27.4804 14.9428 27.468 14.958 27.4525C15.0715 27.4155 15.1937 27.416 15.3069 27.454C15.4201 27.492 15.5183 27.5654 15.587 27.6634C15.6489 27.7829 15.6641 27.9214 15.6296 28.0515C15.5951 28.1817 15.5134 28.2941 15.4006 28.3668C15.2938 28.3956 15.1813 28.3956 15.0745 28.3668C15.0435 28.3456 15.007 28.3343 14.9696 28.3343C14.9322 28.3343 14.8957 28.3456 14.8648 28.3668C14.8484 28.3953 14.8398 28.4276 14.8398 28.4605C14.8398 28.4934 14.8484 28.5258 14.8648 28.5543C14.912 28.7243 14.9035 28.905 14.8405 29.0697C14.7775 29.2344 14.6635 29.3743 14.5153 29.4686C14.4285 29.5239 14.3315 29.5611 14.2302 29.578C14.1289 29.595 14.0252 29.5913 13.9253 29.5673C13.8254 29.5433 13.7313 29.4993 13.6485 29.4381C13.5658 29.3768 13.4961 29.2995 13.4435 29.2107C13.363 29.0806 13.3203 28.9303 13.3203 28.777C13.3203 28.6237 13.363 28.4735 13.4435 28.3433C13.4682 28.3138 13.4817 28.2764 13.4817 28.2378C13.4817 28.1992 13.4682 28.1619 13.4435 28.1323" fill="#E52330"/>
<path d="M19.5954 46.4887C19.9492 46.6686 20.3565 46.7107 20.7393 46.6069C21.122 46.503 21.4531 46.2606 21.669 45.926C21.957 45.8948 22.2322 45.7902 22.4687 45.622C22.7052 45.4538 22.8951 45.2276 23.0204 44.9648C23.1802 44.6302 23.2243 44.2514 23.1457 43.8887C23.067 43.526 22.87 43.2001 22.5861 42.963C22.3022 42.7258 21.9477 42.591 21.5789 42.5799C21.21 42.5688 20.8481 42.6821 20.5507 42.9018C20.4449 42.7696 20.309 42.6651 20.1546 42.597C19.8485 42.4522 19.498 42.435 19.1794 42.5492C18.8607 42.6634 18.5999 42.8997 18.4537 43.2066C18.3437 43.4445 18.3071 43.7102 18.3487 43.9693C18.3902 44.2284 18.508 44.469 18.6867 44.6601C18.6145 45.0231 18.6646 45.4001 18.8292 45.7313C18.9937 46.0625 19.2634 46.329 19.5954 46.4887ZM21.2496 45.4806C21.1248 45.7281 20.908 45.9161 20.6463 46.0038C20.3847 46.0916 20.0992 46.0721 19.8517 45.9495C19.5934 45.8361 19.3899 45.6249 19.2853 45.3616C19.1806 45.0983 19.1832 44.8042 19.2925 44.5429C19.3266 44.495 19.345 44.4376 19.345 44.3788C19.345 44.3199 19.3266 44.2625 19.2925 44.2146C19.1685 44.118 19.0804 43.9823 19.0424 43.8292C19.0044 43.6761 19.0186 43.5146 19.0828 43.3707C19.1203 43.2885 19.1738 43.2146 19.24 43.1534C19.3063 43.0922 19.384 43.045 19.4686 43.0144C19.5532 42.9839 19.6431 42.9706 19.7328 42.9754C19.8226 42.9802 19.9106 43.003 19.9915 43.0425C20.1405 43.1139 20.2571 43.2396 20.3177 43.3941C20.3402 43.4386 20.3732 43.4768 20.4138 43.5054C20.4545 43.534 20.5014 43.5522 20.5507 43.5582C20.5903 43.5788 20.6342 43.5895 20.6788 43.5895C20.7234 43.5895 20.7673 43.5788 20.807 43.5582C20.9617 43.3784 21.1702 43.2539 21.4012 43.2032C21.6322 43.1525 21.8732 43.1783 22.0884 43.2769C22.3174 43.3789 22.5037 43.5585 22.6149 43.7844C22.7261 44.0102 22.7551 44.2681 22.697 44.5133C22.6388 44.7585 22.4972 44.9754 22.2966 45.1264C22.0961 45.2774 21.8493 45.353 21.5991 45.3399C21.5481 45.3398 21.4978 45.3526 21.453 45.3772C21.4082 45.4017 21.3703 45.4373 21.3428 45.4806" fill="#E52330"/>
<path d="M9.43587 40.3464L9.57566 40.4637H9.80866C10.0117 40.4435 10.2147 40.5029 10.3753 40.6295C10.5359 40.7562 10.6417 40.9403 10.6707 41.1435C10.6877 41.2514 10.681 41.3617 10.6513 41.4667C10.6215 41.5717 10.5692 41.6689 10.4982 41.7515C10.4272 41.8342 10.3392 41.9002 10.2402 41.945C10.1412 41.9898 10.0337 42.0123 9.92515 42.0109C9.86113 42.1033 9.76883 42.1721 9.66233 42.2067C9.55584 42.2413 9.44101 42.2399 9.33537 42.2027C9.22974 42.1655 9.1391 42.0946 9.07732 42.0007C9.01553 41.9068 8.98598 41.7951 8.99318 41.6827C8.84138 41.6864 8.69307 41.6366 8.5738 41.5421C8.41417 41.417 8.30997 41.2336 8.2838 41.0318C8.25764 40.8299 8.3116 40.6258 8.434 40.4637C8.49424 40.3824 8.57123 40.3151 8.6597 40.2666C8.74818 40.218 8.84604 40.1893 8.94659 40.1823C9.13654 40.1583 9.32841 40.2086 9.48247 40.323M9.15628 41.378C9.20151 41.3619 9.25085 41.3619 9.29607 41.378C9.29607 41.378 9.29607 41.378 9.29607 41.5186C9.26389 41.5628 9.24654 41.6162 9.24654 41.671C9.24654 41.7258 9.26389 41.7792 9.29607 41.8234C9.34199 41.8615 9.39965 41.8823 9.45917 41.8823C9.51869 41.8823 9.57635 41.8615 9.62226 41.8234C9.62782 41.7903 9.64497 41.7603 9.67061 41.7388C9.69625 41.7173 9.72869 41.7057 9.76206 41.7062H9.90185C9.96638 41.6976 10.0286 41.6761 10.0847 41.643C10.1409 41.6099 10.19 41.5659 10.229 41.5135C10.2681 41.4611 10.2964 41.4014 10.3122 41.3379C10.328 41.2743 10.3311 41.2083 10.3212 41.1435C10.3038 41.017 10.2381 40.9022 10.1381 40.8235C10.0381 40.7447 9.91164 40.7082 9.78536 40.7215H9.55236L9.31937 40.5809C9.2779 40.5354 9.2275 40.4991 9.17134 40.4743C9.11519 40.4494 9.05452 40.4366 8.99318 40.4366C8.93185 40.4366 8.87118 40.4494 8.81503 40.4743C8.75887 40.4991 8.70847 40.5354 8.667 40.5809C8.58162 40.6685 8.53379 40.7864 8.53379 40.9091C8.53379 41.0318 8.58162 41.1497 8.667 41.2373C8.71861 41.2592 8.77407 41.2705 8.83009 41.2705C8.88611 41.2705 8.94157 41.2592 8.99318 41.2373" fill="#E52330"/>
<path d="M19.2913 30.8752L19.501 31.0628L19.8971 30.9455C20.224 30.9054 20.5536 30.9959 20.815 31.1975C21.0763 31.3991 21.2487 31.6958 21.2951 32.0239C21.318 32.1995 21.304 32.378 21.254 32.5478C21.2041 32.7177 21.1193 32.8751 21.0051 33.0098C20.8909 33.1446 20.7499 33.2538 20.5911 33.3303C20.4324 33.4068 20.2595 33.4489 20.0835 33.454C20.0835 33.454 20.0835 33.5712 20.0835 33.5947C20.0191 33.6842 19.9374 33.7598 19.8433 33.8168C19.7492 33.8738 19.6446 33.9111 19.5358 33.9264C19.427 33.9418 19.3162 33.9348 19.2102 33.906C19.1041 33.8772 19.0049 33.8271 18.9186 33.7588C18.8074 33.6808 18.7188 33.5747 18.6615 33.4512C18.6042 33.3277 18.5804 33.1912 18.5924 33.0555C18.3557 33.0488 18.1273 32.9667 17.94 32.821C17.7514 32.6723 17.6099 32.4716 17.5327 32.2434C17.4555 32.0151 17.4459 31.7692 17.5052 31.5356C17.5645 31.302 17.69 31.0908 17.8665 30.9278C18.043 30.7647 18.2628 30.6569 18.4992 30.6173C18.8238 30.5813 19.1497 30.6738 19.4078 30.8752M18.639 32.5866C18.6744 32.566 18.7146 32.5552 18.7555 32.5552C18.7964 32.5552 18.8365 32.566 18.872 32.5866C18.9003 32.6235 18.9157 32.6689 18.9157 32.7155C18.9157 32.7622 18.9003 32.8075 18.872 32.8445C18.8146 32.9089 18.783 32.9924 18.783 33.0789C18.783 33.1654 18.8146 33.2489 18.872 33.3133C18.9067 33.3495 18.9484 33.3782 18.9944 33.3979C19.0404 33.4175 19.0899 33.4276 19.1399 33.4276C19.1899 33.4276 19.2394 33.4175 19.2854 33.3979C19.3314 33.3782 19.3731 33.3495 19.4078 33.3133V33.1727C19.4077 33.1429 19.4137 33.1134 19.4257 33.0861C19.4377 33.0589 19.4552 33.0345 19.4773 33.0145C19.4993 32.9946 19.5252 32.9796 19.5534 32.9705C19.5816 32.9614 19.6114 32.9584 19.6408 32.9617H19.8738C20.0803 32.9325 20.267 32.8227 20.3935 32.6559C20.52 32.4891 20.576 32.2789 20.5495 32.0708C20.538 31.9659 20.5058 31.8643 20.4549 31.7719C20.404 31.6796 20.3354 31.5983 20.253 31.5329C20.1706 31.4674 20.0761 31.4191 19.9751 31.3907C19.874 31.3623 19.7683 31.3545 19.6641 31.3675C19.5306 31.3978 19.4041 31.4535 19.2913 31.5316C19.263 31.5481 19.2309 31.5568 19.1981 31.5568C19.1654 31.5568 19.1333 31.5481 19.105 31.5316C19.0524 31.5514 18.9944 31.5514 18.9419 31.5316C18.8912 31.4248 18.8199 31.3291 18.7322 31.2503C18.5727 31.1343 18.3751 31.0842 18.1801 31.1104C17.985 31.1366 17.8074 31.237 17.6837 31.391C17.62 31.47 17.573 31.5612 17.5455 31.6591C17.518 31.757 17.5105 31.8595 17.5236 31.9604C17.5367 32.0612 17.57 32.1584 17.6216 32.2459C17.6731 32.3334 17.7418 32.4094 17.8235 32.4694C17.8967 32.5324 17.9822 32.5796 18.0744 32.6078C18.1666 32.636 18.2636 32.6448 18.3594 32.6335H18.639" fill="#E52330"/>
<path d="M23.7188 21.3571L22.647 20.6303C22.5951 20.5912 22.5333 20.5673 22.4687 20.5614C22.4041 20.5556 22.3391 20.5679 22.281 20.5971C22.223 20.6263 22.1741 20.6712 22.14 20.7268C22.1059 20.7823 22.0878 20.8464 22.0878 20.9117V22.2245L21.482 21.0992C21.4128 21.0333 21.3211 20.9965 21.2258 20.9965C21.1304 20.9965 21.0387 21.0333 20.9695 21.0992L20.2938 22.2011V20.9117C20.2963 20.8469 20.282 20.7825 20.2524 20.7249C20.2228 20.6673 20.1789 20.6184 20.1249 20.583C20.0709 20.5476 20.0088 20.5268 19.9444 20.5228C19.8801 20.5188 19.8158 20.5316 19.7579 20.56L18.6396 21.0992L19.3618 20.0208C19.4008 19.9686 19.4245 19.9064 19.4303 19.8414C19.4361 19.7764 19.4239 19.711 19.3948 19.6526C19.3658 19.5941 19.3212 19.545 19.266 19.5107C19.2108 19.4764 19.1471 19.4582 19.0822 19.4582H17.8008L18.8958 18.7549C18.9488 18.721 18.9923 18.6742 19.0225 18.6189C19.0527 18.5636 19.0685 18.5015 19.0685 18.4384C19.0685 18.3753 19.0527 18.3132 19.0225 18.2578C18.9923 18.2025 18.9488 18.1558 18.8958 18.1219L17.8008 17.442H19.0822C19.1466 17.4445 19.2106 17.4302 19.2678 17.4004C19.3251 17.3706 19.3737 17.3264 19.4089 17.2721C19.4441 17.2178 19.4647 17.1552 19.4687 17.0905C19.4727 17.0258 19.46 16.9611 19.4317 16.9028L18.8725 15.9182L19.9443 16.6449C19.9931 16.6825 20.0508 16.7065 20.1117 16.7145C20.1726 16.7225 20.2346 16.7142 20.2913 16.6904C20.348 16.6666 20.3974 16.6282 20.4347 16.5791C20.4719 16.5299 20.4957 16.4718 20.5035 16.4105V15.0977L21.0627 16.2698C21.0963 16.3231 21.1428 16.3669 21.1978 16.3973C21.2528 16.4277 21.3145 16.4436 21.3772 16.4436C21.4399 16.4436 21.5016 16.4277 21.5566 16.3973C21.6116 16.3669 21.6581 16.3231 21.6917 16.2698L22.3907 15.168V16.4574C22.3831 16.5213 22.393 16.5862 22.4195 16.6448C22.446 16.7034 22.4879 16.7536 22.5408 16.7899C22.5937 16.8262 22.6555 16.8472 22.7194 16.8505C22.7833 16.8539 22.8469 16.8396 22.9033 16.809L24.045 16.1995L23.2994 17.2779C23.2604 17.3302 23.2367 17.3923 23.2309 17.4573C23.2251 17.5224 23.2374 17.5878 23.2664 17.6462C23.2954 17.7046 23.34 17.7537 23.3952 17.788C23.4504 17.8224 23.5141 17.8406 23.579 17.8406H24.8837L23.7188 18.4032C23.6658 18.4371 23.6223 18.4838 23.5921 18.5392C23.5619 18.5945 23.5461 18.6566 23.5461 18.7197C23.5461 18.7828 23.5619 18.8449 23.5921 18.9002C23.6223 18.9555 23.6658 19.0023 23.7188 19.0362L24.8138 19.7395H23.5324C23.4688 19.7318 23.4044 19.7418 23.3461 19.7685C23.2878 19.7951 23.238 19.8373 23.2019 19.8905C23.1658 19.9437 23.145 20.0059 23.1416 20.0702C23.1383 20.1345 23.1526 20.1985 23.1829 20.2553L23.7188 21.3571Z" fill="#E52330"/>
<path d="M109.646 65.6421L108.574 64.9153C108.52 64.8837 108.46 64.866 108.398 64.8639C108.336 64.8618 108.274 64.8754 108.219 64.9033C108.163 64.9313 108.115 64.9727 108.08 65.024C108.044 65.0752 108.022 65.1346 108.015 65.1967V66.5095L107.432 65.3373C107.408 65.2764 107.366 65.2242 107.312 65.1874C107.258 65.1506 107.195 65.1309 107.129 65.1309C107.064 65.1309 107.001 65.1506 106.947 65.1874C106.893 65.2242 106.851 65.2764 106.827 65.3373L106.128 66.4392V65.1263C106.134 65.0609 106.121 64.9951 106.092 64.9364C106.062 64.8777 106.017 64.8285 105.961 64.7943C105.905 64.7601 105.841 64.7424 105.776 64.743C105.711 64.7437 105.647 64.7628 105.592 64.7981L104.45 65.3842L105.172 64.3058C105.214 64.256 105.241 64.1948 105.248 64.1299C105.255 64.065 105.243 63.9994 105.213 63.9415C105.183 63.8836 105.136 63.836 105.079 63.8049C105.022 63.7737 104.957 63.7604 104.893 63.7666H103.611L104.846 63.2977C104.905 63.2689 104.955 63.224 104.99 63.168C105.025 63.112 105.043 63.0473 105.043 62.9812C105.043 62.9152 105.025 62.8505 104.99 62.7945C104.955 62.7385 104.905 62.6935 104.846 62.6648L103.751 61.9849H105.056C105.121 61.9908 105.186 61.9783 105.245 61.9487C105.303 61.9191 105.352 61.8736 105.386 61.8175C105.42 61.7614 105.437 61.6968 105.437 61.631C105.436 61.5653 105.417 61.5011 105.382 61.4457L104.846 60.2735L105.918 61.0003C105.97 61.0394 106.032 61.0633 106.096 61.0692C106.161 61.075 106.226 61.0627 106.284 61.0335C106.342 61.0043 106.391 60.9594 106.425 60.9038C106.459 60.8483 106.477 60.7842 106.477 60.7189V59.4295L107.06 60.6017C107.09 60.6553 107.134 60.6998 107.188 60.7307C107.241 60.7616 107.301 60.7779 107.362 60.7779C107.424 60.7779 107.484 60.7616 107.537 60.7307C107.591 60.6998 107.635 60.6553 107.665 60.6017L108.364 59.4999V60.7893C108.362 60.8541 108.376 60.9184 108.406 60.976C108.435 61.0336 108.479 61.0825 108.533 61.1179C108.587 61.1534 108.649 61.1741 108.714 61.1781C108.778 61.1822 108.842 61.1693 108.9 61.1409L110.042 60.5314L109.32 61.6098C109.281 61.662 109.257 61.7242 109.251 61.7892C109.245 61.8542 109.258 61.9196 109.287 61.978C109.316 62.0365 109.36 62.0856 109.415 62.1199C109.471 62.1542 109.534 62.1724 109.599 62.1724H110.881L109.716 62.7351C109.663 62.769 109.619 62.8157 109.589 62.871C109.559 62.9264 109.543 62.9885 109.543 63.0516C109.543 63.1147 109.559 63.1768 109.589 63.2321C109.619 63.2874 109.663 63.3342 109.716 63.3681L110.811 64.0714H109.506C109.444 64.0683 109.383 64.0817 109.328 64.1102C109.273 64.1388 109.227 64.1814 109.194 64.2338C109.161 64.2862 109.142 64.3465 109.139 64.4086C109.137 64.4706 109.151 64.5322 109.18 64.5871L109.646 65.6421Z" fill="#E52330"/>
<path d="M12.7444 54.0844L12.162 53.6859C12.1318 53.6705 12.0984 53.6628 12.0647 53.6632C12.0309 53.6636 11.9977 53.6723 11.968 53.6884C11.9382 53.7045 11.9128 53.7276 11.8938 53.7557C11.8749 53.7839 11.863 53.8162 11.8591 53.85V54.5533L11.6494 53.9203C11.6303 53.8913 11.6043 53.8675 11.5738 53.851C11.5433 53.8345 11.5092 53.8259 11.4746 53.8259C11.44 53.8259 11.406 53.8345 11.3755 53.851C11.345 53.8675 11.319 53.8913 11.2999 53.9203L10.9504 54.5064V53.8265C10.9553 53.7915 10.9503 53.7559 10.9359 53.7236C10.9216 53.6914 10.8985 53.6639 10.8692 53.6443C10.84 53.6247 10.8059 53.6138 10.7708 53.6128C10.7357 53.6119 10.701 53.621 10.6708 53.639L9.97184 53.9203L10.3679 53.3342C10.3911 53.3055 10.4053 53.2705 10.4087 53.2336C10.4122 53.1968 10.4047 53.1597 10.3873 53.1272C10.3698 53.0946 10.3432 53.0679 10.3107 53.0505C10.2783 53.0331 10.2414 53.0258 10.2048 53.0294H9.50586L10.1349 52.7247C10.1638 52.7054 10.1874 52.6793 10.2038 52.6486C10.2202 52.6179 10.2287 52.5837 10.2287 52.5488C10.2287 52.514 10.2202 52.4797 10.2038 52.4491C10.1874 52.4184 10.1638 52.3923 10.1349 52.373L9.55246 51.9979H10.2514C10.288 52.0016 10.3249 51.9942 10.3573 51.9768C10.3898 51.9594 10.4164 51.9328 10.4339 51.9002C10.4513 51.8676 10.4588 51.8306 10.4553 51.7937C10.4519 51.7569 10.4377 51.7219 10.4145 51.6931L10.1116 51.0836L10.6708 51.4822C10.6994 51.5055 10.7342 51.5197 10.7708 51.5232C10.8074 51.5267 10.8442 51.5192 10.8766 51.5016C10.909 51.4841 10.9355 51.4573 10.9527 51.4246C10.97 51.392 10.9773 51.3549 10.9737 51.3181V50.6147L11.2766 51.2477C11.2957 51.2767 11.3217 51.3005 11.3522 51.317C11.3827 51.3335 11.4167 51.3421 11.4513 51.3421C11.4859 51.3421 11.52 51.3335 11.5505 51.317C11.581 51.3005 11.607 51.2767 11.6261 51.2477L11.9989 50.6616V51.3649C11.9986 51.398 12.007 51.4306 12.0232 51.4593C12.0394 51.4881 12.063 51.512 12.0913 51.5286C12.1197 51.5453 12.152 51.5541 12.1848 51.5542C12.2177 51.5542 12.25 51.5456 12.2785 51.529L12.8842 51.2243L12.4882 51.7869C12.465 51.8157 12.4508 51.8507 12.4474 51.8875C12.4439 51.9243 12.4514 51.9614 12.4688 51.994C12.4862 52.0266 12.5129 52.0532 12.5453 52.0706C12.5778 52.088 12.6146 52.0953 12.6512 52.0917H13.3502L12.7211 52.3965C12.6923 52.4157 12.6687 52.4418 12.6523 52.4725C12.6359 52.5032 12.6274 52.5375 12.6274 52.5723C12.6274 52.6071 12.6359 52.6414 12.6523 52.6721C12.6687 52.7027 12.6923 52.7289 12.7211 52.7481L13.3036 53.1232H12.6279C12.5932 53.1183 12.5577 53.1233 12.5257 53.1378C12.4936 53.1522 12.4663 53.1755 12.4468 53.2049C12.4273 53.2343 12.4165 53.2686 12.4156 53.3039C12.4146 53.3393 12.4237 53.3741 12.4416 53.4045L12.7444 54.0844Z" fill="#E52330"/>
<path d="M88.2812 56.0536H90.4713C91.0522 56.0536 91.6092 55.8215 92.02 55.4082C92.4307 54.9949 92.6614 54.4344 92.6614 53.8499C92.6614 53.2655 92.4307 52.705 92.02 52.2917C91.6092 51.8784 91.0522 51.6462 90.4713 51.6462H85.1358L81.1283 44.9179C80.3556 43.609 79.2575 42.525 77.942 41.7728C76.6266 41.0206 75.1391 40.6259 73.626 40.6278H50.3269C48.8138 40.6259 47.3263 41.0206 46.0108 41.7728C44.6954 42.525 43.5972 43.609 42.8245 44.9179L38.887 51.5759H33.5515C33.2639 51.5759 32.9791 51.6329 32.7133 51.7437C32.4476 51.8544 32.2062 52.0167 32.0028 52.2214C31.7994 52.426 31.6381 52.6689 31.5281 52.9363C31.418 53.2037 31.3613 53.4902 31.3613 53.7796C31.3613 54.069 31.418 54.3556 31.5281 54.6229C31.6381 54.8903 31.7994 55.1332 32.0028 55.3379C32.2062 55.5425 32.4476 55.7048 32.7133 55.8156C32.9791 55.9263 33.2639 55.9833 33.5515 55.9833H35.7416L33.1088 59.4999C31.9712 61.0288 31.358 62.8882 31.3613 64.7981V73.6129C31.3613 74.7818 31.8228 75.9029 32.6443 76.7294C33.4657 77.556 34.5799 78.0203 35.7416 78.0203V80.224C35.7416 81.3929 36.2031 82.514 37.0245 83.3405C37.846 84.1671 38.9601 84.6314 40.1218 84.6314H44.5021C45.6598 84.6439 46.7754 84.1947 47.6049 83.382C48.4345 82.5693 48.9105 81.4592 48.9289 80.2943V78.0906H75.1405V80.2943C75.1405 81.4632 75.602 82.5843 76.4234 83.4108C77.2449 84.2374 78.359 84.7017 79.5207 84.7017H83.8777C85.0394 84.7017 86.1535 84.2374 86.9749 83.4108C87.7964 82.5843 88.2579 81.4632 88.2579 80.2943V78.0906C89.4196 78.0906 90.5337 77.6263 91.3552 76.7997C92.1766 75.9732 92.6381 74.8522 92.6381 73.6832V64.8684C92.6348 62.9558 92.0133 61.0962 90.8674 59.5702L88.2812 56.0536ZM41.2169 71.4795C40.3456 71.4795 39.51 71.1313 38.8939 70.5114C38.2778 69.8915 37.9317 69.0507 37.9317 68.174C37.9317 67.2973 38.2778 66.4565 38.8939 65.8366C39.51 65.2167 40.3456 64.8684 41.2169 64.8684C42.0882 64.8684 42.9238 65.2167 43.5399 65.8366C44.156 66.4565 44.5021 67.2973 44.5021 68.174C44.5021 69.0507 44.156 69.8915 43.5399 70.5114C42.9238 71.1313 42.0882 71.4795 41.2169 71.4795ZM79.4275 54.2016C77.6317 55.4019 75.5256 56.0458 73.3697 56.0536H50.653C48.4956 56.057 46.3862 55.4121 44.5953 54.2016L43.0575 53.1935L46.599 47.1685C46.9902 46.5193 47.5407 45.9822 48.1975 45.6086C48.8544 45.2351 49.5956 45.0376 50.3502 45.0351H73.6493C74.4038 45.0376 75.1451 45.2351 75.8019 45.6086C76.4588 45.9822 77.0093 46.5193 77.4005 47.1685L80.9886 53.1935L79.4508 54.2016H79.4275ZM82.8059 71.4795C82.1616 71.4565 81.5383 71.2433 81.0136 70.8664C80.4889 70.4895 80.086 69.9655 79.8551 69.3599C79.6242 68.7542 79.5756 68.0935 79.7152 67.4602C79.8548 66.8269 80.1765 66.249 80.6402 65.7983C81.104 65.3477 81.6892 65.0443 82.3231 64.926C82.957 64.8076 83.6115 64.8796 84.205 65.1329C84.7985 65.3861 85.3049 65.8095 85.661 66.3503C86.0171 66.8911 86.2072 67.5253 86.2076 68.174C86.2076 69.0507 85.8615 69.8915 85.2454 70.5114C84.6293 71.1313 83.7937 71.4795 82.9224 71.4795H82.8059Z" fill="#1CA6DA"/>
<path d="M31.8491 74.7382L13.3496 89.0857" stroke="#1CA6DA" stroke-miterlimit="10"/>
<path d="M108.808 85.4519L92.2656 74.5272" stroke="#1CA6DA" stroke-miterlimit="10"/>
</g>
<defs>
<clipPath id="clip0_137_1008">
<rect width="125" height="90" fill="white"/>
</clipPath>
</defs>
</svg>
