<svg width="45" height="45" viewBox="0 0 45 45" fill="none" xmlns="http://www.w3.org/2000/svg">
<g clip-path="url(#clip0_137_1064)">
<path d="M44.5422 16.3987C42.9698 11.56 37.754 8.90276 32.9158 10.4746C32.2766 10.6823 31.6296 10.9695 30.9901 11.3254C31.131 10.6074 31.2042 9.90313 31.2042 9.23112C31.2042 4.09417 27.6545 0.00427246 22.5925 0.00427246C17.523 0.00427246 13.7959 4.10323 13.7959 9.23112C13.7959 9.90304 13.8691 10.6073 14.01 11.3254C13.3705 10.9696 12.7234 10.6823 12.0843 10.4746C7.24624 8.9025 2.03011 11.56 0.457833 16.3987C-1.13668 21.3063 1.57633 26.7716 6.38192 28.3332C7.02107 28.5409 7.71329 28.6887 8.4398 28.7768C7.90375 29.2749 7.43072 29.8017 7.03566 30.3453C4.04518 34.4613 4.96091 40.243 9.07683 43.2334C13.1908 46.2225 18.5343 45.3216 21.5344 41.1921C21.9295 40.6484 22.2841 40.0356 22.5924 39.3719C22.9006 40.0357 23.2553 40.6484 23.6503 41.1921C26.6545 45.3272 31.8178 46.2161 35.923 43.2334C40.039 40.2429 40.9548 34.4613 37.9643 30.3453C37.5694 29.8016 37.0961 29.2749 36.5601 28.7767C37.2865 28.6887 37.9791 28.5407 38.6183 28.3332C43.4238 26.7717 46.1367 21.3064 44.5422 16.3987ZM22.5925 2.64055C26.0548 2.64055 28.5679 5.41227 28.5679 9.23112C28.5679 10.9499 27.8953 13.069 26.7687 14.8998C26.6369 15.1135 26.5691 15.3606 26.5734 15.6116L25.2009 17.9871C24.7904 17.8095 24.3413 17.6718 23.893 17.5805V12.1755C23.893 11.4475 23.3204 10.8574 22.5925 10.8574C21.8646 10.8574 21.2744 11.4475 21.2744 12.1755V17.5806C20.8211 17.6734 20.379 17.8141 19.9554 18.0002L18.423 15.4904C18.4073 15.281 18.3415 15.0785 18.2313 14.8998C17.1047 13.069 16.432 10.9499 16.432 9.23112C16.4321 5.47388 19.0805 2.64055 22.5925 2.64055ZM7.1965 25.826C3.80928 24.7254 1.83191 20.7008 2.965 17.2133C4.08807 13.7571 7.81322 11.859 11.2697 12.9818C12.6886 13.4428 14.2379 14.4799 15.5334 15.8168L17.7971 19.5243C17.4359 19.9076 17.1218 20.3326 16.8613 20.7903L11.7173 19.119C11.0244 18.8939 10.2813 19.273 10.0564 19.9652C9.83128 20.6576 10.2104 21.4012 10.9026 21.6262L16.0446 23.297C15.985 23.8261 15.9891 24.3008 16.0479 24.8055L12.7555 25.9542C10.7823 26.3684 8.73036 26.3243 7.1965 25.826ZM21.2742 34.0396C21.1038 36.1694 20.4055 38.2612 19.4019 39.6426C17.2568 42.5948 13.5599 43.232 10.6264 41.1006C7.68649 38.9645 7.03249 34.8349 9.1685 31.8948C10.9137 29.4925 13.9452 28.4009 14.1751 28.2511L16.8744 27.3093C17.1164 27.7315 17.4042 28.1257 17.7326 28.4849L14.5531 32.8611C14.1252 33.4501 14.2558 34.2744 14.8446 34.7023C15.4333 35.13 16.2577 34.9998 16.6858 34.4107L19.8643 30.0356C20.3153 30.2422 20.7882 30.3968 21.2741 30.4964L21.2742 34.0396ZM22.5925 27.9929C20.4121 27.9929 18.6381 26.219 18.6381 24.0385C18.6381 21.858 20.412 20.0841 22.5925 20.0841C24.7729 20.0841 26.5468 21.858 26.5468 24.0385C26.5468 26.219 24.7729 27.9929 22.5925 27.9929ZM34.3735 41.1006C31.3442 43.3017 27.8581 42.4984 25.783 39.6426C24.7794 38.2612 24.0635 36.1694 23.8929 34.0397V30.4965C24.3851 30.3961 24.8743 30.2394 25.3202 30.0357L28.4988 34.4108C28.9267 34.9998 29.7511 35.1302 30.3399 34.7023C30.9289 34.2744 31.0595 33.4502 30.6315 32.8612L27.4521 28.4851C27.7777 28.1289 28.0634 27.7383 28.3041 27.3201L30.761 28.2053C31.0639 28.4299 34.0607 29.4574 35.8313 31.8948C37.9676 34.8349 37.3135 38.9645 34.3735 41.1006ZM32.3448 25.9737L29.1354 24.8174C29.1968 24.2988 29.1991 23.8209 29.1401 23.2969L34.2822 21.6261C34.9745 21.4011 35.3534 20.6575 35.1284 19.9651C34.9034 19.2727 34.1598 18.8938 33.4674 19.1189L28.3235 20.7902C28.0584 20.3246 27.7379 19.8929 27.3688 19.5045L29.5458 15.7368C30.8251 14.4389 32.3399 13.4335 33.7302 12.9818C37.1862 11.859 40.9118 13.757 42.0349 17.2132C43.168 20.7007 41.1907 24.7253 37.8034 25.8259H37.8035C36.2955 26.3159 34.287 26.3657 32.3448 25.9737Z" fill="#1CA6DA"/>
</g>
<defs>
<clipPath id="clip0_137_1064">
<rect width="45" height="45" fill="white"/>
</clipPath>
</defs>
</svg>
