<svg width="46" height="46" viewBox="0 0 46 46" fill="none" xmlns="http://www.w3.org/2000/svg">
<g clip-path="url(#clip0_137_1058)">
<path d="M31.1574 23H6.73022M1.34961 27.8873L27.889 27.9561C29.3879 27.9561 30.6031 29.1713 30.6031 30.6702C30.6031 32.1692 29.3879 33.3843 27.889 33.3843H27.0273M1.34961 18.0914H27.889C29.3879 18.0914 30.6031 16.8763 30.6031 15.3773C30.6031 13.8784 29.3879 12.6632 27.889 12.6632H27.0273" stroke="#1CA6DA" stroke-width="3" stroke-miterlimit="10" stroke-linecap="round" stroke-linejoin="round"/>
<path d="M20.375 32.7992C20.375 37.8956 24.5064 42.027 29.6027 42.027C34.6991 42.027 38.8304 37.8956 38.8304 32.7992V31.5783M20.375 13.2009C20.375 8.10452 24.5064 3.97314 29.6027 3.97314C34.6991 3.97314 38.8304 8.10452 38.8304 13.2009V14.4218" stroke="#1CA6DA" stroke-width="3" stroke-miterlimit="10" stroke-linecap="round" stroke-linejoin="round"/>
<path d="M35.4238 13.7723C40.5202 13.7723 44.6516 17.9037 44.6516 23.0001C44.6516 28.0964 40.5202 32.2278 35.4238 32.2278" stroke="#1CA6DA" stroke-width="3" stroke-miterlimit="10" stroke-linecap="round" stroke-linejoin="round"/>
<path d="M35.4229 26.8303C37.535 26.8303 39.2532 25.112 39.2532 23C39.2532 20.888 37.5349 19.1697 35.4229 19.1697M18.26 18.0914C15.2342 18.0914 12.7813 15.6385 12.7813 12.6127C12.7813 9.5869 15.2342 7.13404 18.26 7.13404C19.501 7.13211 20.7055 7.55334 21.6749 8.32822M21.7342 37.6237C20.7555 38.4286 19.5271 38.8678 18.2599 38.8659C15.2341 38.8659 12.7812 36.4131 12.7812 33.3873C12.7812 30.3615 15.2341 27.9086 18.2599 27.9086" stroke="#1CA6DA" stroke-width="3" stroke-miterlimit="10" stroke-linecap="round" stroke-linejoin="round"/>
</g>
<defs>
<clipPath id="clip0_137_1058">
<rect width="46" height="46" fill="white"/>
</clipPath>
</defs>
</svg>
