<svg width="46" height="46" viewBox="0 0 46 46" fill="none" xmlns="http://www.w3.org/2000/svg">
<path d="M40.0473 28.5991C40.1803 28.1831 40.2486 27.7492 40.25 27.3125C40.2472 26.4235 39.9693 25.5573 39.4546 24.8325C38.9398 24.1077 38.2134 23.56 37.375 23.2645V18.4216C38.2134 18.126 38.9398 17.5783 39.4546 16.8536C39.9693 16.1288 40.2472 15.2625 40.25 14.3736C40.25 13.9351 40.1781 13.5039 40.0473 13.0884L42.55 11.2125C42.7062 11.1013 42.8386 10.96 42.9394 10.7969C43.0401 10.6337 43.1073 10.4521 43.1368 10.2627C43.1663 10.0732 43.1576 9.87977 43.1112 9.69372C43.0648 9.50767 42.9817 9.33279 42.8667 9.17935C42.7518 9.02591 42.6072 8.89703 42.4417 8.80029C42.2762 8.70354 42.0929 8.64089 41.9028 8.61603C41.7127 8.59116 41.5195 8.60458 41.3347 8.6555C41.1498 8.70641 40.977 8.7938 40.8264 8.9125L38.2979 10.8086C37.6013 10.3338 36.7804 10.0743 35.9375 10.0625C34.8867 10.0625 33.8991 10.4794 33.1157 11.1651L27.2234 7.88613C27.2622 7.65469 27.3125 7.42325 27.3125 7.1875C27.3125 4.80987 25.3776 2.875 23 2.875C20.6224 2.875 18.6875 4.80987 18.6875 7.1875C18.6875 7.42325 18.7378 7.65469 18.7766 7.88613L12.8872 11.1636C12.1066 10.4794 11.1162 10.0625 10.0625 10.0625C9.22157 10.0625 8.41082 10.3428 7.70501 10.81L5.17501 8.9125C4.86897 8.70367 4.49418 8.62093 4.12867 8.68151C3.76316 8.74209 3.4351 8.94132 3.2128 9.23772C2.9905 9.53412 2.89109 9.90484 2.93528 10.2727C2.97947 10.6405 3.16384 10.9772 3.45001 11.2125L5.95126 13.0884C5.81944 13.5046 5.75158 13.9384 5.75001 14.375C5.75001 16.2466 6.95607 17.8279 8.62501 18.423V23.2659C7.78661 23.561 7.06013 24.1084 6.54535 24.833C6.03057 25.5575 5.75273 26.4237 5.75001 27.3125C5.75001 27.7509 5.82188 28.1822 5.95269 28.5976L3.45001 30.475C3.14501 30.7038 2.94337 31.0443 2.88945 31.4217C2.83554 31.7991 2.93376 32.1825 3.16251 32.4875C3.39126 32.7925 3.7318 32.9941 4.10921 33.0481C4.48663 33.102 4.87001 33.0037 5.17501 32.775L7.70357 30.8789C8.39954 31.3539 9.21998 31.6134 10.0625 31.625C11.1133 31.625 12.1009 31.2096 12.8843 30.5224L18.7766 33.7999C18.7378 34.0328 18.6875 34.2642 18.6875 34.5C18.6875 36.3716 19.8936 37.9529 21.5625 38.548V41.6875C21.5625 41.8763 21.5997 42.0632 21.6719 42.2376C21.7442 42.412 21.8501 42.5705 21.9835 42.704C22.117 42.8375 22.2755 42.9433 22.4499 43.0156C22.6243 43.0878 22.8112 43.125 23 43.125C23.1888 43.125 23.3757 43.0878 23.5501 43.0156C23.7245 42.9433 23.883 42.8375 24.0165 42.704C24.15 42.5705 24.2558 42.412 24.3281 42.2376C24.4003 42.0632 24.4375 41.8763 24.4375 41.6875V38.548C25.2759 38.2525 26.0023 37.7048 26.517 36.98C27.0318 36.2552 27.3097 35.389 27.3125 34.5C27.3125 34.2642 27.2608 34.0328 27.2234 33.8014L33.1128 30.5239C33.8934 31.2081 34.8838 31.625 35.9375 31.625C36.7784 31.625 37.5892 31.3447 38.295 30.8775L40.825 32.775C40.9759 32.8886 41.1477 32.9714 41.3306 33.0184C41.5136 33.0655 41.704 33.0759 41.891 33.0492C42.0779 33.0225 42.2578 32.9592 42.4203 32.8628C42.5827 32.7664 42.7245 32.6388 42.8375 32.4875C42.9508 32.3365 43.0332 32.1646 43.08 31.9818C43.1269 31.7989 43.1373 31.6086 43.1106 31.4217C43.0839 31.2348 43.0206 31.055 42.9244 30.8926C42.8283 30.7302 42.701 30.5883 42.55 30.475L40.0473 28.5991ZM31.625 27.3125C31.625 27.5483 31.6753 27.7797 31.7141 28.0111L25.8247 31.2886C25.0441 30.6044 24.0537 30.1875 23 30.1875C21.9492 30.1875 20.9616 30.6044 20.1782 31.2901L14.2859 28.0111C14.3247 27.7797 14.375 27.5483 14.375 27.3125C14.3722 26.4235 14.0943 25.5573 13.5796 24.8325C13.0648 24.1077 12.3384 23.56 11.5 23.2645V18.4216C12.3384 18.126 13.0648 17.5783 13.5796 16.8536C14.0943 16.1288 14.3722 15.2625 14.375 14.3736C14.375 14.1378 14.3233 13.9064 14.2859 13.6749L20.1494 10.4118C20.3378 10.5771 20.5404 10.7209 20.7546 10.8459C20.93 10.9537 21.1212 11.0256 21.3095 11.1076C21.3799 11.1363 21.4475 11.1708 21.5194 11.1967C21.9923 11.3749 22.4839 11.5 23 11.5C23.5146 11.5 24.0048 11.3764 24.4763 11.1996C24.5611 11.1708 24.6388 11.1291 24.7207 11.0961C24.8889 11.0213 25.0628 10.9624 25.2209 10.8661C25.4438 10.7367 25.6551 10.5858 25.852 10.4132L31.7156 13.6749C31.6753 13.9078 31.625 14.1392 31.625 14.375C31.625 16.2466 32.8311 17.8279 34.5 18.423V23.2659C33.6616 23.561 32.9351 24.1084 32.4203 24.833C31.9056 25.5575 31.6277 26.4237 31.625 27.3125ZM35.9375 12.9375C36.3803 12.9375 36.8129 13.1574 37.0789 13.501C37.236 13.7064 37.3349 13.9503 37.3652 14.2071C37.3954 14.4639 37.3559 14.7242 37.2508 14.9604C37.1457 15.1967 36.9788 15.4002 36.7678 15.5497C36.5567 15.6992 36.3093 15.789 36.0516 15.8097C35.7938 15.8305 35.5352 15.7814 35.303 15.6676C35.0708 15.5538 34.8735 15.3796 34.732 15.1632C34.5904 14.9468 34.5098 14.6962 34.4985 14.4379C34.4873 14.1795 34.5459 13.9229 34.6682 13.6951C34.7949 13.4687 34.9788 13.2795 35.2015 13.1465C35.4243 13.0136 35.6781 12.9415 35.9375 12.9375ZM23 5.75C23.2485 5.75018 23.4928 5.81473 23.7089 5.93735C23.9251 6.05998 24.1058 6.2365 24.2335 6.44972C24.3612 6.66294 24.4314 6.9056 24.4375 7.15405C24.4435 7.4025 24.3851 7.64828 24.2679 7.86744C23.8683 8.56894 22.9368 8.73281 22.2784 8.39356C22.0523 8.27469 21.8644 8.09429 21.7364 7.87319C21.618 7.65416 21.5585 7.40817 21.5636 7.15925C21.5688 6.91033 21.6384 6.667 21.7657 6.45305C21.8931 6.23909 22.0737 6.06184 22.2901 5.93861C22.5064 5.81538 22.751 5.75039 23 5.75ZM11.3203 13.6749L11.3218 13.6792C11.4285 13.8714 11.4899 14.0855 11.501 14.3051C11.5122 14.5246 11.4729 14.7438 11.3861 14.9459C11.2994 15.1479 11.1675 15.3273 11.0006 15.4704C10.8338 15.6136 10.6363 15.7165 10.4234 15.7714C10.2105 15.8264 9.9879 15.8318 9.7726 15.7873C9.55731 15.7428 9.35507 15.6495 9.18143 15.5147C9.00778 15.3798 8.86734 15.207 8.77089 15.0094C8.67443 14.8119 8.62453 14.5948 8.62501 14.375C8.62417 14.0699 8.72143 13.7725 8.90244 13.5269C9.18707 13.1574 9.61976 12.9375 10.0625 12.9375C10.5771 12.9375 11.063 13.2279 11.3203 13.6749ZM8.92113 28.1865C8.76372 27.9812 8.66457 27.7373 8.63411 27.4803C8.60366 27.2234 8.64303 26.9631 8.74809 26.7267C8.85314 26.4902 9.01999 26.2865 9.23107 26.1369C9.44214 25.9873 9.68965 25.8974 9.94752 25.8767C10.2054 25.8559 10.4641 25.905 10.6964 26.0189C10.9287 26.1328 11.126 26.3072 11.2675 26.5237C11.4091 26.7403 11.4896 26.991 11.5007 27.2494C11.5117 27.5079 11.4529 27.7646 11.3304 27.9924C10.833 28.8621 9.49326 28.9282 8.92113 28.1865ZM23 35.9375C22.7514 35.9376 22.5069 35.8732 22.2906 35.7507C22.0742 35.6282 21.8933 35.4517 21.7654 35.2384C21.6376 35.0251 21.5672 34.7824 21.5611 34.5338C21.555 34.2852 21.6134 34.0393 21.7307 33.8201C21.9995 33.3529 22.4854 33.0625 23 33.0625C23.5146 33.0625 24.0005 33.3529 24.2578 33.7999L24.2593 33.8043C24.3796 34.0232 24.4408 34.2712 24.4369 34.521C24.433 34.7708 24.3641 35.0153 24.2371 35.2304C24.11 35.4455 23.9291 35.6238 23.7122 35.7478C23.4953 35.8718 23.2498 35.9372 23 35.9375ZM34.6797 28.0111C34.5725 27.8191 34.5107 27.605 34.4991 27.3853C34.4876 27.1657 34.5265 26.9463 34.613 26.744C34.6994 26.5418 34.8311 26.362 34.9979 26.2186C35.1647 26.0752 35.3621 25.9719 35.575 25.9167C35.788 25.8616 36.0107 25.8559 36.2261 25.9003C36.4416 25.9446 36.644 26.0377 36.8178 26.1725C36.9916 26.3073 37.1323 26.4802 37.2289 26.6778C37.3254 26.8754 37.3754 27.0925 37.375 27.3125C37.3758 27.6176 37.2786 27.915 37.0976 28.1606C36.4852 28.9599 35.1584 28.8449 34.6797 28.0111Z" fill="#1CA6DA"/>
</svg>
