<svg width="160" height="160" viewBox="0 0 160 160" fill="none" xmlns="http://www.w3.org/2000/svg">
<path d="M89.7205 115C90.2259 115.001 90.7196 114.847 91.1355 114.56C97.7489 110.024 103.247 104.046 107.215 97.0775C107.388 96.7919 107.502 96.4746 107.55 96.1443C107.599 95.814 107.58 95.4774 107.496 95.1543C107.412 94.8313 107.264 94.5283 107.061 94.2633C106.858 93.9983 106.604 93.7766 106.314 93.6113C106.024 93.446 105.704 93.3404 105.373 93.3009C105.041 93.2613 104.705 93.2885 104.385 93.3809C104.064 93.4733 103.765 93.629 103.505 93.8388C103.246 94.0486 103.031 94.3083 102.873 94.6025C99.2771 100.916 94.2953 106.331 88.303 110.44C87.8729 110.748 87.5508 111.183 87.3824 111.684C87.2139 112.186 87.2078 112.727 87.3647 113.232C87.5217 113.737 87.8338 114.18 88.2567 114.497C88.6796 114.814 89.1918 114.99 89.7205 115ZM82.543 120C83.206 120 83.8419 119.737 84.3107 119.268C84.7796 118.799 85.043 118.163 85.043 117.5C85.043 116.837 84.7796 116.201 84.3107 115.732C83.8419 115.263 83.206 115 82.543 115C81.8799 115 81.2441 115.263 80.7752 115.732C80.3064 116.201 80.043 116.837 80.043 117.5C80.043 118.163 80.3064 118.799 80.7752 119.268C81.2441 119.737 81.8799 120 82.543 120Z" fill="#E52330"/>
<path d="M140.043 57.5H131.15C130.28 55.9853 129.026 54.7261 127.516 53.8486C126.005 52.971 124.29 52.506 122.543 52.5H98.9755C106.543 32.975 76.563 7.125 74.103 5.545C73.6594 5.19147 73.1089 4.99896 72.5417 4.99896C71.9745 4.99896 71.4241 5.19147 70.9805 5.545C68.4755 7.195 38.5605 32.9275 46.108 52.5H22.543C19.8916 52.5026 17.3496 53.5571 15.4748 55.4319C13.6 57.3066 12.5456 59.8486 12.543 62.5V77.5C12.5478 78.8625 12.8295 80.2098 13.3712 81.46C13.9129 82.7102 14.7031 83.8372 15.6938 84.7725C16.6846 85.7079 17.8551 86.432 19.1344 86.9008C20.4137 87.3697 21.775 87.5736 23.1355 87.5C25.773 96.7698 30.4586 105.329 36.8466 112.546C43.2346 119.762 51.1618 125.452 60.043 129.195V152.5C60.0429 152.904 60.1406 153.302 60.3277 153.659C60.5148 154.017 60.7858 154.324 61.1175 154.554C61.4492 154.785 61.8317 154.931 62.2323 154.981C62.6329 155.031 63.0398 154.984 63.418 154.842L83.418 147.342C83.8953 147.164 84.3067 146.844 84.5971 146.426C84.8875 146.007 85.0431 145.51 85.043 145V129.195C93.924 125.452 101.851 119.762 108.239 112.545C114.627 105.329 119.313 96.7697 121.95 87.5C123.311 87.5736 124.672 87.3697 125.952 86.9008C127.231 86.432 128.401 85.7079 129.392 84.7725C130.383 83.8372 131.173 82.7102 131.715 81.46C132.256 80.2098 132.538 78.8625 132.543 77.5V72.5H140.043C142.032 72.5 143.94 71.7098 145.346 70.3033C146.753 68.8968 147.543 66.9891 147.543 65C147.543 63.0109 146.753 61.1032 145.346 59.6967C143.94 58.2902 142.032 57.5 140.043 57.5ZM72.543 10.7675C77.8805 15.3925 95.043 31.325 95.043 45C95.043 50.9674 92.6724 56.6903 88.4529 60.9099C84.2333 65.1295 78.5103 67.5 72.543 67.5C66.5756 67.5 60.8526 65.1295 56.6331 60.9099C52.4135 56.6903 50.043 50.9674 50.043 45C50.043 31.3425 67.208 15.3925 72.543 10.7675ZM103.228 110.78C97.1915 117.118 89.8199 122.033 81.648 125.168C81.1758 125.348 80.7696 125.668 80.483 126.084C80.1964 126.501 80.043 126.994 80.043 127.5V143.268L65.043 148.893V127.5C65.0428 126.994 64.889 126.5 64.6019 126.084C64.3149 125.667 63.9081 125.348 63.4355 125.168C55.1337 121.923 47.6679 116.853 41.5904 110.333C35.513 103.812 30.9795 96.009 28.3255 87.5H116.758C114.11 96.2022 109.478 104.171 103.228 110.78ZM127.543 77.5C127.542 78.8257 127.014 80.0967 126.077 81.0341C125.14 81.9715 123.869 82.4987 122.543 82.5H22.543C21.2173 82.4987 19.9463 81.9715 19.0089 81.0341C18.0715 80.0967 17.5443 78.8257 17.543 77.5V62.5C17.5443 61.1743 18.0715 59.9033 19.0089 58.9659C19.9463 58.0285 21.2173 57.5013 22.543 57.5H48.0755C50.3935 61.9892 53.902 65.754 58.217 68.3822C62.5319 71.0104 67.4869 72.4007 72.5392 72.4007C77.5916 72.4007 82.5465 71.0104 86.8614 68.3822C91.1764 65.754 94.685 61.9892 97.003 57.5H122.54C123.866 57.5013 125.137 58.0285 126.075 58.9659C127.012 59.9033 127.539 61.1743 127.54 62.5L127.543 77.5ZM140.043 67.5H132.543V62.5H140.043C140.706 62.5 141.342 62.7634 141.811 63.2322C142.28 63.7011 142.543 64.337 142.543 65C142.543 65.663 142.28 66.2989 141.811 66.7678C141.342 67.2366 140.706 67.5 140.043 67.5Z" fill="#1CA6DA"/>
<path d="M132.543 36C132.543 25.14 118.468 13.55 117.87 13.0625C117.424 12.6997 116.867 12.5017 116.292 12.5017C115.717 12.5017 115.159 12.6997 114.713 13.0625C114.113 13.55 100.043 25.1375 100.043 36.0025C100.043 38.1365 100.463 40.2496 101.28 42.2211C102.097 44.1927 103.294 45.984 104.802 47.493C106.311 49.002 108.103 50.1989 110.074 51.0156C112.046 51.8322 114.159 52.2525 116.293 52.2525C118.427 52.2525 120.54 51.8322 122.512 51.0156C124.483 50.1989 126.275 49.002 127.783 47.493C129.292 45.984 130.489 44.1927 131.306 42.2211C132.123 40.2496 132.543 38.1365 132.543 36.0025V36ZM116.293 47.5C113.277 47.4631 110.399 46.2317 108.29 44.0758C106.182 41.92 105.014 39.0157 105.043 36C105.043 29.84 112.128 22.1 116.293 18.3075C120.455 22.1 127.543 29.84 127.543 36.0025C127.572 39.0182 126.404 41.9225 124.295 44.0783C122.186 46.2342 119.309 47.4631 116.293 47.5Z" fill="#1CA6DA"/>
<path d="M114.731 27.26C112.181 29.3425 115.558 32 116.501 33.8025C116.846 34.3683 117.402 34.7738 118.046 34.9299C118.69 35.086 119.37 34.9799 119.936 34.635C122.806 32.5725 119.756 29.7575 118.243 27.6475C118.038 27.391 117.785 27.1775 117.497 27.0191C117.21 26.8608 116.894 26.7607 116.567 26.7247C116.241 26.6887 115.911 26.7175 115.596 26.8093C115.281 26.9012 114.987 27.0543 114.731 27.26ZM45.0433 36C45.0433 25.14 30.9683 13.55 30.3708 13.0625C29.9246 12.6997 29.3671 12.5017 28.7921 12.5017C28.217 12.5017 27.6595 12.6997 27.2133 13.0625C26.6133 13.55 12.5433 25.1375 12.5433 36.0025C12.5153 40.3439 14.2104 44.5191 17.2568 47.6123C20.3032 50.7056 24.452 52.4642 28.7933 52.5025C33.1346 52.4642 37.2835 50.7056 40.3298 47.6123C43.3762 44.5191 45.0713 40.3439 45.0433 36.0025V36ZM28.7933 47.5C25.7777 47.4631 22.8998 46.2317 20.7908 44.0758C18.6818 41.92 17.514 39.0157 17.5433 36C17.5433 29.84 24.6283 22.1 28.7933 18.3075C32.9558 22.1 40.0433 29.84 40.0433 36.0025C40.0727 39.0182 38.9048 41.9225 36.7958 44.0783C34.6868 46.2342 31.8089 47.4631 28.7933 47.5Z" fill="#E52330"/>
<path d="M28.793 37.5C28.1299 37.5 27.494 37.7634 27.0252 38.2322C26.5564 38.7011 26.293 39.337 26.293 40C26.293 40.663 26.5564 41.2989 27.0252 41.7678C27.494 42.2366 28.1299 42.5 28.793 42.5C30.483 42.4645 32.0899 41.7604 33.2615 40.5419C34.4332 39.3234 35.0738 37.6901 35.043 36C35.043 35.337 34.7796 34.7011 34.3107 34.2322C33.8419 33.7634 33.206 33.5 32.543 33.5C31.8799 33.5 31.244 33.7634 30.7752 34.2322C30.3064 34.7011 30.043 35.337 30.043 36C30.0684 36.363 29.9526 36.7218 29.7196 37.0014C29.4867 37.2809 29.1546 37.4596 28.793 37.5ZM57.718 42.3375C58.3374 42.5719 59.0243 42.5514 59.6287 42.2806C60.2331 42.0098 60.7056 41.5107 60.943 40.8925C62.8088 36.5952 65.3342 32.6156 68.428 29.0975C68.8513 28.587 69.0545 27.9292 68.9929 27.2688C68.9312 26.6084 68.6098 25.9996 68.0992 25.5763C67.5887 25.1529 66.9309 24.9497 66.2705 25.0114C65.6101 25.073 65.0013 25.3945 64.578 25.905C61.1518 29.8574 58.3502 34.3105 56.2705 39.11C56.0349 39.7296 56.055 40.4174 56.3265 41.0222C56.5979 41.627 57.0984 42.1017 57.718 42.3375ZM60.043 50C60.043 49.337 59.7796 48.7011 59.3107 48.2322C58.8419 47.7634 58.206 47.5 57.543 47.5C56.8799 47.5 56.244 47.7634 55.7752 48.2322C55.3064 48.7011 55.043 49.337 55.043 50C55.043 50.663 55.3064 51.2989 55.7752 51.7678C56.244 52.2366 56.8799 52.5 57.543 52.5C58.206 52.5 58.8419 52.2366 59.3107 51.7678C59.7796 51.2989 60.043 50.663 60.043 50Z" fill="#E52330"/>
</svg>
