<svg width="130" height="130" viewBox="0 0 130 130" fill="none" xmlns="http://www.w3.org/2000/svg">
<path d="M120.872 56.678C120.409 42.5477 114.57 29.1267 104.548 19.1547C93.9798 8.58406 79.9337 2.76453 65 2.76453C34.838 2.76453 10.1928 26.7719 9.13047 56.678C6.80476 57.7082 4.82775 59.3907 3.43899 61.5218C2.05024 63.6529 1.30934 66.141 1.30609 68.6847V83.4356C1.30985 86.9189 2.69525 90.2585 5.15832 92.7215C7.62138 95.1846 10.9609 96.57 14.4442 96.5737C16.6979 96.5711 18.8586 95.6746 20.4522 94.081C22.0458 92.4873 22.9423 90.3267 22.945 88.073V64.0453C22.945 59.6436 19.5691 56.0544 15.277 55.6278C16.8614 29.573 38.5511 8.85828 65 8.85828C78.3087 8.85828 90.8233 14.0461 100.242 23.465C108.891 32.1141 113.953 43.3875 114.715 55.6298C110.427 56.0605 107.057 59.6477 107.057 64.0453V88.0709C107.057 92.5092 110.486 96.1208 114.829 96.4966V102.568C114.825 105.856 113.517 109.007 111.192 111.332C108.867 113.656 105.715 114.963 102.428 114.967H93.2445C92.6254 113.162 91.4566 111.596 89.902 110.489C88.3475 109.382 86.4854 108.79 84.5772 108.796H75.1116C73.7527 108.796 72.4486 109.084 71.2542 109.641C69.6549 110.38 68.3003 111.56 67.3501 113.044C66.4 114.528 65.894 116.252 65.8917 118.014C65.8917 120.48 66.8525 122.795 68.5933 124.528C69.4465 125.388 70.4621 126.07 71.581 126.534C72.7 126.999 73.9 127.237 75.1116 127.233H84.5772C88.5016 127.233 91.9608 124.696 93.2506 121.06H102.428C112.627 121.06 120.922 112.765 120.922 102.568V95.4119C123.234 94.3759 125.198 92.6941 126.576 90.5687C127.955 88.4434 128.69 85.9649 128.694 83.4316V68.6806C128.694 63.3303 125.472 58.7234 120.872 56.678ZM16.8492 64.0453V88.0709C16.8492 89.3973 15.7706 90.478 14.4422 90.478C12.5746 90.4758 10.784 89.7329 9.46344 88.4123C8.14282 87.0917 7.39996 85.3012 7.39781 83.4336V68.6826C7.39996 66.815 8.14282 65.0245 9.46344 63.7039C10.784 62.3833 12.5746 61.6404 14.4422 61.6383C15.7706 61.6383 16.8492 62.7189 16.8492 64.0453ZM87.6342 118.668C87.4828 119.367 87.097 119.994 86.5407 120.444C85.9844 120.895 85.2909 121.141 84.5751 121.144H75.1095C74.2767 121.144 73.4947 120.819 72.8975 120.222C72.6068 119.933 72.3764 119.59 72.2194 119.211C72.0625 118.833 71.9823 118.427 71.9834 118.018C71.9856 117.189 72.3157 116.396 72.9015 115.81C73.4874 115.225 74.2813 114.895 75.1095 114.894H84.5751C85.408 114.894 86.19 115.217 86.7851 115.814C87.3742 116.401 87.6992 117.185 87.6992 118.018C87.7012 118.241 87.6769 118.465 87.6342 118.668ZM122.6 83.4336C122.598 85.3012 121.855 87.0917 120.535 88.4123C119.214 89.7329 117.423 90.4758 115.556 90.478C114.918 90.4774 114.306 90.2237 113.854 89.7724C113.403 89.3211 113.149 88.7092 113.149 88.0709V64.0453C113.149 62.7189 114.227 61.6383 115.556 61.6383C117.423 61.6404 119.214 62.3833 120.535 63.7039C121.855 65.0245 122.598 66.815 122.6 68.6826V83.4336Z" fill="#2AB9EF"/>
<path d="M84.7295 84.4837C88.1525 84.48 91.4342 83.1185 93.8546 80.6982C96.275 78.2778 97.6364 74.9961 97.6402 71.5731V45.2664C97.6402 41.8255 96.2955 38.5836 93.8539 36.142C91.4124 33.7005 88.1725 32.3558 84.7295 32.3558H45.2705C41.8475 32.3595 38.5658 33.721 36.1454 36.1414C33.725 38.5618 32.3636 41.8434 32.3598 45.2664V71.5731C32.3636 74.9961 33.725 78.2778 36.1454 80.6982C38.5658 83.1185 41.8475 84.48 45.2705 84.4837H45.5122V91.3006C45.5082 92.133 45.6688 92.958 45.9847 93.7281C46.3007 94.4982 46.7657 95.1982 47.3532 95.788C47.9407 96.3777 48.6389 96.8455 49.4078 97.1644C50.1767 97.4833 51.001 97.647 51.8334 97.6462C52.6653 97.6479 53.489 97.4821 54.2553 97.1586C55.0217 96.8351 55.715 96.3605 56.2941 95.7633L67.6345 84.4837H84.7295ZM64.2322 79.2756L51.9594 91.4814C51.9045 91.5383 51.8639 91.5809 51.7481 91.5301C51.608 91.4733 51.608 91.3819 51.608 91.3006V81.4369C51.608 80.6288 51.287 79.8538 50.7156 79.2824C50.1442 78.711 49.3692 78.39 48.5611 78.39H45.2725C43.4652 78.3878 41.7326 77.6689 40.4546 76.391C39.1767 75.113 38.4578 73.3804 38.4556 71.5731V45.2664C38.4578 43.4591 39.1767 41.7265 40.4546 40.4485C41.7326 39.1706 43.4652 38.4517 45.2725 38.4495H84.7316C86.5475 38.4495 88.2558 39.1605 89.5477 40.4503C90.8395 41.7422 91.5484 43.4525 91.5484 45.2664V71.5731C91.5463 73.3804 90.8274 75.113 89.5494 76.391C88.2715 77.6689 86.5389 78.3878 84.7316 78.39H66.3813C65.5748 78.39 64.803 78.7089 64.2322 79.2756Z" fill="#E52330"/>
<path d="M50.1983 54.4111C47.7202 54.4111 45.7031 56.4301 45.7031 58.9062C45.7031 61.3823 47.7222 63.4014 50.1983 63.4014C52.6784 63.4014 54.6975 61.3823 54.6975 58.9062C54.6975 56.4301 52.6805 54.4111 50.1983 54.4111ZM64.998 54.4111C62.5198 54.4111 60.5028 56.4301 60.5028 58.9062C60.5028 61.3823 62.5219 63.4014 64.998 63.4014C67.4802 63.4014 69.4972 61.3823 69.4972 58.9062C69.4972 56.4301 67.4802 54.4111 64.998 54.4111ZM79.7977 54.4111C77.3195 54.4111 75.3025 56.4301 75.3025 58.9062C75.3025 61.3823 77.3216 63.4014 79.7977 63.4014C82.2778 63.4014 84.2969 61.3823 84.2969 58.9062C84.2969 56.4301 82.2778 54.4111 79.7977 54.4111Z" fill="#E52330"/>
</svg>
