<svg width="114" height="130" viewBox="0 0 114 130" fill="none" xmlns="http://www.w3.org/2000/svg">
<path d="M56.8228 130C45.8195 130 36.3072 115.882 32.0076 93.1328L37.3226 92.1172C41.0131 111.549 48.8327 124.584 56.8228 124.584C67.0801 124.584 78.4892 100.107 78.4892 65C78.4892 29.8934 67.0801 5.41633 56.8228 5.41633C48.8327 5.41633 41.0131 18.4509 37.3228 37.8826L32.0076 36.8669C36.3069 14.1177 45.8195 0 56.8228 0C72.0234 0 83.9055 28.5386 83.9055 65C83.9055 101.461 72.0234 130 56.8228 130Z" fill="#2AB9EF"/>
<path d="M19.7525 105.625C8.44481 105.625 3.67112 101.325 1.63987 97.7031C-5.7742 84.5 12.6094 59.7522 43.5176 41.4035C65.8959 28.0993 88.9498 21.8021 102.222 25.3568C106.826 26.5758 110.109 28.9115 112.005 32.2966C113.156 34.3278 113.698 36.6638 113.698 39.2029C113.664 45.8044 110.956 52.2036 105.708 58.2288L101.645 54.6741C106.081 49.596 108.28 44.5179 108.315 39.1691C108.315 37.5443 107.976 36.1222 107.333 34.938C106.182 32.872 104.016 31.4168 100.866 30.5698C89.0859 27.4219 67.1827 33.6514 46.2938 46.0413C16.0282 64.0179 1.23438 85.8878 6.34602 95.062C8.74924 99.3616 15.0126 100.14 19.9211 100.209C21.9524 100.209 23.8826 100.175 26.3879 99.9715L26.8619 105.354C24.1532 105.591 22.0209 105.625 19.9556 105.625H19.7525Z" fill="#2AB9EF"/>
<path d="M93.8932 105.625C80.4194 105.625 61.7313 99.4302 43.4839 88.5965C12.6094 70.2477 -5.77394 45.4997 1.63987 32.2966C3.67112 28.6746 8.47858 24.375 19.7525 24.375H20.1245C22.4264 24.375 24.4239 24.4761 26.7946 24.6457L26.4214 30.062C24.1532 29.8934 22.2578 29.8251 20.0907 29.8251C15.2157 29.8937 8.8178 30.6384 6.37979 34.9718C1.23412 44.1124 16.0282 65.9819 46.2598 83.9587C67.1139 96.3485 89.0522 102.578 100.833 99.4302C103.947 98.5832 106.148 97.128 107.265 95.062C107.942 93.8443 108.28 92.3543 108.247 90.6951C108.179 86.5988 106.385 75.6978 91.3203 62.8677L94.8412 58.7366C106.622 68.7581 113.494 80.3702 113.698 90.594C113.732 93.2341 113.19 95.6384 112.005 97.7034C110.109 101.055 106.826 103.39 102.222 104.643C99.7835 105.287 96.9738 105.625 93.8932 105.625Z" fill="#2AB9EF"/>
<path d="M56.8228 78.5413C49.3405 78.5413 43.2805 72.4814 43.2805 65C43.2805 57.5187 49.3405 51.4587 56.8228 51.4587C64.3042 51.4587 70.3642 57.5187 70.3642 65C70.3642 72.4814 64.3042 78.5413 56.8228 78.5413Z" fill="#E52330"/>
</svg>
