<svg width="1920" height="879" viewBox="0 0 1920 879" fill="none" xmlns="http://www.w3.org/2000/svg">
<path d="M1311.74 185.748V112.692C1491.74 246.112 1687.72 356.55 1895.11 441.443C1895.45 437.824 1895.45 434.181 1895.11 430.562C1686.52 343.124 1492.64 224.115 1320.3 77.7188H1351.41V31.8647H1047.28V77.7188H1086.95V102.589C959.804 168.493 821.678 210.635 679.373 226.939C533.471 213.215 398.552 143.583 302.907 32.6419H327.019V0H93.6722V32.6419H123.229V72.2785C90.9905 100.036 57.2328 125.982 22.1125 149.997C22.1125 158.546 22.1125 167.095 22.1125 174.867C76.5601 141.448 123.229 108.806 123.229 108.806V155.438C123.229 155.438 75.7823 189.634 21.3347 221.499C20.927 226.412 20.927 231.351 21.3347 236.265C56.981 221.467 91.1059 203.247 123.229 181.862V337.3L27.5572 327.196C27.1762 332.111 27.1762 337.048 27.5572 341.963L122.452 359.061V466.313L50.1141 453.878C50.1141 467.867 57.1145 481.08 61.0036 493.515L124.007 509.058V529.265L153.565 515.276L1086.95 735.997V763.199L1134.4 746.878L1664.87 872.782C1692.68 841.946 1718.65 809.507 1742.66 775.634L1295.41 690.143L1507.75 612.424L1807.99 667.605C1823.97 637.863 1838.25 607.245 1850.77 575.897L1311.74 498.178V233.157C1487.8 349.875 1675.48 448.066 1871.78 526.157L1876.44 511.39C1680.51 416.754 1491.77 307.916 1311.74 185.748ZM295.906 116.578V56.7348C369.347 137.51 463.903 196.189 568.922 226.162C472.91 223.049 379.144 196.357 295.906 148.443V116.578ZM181.566 32.6419H269.46V129.79C229.089 101.979 192.26 69.3559 159.787 32.6419H181.566ZM269.46 155.438V192.743H162.121V67.6154C194.688 100.604 230.669 130.043 269.46 155.438ZM162.121 225.385H269.46V353.621L179.233 341.186V363.724L313.796 388.594L162.121 466.313V225.385ZM1086.95 650.507L213.457 484.966L372.911 407.247C387.342 408.376 401.652 410.716 415.691 414.241L620.258 444.552L718.264 460.096C780.49 469.422 842.716 481.08 904.164 493.515C920.498 493.515 1083.06 525.379 1083.06 530.82L1086.95 650.507ZM1086.95 272.793V474.862L787.49 425.899L295.906 357.507V171.759C414.189 237.747 550.232 264.933 684.818 249.477C821.795 258.276 959.042 237.056 1086.95 187.302V272.793ZM1086.95 126.682V162.432C1001.11 194.53 911.405 215.174 820.159 223.83C912.702 200.932 1002.24 167.283 1086.95 123.573V126.682ZM1277.52 77.7188C1277.52 77.7188 1251.85 93.2626 1207.51 114.247L1160.07 77.7188H1277.52ZM1277.52 101.812V165.541L1226.96 129.013C1258.85 109.584 1277.52 98.7029 1277.52 98.7029V101.812ZM1134.4 101.812L1170.18 130.568L1134.4 145.334V101.812ZM1134.4 170.204L1189.62 146.111C1218.4 167.873 1247.96 189.634 1277.52 209.841V287.56H1134.4V170.204ZM1134.4 650.507V331.082H1277.52V500.509L1157.73 483.411V544.032L1303.19 571.233L1134.4 650.507Z" fill="#00A0DF" fill-opacity="0.3"/>
<path d="M1871.78 525.379L1864.77 544.032L1887.33 552.581C1887.33 546.363 1891.22 540.146 1893.55 533.928L1871.78 525.379Z" fill="#00A0DF" fill-opacity="0.3"/>
<path d="M1850.77 579.782H1875.66L1882.66 560.353H1858.55C1856.32 566.967 1853.72 573.454 1850.77 579.782Z" fill="#00A0DF" fill-opacity="0.3"/>
<path d="M1876.44 510.613L1898.22 520.716C1905.22 497.401 1912.22 474.085 1917.67 450.769L1895.11 441.443C1889.66 466.313 1883.44 488.074 1876.44 510.613Z" fill="#00A0DF" fill-opacity="0.3"/>
<path d="M25.2238 310.875L-2 305.435V324.865H22.1125L25.2238 310.875Z" fill="#00A0DF" fill-opacity="0.3"/>
<path d="M22.8903 171.759L-2 187.302C-2 195.074 -2 202.846 -2 210.618L22.1125 195.851C22.1125 188.08 22.1125 179.531 22.8903 171.759Z" fill="#00A0DF" fill-opacity="0.3"/>
<path d="M1742.66 777.188L1769.1 781.851C1792.48 748.626 1813.53 713.829 1832.11 677.708L1807.99 673.045C1788.62 709.207 1766.79 744.002 1742.66 777.188Z" fill="#00A0DF" fill-opacity="0.3"/>
<path d="M29.1129 341.963L5.00043 337.3C9.07984 374.982 15.575 412.364 24.446 449.215L50.1142 453.878C40.7257 417.06 33.7108 379.678 29.1129 341.963Z" fill="#00A0DF" fill-opacity="0.3"/>
<path d="M22.1125 237.042L-2 247.146C-1.6118 254.395 -1.6118 261.659 -2 268.907L21.3347 258.804L22.1125 237.042Z" fill="#00A0DF" fill-opacity="0.3"/>
<path d="M22.1125 198.96L-2 212.95V233.156L21.3347 219.167C21.3347 214.504 22.1125 206.732 22.1125 198.96Z" fill="#00A0DF" fill-opacity="0.3"/>
<path d="M22.1125 195.851L-2 210.618L22.1125 196.629V195.851Z" fill="#00A0DF" fill-opacity="0.3"/>
<path d="M22.1125 258.804L-2 268.907V305.435L25.2238 310.875C23.6682 290.668 22.8903 275.125 22.1125 258.804Z" fill="#00A0DF" fill-opacity="0.3"/>
<path d="M1858.55 561.13H1882.66L1887.33 549.472L1864.77 544.032C1864.77 549.472 1864.77 554.912 1858.55 561.13Z" fill="#00A0DF" fill-opacity="0.3"/>
<path d="M21.3347 222.276L-2 233.157V244.814L22.1125 234.711C21.564 230.589 21.3041 226.434 21.3347 222.276Z" fill="#00A0DF" fill-opacity="0.3"/>
<path d="M50.1141 453.878L24.446 449.215C24.446 462.427 30.6686 474.862 34.5577 487.297L61.0037 493.515C57.1145 481.08 53.2254 466.313 50.1141 453.878Z" fill="#00A0DF" fill-opacity="0.3"/>
<path d="M1895.11 441.443L1917.67 450.769V440.666L1895.89 430.562C1895.97 434.206 1895.71 437.849 1895.11 441.443Z" fill="#00A0DF" fill-opacity="0.3"/>
<path d="M1807.99 671.491L1832.11 676.154C1845.33 652.061 1857 626.414 1867.89 598.435L1875.66 581.337H1850.77C1838.2 612.157 1823.91 642.254 1807.99 671.491Z" fill="#00A0DF" fill-opacity="0.3"/>
<path d="M27.5573 327.196H3.44477C3.01817 331.33 3.01817 335.497 3.44477 339.631L29.1129 341.963C28.212 337.088 27.6919 332.151 27.5573 327.196Z" fill="#00A0DF" fill-opacity="0.3"/>
<path d="M1662.54 872.782L1688.99 879C1716.8 847.631 1742.78 814.675 1766.77 780.297L1742.66 777.188C1717.85 810.593 1691.1 842.512 1662.54 872.782Z" fill="#00A0DF" fill-opacity="0.3"/>
<path d="M1871.78 525.379L1893.55 533.928L1898.22 520.716L1876.44 510.613L1871.78 525.379Z" fill="#00A0DF" fill-opacity="0.3"/>
<path d="M24.446 146.889L-2 163.987C-2 171.759 -2 179.53 -2 187.302L22.1125 171.759C23.6682 163.987 23.6682 155.438 24.446 146.889Z" fill="#00A0DF" fill-opacity="0.3"/>
</svg>
