<svg width="18" height="18" viewBox="0 0 18 18" fill="none" xmlns="http://www.w3.org/2000/svg">
<path d="M17.1476 7.78617L4.92977 0.507769C4.66189 0.346874 4.34319 0.219168 3.99204 0.132018C3.6409 0.0448686 3.26426 0 2.88386 0C2.50345 0 2.12682 0.0448686 1.77567 0.132018C1.42452 0.219168 1.10582 0.346874 0.837939 0.507769C0.301244 0.829396 0 1.26447 0 1.71797C0 2.17148 0.301244 2.60655 0.837939 2.92818L11.0387 9.00496L0.837939 15.0817C0.301244 15.4034 0 15.8384 0 16.292C0 16.7455 0.301244 17.1805 0.837939 17.5022C1.10719 17.6613 1.42652 17.7871 1.7776 17.8725C2.12869 17.958 2.50462 18.0013 2.88386 18C3.26309 18.0013 3.63903 17.958 3.99011 17.8725C4.34119 17.7871 4.66052 17.6613 4.92977 17.5022L17.1476 10.2238C17.4177 10.0642 17.6321 9.87431 17.7784 9.66513C17.9247 9.45594 18 9.23157 18 9.00496C18 8.77835 17.9247 8.55398 17.7784 8.3448C17.6321 8.13561 17.4177 7.94575 17.1476 7.78617Z" fill="white"/>
</svg>
