<svg width="217" height="215" viewBox="0 0 217 215" fill="none" xmlns="http://www.w3.org/2000/svg">
<path d="M213.549 114.2L199.613 114.571L199.602 114.613L211.597 121.74L211.123 123.572L197.177 123.985L197.166 124.027L209.183 131.069L208.764 132.687L194.837 124.333L195.3 122.544L209.23 122.105L209.241 122.062L197.273 114.919L197.736 113.13L213.967 112.582L213.549 114.2Z" fill="black"/>
<path d="M196.835 135.683L193.858 132.404L194.6 130.832L205.811 143.57L205.154 144.963L188.213 144.36L188.965 142.769L193.398 142.964L196.835 135.683ZM203.91 143.475L197.895 136.84L194.964 143.047L203.91 143.475Z" fill="black"/>
<path d="M196.354 159.642L184.599 151.732L185.484 150.418L197.238 158.328L200.149 154.002L201.317 154.788L194.611 164.754L193.443 163.968L196.354 159.642Z" fill="black"/>
<path d="M174.697 170.19L173.268 170.512C173.054 169.518 173.108 168.47 173.432 167.368C173.746 166.277 174.366 165.261 175.292 164.321C176.94 162.65 178.852 161.806 181.03 161.79C183.208 161.795 185.138 162.627 186.82 164.284C188.502 165.942 189.35 167.859 189.366 170.037C189.392 172.225 188.587 174.15 186.95 175.811C186.147 176.625 185.234 177.228 184.21 177.62C183.186 178.032 182.217 178.168 181.304 178.03L181.541 176.41C182.195 176.54 182.931 176.473 183.748 176.207C184.566 175.963 185.299 175.512 185.948 174.853C187.317 173.464 187.948 171.883 187.842 170.11C187.726 168.348 186.994 166.803 185.646 165.475C184.299 164.147 182.738 163.443 180.964 163.362C179.19 163.282 177.623 163.931 176.264 165.31C174.843 166.751 174.321 168.378 174.697 170.19Z" fill="black"/>
<path d="M169.827 171.925L178.711 184.719L177.41 185.623L173.558 180.075L166.583 184.919L170.435 190.466L169.134 191.37L160.25 178.576L161.551 177.673L165.754 183.726L172.73 178.883L168.526 172.829L169.827 171.925Z" fill="black"/>
<path d="M157.432 199.525L147.779 188.779L147.738 188.795L147.97 203.238L146.393 203.857L146.253 187.18L147.81 186.569L159.029 198.898L157.432 199.525Z" fill="black"/>
<path d="M141.526 205.666L136.83 190.815L138.34 190.337L143.036 205.189L141.526 205.666Z" fill="black"/>
<path d="M132.418 193.434L134.096 208.919L128.956 209.476C127.965 209.584 126.977 209.521 125.993 209.288C125.01 209.07 124.091 208.69 123.236 208.149C122.382 207.622 121.659 206.874 121.067 205.905C120.477 204.951 120.115 203.855 119.981 202.615C119.846 201.376 119.965 200.22 120.335 199.147C120.707 198.089 121.253 197.203 121.973 196.491C122.694 195.793 123.51 195.225 124.421 194.787C125.334 194.364 126.287 194.098 127.278 193.991L132.418 193.434ZM132.37 207.69L130.995 195.004L127.867 195.343C126.744 195.465 125.757 195.749 124.906 196.195C124.041 196.658 123.364 197.218 122.875 197.876C122.387 198.548 122.038 199.272 121.827 200.047C121.616 200.823 121.554 201.619 121.643 202.435C121.731 203.252 121.962 204.016 122.334 204.728C122.706 205.44 123.202 206.065 123.821 206.603C124.441 207.155 125.222 207.557 126.164 207.809C127.093 208.077 128.119 208.151 129.242 208.029L132.37 207.69Z" fill="black"/>
<path d="M112.823 203.369L113.17 197.373L104.846 196.891L104.928 195.486L114.833 196.059L113.932 211.609L104.29 211.051L104.372 209.645L112.432 210.112L112.743 204.753L105.209 204.317L105.289 202.933L112.823 203.369Z" fill="black"/>
<path d="M83.7274 206.254C82.6726 204.349 82.4712 202.261 83.1233 199.992C83.7754 197.722 85.0562 196.053 86.9657 194.984C88.8711 193.929 90.9444 193.724 93.1857 194.368C95.4271 195.012 97.0751 196.287 98.1299 198.192C99.1807 200.112 99.38 202.206 98.7279 204.476C98.0758 206.745 96.7971 208.407 94.8917 209.462C92.9822 210.531 90.9068 210.743 88.6655 210.099C86.4242 209.455 84.7782 208.174 83.7274 206.254ZM87.7736 196.315C86.2672 197.256 85.2528 198.635 84.7303 200.453C84.2078 202.272 84.3352 203.98 85.1125 205.576C85.8756 207.169 87.1876 208.233 89.0483 208.767C90.909 209.302 92.5925 209.099 94.0989 208.158C95.5911 207.214 96.5985 205.832 97.121 204.014C97.6435 202.195 97.5231 200.49 96.76 198.897C95.9786 197.314 94.6576 196.256 92.7969 195.721C90.9362 195.186 89.2617 195.384 87.7736 196.315Z" fill="black"/>
<path d="M68.1104 203.052L74.4445 188.822L75.8916 189.466L69.5575 203.696L68.1104 203.052Z" fill="black"/>
<path d="M58.7688 199.431L59.0666 183.367L59.0307 183.341L51.345 194.154L50.054 193.236L59.0779 180.541L60.6918 181.688L60.3175 197.859L60.3534 197.885L68.1155 186.964L69.4066 187.882L60.3826 200.578L58.7688 199.431Z" fill="black"/>
<path d="M41.4974 185.077L51.3321 174.878L52.4723 175.978L42.6377 186.176L46.3909 189.796L45.4135 190.809L36.7669 182.471L37.7442 181.457L41.4974 185.077Z" fill="black"/>
<path d="M37.9319 172.625L43.7735 168.277L44.7192 169.548L32.2243 178.848L29.4921 175.177C28.5114 173.859 28.007 172.617 27.979 171.449C27.9392 170.29 28.4958 169.282 29.6488 168.423C30.5548 167.749 31.5134 167.502 32.5248 167.682C33.5274 167.85 34.4319 168.365 35.2383 169.227L38.4667 161.147L39.6226 162.7L36.3557 170.507L37.9319 172.625ZM32.3728 176.763L36.8377 173.439L35.1958 171.233C34.4339 170.21 33.659 169.562 32.8709 169.289C32.0828 169.016 31.3241 169.151 30.5946 169.694C29.1004 170.806 29.1327 172.409 30.6914 174.504L32.3728 176.763Z" fill="black"/>
<path d="M16.9158 152.3C17.6964 150.267 19.1654 148.77 21.3226 147.81C23.4799 146.85 25.5818 146.757 27.6284 147.532C29.6616 148.312 31.1523 149.768 32.1006 151.898C33.049 154.029 33.1328 156.111 32.3522 158.144C31.5581 160.183 30.0825 161.683 27.9252 162.643C25.7679 163.603 23.6727 163.693 21.6395 162.912C19.593 162.138 18.0955 160.685 17.1472 158.555C16.1989 156.424 16.1217 154.339 16.9158 152.3ZM27.1289 149.006C25.4398 148.458 23.7311 148.568 22.0026 149.338C20.2741 150.107 19.0484 151.303 18.3256 152.925C17.5968 154.534 17.6261 156.222 18.4134 157.991C19.2007 159.76 20.4389 160.918 22.1279 161.467C23.811 162.002 25.5168 161.885 27.2453 161.116C28.9738 160.346 30.2024 159.157 30.9312 157.548C31.6406 155.932 31.6016 154.24 30.8143 152.471C30.027 150.702 28.7985 149.547 27.1289 149.006Z" fill="black"/>
<path d="M16.2697 126.842L17.5023 126.612L18.4071 131.456L17.1744 131.687L16.2697 126.842Z" fill="black"/>
<path d="M2.78547 105.326L16.693 104.373L16.7023 104.33L4.41949 97.7114L4.81646 95.8615L18.7332 94.8653L18.7425 94.8223L6.44124 88.2899L6.79205 86.6551L21.0566 94.4188L20.6689 96.2257L6.76901 97.2481L6.75977 97.2911L19.0164 103.926L18.6287 105.733L2.43467 106.961L2.78547 105.326Z" fill="black"/>
<path d="M18.5896 83.0833L21.6985 86.2375L21.0214 87.8382L9.29835 75.5704L9.89826 74.152L26.8491 74.06L26.1635 75.681L21.7263 75.6674L18.5896 83.0833ZM11.2021 75.5873L17.4837 81.9706L20.1576 75.6488L11.2021 75.5873Z" fill="black"/>
<path d="M18.0844 59.105L30.1483 66.5343L29.3177 67.883L17.2538 60.4538L14.5198 64.8935L13.3209 64.1552L19.6196 53.927L20.8185 54.6653L18.0844 59.105Z" fill="black"/>
<path d="M38.9723 48.0342L40.3858 47.6507C40.6435 48.6345 40.6347 49.6838 40.3591 50.7986C40.0934 51.9024 39.5182 52.9442 38.6335 53.9238C37.0607 55.6654 35.1868 56.5916 33.0117 56.7023C30.8356 56.7924 28.8713 56.0461 27.1188 54.4634C25.3663 52.8808 24.4347 51.0019 24.324 48.8268C24.2023 46.6419 24.923 44.6841 26.486 42.9535C27.2527 42.1044 28.1391 41.4622 29.1449 41.0268C30.1498 40.5706 31.1116 40.3918 32.0304 40.4904L31.8641 42.1189C31.2047 42.0174 30.4725 42.117 29.6675 42.4176C28.8614 42.6975 28.1487 43.1803 27.5294 43.8661C26.222 45.3138 25.66 46.9208 25.8434 48.6872C26.0366 50.4427 26.8353 51.9545 28.2394 53.2225C29.6436 54.4906 31.2336 55.1262 33.0095 55.1292C34.7853 55.1323 36.3221 54.4154 37.6196 52.9786C38.9762 51.4765 39.4271 49.8283 38.9723 48.0342Z" fill="black"/>
<path d="M43.7457 46.0436L34.3095 33.6513L35.5697 32.6917L39.6614 38.0652L46.4177 32.9206L42.326 27.5471L43.5862 26.5875L53.0224 38.9798L51.7622 39.9394L47.2973 34.0758L40.5411 39.2204L45.0059 45.084L43.7457 46.0436Z" fill="black"/>
<path d="M55.3401 17.6412L65.4265 27.9819L65.4667 27.9641L64.6411 13.5425L66.1912 12.8594L67.0166 29.517L65.4865 30.1912L53.7698 18.3332L55.3401 17.6412Z" fill="black"/>
<path d="M70.535 11.0094L75.8424 25.6533L74.3532 26.1931L69.0458 11.5492L70.535 11.0094Z" fill="black"/>
<path d="M80.5025 22.659L78.231 7.24947L83.3458 6.49553C84.3325 6.35009 85.322 6.37472 86.3143 6.56942C87.3045 6.74962 88.2373 7.09393 89.1128 7.60236C89.9862 8.09628 90.7372 8.81579 91.3657 9.7609C91.9921 10.6915 92.3962 11.7735 92.578 13.0068C92.7598 14.2401 92.6862 15.4 92.357 16.4862C92.0258 17.558 91.5144 18.4636 90.8228 19.203C90.1291 19.9279 89.3353 20.5267 88.4414 20.9995C87.5453 21.4577 86.6039 21.7596 85.6172 21.905L80.5025 22.659ZM80.0034 8.41142L81.8642 21.035L84.9766 20.5762C86.0938 20.4115 87.0694 20.0898 87.9031 19.6111C88.7493 19.1158 89.4042 18.53 89.8679 17.8538C90.3294 17.1632 90.6508 16.4264 90.8319 15.6436C91.013 14.8609 91.0437 14.0632 90.9239 13.2506C90.8041 12.4381 90.5446 11.6832 90.1453 10.986C89.746 10.2887 89.2269 9.68331 88.5878 9.16968C87.9466 8.64154 87.1505 8.26966 86.1996 8.05403C85.261 7.82175 84.2331 7.78795 83.1158 7.95264L80.0034 8.41142Z" fill="black"/>
<path d="M99.7903 11.9334L99.6744 17.9383L108.011 18.0992L107.984 19.507L98.0635 19.3155L98.3641 3.74239L108.02 3.92877L107.993 5.33651L99.9206 5.18069L99.817 10.5477L107.362 10.6933L107.335 12.0791L99.7903 11.9334Z" fill="black"/>
<path d="M128.427 7.81138C129.561 9.6711 129.849 11.7483 129.292 14.0431C128.736 16.3378 127.526 18.059 125.662 19.2067C123.803 20.3401 121.74 20.6319 119.473 20.082C117.207 19.5321 115.507 18.3273 114.374 16.4676C113.244 14.5936 112.957 12.5093 113.514 10.2145C114.071 7.91979 115.279 6.2057 117.139 5.07227C119.002 3.92459 121.067 3.62569 123.333 4.17559C125.599 4.72549 127.297 5.93742 128.427 7.81138ZM124.8 17.9107C126.265 16.9081 127.221 15.4874 127.667 13.6488C128.114 11.8102 127.915 10.1094 127.072 8.54646C126.243 6.98701 124.888 5.97902 123.006 5.5225C121.125 5.06598 119.451 5.33905 117.986 6.34169C116.534 7.34778 115.585 8.77016 115.139 10.6088C114.693 12.4474 114.884 14.1465 115.713 15.706C116.56 17.2546 117.924 18.2572 119.805 18.7137C121.687 19.1702 123.352 18.9026 124.8 17.9107Z" fill="black"/>
<path d="M144.065 10.2776L138.321 24.7557L136.849 24.1715L142.593 9.69341L144.065 10.2776Z" fill="black"/>
<path d="M153.851 13.5942L154.2 29.6572L154.237 29.6813L161.481 18.5678L162.808 19.4328L154.302 32.4814L152.644 31.4002L152.367 15.2266L152.33 15.2026L145.014 26.4266L143.687 25.5616L152.192 12.513L153.851 13.5942Z" fill="black"/>
<path d="M171.634 27.1545L162.215 37.7381L161.032 36.685L170.451 26.1014L166.556 22.6351L167.492 21.5833L176.465 29.5691L175.529 30.6209L171.634 27.1545Z" fill="black"/>
<path d="M175.878 39.6027L170.215 44.1813L169.219 42.9496L181.331 33.1561L184.208 36.7144C185.241 37.9918 185.795 39.2132 185.87 40.3787C185.956 41.535 185.44 42.565 184.323 43.4688C183.444 44.1788 182.496 44.4644 181.479 44.3254C180.47 44.1978 179.546 43.7193 178.705 42.8899L175.803 51.0927L174.586 49.5872L177.538 41.6556L175.878 39.6027ZM181.266 35.2455L176.938 38.7451L178.667 40.8835C179.47 41.8757 180.27 42.4923 181.068 42.7332C181.867 42.9742 182.619 42.8088 183.327 42.237C184.775 41.0659 184.678 39.4653 183.037 37.4352L181.266 35.2455Z" fill="black"/>
<path d="M197.683 59.0162C196.986 61.0795 195.579 62.6351 193.463 63.6827C191.347 64.7304 189.251 64.909 187.174 64.2187C185.111 63.5218 183.562 62.1284 182.527 60.0385C181.492 57.9486 181.324 55.8719 182.02 53.8085C182.73 51.7386 184.144 50.1799 186.26 49.1322C188.376 48.0845 190.466 47.9092 192.529 48.606C194.606 49.2964 196.161 50.6865 197.196 52.7765C198.23 54.8664 198.393 56.9463 197.683 59.0162ZM187.613 62.7249C189.323 63.2039 191.026 63.0237 192.721 62.1843C194.417 61.3449 195.593 60.1 196.249 58.4497C196.911 56.8125 196.813 55.1264 195.954 53.3914C195.095 51.6564 193.81 50.5493 192.1 50.0703C190.397 49.6044 188.697 49.7912 187.002 50.6306C185.306 51.4701 184.127 52.7084 183.465 54.3455C182.822 55.9893 182.93 57.6788 183.789 59.4138C184.648 61.1488 185.922 62.2525 187.613 62.7249Z" fill="black"/>
<path d="M199.365 84.3393L198.143 84.6211L197.036 79.8191L198.258 79.5373L199.365 84.3393Z" fill="black"/>
</svg>
