<svg width="10" height="10" viewBox="0 0 10 10" fill="none" xmlns="http://www.w3.org/2000/svg">
<path d="M9.52646 4.32565L2.73876 0.282094C2.58994 0.192708 2.41288 0.12176 2.2178 0.0733435C2.02272 0.024927 1.81348 0 1.60214 0C1.39081 0 1.18156 0.024927 0.986483 0.0733435C0.791402 0.12176 0.614344 0.192708 0.465522 0.282094C0.167358 0.460776 0 0.702485 0 0.954431C0 1.20638 0.167358 1.44809 0.465522 1.62677L6.13261 5.00276L0.465522 8.37875C0.167358 8.55743 0 8.79914 0 9.05108C0 9.30303 0.167358 9.54474 0.465522 9.72342C0.615108 9.81181 0.79251 9.88174 0.987557 9.92919C1.1826 9.97665 1.39146 10.0007 1.60214 9.99998C1.81283 10.0007 2.02168 9.97665 2.21673 9.92919C2.41177 9.88174 2.58918 9.81181 2.73876 9.72342L9.52646 5.67986C9.67651 5.59121 9.79561 5.48573 9.87688 5.36952C9.95816 5.2533 10 5.12865 10 5.00276C10 4.87686 9.95816 4.75221 9.87688 4.636C9.79561 4.51978 9.67651 4.41431 9.52646 4.32565Z" fill="#1CA6DA"/>
</svg>
