<svg width="20" height="23" viewBox="0 0 20 23" fill="none" xmlns="http://www.w3.org/2000/svg">
<path d="M19.0529 10.0371L5.47752 1.40677C5.17988 1.21599 4.82576 1.06457 4.4356 0.961228C4.04544 0.85789 3.62695 0.804688 3.20428 0.804688C2.78162 0.804688 2.36313 0.85789 1.97297 0.961228C1.5828 1.06457 1.22869 1.21599 0.931044 1.40677C0.334715 1.78814 0 2.30404 0 2.84178C0 3.37952 0.334715 3.89541 0.931044 4.27678L12.2652 11.4823L0.931044 18.6879C0.334715 19.0692 0 19.5851 0 20.1229C0 20.6606 0.334715 21.1765 0.931044 21.5579C1.23022 21.7465 1.58502 21.8958 1.97511 21.9971C2.36521 22.0984 2.78291 22.1497 3.20428 22.1482C3.62565 22.1497 4.04336 22.0984 4.43345 21.9971C4.82355 21.8958 5.17835 21.7465 5.47752 21.5579L19.0529 12.9275C19.353 12.7383 19.5912 12.5132 19.7538 12.2651C19.9163 12.0171 20 11.751 20 11.4823C20 11.2136 19.9163 10.9476 19.7538 10.6995C19.5912 10.4515 19.353 10.2264 19.0529 10.0371Z" fill="white"/>
</svg>
