<svg width="25" height="24" viewBox="0 0 25 24" fill="none" xmlns="http://www.w3.org/2000/svg">
<g clip-path="url(#clip0_230_385)">
<path fill-rule="evenodd" clip-rule="evenodd" d="M24.32 12.2729C24.32 11.422 24.2437 10.6038 24.1019 9.81836H12.8V14.4602H19.2582C18.98 15.9602 18.1346 17.2311 16.8637 18.082V21.0929H20.7419C23.011 19.0038 24.32 15.9274 24.32 12.2729Z" fill="#4285F4"/>
<path fill-rule="evenodd" clip-rule="evenodd" d="M12.8001 23.9998C16.0401 23.9998 18.7564 22.9252 20.7419 21.0925L16.8637 18.0816C15.7891 18.8016 14.4146 19.2271 12.8001 19.2271C9.6746 19.2271 7.02914 17.1161 6.08551 14.2798H2.07642V17.3889C4.05096 21.3107 8.10914 23.9998 12.8001 23.9998Z" fill="#34A853"/>
<path fill-rule="evenodd" clip-rule="evenodd" d="M6.0855 14.2799C5.8455 13.5599 5.70914 12.7908 5.70914 11.9999C5.70914 11.209 5.8455 10.4399 6.0855 9.71993V6.61084H2.07641C1.26369 8.23084 0.800049 10.0636 0.800049 11.9999C0.800049 13.9363 1.26369 15.769 2.07641 17.389L6.0855 14.2799Z" fill="#FBBC05"/>
<path fill-rule="evenodd" clip-rule="evenodd" d="M12.8001 4.77273C14.5619 4.77273 16.1437 5.37818 17.3873 6.56727L20.8291 3.12545C18.751 1.18909 16.0346 0 12.8001 0C8.10914 0 4.05096 2.68909 2.07642 6.61091L6.08551 9.72C7.02914 6.88364 9.6746 4.77273 12.8001 4.77273Z" fill="#EA4335"/>
</g>
<defs>
<clipPath id="clip0_230_385">
<rect x="0.800049" width="24" height="24" rx="6" fill="white"/>
</clipPath>
</defs>
</svg>
