<svg width="15" height="9" viewBox="0 0 15 9" fill="none" xmlns="http://www.w3.org/2000/svg">
<path d="M13.8756 1.05049C13.6218 0.811956 13.2786 0.67807 12.9208 0.67807C12.563 0.67807 12.2198 0.811956 11.9661 1.05049L7.10423 5.58416L2.31011 1.05049C2.05637 0.811956 1.71313 0.67807 1.35535 0.67807C0.997573 0.67807 0.65433 0.811956 0.400591 1.05049C0.273657 1.16955 0.172907 1.31119 0.104152 1.46726C0.0353979 1.62332 0 1.79072 0 1.95978C0 2.12885 0.0353979 2.29625 0.104152 2.45231C0.172907 2.60838 0.273657 2.75002 0.400591 2.86908L6.1427 8.29924C6.2686 8.41928 6.41838 8.51456 6.58341 8.57958C6.74844 8.64459 6.92545 8.67807 7.10423 8.67807C7.28301 8.67807 7.46002 8.64459 7.62505 8.57958C7.79008 8.51456 7.93987 8.41928 8.06576 8.29924L13.8756 2.86908C14.0025 2.75002 14.1033 2.60838 14.172 2.45231C14.2408 2.29625 14.2762 2.12885 14.2762 1.95978C14.2762 1.79072 14.2408 1.62332 14.172 1.46726C14.1033 1.31119 14.0025 1.16955 13.8756 1.05049Z" fill="#1CA6DA"/>
</svg>
