<svg width="50" height="51" viewBox="0 0 50 51" fill="none" xmlns="http://www.w3.org/2000/svg">
<path d="M50 25.5C50 39.3071 38.8071 50.5 25 50.5C11.1929 50.5 0 39.3071 0 25.5C0 11.6929 11.1929 0.5 25 0.5C38.8071 0.5 50 11.6929 50 25.5Z" fill="white"/>
<path d="M11.7007 19.103H17.8783M11.2479 23.916H18.2676M17.9616 36.8829H40M40 31.4269V23.5579C40 22.7361 38.9822 22.204 38.1228 22.5765L33.1435 24.7352L32.7563 23.1684C32.5812 22.4595 31.6644 22.0855 30.9069 22.4139L25.5525 24.7352L25.1653 23.1684C24.9901 22.4595 24.0734 22.0856 23.3159 22.414L18.5122 24.4965M19.579 36.8829H10L12.1013 14.29H17.4777L19.579 36.8829ZM25.2832 30.8935H32.6783V36.8829H25.2832V30.8935Z" stroke="#007ACC" stroke-width="1.5" stroke-miterlimit="10" stroke-linecap="round" stroke-linejoin="round"/>
</svg>
