<svg width="120" height="120" viewBox="0 0 120 120" fill="none" xmlns="http://www.w3.org/2000/svg">
<circle cx="60" cy="60" r="60" fill="#E52330"/>
<path d="M15.44 72L25.205 47.22H34.06L43.72 72H34.655L33.36 68.36H25.485L24.26 72H15.44ZM31.505 61.99L29.51 55.865L27.48 61.99H31.505ZM53.6029 72.7C51.6429 72.7 49.7295 72.3617 47.8629 71.685C46.0195 71.0083 44.4562 70.0983 43.1729 68.955L48.2479 63.425C48.8545 64.1017 49.6479 64.6733 50.6279 65.14C51.6079 65.6067 52.5879 65.84 53.5679 65.84C54.8045 65.84 55.4229 65.455 55.4229 64.685C55.4229 64.2417 55.1545 63.88 54.6179 63.6C54.0812 63.32 52.8912 62.8767 51.0479 62.27C49.0645 61.6167 47.5012 60.7417 46.3579 59.645C45.2145 58.5483 44.6429 57.0083 44.6429 55.025C44.6429 53.555 44.9462 52.26 45.5529 51.14C46.1829 49.9967 47.0112 49.0983 48.0379 48.445C49.0645 47.7917 50.1612 47.3133 51.3279 47.01C52.5179 46.6833 53.7545 46.52 55.0379 46.52C56.6945 46.52 58.3629 46.8467 60.0429 47.5C61.7462 48.1533 63.2279 49.0517 64.4879 50.195L59.3079 55.48C58.7712 54.8267 58.0945 54.3133 57.2779 53.94C56.4845 53.5433 55.7379 53.345 55.0379 53.345C53.6845 53.345 53.0079 53.7183 53.0079 54.465C53.0079 54.815 53.1712 55.0833 53.4979 55.27C53.8245 55.4333 54.4779 55.6783 55.4579 56.005C56.1345 56.2383 56.6712 56.425 57.0679 56.565C57.4645 56.6817 57.9895 56.88 58.6429 57.16C59.3195 57.44 59.8562 57.7083 60.2529 57.965C60.6729 58.2217 61.1279 58.56 61.6179 58.98C62.1312 59.4 62.5279 59.8317 62.8079 60.275C63.0879 60.7183 63.3212 61.255 63.5079 61.885C63.7179 62.4917 63.8229 63.145 63.8229 63.845C63.8229 66.645 62.8079 68.8267 60.7779 70.39C58.7479 71.93 56.3562 72.7 53.6029 72.7ZM67.0844 72V47.22H75.4844V72H67.0844ZM77.2369 72L87.0019 47.22H95.8569L105.517 72H96.4519L95.1569 68.36H87.2819L86.0569 72H77.2369ZM93.3019 61.99L91.3069 55.865L89.2769 61.99H93.3019Z" fill="white"/>
</svg>
