<svg width="120" height="120" viewBox="0 0 120 120" fill="none" xmlns="http://www.w3.org/2000/svg">
<circle cx="60" cy="60" r="60" fill="#2AB9EF"/>
<g clip-path="url(#clip0_368_427)">
<path d="M59.4978 33.7876C58.2843 33.7876 57.3005 34.7714 57.3005 35.9849C57.3005 37.1983 58.2843 38.1821 59.4978 38.1821C66.7684 38.1821 72.6836 44.0963 72.6836 51.3657C72.6836 52.5792 73.6674 53.563 74.8809 53.563C76.0943 53.563 77.0781 52.5792 77.0781 51.3657C77.0781 41.6731 69.1917 33.7876 59.4978 33.7876Z" fill="#E52330"/>
<path d="M53.8362 25.5904C43.9089 27.6648 35.8596 35.6371 33.7416 45.626C31.9532 54.0608 34.157 62.5291 39.788 68.8594C42.5406 71.9536 44.1191 76.038 44.1191 80.0768V84.4713C44.1191 87.3951 46.0333 89.8791 48.6738 90.7394C49.5421 95.87 53.9953 99.9985 59.5 99.9985C65.0033 99.9985 69.4576 95.8713 70.3262 90.7394C72.9667 89.8791 74.8809 87.3951 74.8809 84.4712V80.0766C74.8809 76.03 76.4646 71.9946 79.3401 68.714C83.5483 63.9145 85.8681 57.7489 85.8672 51.3658C85.8672 34.7303 70.6403 22.0798 53.8362 25.5904ZM59.5 95.6041C56.6755 95.6041 54.199 93.6606 53.2845 91.0484H65.7153C64.801 93.6606 62.3245 95.6041 59.5 95.6041ZM70.4863 84.4713C70.4863 85.6829 69.5006 86.6686 68.2891 86.6686H50.7109C49.4994 86.6686 48.5137 85.6829 48.5137 84.4713V82.274H70.4863V84.4713ZM76.0354 65.8175C72.971 69.3137 71.0856 73.5295 70.6072 77.8795H48.3933C47.9154 73.5272 46.0349 69.2699 43.0718 65.9387C38.3787 60.6629 36.5449 53.5914 38.0406 46.5376C39.7866 38.3031 46.4956 31.6139 54.7352 29.8922C68.8012 26.9527 81.4727 37.516 81.4727 51.3658C81.4733 56.6831 79.5409 61.8194 76.0354 65.8175ZM28.5918 51.3658H24.1973C22.9838 51.3658 22 52.3496 22 53.5631C22 54.7766 22.9838 55.7604 24.1973 55.7604H28.5918C29.8053 55.7604 30.7891 54.7766 30.7891 53.5631C30.7891 52.3496 29.8053 51.3658 28.5918 51.3658ZM29.5019 40.3795L26.3945 37.2721C25.5366 36.414 24.1453 36.414 23.2872 37.2721C22.4291 38.1302 22.4291 39.5214 23.2872 40.3795L26.3945 43.4869C27.2525 44.345 28.6438 44.3451 29.5019 43.4869C30.36 42.6288 30.36 41.2376 29.5019 40.3795ZM29.5019 63.6393C28.6438 62.7812 27.2525 62.7812 26.3945 63.6393L23.2872 66.7467C22.4291 67.6048 22.4291 68.996 23.2872 69.8541C24.1451 70.7122 25.5364 70.7123 26.3945 69.8541L29.5019 66.7467C30.36 65.8886 30.36 64.4974 29.5019 63.6393ZM94.8027 51.3658H90.4082C89.1947 51.3658 88.2109 52.3496 88.2109 53.5631C88.2109 54.7766 89.1947 55.7604 90.4082 55.7604H94.8027C96.0162 55.7604 97 54.7766 97 53.5631C97 52.3496 96.0162 51.3658 94.8027 51.3658ZM95.7128 37.2721C94.8549 36.414 93.4636 36.414 92.6055 37.2721L89.4981 40.3795C88.64 41.2376 88.64 42.6288 89.4981 43.4869C90.3561 44.3448 91.7474 44.345 92.6055 43.4869L95.7128 40.3795C96.5709 39.5214 96.5709 38.1302 95.7128 37.2721ZM95.7128 66.7467L92.6055 63.6393C91.7475 62.7812 90.3562 62.7812 89.4981 63.6393C88.64 64.4974 88.64 65.8886 89.4981 66.7467L92.6055 69.8541C93.4634 70.712 94.8547 70.7122 95.7128 69.8541C96.5709 68.996 96.5709 67.6048 95.7128 66.7467Z" fill="white"/>
</g>
<defs>
<clipPath id="clip0_368_427">
<rect width="75" height="75" fill="white" transform="translate(22 25)"/>
</clipPath>
</defs>
</svg>
