<svg width="50" height="51" viewBox="0 0 50 51" fill="none" xmlns="http://www.w3.org/2000/svg">
<path d="M50 25.5C50 39.3071 38.8071 50.5 25 50.5C11.1929 50.5 0 39.3071 0 25.5C0 11.6929 11.1929 0.5 25 0.5C38.8071 0.5 50 11.6929 50 25.5Z" fill="white"/>
<mask id="mask0_381_30255" style="mask-type:luminance" maskUnits="userSpaceOnUse" x="10" y="10" width="31" height="27">
<path d="M40.0344 10.5388H10V36.1633H40.0344V10.5388Z" fill="white"/>
</mask>
<g mask="url(#mask0_381_30255)">
<path d="M27.0746 35.2124H13.9756V16.5946C13.9756 16.3402 14.0693 16.0922 14.2434 15.8857C14.4175 15.6791 14.6632 15.5245 14.9459 15.4435L27.0746 11.9652V35.2124Z" stroke="#E52330" stroke-linecap="round" stroke-linejoin="round"/>
<path d="M34.4469 32.8776V35.2124H27.0744V22.6003H35.2089C35.337 22.6003 35.4639 22.6217 35.5823 22.6635C35.7007 22.7054 35.8083 22.7667 35.8989 22.844C35.9895 22.9213 36.0613 23.013 36.1103 23.114C36.1593 23.215 36.1845 23.3233 36.1844 23.4326V30.1075" stroke="#E52330" stroke-linecap="round" stroke-linejoin="round"/>
<path d="M27.0744 35.2123H38.9327C39.1082 35.2123 39.2765 35.1528 39.4006 35.047C39.5247 34.9411 39.5944 34.7975 39.5944 34.6478V32.8776H27.0744V35.2123Z" stroke="#E52330" stroke-linecap="round" stroke-linejoin="round"/>
<path d="M36.8968 30.0189H37.145C37.4667 30.0189 37.7853 30.0729 38.0825 30.178C38.3798 30.2831 38.6499 30.4371 38.8774 30.6312C39.1048 30.8253 39.2853 31.0558 39.4083 31.3094C39.5314 31.563 39.5947 31.8349 39.5946 32.1094V32.8786H34.4471V32.1094C34.4471 31.8349 34.5104 31.563 34.6334 31.3094C34.7565 31.0558 34.9369 30.8253 35.1644 30.6312C35.3919 30.4371 35.662 30.2831 35.9592 30.178C36.2565 30.0729 36.5751 30.0189 36.8968 30.0189Z" stroke="#E52330" stroke-linecap="round" stroke-linejoin="round"/>
<path d="M11.1019 35.2123H13.9763V32.8776H10.4402V34.6483C10.4403 34.7979 10.5101 34.9414 10.6342 35.0471C10.7583 35.1529 10.9265 35.2123 11.1019 35.2123Z" stroke="#E52330" stroke-linecap="round" stroke-linejoin="round"/>
<path d="M13.6296 30.0189H13.9757V32.8776H10.4402V32.74C10.4402 32.0183 10.7762 31.3262 11.3743 30.8159C11.9725 30.3055 12.7837 30.0189 13.6296 30.0189Z" stroke="#E52330" stroke-linecap="round" stroke-linejoin="round"/>
<path d="M31.6294 22.6004H27.0744V11.9667L31.1953 15.365C31.3327 15.4784 31.4418 15.6142 31.5164 15.7643C31.591 15.9144 31.6294 16.0758 31.6294 16.2388V20.8307" stroke="#E52330" stroke-linecap="round" stroke-linejoin="round"/>
<path d="M17.1797 14.8044V12.2695C17.1798 12.167 17.2035 12.0655 17.2496 11.9708C17.2956 11.8761 17.3631 11.7901 17.4482 11.7177C17.5332 11.6453 17.6341 11.5879 17.7452 11.5488C17.8562 11.5097 17.9752 11.4896 18.0954 11.4897H18.1881C18.3082 11.4897 18.4271 11.5099 18.538 11.5491C18.649 11.5883 18.7498 11.6458 18.8347 11.7183C18.9197 11.7907 18.987 11.8767 19.033 11.9714C19.0789 12.066 19.1026 12.1675 19.1026 12.27V14.2529" stroke="#E52330" stroke-linecap="round" stroke-linejoin="round"/>
<path d="M27.0746 14.8041L17.1797 17.6418" stroke="#E52330" stroke-linecap="round" stroke-linejoin="round"/>
<path d="M27.0746 17.5056L17.1797 20.3433" stroke="#E52330" stroke-linecap="round" stroke-linejoin="round"/>
<path d="M27.0746 20.2072L17.1797 23.0449" stroke="#E52330" stroke-linecap="round" stroke-linejoin="round"/>
<path d="M27.0746 22.9087L17.1797 25.7464" stroke="#E52330" stroke-linecap="round" stroke-linejoin="round"/>
<path d="M18.8134 27.9794L17.1797 28.4479" stroke="#E52330" stroke-linecap="round" stroke-linejoin="round"/>
<path d="M27.0746 25.6102L20.7832 27.4145" stroke="#E52330" stroke-linecap="round" stroke-linejoin="round"/>
<path d="M22.3941 35.2124H17.1797V32.0243C17.1793 31.9043 17.225 31.7874 17.3097 31.6915C17.3945 31.5957 17.5136 31.5261 17.649 31.4933L21.7441 30.5179C21.8198 30.5002 21.8992 30.4976 21.9763 30.5104C22.0533 30.5231 22.1259 30.5509 22.1883 30.5915C22.2507 30.632 22.3013 30.6843 22.3362 30.7443C22.3711 30.8043 22.3893 30.8703 22.3894 30.9373L22.3941 35.2124Z" stroke="#E52330" stroke-linecap="round" stroke-linejoin="round"/>
<path d="M33.7576 25.6964H29.4413C29.4016 25.6965 29.3623 25.6898 29.3256 25.6769C29.2889 25.664 29.2556 25.645 29.2275 25.6211C29.1995 25.5971 29.1772 25.5687 29.1621 25.5374C29.1469 25.5061 29.1391 25.4725 29.1392 25.4387V24.5378C29.1392 24.4694 29.1711 24.4039 29.2277 24.3555C29.2844 24.3072 29.3612 24.2801 29.4413 24.2801H33.7576C33.8377 24.2802 33.9144 24.3074 33.971 24.3557C34.0277 24.404 34.0595 24.4695 34.0597 24.5378V25.4387C34.0597 25.507 34.0279 25.5726 33.9712 25.6209C33.9146 25.6692 33.8377 25.6964 33.7576 25.6964Z" stroke="#E52330" stroke-linecap="round" stroke-linejoin="round"/>
<path d="M33.7576 28.5506H29.4413C29.4016 28.5507 29.3623 28.544 29.3256 28.5311C29.2889 28.5182 29.2556 28.4992 29.2275 28.4752C29.1995 28.4513 29.1772 28.4229 29.1621 28.3916C29.1469 28.3603 29.1391 28.3267 29.1392 28.2928V27.3895C29.1391 27.3556 29.1469 27.3221 29.1621 27.2908C29.1772 27.2595 29.1995 27.231 29.2275 27.2071C29.2556 27.1831 29.2889 27.1641 29.3256 27.1512C29.3623 27.1383 29.4016 27.1317 29.4413 27.1317H33.7576C33.8377 27.1317 33.9146 27.1589 33.9712 27.2072C34.0279 27.2556 34.0597 27.3211 34.0597 27.3895V28.2928C34.0595 28.3612 34.0277 28.4266 33.971 28.4749C33.9144 28.5233 33.8377 28.5505 33.7576 28.5506Z" stroke="#E52330" stroke-linecap="round" stroke-linejoin="round"/>
<path d="M30.868 31.4338H29.4413C29.4016 31.4339 29.3623 31.4273 29.3256 31.4143C29.2889 31.4014 29.2556 31.3824 29.2275 31.3585C29.1995 31.3345 29.1772 31.3061 29.1621 31.2748C29.1469 31.2435 29.1391 31.2099 29.1392 31.1761V30.2727C29.1392 30.2043 29.1711 30.1388 29.2277 30.0904C29.2844 30.0421 29.3612 30.015 29.4413 30.015H30.868C30.9481 30.015 31.0249 30.0421 31.0816 30.0904C31.1382 30.1388 31.1701 30.2043 31.1701 30.2727V31.1761C31.1701 31.2099 31.1624 31.2434 31.1473 31.2747C31.1322 31.3059 31.11 31.3343 31.082 31.3583C31.054 31.3822 31.0207 31.4012 30.9841 31.4142C30.9474 31.4271 30.9082 31.4338 30.8685 31.4338H30.868Z" stroke="#E52330" stroke-linecap="round" stroke-linejoin="round"/>
<path d="M19.7865 30.9849V35.2124" stroke="#E52330" stroke-linecap="round" stroke-linejoin="round"/>
</g>
</svg>
