<svg width="508" height="187" viewBox="0 0 508 187" fill="none" xmlns="http://www.w3.org/2000/svg">
<path d="M365.741 141.28C365.743 149.207 368.095 156.955 372.5 163.544C376.905 170.134 383.166 175.27 390.49 178.302C397.813 181.334 405.872 182.126 413.646 180.579C421.42 179.031 428.561 175.213 434.165 169.607C439.769 164.002 443.586 156.86 445.131 149.085C446.677 141.311 445.883 133.253 442.849 125.93C439.815 118.607 434.678 112.348 428.087 107.944C421.496 103.54 413.747 101.19 405.821 101.19C400.556 101.19 395.344 102.227 390.48 104.242C385.617 106.257 381.198 109.21 377.476 112.933C373.754 116.655 370.802 121.075 368.789 125.939C366.775 130.803 365.739 136.016 365.741 141.28Z" stroke="#E7EFF0" stroke-opacity="0.1" stroke-width="10" stroke-linecap="round" stroke-linejoin="round"/>
<path d="M365.741 157.31H133.271" stroke="#E7EFF0" stroke-opacity="0.1" stroke-width="10" stroke-linecap="round" stroke-linejoin="round"/>
<path d="M400.151 135.61L411.511 146.94" stroke="#E7EFF0" stroke-opacity="0.1" stroke-width="10" stroke-linecap="round" stroke-linejoin="round"/>
<path d="M53.1106 141.28C53.1126 149.207 55.4649 156.955 59.8702 163.544C64.2754 170.134 70.5357 175.27 77.8596 178.302C85.1834 181.334 93.2419 182.126 101.016 180.579C108.79 179.031 115.931 175.213 121.535 169.607C127.139 164.002 130.956 156.86 132.501 149.085C134.047 141.311 133.253 133.253 130.219 125.93C127.185 118.607 122.048 112.348 115.457 107.944C108.866 103.54 101.117 101.19 93.1906 101.19C87.9264 101.19 82.7137 102.227 77.8504 104.242C72.987 106.257 68.5682 109.21 64.8463 112.933C61.1243 116.655 58.1723 121.075 56.1587 125.939C54.145 130.803 53.1093 136.016 53.1106 141.28Z" stroke="#E7EFF0" stroke-opacity="0.1" stroke-width="10" stroke-linecap="round" stroke-linejoin="round"/>
<path d="M98.8606 135.61L87.5106 146.94" stroke="#E7EFF0" stroke-opacity="0.1" stroke-width="10" stroke-linecap="round" stroke-linejoin="round"/>
<path d="M445.901 149.29L484.571 138.29C489.607 136.859 494.037 133.82 497.186 129.637C500.335 125.454 502.029 120.356 502.011 115.12V67.25C502.019 63.3468 500.601 59.5751 498.022 56.6448C495.444 53.7145 491.883 51.8279 488.011 51.34L458.361 47.64C444.819 45.9552 431.664 41.9749 419.461 35.87L381.461 16.87C365.866 9.06647 348.669 5.00244 331.231 5H259.811C239.991 4.99897 220.582 10.6499 203.861 21.29L141.281 61.11C141.281 61.11 68.6206 61.11 23.2806 82.17C17.7871 84.7597 13.148 88.8651 9.90939 94.0029C6.67083 99.1406 4.9677 105.097 5.00058 111.17V137.78C5.00058 150.19 12.1806 157.33 21.0006 157.33" stroke="#E7EFF0" stroke-opacity="0.1" stroke-width="10" stroke-linecap="round" stroke-linejoin="round"/>
<path d="M349.701 61.1101H365.171C370.434 61.1104 375.646 60.0737 380.508 58.0594C385.371 56.045 389.789 53.0923 393.511 49.3701L405.821 37.0601" stroke="#E7EFF0" stroke-opacity="0.1" stroke-width="10" stroke-linecap="round" stroke-linejoin="round"/>
<path d="M141.281 61.11H317.641" stroke="#E7EFF0" stroke-opacity="0.1" stroke-width="10" stroke-linecap="round" stroke-linejoin="round"/>
<path d="M333.671 125.24H165.331" stroke="#E7EFF0" stroke-opacity="0.1" stroke-width="10" stroke-linecap="round" stroke-linejoin="round"/>
<path d="M502.011 85.16H486.011" stroke="#E7EFF0" stroke-opacity="0.1" stroke-width="10" stroke-linecap="round" stroke-linejoin="round"/>
<path d="M29.0605 101.19H9.69055" stroke="#E7EFF0" stroke-opacity="0.1" stroke-width="10" stroke-linecap="round" stroke-linejoin="round"/>
<path d="M285.581 61.11V5" stroke="#E7EFF0" stroke-opacity="0.1" stroke-width="10" stroke-linecap="round" stroke-linejoin="round"/>
<path d="M377.761 57.86L367.321 11.76" stroke="#E7EFF0" stroke-opacity="0.1" stroke-width="10" stroke-linecap="round" stroke-linejoin="round"/>
</svg>
