<svg width="262" height="261" viewBox="0 0 262 261" fill="none" xmlns="http://www.w3.org/2000/svg">
<path d="M228.952 0H88.3507C70.4448 0 55.8762 14.5675 55.8762 32.4745V94.0379H23.3757C17.8846 94.0379 13.4185 98.504 13.4185 103.995V117.414C13.4185 118.275 13.7606 119.101 14.3696 119.71C14.9786 120.319 15.8046 120.661 16.6659 120.661H17.6201L5.23017 212.011H3.24745C2.38617 212.011 1.56017 212.353 0.951156 212.962C0.342141 213.571 0 214.397 0 215.259V228.678C0 234.168 4.46731 238.634 9.95727 238.634H13.6605V257.581C13.6605 258.442 14.0027 259.268 14.6117 259.877C15.2207 260.486 16.0467 260.828 16.908 260.828H109.171C110.032 260.828 110.858 260.486 111.467 259.877C112.076 259.268 112.418 258.442 112.418 257.581V249.225H228.953C246.86 249.225 261.428 234.656 261.428 216.75V32.4745C261.428 14.5675 246.859 0 228.952 0ZM19.9122 103.995C19.9131 103.077 20.2782 102.197 20.9273 101.548C21.5764 100.899 22.4566 100.534 23.3745 100.533H102.703C103.621 100.534 104.501 100.899 105.15 101.548C105.799 102.197 106.163 103.077 106.164 103.995V114.166H19.9122V103.995ZM155.404 44.3873V56.4418H81.8558V44.3873H155.404ZM81.8558 37.8924V32.4745C81.8558 28.8928 84.7702 25.9796 88.3507 25.9796H155.404V37.8924H81.8558ZM155.404 62.9367V74.9913H81.8558V62.9367H155.404ZM155.404 81.4862V93.5407H81.8558V81.4862H155.404ZM122.83 212.011H120.849L120.757 211.332H155.404V223.245H126.078V215.259C126.078 214.397 125.736 213.571 125.127 212.962C124.518 212.353 123.692 212.011 122.83 212.011ZM119.876 204.837L118.24 192.783H155.404V204.837H119.876ZM117.36 186.288L115.725 174.233H155.404V186.288H117.36ZM114.844 167.738L113.208 155.684H155.404V167.738H114.844ZM96.6972 120.661H101.905L114.294 212.012H105.633L96.6972 120.661ZM99.1074 212.012H89.8799L84.5211 120.661H90.1716L99.1074 212.012ZM112.327 149.189L110.693 137.134H155.404V149.189H112.327ZM109.812 130.64L108.459 120.661H109.413C110.791 120.661 111.964 119.798 112.434 118.585H155.404V130.64H109.812ZM112.659 112.09V103.995C112.66 102.633 112.379 101.285 111.834 100.036H155.404V112.09H112.659ZM83.3732 212.012H73.9592L72.2162 120.661H78.0143L83.3732 212.012ZM67.4631 212.012H58.6135L60.3577 120.661H65.7201L67.4631 212.012ZM53.8616 120.661L52.1174 212.012H42.7034L48.0622 120.661H53.8616ZM41.5567 120.661L36.1978 212.012H26.9692L35.9062 120.661H41.5567ZM24.174 120.661H29.3806L20.4436 212.012H11.7829L24.174 120.661ZM105.924 254.333H20.1543V238.634H105.922L105.924 254.333ZM9.95609 232.139C9.0383 232.139 8.15836 231.774 7.50928 231.125C6.86019 230.476 6.49497 229.596 6.49372 228.678V218.507H119.583V228.678C119.582 229.596 119.217 230.475 118.569 231.124C117.92 231.773 117.04 232.138 116.123 232.139H9.95609ZM254.932 216.75C254.932 231.074 243.278 242.73 228.952 242.73H112.418V238.634H116.122C121.253 238.634 125.487 234.733 126.02 229.74H228.952C236.116 229.74 241.942 223.912 241.942 216.75V32.4745C241.942 25.3112 236.116 19.4847 228.952 19.4847H88.3507C81.1886 19.4847 75.3609 25.3112 75.3609 32.4745V94.0379H62.3711V32.4745C62.3711 18.1503 74.0265 6.4949 88.3507 6.4949H228.952C243.278 6.4949 254.932 18.1503 254.932 32.4745V216.75ZM235.447 44.3873V56.4418H161.899V44.3873H235.447ZM161.899 37.8924V25.9796H228.952C232.534 25.9796 235.447 28.8928 235.447 32.4745V37.8924H161.899ZM235.447 62.9367V74.9913H161.899V62.9367H235.447ZM235.447 81.4862V93.5407H161.899V81.4862H235.447ZM235.447 100.036V112.09H161.899V100.036H235.447ZM235.447 118.585V130.64H161.899V118.585H235.447ZM235.447 137.134V149.189H161.899V137.134H235.447ZM235.447 155.684V167.738H161.899V155.684H235.447ZM235.447 174.233V186.288H161.899V174.233H235.447ZM235.447 192.783V204.837H161.899V192.783H235.447ZM235.447 211.332V216.75C235.447 220.331 232.534 223.245 228.952 223.245H161.899V211.332H235.447Z" fill="#E7EFF0" fill-opacity="0.1"/>
</svg>
