<svg width="103" height="130" viewBox="0 0 103 130" fill="none" xmlns="http://www.w3.org/2000/svg">
<g clip-path="url(#clip0_343_371)">
<mask id="mask0_343_371" style="mask-type:luminance" maskUnits="userSpaceOnUse" x="-14" y="0" width="131" height="130">
<path d="M116.577 0H-13.893V130H116.577V0Z" fill="white"/>
</mask>
<g mask="url(#mask0_343_371)">
<path d="M46.9869 46.4852C40.8116 47.1245 34.8717 49.193 29.6411 52.5256L3.82233 3.80859H33.8609L51.6476 37.3725" stroke="#2AB9EF" stroke-width="6" stroke-linecap="round" stroke-linejoin="round"/>
<path d="M98.8613 3.80859L73.6338 53.102C68.5192 49.6518 62.6702 47.4327 56.5478 46.6197C53.3765 46.1995 50.1663 46.1544 46.9843 46.4852L51.645 37.3725L68.8252 3.80859H98.8613Z" stroke="#2AB9EF" stroke-width="6" stroke-linecap="round" stroke-linejoin="round"/>
<path d="M73.6363 53.1019C68.522 49.6514 62.6728 47.4323 56.5504 46.6197C53.379 46.1995 50.1689 46.1544 46.9869 46.4851C37.6119 47.4722 28.8855 51.7183 22.3399 58.4781C15.7943 65.238 11.8479 74.0793 11.1935 83.4499C10.5391 92.8204 13.2186 102.121 18.7615 109.719C24.3045 117.317 32.3565 122.727 41.5039 124.998C50.6514 127.269 60.3094 126.257 68.7824 122.139C77.2553 118.021 84.0015 111.06 87.8366 102.48C91.6716 93.8988 92.3503 84.2461 89.7534 75.2163C87.1566 66.1865 81.4503 58.3568 73.6363 53.1019Z" stroke="#2AB9EF" stroke-width="6" stroke-linecap="round" stroke-linejoin="round"/>
<path d="M75.9527 86.2291C75.9527 91.1073 74.5009 95.8759 71.781 99.9319C69.061 103.988 65.195 107.149 60.6719 109.016C56.1488 110.883 51.1717 111.371 46.3699 110.42C41.5682 109.468 37.1576 107.119 33.6957 103.669C30.2339 100.22 27.8763 95.8253 26.9212 91.0409C25.9661 86.2564 26.4563 81.2973 28.3298 76.7904C30.2034 72.2836 33.3761 68.4315 37.4468 65.7213C41.5175 63.0112 46.3033 61.5646 51.1991 61.5646C57.7642 61.5646 64.0603 64.1632 68.7025 68.7887C73.3447 73.4142 75.9527 79.6877 75.9527 86.2291Z" fill="#E52330"/>
</g>
</g>
<defs>
<clipPath id="clip0_343_371">
<rect width="102.681" height="130" fill="white"/>
</clipPath>
</defs>
</svg>
