<svg width="130" height="130" viewBox="0 0 130 130" fill="none" xmlns="http://www.w3.org/2000/svg">
<g clip-path="url(#clip0_343_402)">
<mask id="mask0_343_402" style="mask-type:luminance" maskUnits="userSpaceOnUse" x="0" y="0" width="130" height="130">
<path d="M130 0H0V130H130V0Z" fill="white"/>
</mask>
<g mask="url(#mask0_343_402)">
<path d="M79.9805 126.191L49.5117 116.035V13.9648L79.9805 3.80859V126.191Z" stroke="#2AB9EF" stroke-width="6" stroke-linecap="round" stroke-linejoin="round"/>
<path d="M103.34 65H126.191" stroke="#2AB9EF" stroke-width="6" stroke-linecap="round" stroke-linejoin="round"/>
<path d="M116.035 54.8438L126.191 65L116.035 75.1562" stroke="#2AB9EF" stroke-width="6" stroke-linecap="round" stroke-linejoin="round"/>
<path d="M95.7227 31.9922H118.574" stroke="#2AB9EF" stroke-width="6" stroke-linecap="round" stroke-linejoin="round"/>
<path d="M108.418 21.8359L118.574 31.9922L108.418 42.1484" stroke="#2AB9EF" stroke-width="6" stroke-linecap="round" stroke-linejoin="round"/>
<path d="M95.7227 98.0078H118.574" stroke="#2AB9EF" stroke-width="6" stroke-linecap="round" stroke-linejoin="round"/>
<path d="M108.418 108.164L118.574 98.0078L108.418 87.8516" stroke="#2AB9EF" stroke-width="6" stroke-linecap="round" stroke-linejoin="round"/>
<path d="M7.61719 44.6875C7.61719 45.4408 7.39382 46.1771 6.97533 46.8034C6.55683 47.4298 5.96201 47.9179 5.26608 48.2062C4.57015 48.4944 3.80437 48.5699 3.06558 48.4229C2.32678 48.276 1.64815 47.9132 1.11551 47.3806C0.582872 46.8479 0.220138 46.1693 0.0731828 45.4305C-0.0737727 44.6917 0.00165021 43.9259 0.289914 43.23C0.578177 42.5341 1.06633 41.9393 1.69265 41.5208C2.31897 41.1023 3.05533 40.8789 3.8086 40.8789C4.8187 40.8789 5.78743 41.2802 6.50168 41.9944C7.21593 42.7087 7.61719 43.6774 7.61719 44.6875Z" fill="#E52330"/>
<path d="M26.6602 30.7227C26.6602 31.4759 26.4368 32.2123 26.0183 32.8386C25.5998 33.4649 25.005 33.9531 24.309 34.2413C23.6131 34.5296 22.8473 34.605 22.1085 34.4581C21.3697 34.3111 20.6911 33.9484 20.1585 33.4157C19.6258 32.8831 19.2631 32.2045 19.1162 31.4657C18.9692 30.7269 19.0446 29.9611 19.3329 29.2652C19.6211 28.5692 20.1093 27.9744 20.7356 27.5559C21.3619 27.1374 22.0983 26.9141 22.8516 26.9141C23.8617 26.9141 24.8304 27.3153 25.5446 28.0296C26.2589 28.7438 26.6602 29.7126 26.6602 30.7227Z" fill="#E52330"/>
<path d="M36.8164 53.5742C36.8164 54.3275 36.593 55.0638 36.1745 55.6902C35.7561 56.3165 35.1612 56.8046 34.4653 57.0929C33.7694 57.3812 33.0036 57.4566 32.2648 57.3096C31.526 57.1627 30.8474 56.7999 30.3147 56.2673C29.7821 55.7347 29.4194 55.056 29.2724 54.3172C29.1254 53.5784 29.2009 52.8127 29.4891 52.1167C29.7774 51.4208 30.2656 50.826 30.8919 50.4075C31.5182 49.989 32.2545 49.7656 33.0078 49.7656C34.0179 49.7656 34.9866 50.1669 35.7009 50.8811C36.4151 51.5954 36.8164 52.5641 36.8164 53.5742Z" fill="#E52330"/>
<path d="M7.61719 85.3125C7.61719 84.5592 7.39382 83.8229 6.97533 83.1966C6.55683 82.5702 5.96201 82.0821 5.26608 81.7938C4.57015 81.5056 3.80437 81.4301 3.06558 81.5771C2.32678 81.724 1.64815 82.0868 1.11551 82.6194C0.582872 83.1521 0.220138 83.8307 0.0731828 84.5695C-0.0737727 85.3083 0.00165021 86.0741 0.289914 86.77C0.578177 87.4659 1.06633 88.0607 1.69265 88.4792C2.31897 88.8977 3.05533 89.1211 3.8086 89.1211C4.8187 89.1211 5.78743 88.7198 6.50168 88.0056C7.21593 87.2913 7.61719 86.3226 7.61719 85.3125Z" fill="#E52330"/>
<path d="M26.6602 99.2773C26.6602 98.5241 26.4368 97.7877 26.0183 97.1614C25.5998 96.5351 25.005 96.0469 24.309 95.7587C23.6131 95.4704 22.8473 95.395 22.1085 95.5419C21.3697 95.6889 20.6911 96.0516 20.1585 96.5843C19.6258 97.1169 19.2631 97.7955 19.1162 98.5343C18.9692 99.2731 19.0446 100.039 19.3329 100.735C19.6211 101.431 20.1093 102.026 20.7356 102.444C21.3619 102.863 22.0983 103.086 22.8516 103.086C23.8617 103.086 24.8304 102.685 25.5446 101.97C26.2589 101.256 26.6602 100.287 26.6602 99.2773Z" fill="#E52330"/>
<path d="M36.8164 76.4258C36.8164 75.6725 36.593 74.9362 36.1745 74.3098C35.7561 73.6835 35.1612 73.1954 34.4653 72.9071C33.7694 72.6188 33.0036 72.5434 32.2648 72.6904C31.526 72.8373 30.8474 73.2001 30.3147 73.7327C29.7821 74.2653 29.4194 74.944 29.2724 75.6828C29.1254 76.4216 29.2009 77.1873 29.4891 77.8833C29.7774 78.5792 30.2656 79.174 30.8919 79.5925C31.5182 80.011 32.2545 80.2344 33.0078 80.2344C34.0179 80.2344 34.9866 79.8331 35.7009 79.1189C36.4151 78.4046 36.8164 77.4359 36.8164 76.4258Z" fill="#E52330"/>
<path d="M16.5039 65C16.5039 65.7533 16.2805 66.4896 15.862 67.1159C15.4436 67.7423 14.8487 68.2304 14.1528 68.5187C13.4569 68.8069 12.6911 68.8824 11.9523 68.7354C11.2135 68.5885 10.5349 68.2257 10.0022 67.6931C9.46959 67.1604 9.10686 66.4818 8.9599 65.743C8.81295 65.0042 8.88837 64.2384 9.17663 63.5425C9.4649 62.8466 9.95305 62.2518 10.5794 61.8333C11.2057 61.4148 11.942 61.1914 12.6953 61.1914C13.7054 61.1914 14.6741 61.5927 15.3884 62.3069C16.1026 63.0212 16.5039 63.9899 16.5039 65Z" fill="#E52330"/>
<path d="M68.5547 65C68.5547 65.7533 68.3313 66.4896 67.9128 67.1159C67.4943 67.7423 66.8995 68.2304 66.2036 68.5187C65.5077 68.8069 64.7419 68.8824 64.0031 68.7354C63.2643 68.5885 62.5857 68.2257 62.053 67.6931C61.5204 67.1604 61.1576 66.4818 61.0107 65.743C60.8637 65.0042 60.9391 64.2384 61.2274 63.5425C61.5157 62.8466 62.0038 62.2518 62.6302 61.8333C63.2565 61.4148 63.9928 61.1914 64.7461 61.1914C65.7562 61.1914 66.7249 61.5927 67.4392 62.3069C68.1534 63.0212 68.5547 63.9899 68.5547 65Z" fill="#E52330"/>
<path d="M68.5547 30.7227C68.5547 31.4759 68.3313 32.2123 67.9128 32.8386C67.4943 33.4649 66.8995 33.9531 66.2036 34.2413C65.5077 34.5296 64.7419 34.605 64.0031 34.4581C63.2643 34.3111 62.5857 33.9484 62.053 33.4157C61.5204 32.8831 61.1576 32.2045 61.0107 31.4657C60.8637 30.7269 60.9391 29.9611 61.2274 29.2652C61.5157 28.5692 62.0038 27.9744 62.6302 27.5559C63.2565 27.1374 63.9928 26.9141 64.7461 26.9141C65.7562 26.9141 66.7249 27.3153 67.4392 28.0296C68.1534 28.7438 68.5547 29.7126 68.5547 30.7227Z" fill="#E52330"/>
<path d="M68.5547 99.2773C68.5547 98.5241 68.3313 97.7877 67.9128 97.1614C67.4943 96.5351 66.8995 96.0469 66.2036 95.7587C65.5077 95.4704 64.7419 95.395 64.0031 95.5419C63.2643 95.6889 62.5857 96.0516 62.053 96.5843C61.5204 97.1169 61.1576 97.7955 61.0107 98.5343C60.8637 99.2731 60.9391 100.039 61.2274 100.735C61.5157 101.431 62.0038 102.026 62.6302 102.444C63.2565 102.863 63.9928 103.086 64.7461 103.086C65.7562 103.086 66.7249 102.685 67.4392 101.97C68.1534 101.256 68.5547 100.287 68.5547 99.2773Z" fill="#E52330"/>
</g>
</g>
<defs>
<clipPath id="clip0_343_402">
<rect width="130" height="130" fill="white"/>
</clipPath>
</defs>
</svg>
