<svg width="116" height="83" viewBox="0 0 116 83" fill="none" xmlns="http://www.w3.org/2000/svg">
<path d="M107.714 29H111.857C112.956 29 114.01 28.5635 114.787 27.7866C115.564 27.0096 116 25.9559 116 24.8571C116 23.7584 115.564 22.7046 114.787 21.9277C114.01 21.1508 112.956 20.7143 111.857 20.7143H101.773L94.1713 8.04543C92.699 5.59158 90.6163 3.56083 88.1261 2.15091C85.6358 0.740997 82.8229 -2.75313e-05 79.9613 7.6717e-10H36.0387C33.1771 -2.75313e-05 30.3642 0.740997 27.8739 2.15091C25.3837 3.56083 23.301 5.59158 21.8287 8.04543L14.2266 20.7143H4.14286C3.0441 20.7143 1.99035 21.1508 1.21341 21.9277C0.436478 22.7046 0 23.7584 0 24.8571C0 25.9559 0.436478 27.0096 1.21341 27.7866C1.99035 28.5635 3.0441 29 4.14286 29H8.28571L3.31429 35.6327C1.16295 38.5012 0 41.99 0 45.5756V62.147C0 64.3445 0.872956 66.452 2.42683 68.0059C3.9807 69.5598 6.08821 70.4327 8.28571 70.4327V74.5756C8.28571 76.7731 9.15867 78.8806 10.7125 80.4345C12.2664 81.9883 14.3739 82.8613 16.5714 82.8613H24.8571C27.0547 82.8613 29.1622 81.9883 30.716 80.4345C32.2699 78.8806 33.1429 76.7731 33.1429 74.5756V70.4327H82.8571V74.5756C82.8571 76.7731 83.7301 78.8806 85.284 80.4345C86.8378 81.9883 88.9453 82.8613 91.1429 82.8613H99.4286C101.626 82.8613 103.734 81.9883 105.287 80.4345C106.841 78.8806 107.714 76.7731 107.714 74.5756V70.4327C109.912 70.4327 112.019 69.5598 113.573 68.0059C115.127 66.452 116 64.3445 116 62.147V45.5756C116 41.992 114.836 38.4996 112.686 35.6327L107.714 29ZM18.6429 58C17.8265 57.9997 17.0182 57.8387 16.2641 57.526C15.51 57.2134 14.8249 56.7552 14.2478 56.1778C13.6708 55.6004 13.2131 54.9149 12.901 54.1606C12.5888 53.4063 12.4283 52.5979 12.4286 51.7816C12.4288 50.9652 12.5899 50.1569 12.9026 49.4028C13.2152 48.6487 13.6733 47.9636 14.2508 47.3866C14.8282 46.8095 15.5136 46.3518 16.2679 46.0397C17.0223 45.7275 17.8307 45.567 18.647 45.5673C20.2957 45.5678 21.8766 46.2233 23.042 47.3895C24.2074 48.5557 24.8618 50.137 24.8613 51.7857C24.8607 53.4344 24.2053 55.0153 23.0391 56.1807C21.8729 57.3461 20.2915 58.0005 18.6429 58ZM90.9647 25.52C87.5616 27.7892 83.5628 29.0001 79.4724 29H36.5234C32.435 29 28.4379 27.7907 25.0353 25.5241L22.156 23.606L28.9337 12.3126C29.6699 11.0857 30.7112 10.0703 31.9563 9.36532C33.2014 8.66036 34.6079 8.28984 36.0387 8.28986H79.9654C81.3963 8.28984 82.8027 8.66036 84.0478 9.36532C85.2929 10.0703 86.3343 11.0857 87.0704 12.3126L93.8481 23.606L90.9689 25.5241L90.9647 25.52ZM97.3571 58C96.5408 57.9997 95.7325 57.8387 94.9784 57.526C94.2243 57.2134 93.5392 56.7552 92.9621 56.1778C92.3851 55.6004 91.9274 54.9149 91.6153 54.1606C91.3031 53.4063 91.1426 52.5979 91.1429 51.7816C91.1431 50.9652 91.3042 50.1569 91.6168 49.4028C91.9295 48.6487 92.3876 47.9636 92.9651 47.3866C93.5425 46.8095 94.2279 46.3518 94.9822 46.0397C95.7365 45.7275 96.5449 45.567 97.3613 45.5673C99.01 45.5678 100.591 46.2233 101.756 47.3895C102.922 48.5557 103.576 50.137 103.576 51.7857C103.575 53.4344 102.92 55.0153 101.753 56.1807C100.587 57.3461 99.0058 58.0005 97.3571 58Z" fill="white"/>
</svg>
