<svg width="60" height="65" viewBox="0 0 60 65" fill="none" xmlns="http://www.w3.org/2000/svg">
<path d="M53.1609 21.8585L18.613 2.1589C16.7436 1.08559 14.6218 0.523325 12.463 0.529221C10.3043 0.535116 8.18562 1.10896 6.32214 2.19246C4.45867 3.27597 2.9168 4.83054 1.85315 6.69827C0.789502 8.56599 0.241963 10.6803 0.266149 12.8266V52.368C0.266149 55.5934 1.55479 58.6866 3.8486 60.9673C6.1424 63.2479 9.25347 64.5292 12.4974 64.5292C14.6448 64.5256 16.7536 63.9615 18.613 62.8935L53.1609 43.1938C55.0173 42.1256 56.5585 40.5908 57.6299 38.7434C58.7014 36.896 59.2654 34.801 59.2654 32.6684C59.2654 30.5359 58.7014 28.4408 57.6299 26.5934C56.5585 24.746 55.0173 23.2112 53.1609 22.143V21.8585ZM49.5845 36.7577L15.0366 56.7418C14.2623 57.1781 13.3874 57.4075 12.4974 57.4075C11.6074 57.4075 10.7325 57.1781 9.95816 56.7418C9.18601 56.2985 8.54483 55.661 8.09909 54.8932C7.65336 54.1254 7.41877 53.2545 7.41893 52.368V12.6843C7.41877 11.7978 7.65336 10.9269 8.09909 10.1592C8.54483 9.39139 9.18601 8.75383 9.95816 8.31059C10.7357 7.88088 11.6079 7.6488 12.4974 7.63497C13.3862 7.65311 14.2575 7.88491 15.0366 8.31059L49.5845 28.1524C50.357 28.5955 50.9985 29.233 51.4445 30.0007C51.8905 30.7685 52.1253 31.6395 52.1253 32.5262C52.1253 33.4128 51.8905 34.2838 51.4445 35.0516C50.9985 35.8194 50.357 36.4569 49.5845 36.8999V36.7577Z" fill="#E52330"/>
</svg>
