<svg width="664" height="224" viewBox="0 0 664 224" fill="none" xmlns="http://www.w3.org/2000/svg">
<path d="M63.1087 163.54C72.9483 174.397 81.4306 186.612 90.9309 197.809C93.9845 180.505 86.8594 148.272 89.2344 130.968C106.878 155.736 128.593 196.451 155.058 213.077C143.861 191.701 134.361 169.986 125.539 147.593C121.128 136.396 115.36 123.503 115.36 110.949C115.36 99.4132 122.825 102.128 129.61 108.235C139.45 117.057 147.254 128.253 155.058 139.111L143.522 60.0551C142.843 47.1619 154.04 49.537 161.843 54.9657C169.647 60.7337 186.273 76.0019 193.737 82.4485C208.327 95.0024 222.238 108.235 236.827 120.789C265.328 144.879 296.204 168.969 330.133 185.255C349.134 194.416 368.474 201.541 389.849 198.487C356.938 186.612 324.705 171.683 297.9 148.95C290.097 142.504 283.311 135.378 276.186 127.914C281.614 129.61 287.043 134.361 292.132 137.075C297.9 140.129 303.329 143.182 309.436 145.897C319.615 150.647 334.205 158.79 345.402 159.129C329.116 148.611 314.865 136.057 307.061 117.735C315.544 117.396 324.026 120.789 332.169 120.789C327.419 111.628 319.955 103.485 315.544 93.9845C320.633 89.913 328.437 87.1986 325.383 80.4128C322.669 73.9662 318.597 67.5196 315.883 61.073C326.062 65.8231 335.223 73.2876 344.384 79.7342C353.205 85.8415 364.063 96.6989 374.242 99.7525C371.867 85.5022 358.295 72.9483 354.223 59.0372C364.063 55.9836 374.581 52.9299 384.76 55.9836C394.939 58.6979 401.725 66.5017 408.171 74.3055C422.761 91.9488 438.708 107.896 454.654 124.182C463.476 133.343 472.637 141.825 481.798 150.647C483.834 145.897 484.852 140.807 486.887 136.057C504.531 147.254 518.102 164.897 535.406 176.772C526.585 160.486 515.049 145.557 506.906 128.932C510.977 128.932 516.745 134.7 520.138 137.075C525.228 140.468 530.317 143.861 535.406 147.254C545.585 154.04 555.764 161.165 565.943 167.951C585.961 181.862 606.319 194.755 628.034 206.291C639.57 212.398 651.106 218.845 663.32 223.256C659.588 221.559 656.535 218.166 653.142 215.452C646.695 210.363 639.909 206.291 633.463 201.541C628.712 198.148 624.98 193.737 619.891 190.683C610.73 184.915 601.908 179.487 593.086 172.701C580.193 162.861 565.943 155.397 552.71 145.897C540.157 137.075 529.978 120.449 515.049 115.36C500.798 110.61 487.566 122.146 473.316 118.753C457.708 115.021 448.547 97.0382 439.386 85.5022C428.189 71.9304 415.636 59.7158 405.796 44.7869C395.956 30.5365 387.813 15.2682 379.67 0C362.366 17.6433 350.491 40.7153 332.848 58.0193C325.723 54.9657 315.883 44.1083 307.74 45.8047C299.936 47.5012 293.15 60.7337 288.061 66.1624C274.489 80.4128 261.935 95.681 248.024 109.931C238.185 104.163 229.363 95.681 220.881 88.5558C211.72 81.0914 202.559 73.9662 193.737 66.5017C176.772 52.2513 159.808 37.6617 143.861 21.7148C139.111 27.8221 134.361 33.5901 129.61 39.3581C118.074 53.6085 106.538 68.1982 95.0024 82.4485C81.4306 100.092 67.5196 117.396 53.9478 134.361C42.0725 149.29 29.8579 164.218 17.9826 179.487C13.9111 184.237 10.1788 189.326 6.1073 194.076C4.75012 195.773 1.35718 198.487 0.67859 200.523C0.67859 200.862 0 201.202 0 201.541V201.88L46.144 158.79C53.6085 154.718 57.68 157.433 63.1087 163.54Z" fill="#1CA6DA"/>
</svg>
