<svg width="174" height="76" viewBox="0 0 174 76" fill="none" xmlns="http://www.w3.org/2000/svg">
<g clip-path="url(#clip0_7_4)">
<path d="M173.372 37.9188V40.9569H169.971V50.224H166.636V40.9569H163.235V37.9188H173.372Z" fill="#E52330"/>
<path d="M167.19 6.95512V33.6578H163.015V0.563671C163.823 0.859633 164.561 1.31811 165.184 1.91075C165.858 2.56055 166.386 3.34662 166.732 4.21648C167.077 5.08634 167.234 6.02 167.19 6.95512Z" fill="#E52330"/>
<path d="M161.668 0.200629V33.6387H157.35V0H159.662C160.336 0.000410425 161.008 0.0676152 161.668 0.200629Z" fill="#E52330"/>
<path d="M158.057 37.7086C159.202 37.6513 160.332 37.9885 161.258 38.664C162.114 39.4195 162.718 40.42 162.987 41.5301L160.044 42.2753C159.98 41.983 159.87 41.7025 159.719 41.4441C159.549 41.1714 159.316 40.9423 159.041 40.7754C158.764 40.6205 158.451 40.5414 158.133 40.5461C157.776 40.5382 157.424 40.6308 157.116 40.8131C156.809 40.9955 156.559 41.2605 156.395 41.5779C156.043 42.3359 155.888 43.1707 155.946 44.0045C155.86 44.9723 156.046 45.9447 156.481 46.8133C156.653 47.0559 156.883 47.2519 157.15 47.3836C157.417 47.5153 157.712 47.5787 158.009 47.5681C158.282 47.5885 158.557 47.5437 158.809 47.4374C159.062 47.3311 159.285 47.1663 159.461 46.9566C159.836 46.4294 160.078 45.82 160.168 45.1796L163.092 46.1828C162.931 47.0183 162.606 47.8138 162.137 48.5234C161.746 49.1262 161.202 49.6142 160.56 49.9374C159.817 50.286 159.001 50.4499 158.181 50.4151C157.194 50.4529 156.212 50.2565 155.315 49.8419C154.49 49.3602 153.825 48.6457 153.404 47.7878C152.815 46.6267 152.532 45.3343 152.583 44.0332C152.472 42.3441 152.981 40.6726 154.016 39.3327C154.526 38.7779 155.153 38.344 155.853 38.063C156.552 37.782 157.305 37.6609 158.057 37.7086Z" fill="#E52330"/>
<path d="M152.468 0H147.596V33.6578H152.468V0Z" fill="#E52330"/>
<path d="M146.335 47.5585C146.588 47.5724 146.841 47.53 147.075 47.4341C147.31 47.3383 147.52 47.1915 147.691 47.0044C148.043 46.5534 148.216 45.989 148.178 45.4185V37.9188H151.503V45.2465C151.509 45.9454 151.409 46.641 151.207 47.3101C151.013 47.9355 150.687 48.5121 150.252 49.0011C149.894 49.4373 149.439 49.784 148.924 50.0138C148.179 50.3055 147.383 50.4451 146.583 50.4246C146.008 50.4227 145.433 50.3812 144.863 50.3004C144.316 50.2443 143.785 50.0751 143.306 49.8036C142.415 49.2242 141.758 48.3474 141.453 47.3292C141.266 46.6501 141.163 45.9506 141.147 45.2465V37.9188H144.472V45.4185C144.437 45.9857 144.611 46.5459 144.959 46.9948C145.132 47.1852 145.345 47.3346 145.583 47.4321C145.821 47.5296 146.078 47.5728 146.335 47.5585Z" fill="#E52330"/>
<path d="M146.239 0V33.6578H142.465V17.0248V11.197L141.921 13.4134V0H146.239Z" fill="#E52330"/>
<path d="M140.574 0V19.0215L137.048 33.6578H136.265V7.00289L137.908 0H140.574Z" fill="#E52330"/>
<path d="M134.918 12.7351V33.6578H130.6V11.1874L132.014 17.2063C132.176 17.8655 132.329 18.6107 132.463 19.4419C132.596 20.273 132.759 21.3048 132.912 22.5277C133.045 21.5723 133.198 20.617 133.351 19.7094C133.504 18.8018 133.685 17.9897 133.867 17.2063L134.918 12.7351Z" fill="#E52330"/>
<path d="M134.345 47.4248C134.856 47.4641 135.369 47.372 135.835 47.1573C136.173 46.9307 136.42 46.5924 136.532 46.2019C136.726 45.5058 136.806 44.7834 136.771 44.0618C136.861 43.1346 136.668 42.2019 136.217 41.3868C135.987 41.1295 135.699 40.9305 135.377 40.806C135.054 40.6814 134.707 40.6349 134.364 40.6703H133.533V47.3579L134.345 47.4248ZM137.144 49.8801C136.499 50.0946 135.826 50.2106 135.147 50.224H130.198V37.9188H135.147C135.961 37.8859 136.771 38.0395 137.517 38.3678C138.116 38.666 138.63 39.1134 139.007 39.6671C139.414 40.2669 139.706 40.9377 139.867 41.6448C140.043 42.4254 140.129 43.2235 140.125 44.0236C140.163 45.0573 140.031 46.0902 139.733 47.0808C139.5 47.7581 139.13 48.3795 138.644 48.9056C138.239 49.3577 137.721 49.6941 137.144 49.8801Z" fill="#E52330"/>
<path d="M129.253 5.45518V33.6578H128.823L124.934 17.6362V0H127.963L129.253 5.45518Z" fill="#E52330"/>
<path d="M123.587 0V12.0759L123.415 11.3689V17.0248V33.6578H119.269V0H123.587Z" fill="#E52330"/>
<path d="M123.606 50.4246C122.561 50.4624 121.522 50.2356 120.587 49.7654C119.753 49.2773 119.087 48.5478 118.677 47.6732C118.146 46.5522 117.89 45.3206 117.931 44.081C117.83 42.3867 118.361 40.7151 119.422 39.3901C119.937 38.8225 120.572 38.377 121.281 38.0861C121.99 37.7952 122.755 37.6662 123.52 37.7086C124.291 37.6609 125.063 37.7833 125.781 38.0673C126.499 38.3513 127.146 38.7899 127.676 39.3519C128.689 40.6614 129.188 42.2955 129.081 43.9472C129.124 45.1569 128.909 46.362 128.45 47.4821C128.068 48.3817 127.426 49.1468 126.606 49.6794C125.7 50.2134 124.657 50.4723 123.606 50.4246ZM123.492 47.5585C123.809 47.5825 124.127 47.5269 124.417 47.3968C124.708 47.2667 124.961 47.0661 125.154 46.8133C125.628 45.9367 125.83 44.9392 125.737 43.9472C125.81 43.0565 125.596 42.1657 125.125 41.4059C124.934 41.1476 124.683 40.9397 124.393 40.7999C124.103 40.6601 123.784 40.5927 123.463 40.6034C123.146 40.5934 122.832 40.6624 122.548 40.8042C122.265 40.9459 122.021 41.156 121.839 41.4155C121.366 42.2304 121.153 43.1703 121.227 44.1096C121.148 45.0462 121.362 45.9843 121.839 46.7942C122.029 47.0512 122.279 47.2578 122.567 47.396C122.855 47.5342 123.172 47.5999 123.492 47.5872V47.5585Z" fill="#E52330"/>
<path d="M117.922 0H113.604V33.6578H117.922V0Z" fill="#E52330"/>
<path d="M113.689 40.718C113.322 40.471 112.879 40.3595 112.438 40.4028H110.976V42.9058H112.381C112.679 42.8796 112.973 42.822 113.26 42.7339C113.481 42.6759 113.674 42.5402 113.804 42.3517C113.942 42.1384 114.015 41.8894 114.014 41.6352C114.027 41.4681 114.005 41.3003 113.949 41.1423C113.893 40.9844 113.804 40.8399 113.689 40.718ZM113.174 37.9188C113.975 37.8821 114.777 37.9856 115.543 38.2245C116.096 38.4333 116.561 38.8242 116.861 39.3327C117.173 39.9076 117.346 40.5475 117.366 41.2012C117.386 41.8549 117.252 42.5042 116.976 43.0969C116.736 43.5825 116.374 43.9973 115.925 44.3007C115.568 44.5307 115.174 44.6956 114.76 44.7879C115.07 44.8978 115.363 45.0522 115.629 45.2465C115.827 45.4402 116.003 45.6548 116.154 45.8866C116.334 46.1263 116.491 46.3822 116.622 46.6509L118.237 50.224H114.473L112.734 46.4598C112.6 46.1038 112.396 45.7787 112.132 45.5045C111.899 45.3173 111.609 45.2161 111.311 45.2179H111.024V50.2145H107.671V37.9188H113.174Z" fill="#E52330"/>
<path d="M109.4 0V26.7505C109.451 27.689 109.3 28.6277 108.958 29.5029C108.615 30.3782 108.088 31.1695 107.413 31.8235C106.755 32.424 105.981 32.8826 105.139 33.1706V0H109.4Z" fill="#E52330"/>
<path d="M103.792 0V33.4859C103.161 33.6013 102.522 33.6589 101.881 33.6578H99.4353V0H103.792Z" fill="#E52330"/>
<path d="M105.578 44.6064C105.179 44.9805 104.706 45.2672 104.189 45.4481C103.673 45.6291 103.124 45.7003 102.578 45.6573H100.754V50.224H97.4481V37.9188H102.989C103.483 37.8759 103.981 37.9389 104.449 38.1037C104.917 38.2684 105.344 38.5311 105.703 38.8742C106.369 39.6461 106.711 40.6456 106.658 41.6639C106.7 42.7487 106.312 43.8062 105.578 44.6064ZM102.922 42.7816C103.048 42.6566 103.148 42.5077 103.215 42.3436C103.282 42.1795 103.316 42.0036 103.314 41.8263C103.319 41.4767 103.197 41.1371 102.97 40.8709C102.8 40.7152 102.599 40.598 102.38 40.5271C102.16 40.4562 101.928 40.4333 101.7 40.4601H100.744V43.2116H101.556C102.05 43.2508 102.54 43.0967 102.922 42.7816Z" fill="#E52330"/>
<path d="M101.518 71.376C103.161 71.376 104.241 70.8123 105.674 65.5673C102.445 65.5673 99.8652 66.8857 99.8652 69.2646C99.8652 70.5257 100.467 71.376 101.518 71.376ZM98.4035 69.2646C98.4035 65.7871 102.015 64.1725 106.046 64.1534C106.579 62.0685 106.984 59.9532 107.26 57.8192C106.209 57.9148 102.617 58.1536 100.916 58.2683C100.804 58.432 100.633 58.5452 100.438 58.5835L100.238 56.7683C102.149 56.6919 106.343 56.4244 107.69 56.2906C107.878 56.2658 108.053 56.1783 108.187 56.0422L109.572 56.8734C109.436 57.0566 109.24 57.1854 109.018 57.2365C108.672 59.5929 108.206 61.9302 107.623 64.2393C109.708 64.4932 111.749 65.03 113.689 65.8348C114.117 64.2275 114.436 62.5933 114.645 60.9433L116.823 61.4114C116.776 61.5421 116.687 61.653 116.569 61.7259C116.451 61.7989 116.311 61.8295 116.173 61.8127C115.936 63.3539 115.617 64.8814 115.218 66.3889C116.422 66.9144 117.702 67.4972 118.982 68.1468L118.266 69.6468C117.052 69.0449 115.887 68.4621 114.74 67.9653C113.67 71.204 112.113 73.5542 109.734 75.1306C109.342 74.7683 108.913 74.4481 108.454 74.1752C110.854 72.553 112.58 70.1105 113.307 67.3061C111.395 66.4747 109.375 65.9152 107.308 65.6437C105.76 71.2996 104.375 72.7804 101.68 72.7804C98.9863 72.7804 98.4035 70.6404 98.4035 69.2646Z" fill="#E52330"/>
<path d="M98.1265 24.4576H93.8082V33.6578H98.1265V24.4576Z" fill="#E52330"/>
<path d="M97.152 57.3702L96.2826 58.0485C95.5334 56.8843 94.6412 55.8187 93.6266 54.8767L94.4387 54.2557C95.4741 55.1721 96.3862 56.219 97.152 57.3702Z" fill="#E52330"/>
<path d="M93.9037 58.0199L92.9483 58.6695C92.2156 57.4932 91.3252 56.4227 90.3019 55.4881L91.1331 54.8767C92.188 55.8009 93.1192 56.8574 93.9037 58.0199Z" fill="#E52330"/>
<path d="M92.4611 24.4576H88.1428V33.6578H92.4611V24.4576Z" fill="#E52330"/>
<path d="M84.4359 43.4695V50.224H81.3023V37.9188H84.4168L88.4772 44.7211V37.9188H91.6203V50.224H88.4772L84.4359 43.4695Z" fill="#E52330"/>
<path d="M86.7957 0V33.6578H84.4837C83.8137 33.6556 83.1453 33.5917 82.487 33.4667V0H86.7957Z" fill="#E52330"/>
<path d="M84.7417 62.7107C85.503 62.686 86.2437 62.9603 86.8053 63.475C86.8053 63.0738 86.6906 61.0293 86.6906 60.6089L81.6176 60.7904C80.1654 60.7904 78.0541 60.8955 76.5732 60.972L76.5255 59.4911C77.8534 59.4911 79.8024 59.3956 81.5125 59.3478C82.6781 59.3478 84.5124 59.2618 86.6238 59.195L86.5187 55.555L88.802 55.6696C88.802 55.8703 88.6491 56.0518 88.2192 56.1187C88.2192 56.7683 88.2192 58.0294 88.2192 59.1472L95.5087 58.9657V60.4752C93.5407 60.4752 90.7987 60.4752 88.2574 60.5612C88.2574 61.3923 88.3721 64.631 88.439 65.2329C88.672 66.0291 88.8099 66.8501 88.8498 67.6787C88.8556 68.379 88.7492 69.0757 88.5345 69.7423C88.0186 72.1212 85.955 74.6816 82.0284 76C81.6963 75.5454 81.3186 75.1261 80.9011 74.7485C84.1111 73.7931 86.2703 71.5862 86.7384 69.6468C86.4809 70.0126 86.1366 70.3089 85.7365 70.509C85.3363 70.7091 84.8927 70.8067 84.4455 70.7932C83.9457 70.7986 83.45 70.7029 82.9881 70.5117C82.5263 70.3206 82.1079 70.0381 81.758 69.6811C81.4082 69.3241 81.1341 68.9001 80.9524 68.4345C80.7707 67.9689 80.685 67.4713 80.7004 66.9717C80.6719 66.4231 80.7553 65.8745 80.9455 65.3592C81.1356 64.8438 81.4286 64.3725 81.8066 63.974C82.1847 63.5754 82.6398 63.2579 83.1443 63.0407C83.6489 62.8236 84.1924 62.7113 84.7417 62.7107ZM84.6079 69.5417C84.9442 69.5498 85.2785 69.4888 85.5902 69.3624C85.9019 69.236 86.1844 69.0469 86.42 68.8068C86.6556 68.5667 86.8393 68.2808 86.9598 67.9668C87.0803 67.6528 87.135 67.3173 87.1206 66.9813C87.1206 66.6851 87.1206 66.2838 87.0537 65.8539C86.9381 65.341 86.6504 64.8831 86.2385 64.5564C85.8265 64.2296 85.3152 64.0537 84.7894 64.0578C84.4227 64.0581 84.0599 64.1341 83.7238 64.281C83.3877 64.4279 83.0856 64.6425 82.8363 64.9116C82.587 65.1806 82.3959 65.4982 82.275 65.8444C82.1541 66.1907 82.1059 66.5582 82.1335 66.9239C82.1155 67.5989 82.3659 68.2535 82.8297 68.7442C83.2935 69.2349 83.933 69.5217 84.6079 69.5417Z" fill="#E52330"/>
<path d="M81.1399 0V33.1037C79.8431 32.6489 78.7314 31.781 77.9755 30.6333C77.2196 29.4856 76.8612 28.1215 76.9554 26.7505V0H81.1399Z" fill="#E52330"/>
<path d="M74.7294 50.4246C73.6836 50.4624 72.6452 50.2356 71.7104 49.7654C70.8802 49.2727 70.2152 48.5445 69.7996 47.6732C69.2686 46.5522 69.0132 45.3206 69.0544 44.081C68.9521 42.3897 69.4758 40.7199 70.5257 39.3901C71.0421 38.8217 71.679 38.3758 72.3897 38.0849C73.1004 37.794 73.8671 37.6655 74.6338 37.7086C75.4032 37.6616 76.1734 37.7845 76.89 38.0685C77.6065 38.3525 78.2518 38.7906 78.7801 39.3519C79.8204 40.6498 80.3444 42.2864 80.2514 43.9472C80.2922 45.1576 80.074 46.3628 79.6113 47.4821C79.2189 48.3869 78.563 49.1526 77.7292 49.6794C76.8231 50.2144 75.7805 50.4734 74.7294 50.4246ZM72.9715 46.8133C73.1598 47.0732 73.4089 47.2831 73.697 47.4246C73.9851 47.5661 74.3034 47.6351 74.6243 47.6254C74.9474 47.6419 75.2695 47.576 75.5603 47.434C75.851 47.2919 76.101 47.0784 76.2866 46.8133C76.764 45.9379 76.9702 44.9402 76.8789 43.9472C76.9495 43.0555 76.7319 42.1646 76.2579 41.4059C76.0665 41.1476 75.8151 40.9397 75.5256 40.7999C75.2361 40.6601 74.9169 40.5927 74.5956 40.6034C74.2788 40.5934 73.9644 40.6624 73.6809 40.8042C73.3974 40.9459 73.1536 41.156 72.9715 41.4155C72.4984 42.2304 72.2851 43.1703 72.36 44.1096C72.2819 45.0522 72.4954 45.996 72.9715 46.8133Z" fill="#E52330"/>
<path d="M73.3536 24.4576H70.2773V33.6578H73.3536V24.4576Z" fill="#E52330"/>
<path d="M73.3536 0V9.10471L70.2773 11.8371V0H73.3536Z" fill="#E52330"/>
<path d="M68.9302 24.4576H64.6119V33.6578H68.9302V24.4576Z" fill="#E52330"/>
<path d="M68.9302 0V13.0313L64.6119 16.8624V0H68.9302Z" fill="#E52330"/>
<path d="M67.7838 37.9188H64.44V50.224H67.7838V37.9188Z" fill="#E52330"/>
<path d="M63.5228 37.9188V40.9569H60.1217V50.224H56.7874V40.9569H53.3863V37.9188H63.5228Z" fill="#E52330"/>
<path d="M63.2649 24.4576H58.9561V33.6578H63.2649V24.4576Z" fill="#E52330"/>
<path d="M63.2649 0V18.0661L58.9561 21.8972V10.3563L60.3701 9.10471H58.9561V0H63.2649Z" fill="#E52330"/>
<path d="M56.0613 24.4576H57.609V33.6578H53.2908V15.3338L57.609 11.5409V23.0914L56.0613 24.4576Z" fill="#E52330"/>
<path d="M57.609 0H53.2908V9.10471H57.609V0Z" fill="#E52330"/>
<path d="M62.2999 69.513C63.7433 68.0433 64.86 66.2852 65.5769 64.354C64.2808 64.2922 62.9846 64.4737 61.7554 64.889C61.7713 66.4454 61.9539 67.9955 62.2999 69.513ZM61.4019 72.0734C60.2064 73.077 58.7184 73.6668 57.16 73.7549C55.4117 73.7549 54.4563 72.4365 54.4563 70.7741C54.4563 67.6787 57.0167 65.2043 60.265 63.905C60.265 62.7394 60.265 61.4497 60.265 60.0835C56.4435 60.0835 56.0709 60.0835 55.3257 60.0835L55.2779 58.6026C56.4244 58.6695 58.3829 58.6695 60.3128 58.6695C60.3128 57.6377 60.3796 56.3766 60.4274 55.3257L62.6725 55.4881C62.6725 55.7079 62.4241 55.8894 62.0897 55.9371C62.0133 56.7683 61.9751 57.8479 61.9082 58.6313C64.93 58.5728 67.9411 58.2532 70.9079 57.6759L71.0798 59.2332C68.0212 59.7866 64.9209 60.0775 61.8127 60.1026C61.8127 61.2681 61.7458 62.3955 61.8127 63.4464C62.9062 63.1133 64.0421 62.9395 65.1852 62.9305C65.5195 62.9305 65.8062 62.9305 66.1405 62.9305C66.2265 62.5674 66.2934 62.2331 66.3603 61.87L67.8315 62.2904C67.7709 62.5778 67.6944 62.8617 67.6023 63.1407C71.5575 63.8381 73.0192 66.303 73.0192 68.9493C73.0192 72.5224 69.962 74.6816 64.354 75.3026C64.189 74.84 63.9844 74.3925 63.7425 73.965C68.3952 73.5065 71.3855 71.8919 71.3855 68.9971V68.8442C71.2805 66.2361 69.4748 64.9559 67.1246 64.5546C66.152 67.0647 64.6234 69.3217 62.6534 71.1563C62.7994 71.5822 62.995 71.9894 63.2362 72.3696L61.9178 73.2008C61.7086 72.8432 61.5358 72.4655 61.4019 72.0734ZM57.5231 72.2549C58.8113 72.1136 60.0218 71.5686 60.9815 70.6977C60.5853 68.9731 60.3676 67.2123 60.3319 65.4431C57.8766 66.5227 55.9754 68.3857 55.9754 70.5639C55.9754 71.8441 56.711 72.3027 57.5231 72.2549Z" fill="#E52330"/>
<path d="M51.9341 16.5184V33.6578H47.6254V20.3113L51.9341 16.5184Z" fill="#E52330"/>
<path d="M51.9341 0H47.6254V9.10471H51.9341V0Z" fill="#E52330"/>
<path d="M50.1285 45.5331L48.9342 41.0811L47.7687 45.5331H50.1285ZM50.7877 37.8901L54.848 50.1953H51.3609L50.8163 48.1604H46.9948L46.4694 50.1953H43.8421L43.4122 49.24L47.1573 37.8901H50.7877Z" fill="#E52330"/>
<path d="M46.2783 21.4959V33.6578H42.2657V25.0117L46.2783 21.4959Z" fill="#E52330"/>
<path d="M46.2783 0H42.8008V9.10471H46.2783V0Z" fill="#E52330"/>
<path d="M43.4122 49.2686L43.8421 50.224H43.0969L43.4122 49.2686Z" fill="#E52330"/>
<path d="M38.6162 6.95512V33.6578H34.3935V0.544563C35.2189 0.8474 35.9757 1.31186 36.6195 1.91075C37.2902 2.56251 37.8149 3.34914 38.1591 4.21869C38.5033 5.08823 38.6591 6.02091 38.6162 6.95512Z" fill="#E52330"/>
<path d="M39.285 40.718C38.9223 40.4671 38.4814 40.3551 38.043 40.4028H36.5717V42.9058H37.9761C38.2774 42.8791 38.5751 42.8215 38.8646 42.7339C39.0861 42.6758 39.2793 42.5402 39.4092 42.3517C39.544 42.1373 39.6137 41.8884 39.6098 41.6352C39.6225 41.4681 39.6001 41.3003 39.5442 41.1423C39.4883 40.9844 39.4 40.8399 39.285 40.718ZM38.7786 37.9188C39.5801 37.8837 40.3816 37.9871 41.148 38.2245C41.7006 38.4333 42.1657 38.8242 42.4664 39.3327C42.7719 39.9097 42.9411 40.549 42.961 41.2015C42.9809 41.8541 42.8509 42.5025 42.581 43.0969C42.3344 43.581 41.9697 43.995 41.5206 44.3007C41.1657 44.5341 40.7704 44.6993 40.355 44.7879C40.6674 44.8935 40.9609 45.0483 41.2244 45.2465C41.426 45.4393 41.6055 45.654 41.7594 45.8866C41.9317 46.131 42.0881 46.3863 42.2275 46.6509L43.4122 49.2686L43.0969 50.224H40.0684L38.2914 46.4598C38.1552 46.1029 37.947 45.7777 37.6799 45.5045C37.4513 45.3166 37.1638 45.2151 36.8679 45.2178H36.5717V50.2145H33.2279V37.9188H38.7786Z" fill="#E52330"/>
<path d="M33.075 0.191075V33.6292H28.7568V0H31.0879C31.7547 0.00212385 32.42 0.0660893 33.075 0.191075Z" fill="#E52330"/>
<path d="M32.3967 37.9188V40.9569H28.9956V50.224H25.6613V40.9569H22.2602V37.9188H32.3967Z" fill="#E52330"/>
<path d="M27.4097 13.2893H23.0914V20.1011H27.4097V13.2893Z" fill="#E52330"/>
<path d="M27.4097 0H23.0914V9.10471H27.4097V0Z" fill="#E52330"/>
<path d="M22.9958 47.1859V50.224H14.4548V37.9188H17.7891V47.1859H22.9958Z" fill="#E52330"/>
<path d="M21.7443 13.2893H17.4356V20.1011H21.7443V13.2893Z" fill="#E52330"/>
<path d="M21.7443 0H17.4356V9.10471H21.7443V0Z" fill="#E52330"/>
<path d="M16.0789 0V33.6578H11.7702V0.181521C12.4006 0.065535 13.04 0.00479747 13.681 0L16.0789 0Z" fill="#E52330"/>
<path d="M12.7925 37.9188H9.44865V50.224H12.7925V37.9188Z" fill="#E52330"/>
<path d="M10.4231 0.525455V33.6578H6.17172V6.95512C6.12821 6.01999 6.28466 5.08634 6.63063 4.21648C6.9766 3.34661 7.50412 2.56055 8.178 1.91075C8.82068 1.2963 9.5857 0.824269 10.4231 0.525455Z" fill="#E52330"/>
<path d="M3.34381 42.7052H7.52835V45.1892H3.34381V50.224H0V37.9188H8.24488V40.5556H3.34381V42.7052Z" fill="#E52330"/>
</g>
<defs>
<clipPath id="clip0_7_4">
<rect width="173.372" height="76" fill="white"/>
</clipPath>
</defs>
</svg>
