<svg width="61" height="60" viewBox="0 0 61 60" fill="none" xmlns="http://www.w3.org/2000/svg">
<path d="M59.2025 54.9418L48.0706 43.9C52.3916 38.5123 54.4842 31.6738 53.918 24.7907C53.3519 17.9076 50.17 11.5029 45.0267 6.89377C39.8834 2.2846 33.1696 -0.178798 26.2658 0.0101146C19.362 0.199027 12.793 3.02589 7.90943 7.90943C3.02589 12.793 0.199027 19.362 0.0101146 26.2658C-0.178798 33.1696 2.2846 39.8834 6.89377 45.0267C11.5029 50.17 17.9076 53.3519 24.7907 53.918C31.6738 54.4842 38.5123 52.3917 43.8999 48.0706L54.9418 59.1125C55.2207 59.3937 55.5526 59.6169 55.9182 59.7692C56.2838 59.9216 56.676 60 57.0721 60C57.4682 60 57.8604 59.9216 58.226 59.7692C58.5917 59.6169 58.9235 59.3937 59.2025 59.1125C59.7433 58.553 60.0456 57.8053 60.0456 57.0271C60.0456 56.249 59.7433 55.5013 59.2025 54.9418ZM27.0672 48.0706C22.9131 48.0706 18.8523 46.8388 15.3983 44.5309C11.9443 42.223 9.2522 38.9427 7.6625 35.1049C6.07279 31.267 5.65685 27.0439 6.46728 22.9696C7.2777 18.8953 9.27809 15.1529 12.2155 12.2155C15.1529 9.27809 18.8953 7.2777 22.9696 6.46728C27.0439 5.65685 31.267 6.07279 35.1049 7.6625C38.9427 9.2522 42.223 11.9443 44.5309 15.3983C46.8388 18.8523 48.0706 22.9131 48.0706 27.0672C48.0706 32.6376 45.8578 37.9799 41.9189 41.9189C37.9799 45.8578 32.6376 48.0706 27.0672 48.0706Z" fill="white"/>
</svg>
