<svg width="15" height="8" viewBox="0 0 15 8" fill="none" xmlns="http://www.w3.org/2000/svg">
<path d="M13.8756 0.372418C13.6218 0.133886 13.2786 0 12.9208 0C12.563 0 12.2198 0.133886 11.9661 0.372418L7.10423 4.90609L2.31011 0.372418C2.05637 0.133886 1.71313 0 1.35535 0C0.997573 0 0.65433 0.133886 0.400591 0.372418C0.273657 0.491475 0.172907 0.633122 0.104152 0.789187C0.0353979 0.945252 0 1.11265 0 1.28171C0 1.45078 0.0353979 1.61818 0.104152 1.77424C0.172907 1.93031 0.273657 2.07195 0.400591 2.19101L6.1427 7.62117C6.2686 7.74121 6.41838 7.83649 6.58341 7.90151C6.74844 7.96652 6.92545 8 7.10423 8C7.28301 8 7.46002 7.96652 7.62505 7.90151C7.79008 7.83649 7.93987 7.74121 8.06576 7.62117L13.8756 2.19101C14.0025 2.07195 14.1033 1.93031 14.172 1.77424C14.2408 1.61818 14.2762 1.45078 14.2762 1.28171C14.2762 1.11265 14.2408 0.945252 14.172 0.789187C14.1033 0.633122 14.0025 0.491475 13.8756 0.372418Z" fill="#B0B0B0"/>
</svg>
