<svg width="120" height="120" viewBox="0 0 120 120" fill="none" xmlns="http://www.w3.org/2000/svg">
<circle cx="60" cy="60" r="60" fill="#2AB9EF"/>
<path d="M67.162 45.434C65.3115 43.5836 62.8513 42.5646 60.2345 42.5646C57.6177 42.5646 55.1574 43.5836 53.3071 45.434C51.4565 47.2844 50.4375 49.7446 50.4375 52.3614C50.4375 54.9783 51.4565 57.4385 53.3069 59.2889C55.2169 61.1987 57.7256 62.1537 60.2344 62.1537C62.7431 62.1537 65.2519 61.1987 67.1618 59.2889C69.0122 57.4385 70.0312 54.9783 70.0312 52.3614C70.0312 49.7446 69.0122 47.2844 67.162 45.434ZM53.4062 52.3614C53.4062 50.5376 54.1165 48.8228 55.4061 47.5334C56.6958 46.2437 58.4105 45.5333 60.2344 45.5333C61.5526 45.5333 62.8129 45.9062 63.8977 46.5988L54.4717 56.0247C53.7791 54.9398 53.4062 53.6796 53.4062 52.3614ZM65.0627 57.1897C62.7609 59.4915 59.2119 59.8014 56.5723 58.123L65.9972 48.6982C66.6898 49.7831 67.0626 51.0433 67.0626 52.3614C67.0625 54.1853 66.3524 55.9 65.0627 57.1897ZM85.0338 73.4271C84.7577 73.151 84.3748 72.9922 83.9844 72.9922C83.594 72.9922 83.211 73.1509 82.9349 73.4271C82.6588 73.7032 82.5 74.0862 82.5 74.4766C82.5 74.8669 82.6588 75.2499 82.9349 75.5259C83.211 75.802 83.594 75.9609 83.9844 75.9609C84.3748 75.9609 84.7577 75.8021 85.0338 75.5259C85.3099 75.2499 85.4687 74.8669 85.4687 74.4766C85.4687 74.0862 85.3099 73.7032 85.0338 73.4271Z" fill="white"/>
<path d="M83.9844 69.5288C84.8042 69.5288 85.4687 68.8641 85.4687 68.0444V67.4929C85.4687 63.5262 83.1208 59.9353 79.487 58.3446L76.6302 57.0941C76.7865 55.4648 76.8645 53.829 76.8637 52.1922C76.8637 41.1641 72.5869 33.0812 68.9993 28.2426C65.1049 22.9903 61.2239 20.3604 61.0606 20.2511C60.8162 20.0874 60.5287 20 60.2345 20C59.9404 20 59.6528 20.0874 59.4085 20.2511C59.2452 20.3604 55.3641 22.9903 51.4697 28.2426C47.882 33.0812 43.6054 41.1641 43.6054 52.1922C43.6054 53.9111 43.6895 55.5451 43.8389 57.0941L40.982 58.3446C37.3481 59.9353 35 63.5262 35 67.4929V82.4922C35.0001 82.7438 35.0641 82.9912 35.1861 83.2113C35.308 83.4314 35.4839 83.6168 35.6972 83.7503C35.9105 83.8837 36.1542 83.9608 36.4054 83.9742C36.6567 83.9876 36.9072 83.937 37.1335 83.8271L50.9411 77.1135C52.0081 78.5832 52.7723 79.3417 52.8272 79.3956C53.1047 79.6678 53.4779 79.8203 53.8665 79.8203H58.75V82.4922C58.75 83.3118 59.4145 83.9765 60.2344 83.9765C61.0542 83.9765 61.7187 83.3118 61.7187 82.4922V79.8203H66.602C66.9907 79.8203 67.3639 79.6678 67.6414 79.3956C67.6963 79.3419 68.4606 78.5832 69.5274 77.1135L83.3351 83.8271C83.5614 83.937 83.8119 83.9877 84.0632 83.9743C84.3144 83.9609 84.5582 83.884 84.7715 83.7506C84.9849 83.6172 85.1609 83.4317 85.2828 83.2115C85.4048 82.9914 85.4688 82.7438 85.4687 82.4922V80.2162C85.4687 79.3965 84.8042 78.7318 83.9844 78.7318C83.1965 78.7318 82.5519 79.3459 82.503 80.1213L71.1662 74.6092C71.5725 73.922 71.9559 73.2214 72.3157 72.5087C73.7472 69.6746 75.368 65.5302 76.2358 60.1621L78.2965 61.0642C79.5462 61.6112 80.6093 62.5106 81.3559 63.6524C82.1024 64.7941 82.5 66.1287 82.5 67.4929V68.0444C82.5 68.8641 83.1645 69.5288 83.9844 69.5288ZM53.7839 30.1061C56.3529 26.619 58.9514 24.3525 60.236 23.336C61.5059 24.3387 64.0569 26.5614 66.6145 30.0109C67.7149 31.4968 68.7031 33.0627 69.5706 34.6956H50.8798C51.7371 33.0984 52.7076 31.5646 53.7839 30.1061ZM37.9687 80.12V67.4929C37.9688 66.1287 38.3664 64.7942 39.113 63.6524C39.8595 62.5107 40.9227 61.6113 42.1723 61.0643L44.2331 60.1623C45.1007 65.5304 46.7217 69.6747 48.153 72.5088C48.5128 73.2216 48.8962 73.9221 49.3025 74.6094L37.9687 80.12ZM69.7314 71.0395C68.2004 74.1028 66.653 76.0472 65.9514 76.8515H61.7187V70.815C61.7187 69.9954 61.0542 69.3307 60.2344 69.3307C59.4145 69.3307 58.75 69.9954 58.75 70.815V76.8515H54.5163C52.8692 74.9653 46.574 66.7967 46.574 52.1921C46.574 47.0411 47.5415 42.1814 49.4574 37.664H70.9848C72.6568 41.6206 73.8952 46.4787 73.8952 52.1921C73.8949 60.8847 71.6308 67.2395 69.7314 71.0395Z" fill="white"/>
<path d="M75.4598 87.0845C74.7345 87.0845 74.034 87.1908 73.3708 87.3854C72.6428 86.2946 71.6567 85.4003 70.5 84.7821C69.3434 84.1638 68.0521 83.8407 66.7406 83.8413C64.0622 83.8413 61.6898 85.1707 60.2439 87.2028C58.798 85.1707 56.4256 83.8413 53.7472 83.8413C52.4358 83.8407 51.1444 84.1639 49.9878 84.7821C48.8312 85.4004 47.8451 86.2946 47.117 87.3854C46.4386 87.1859 45.7351 87.0845 45.028 87.0844C40.9306 87.0844 37.5968 90.418 37.5968 94.5156C37.5968 95.3353 38.2614 96 39.0812 96C39.901 96 40.5656 95.3353 40.5656 94.5156C40.5656 92.0551 42.5674 90.0531 45.028 90.0531C47.4887 90.0531 49.4905 92.055 49.4905 94.5156C49.4905 95.3353 50.1551 96 50.9749 96C51.7947 96 52.4592 95.3353 52.4592 94.5156C52.4592 92.2151 51.4083 90.1557 49.7615 88.7916C50.2277 88.1759 50.8302 87.6765 51.5217 87.3327C52.2132 86.9889 52.975 86.81 53.7472 86.8101C56.5054 86.8101 58.7493 89.0539 58.7493 91.812C58.7493 92.6317 59.4138 93.2964 60.2337 93.2964L60.2439 93.2959L60.2541 93.2964C61.074 93.2964 61.7385 92.6317 61.7385 91.812C61.7385 89.0539 63.9824 86.8101 66.7406 86.8101C67.5128 86.81 68.2746 86.9889 68.9661 87.3327C69.6577 87.6765 70.2601 88.1759 70.7263 88.7916C69.0795 90.1557 68.0287 92.2151 68.0287 94.5156C68.0287 95.3353 68.6933 96 69.5131 96C70.3329 96 70.9975 95.3353 70.9975 94.5156C70.9975 92.0551 72.9993 90.0531 75.4599 90.0531C77.9206 90.0531 79.9224 92.055 79.9224 94.5156C79.9224 95.3353 80.587 96 81.4068 96C82.2266 96 82.8912 95.3353 82.8912 94.5156C82.8909 90.4181 79.5573 87.0845 75.4598 87.0845ZM61.2839 65.0153C61.0078 64.7392 60.6248 64.5804 60.2344 64.5804C59.844 64.5804 59.461 64.7391 59.1849 65.0153C58.9089 65.2914 58.75 65.6744 58.75 66.0648C58.75 66.4551 58.9089 66.8381 59.1849 67.1141C59.461 67.3916 59.844 67.5491 60.2344 67.5491C60.6248 67.5491 61.0078 67.3916 61.2839 67.1141C61.56 66.8381 61.7188 66.4551 61.7188 66.0648C61.7188 65.6744 61.56 65.2914 61.2839 65.0153Z" fill="#E52330"/>
</svg>
