<svg width="178" height="267" viewBox="0 0 178 267" fill="none" xmlns="http://www.w3.org/2000/svg">
<path d="M112.99 89.3538C106.489 82.8529 97.8461 79.2729 88.6529 79.2729C79.4596 79.2729 70.816 82.8529 64.3157 89.3538C57.8144 95.8546 54.2344 104.498 54.2344 113.691C54.2344 122.884 57.8144 131.527 64.3152 138.028C71.0251 144.737 79.8387 148.093 88.6523 148.093C97.466 148.093 106.28 144.737 112.99 138.028C119.49 131.527 123.07 122.884 123.07 113.691C123.07 104.498 119.49 95.8546 112.99 89.3538ZM64.6641 113.691C64.6641 107.283 67.1594 101.259 71.69 96.7291C76.2207 92.1985 82.2449 89.7026 88.6523 89.7026C93.2836 89.7026 97.711 91.0126 101.522 93.4458L68.4073 126.561C65.974 122.749 64.6641 118.322 64.6641 113.691ZM105.615 130.653C97.5285 138.74 85.0604 139.829 75.7868 133.932L108.898 100.821C111.331 104.633 112.641 109.06 112.641 113.691C112.641 120.098 110.146 126.123 105.615 130.653ZM175.777 187.698C174.807 186.728 173.461 186.17 172.09 186.17C170.718 186.17 169.373 186.727 168.403 187.698C167.433 188.668 166.875 190.013 166.875 191.385C166.875 192.756 167.433 194.102 168.403 195.071C169.373 196.041 170.718 196.6 172.09 196.6C173.461 196.6 174.807 196.042 175.777 195.071C176.747 194.102 177.305 192.756 177.305 191.385C177.305 190.013 176.747 188.668 175.777 187.698Z" fill="#E7EFF0" fill-opacity="0.1"/>
<path d="M172.09 174.003C174.97 174.003 177.305 171.667 177.305 168.788V166.85C177.305 152.914 169.056 140.299 156.29 134.711L146.253 130.317C146.803 124.593 147.077 118.847 147.074 113.096C147.074 74.3527 132.049 45.9563 119.445 28.9575C105.763 10.5053 92.1286 1.26613 91.5549 0.882316C90.6964 0.307104 89.6863 0 88.6529 0C87.6195 0 86.6093 0.307104 85.7508 0.882316C85.1772 1.26613 71.5424 10.5053 57.8608 28.9575C45.2565 45.9563 30.232 74.3527 30.232 113.096C30.232 119.135 30.5277 124.876 31.0523 130.317L21.0158 134.711C8.24936 140.299 0 152.914 0 166.85V219.545C0.000296271 220.429 0.225219 221.298 0.65365 222.071C1.08208 222.844 1.69996 223.496 2.44929 223.965C3.19861 224.434 4.05479 224.704 4.93744 224.752C5.82009 224.799 6.70026 224.621 7.4953 224.235L56.0038 200.649C59.7522 205.812 62.4368 208.477 62.6298 208.666C63.6046 209.622 64.9156 210.158 66.2812 210.158H83.4375V219.545C83.4375 222.425 85.7722 224.76 88.6523 224.76C91.5325 224.76 93.8672 222.425 93.8672 219.545V210.158H111.023C112.389 210.158 113.7 209.623 114.674 208.666C114.867 208.477 117.552 205.812 121.3 200.649L169.809 224.235C170.604 224.621 171.484 224.799 172.367 224.752C173.249 224.705 174.106 224.434 174.855 223.966C175.605 223.497 176.223 222.846 176.652 222.072C177.08 221.299 177.305 220.429 177.305 219.545V211.549C177.305 208.669 174.97 206.334 172.09 206.334C169.322 206.334 167.058 208.492 166.885 211.216L127.058 191.851C128.485 189.437 129.832 186.975 131.096 184.471C136.125 174.515 141.819 159.955 144.868 141.096L152.108 144.265C156.498 146.187 160.233 149.347 162.855 153.358C165.478 157.369 166.875 162.057 166.875 166.85V168.788C166.875 171.667 169.21 174.003 172.09 174.003ZM65.9907 35.5042C75.0161 23.2535 84.1451 15.2909 88.6581 11.7198C93.1194 15.2424 102.082 23.0511 111.067 35.1699C114.933 40.3902 118.404 45.8915 121.452 51.628H55.7884C58.8 46.0167 62.2094 40.6284 65.9907 35.5042ZM10.4297 211.211V166.85C10.4298 162.057 11.8268 157.369 14.4496 153.358C17.0724 149.347 20.8073 146.187 25.1976 144.265L32.4374 141.096C35.4854 159.955 41.1801 174.515 46.2087 184.472C47.4728 186.976 48.8196 189.437 50.2471 191.851L10.4297 211.211ZM122.017 179.31C116.638 190.072 111.202 196.903 108.737 199.728H93.8672V178.521C93.8672 175.642 91.5325 173.306 88.6523 173.306C85.7722 173.306 83.4375 175.642 83.4375 178.521V199.728H68.5637C62.7773 193.102 40.6612 164.404 40.6612 113.096C40.6612 94.9998 44.0602 77.9269 50.791 62.0566H126.42C132.294 75.9568 136.645 93.0239 136.645 113.096C136.644 143.634 128.69 165.96 122.017 179.31Z" fill="#E7EFF0" fill-opacity="0.1"/>
<path d="M142.141 235.679C139.594 235.679 137.133 236.052 134.803 236.736C132.245 232.903 128.781 229.762 124.717 227.59C120.654 225.418 116.117 224.282 111.509 224.285C102.1 224.285 93.7654 228.955 88.6857 236.094C83.6059 228.955 75.2715 224.285 65.8619 224.285C61.2544 224.283 56.7177 225.418 52.6543 227.59C48.5909 229.762 45.1266 232.903 42.5687 236.736C40.1855 236.035 37.7141 235.678 35.2299 235.678C20.8348 235.678 9.1228 247.39 9.1228 261.785C9.1228 264.665 11.4575 267 14.3376 267C17.2178 267 19.5525 264.665 19.5525 261.785C19.5525 253.141 26.5852 246.108 35.2299 246.108C43.8745 246.108 50.9073 253.141 50.9073 261.785C50.9073 264.665 53.2419 267 56.1221 267C59.0023 267 61.3369 264.665 61.3369 261.785C61.3369 253.703 57.6448 246.468 51.8595 241.676C53.4971 239.513 55.6137 237.758 58.0431 236.551C60.4725 235.343 63.1488 234.714 65.8619 234.714C75.5516 234.714 83.4348 242.597 83.4348 252.287C83.4348 255.166 85.7695 257.502 88.6497 257.502L88.6857 257.5L88.7217 257.502C91.6018 257.502 93.9365 255.166 93.9365 252.287C93.9365 242.597 101.82 234.714 111.509 234.714C114.223 234.714 116.899 235.343 119.328 236.551C121.758 237.758 123.874 239.513 125.512 241.676C119.727 246.468 116.035 253.703 116.035 261.785C116.035 264.665 118.37 267 121.25 267C124.13 267 126.465 264.665 126.465 261.785C126.465 253.141 133.497 246.108 142.142 246.108C150.787 246.108 157.819 253.141 157.819 261.785C157.819 264.665 160.154 267 163.034 267C165.914 267 168.249 264.665 168.249 261.785C168.248 247.39 156.537 235.679 142.141 235.679ZM92.3392 158.146C91.3692 157.176 90.0238 156.618 88.6523 156.618C87.2808 156.618 85.9354 157.175 84.9654 158.146C83.9954 159.116 83.4375 160.461 83.4375 161.833C83.4375 163.204 83.9954 164.55 84.9654 165.519C85.9354 166.494 87.2808 167.048 88.6523 167.048C90.0238 167.048 91.3692 166.494 92.3392 165.519C93.3092 164.55 93.8671 163.204 93.8671 161.833C93.8671 160.461 93.3092 159.116 92.3392 158.146Z" fill="#E7EFF0" fill-opacity="0.1"/>
</svg>
