<svg width="120" height="131" viewBox="0 0 120 131" fill="none" xmlns="http://www.w3.org/2000/svg">
<g clip-path="url(#clip0_412_334)">
<path d="M60 131L54.7977 128.242C46.8208 123.761 39.5376 118.245 32.948 111.695C26.3584 105.145 20.8092 97.2158 15.9537 88.5974C11.0983 79.2895 6.93641 69.2921 4.16184 58.2605C1.38727 47.5737 -1.14389e-05 35.8526 -0.346832 23.7868V17.5816L5.2023 14.4789C9.36415 12.0658 16.3006 8.61842 25.3179 5.51579C36.763 1.72368 48.5549 0 60 0C71.7919 0 83.237 1.72368 94.3353 5.51579C103.353 8.61842 110.289 12.0658 114.451 14.4789L120 17.5816V23.7868C119.653 35.8526 118.266 47.2289 115.491 58.2605C112.717 69.2921 108.902 79.6342 103.699 88.5974C98.8439 97.2158 93.2948 104.8 86.7052 111.695C80.1156 118.245 72.8324 124.105 64.8555 128.242L60 131ZM6.9364 21.3737V23.4421C7.28323 34.8184 8.67051 45.85 11.0983 56.1921C13.526 66.5342 17.341 76.1868 22.1965 84.8053C26.7052 92.7342 31.9075 99.9737 37.8035 106.179C43.6994 112.384 50.6358 117.555 57.9191 121.692L59.6532 122.726L61.3873 121.692C68.6705 117.555 75.6069 112.384 81.5029 106.179C87.3988 99.9737 92.948 92.7342 97.1098 84.8053C101.965 76.1868 105.434 66.5342 108.208 56.1921C110.636 45.85 112.023 34.8184 112.37 23.4421V21.3737L110.289 20.3395C106.474 17.9263 99.8844 14.8237 91.5607 12.0658C81.1561 8.61842 70.0578 6.89474 59.3064 6.89474C49.2485 6.89474 38.1503 8.61842 27.7457 12.0658C19.0751 14.8237 12.8324 18.2711 9.01733 20.3395L6.9364 21.3737Z" fill="#1CA6DA"/>
<path d="M109.249 24.4765C108.902 24.4765 108.902 24.4765 109.249 24.4765C108.555 24.1317 108.555 24.1317 108.208 24.1317C107.861 23.787 107.168 23.787 106.821 23.4423C105.78 22.7528 104.74 22.408 103.699 21.7186C102.659 21.0291 101.272 20.6844 100.231 19.9949C98.8439 19.3054 97.4567 18.9607 96.0694 18.2712C94.6821 17.5817 93.2948 17.237 91.9075 16.8923C90.5202 16.5475 89.1329 15.858 87.7457 15.5133C86.3584 15.1686 84.9711 14.8238 83.5838 14.4791C82.1965 14.1344 80.8093 13.7896 79.7688 13.4449C78.3815 13.1001 77.341 13.1001 75.9538 12.7554C74.5665 12.4107 73.1792 12.4107 71.7919 12.0659C70.4046 12.0659 69.0173 11.7212 67.6301 11.7212C66.2428 11.7212 64.8555 11.3765 63.1214 11.3765C61.7341 11.3765 60 11.3765 58.6127 11.3765C57.2254 11.3765 55.8382 11.3765 54.1041 11.3765C52.7168 11.3765 51.3295 11.7212 49.9422 11.7212C48.5549 11.7212 47.1676 12.0659 45.7803 12.0659C44.3931 12.4107 43.0058 12.4107 41.9653 12.7554C40.578 13.1001 39.5376 13.1001 38.1503 13.4449C36.763 13.7896 35.3757 14.1344 33.9884 14.4791C32.948 15.5133 31.5607 15.858 30.1734 16.2028C28.4393 16.5475 27.052 17.237 25.6647 17.5817C24.2775 18.2712 22.8902 18.6159 21.5029 19.3054C20.1156 19.9949 19.0751 20.3396 17.6879 21.0291C16.6474 21.7186 15.2601 22.0633 14.2197 22.7528C13.1792 23.0975 12.4855 23.787 11.4451 24.1317H11.0983V24.4765C11.0983 24.8212 11.0983 25.1659 11.0983 25.5107C11.0983 26.2002 11.0983 26.8896 11.0983 27.9238C11.0983 29.3028 11.0983 31.0265 11.4451 32.4054C11.4451 33.7844 11.7919 35.508 11.7919 36.887C11.7919 38.2659 12.1387 39.9896 12.4855 41.3686C12.4855 41.7133 12.4855 42.058 12.4855 42.4028C12.4855 43.437 12.8324 44.4712 12.8324 45.5054C13.1792 46.8844 13.1792 48.2633 13.526 49.6423C13.8728 51.0212 14.2197 52.4001 14.5665 53.7791C14.9133 55.158 15.2601 56.537 15.6069 57.9159C15.9538 59.2949 16.3006 60.6738 16.6474 61.708C16.6474 61.708 16.6474 61.708 16.6474 62.0528C16.9942 63.4317 17.341 64.4659 17.6879 65.8449C18.0347 67.2238 18.7283 68.258 19.0751 69.637C19.422 70.3265 19.7688 71.0159 20.1156 72.0501C20.4624 72.3949 20.4624 73.0844 20.8092 73.4291C21.1561 74.808 21.8497 75.8423 22.1965 76.8765C22.8902 77.9107 23.237 79.2896 23.9306 80.3238C24.6243 81.358 24.9711 82.737 25.6647 83.7712C26.3584 84.8054 27.052 86.1844 27.7457 87.2186C28.4393 88.2528 29.133 89.287 29.8266 90.3212C30.5202 91.3554 31.2139 92.3896 31.9075 93.4238C32.6012 94.458 33.2948 95.4923 33.9884 96.5265C34.6821 97.5607 35.3757 98.5949 36.4162 99.2844C37.1098 100.319 38.1503 101.008 38.8439 102.042C39.5376 103.076 40.578 103.766 41.2717 104.8C41.9653 105.49 43.0058 106.524 43.6994 107.213C44.7399 107.903 45.4335 108.937 46.474 109.626C47.5145 110.316 48.2081 111.005 49.2486 112.04C50.289 112.729 50.9827 113.419 52.0231 114.108C53.0636 114.798 54.1041 115.487 54.7977 116.176C55.8382 116.866 56.8786 117.555 57.9191 117.9C58.2659 118.245 58.9595 118.59 59.3064 118.59C59.3064 118.59 59.6532 118.59 59.6532 118.934C59.6532 118.934 59.6532 118.934 60 118.934C60.3468 118.934 60.3468 118.59 60.6936 118.59C61.7341 117.9 62.7746 117.555 63.815 116.866C64.8555 116.176 65.896 115.487 66.9364 114.798C67.9769 114.108 69.0173 113.419 69.711 112.729C70.7514 112.04 71.4451 111.35 72.4855 110.661C73.526 109.971 74.2197 109.282 75.2601 108.248C76.3006 107.558 76.9942 106.524 78.0347 105.834C78.7283 105.145 79.7688 104.111 80.4624 103.076C81.1561 102.042 82.1965 101.353 82.8902 100.319C83.5838 99.2844 84.6243 98.5949 85.3179 97.5607C86.0116 96.5265 86.7052 95.4923 87.3988 94.458C88.0925 93.4238 88.7861 92.3896 89.4798 91.3554C90.1734 90.3212 90.8671 89.287 91.5607 88.2528C92.2543 87.2186 92.948 86.1844 93.6416 84.8054C94.3353 83.7712 95.0289 82.737 95.3757 81.358C96.0694 80.3238 96.4162 78.9449 97.1098 77.9107C97.8035 76.8765 98.1503 75.4975 98.8439 74.4633C99.1908 73.7738 99.5376 73.0844 99.8844 72.0501C100.231 71.7054 100.231 71.0159 100.578 70.6712C100.925 69.2923 101.618 68.258 101.965 66.8791C102.312 65.5001 102.659 64.4659 103.353 63.087C103.699 61.708 104.046 60.3291 104.393 59.2949C104.393 58.9502 104.74 58.6054 104.74 58.2607C105.087 57.2265 105.087 56.537 105.434 55.5028C105.78 54.1238 106.127 52.7449 106.474 51.3659C106.821 49.987 107.168 48.608 107.168 47.2291C107.514 45.8501 107.514 44.4712 107.861 43.0923C108.208 41.7133 108.208 39.9896 108.555 38.6107C108.555 37.2317 108.902 35.508 108.902 34.1291C108.902 32.7501 109.249 31.0265 109.249 29.6475C109.249 28.2686 109.249 26.5449 109.595 25.1659C109.249 24.8212 109.249 24.8212 109.249 24.4765ZM102.659 51.0212L87.3988 18.9607C88.0925 18.9607 88.4393 19.3054 89.133 19.3054L103.699 46.5396C103.353 47.9186 103.353 48.9528 103.006 50.3317C102.659 50.6765 102.659 51.0212 102.659 51.0212ZM100.925 57.9159L83.9306 18.2712C84.2775 18.2712 84.9711 18.6159 85.3179 18.6159L101.965 53.4344C101.965 53.7791 101.965 54.1238 101.618 54.4686C101.618 55.5028 101.272 56.537 100.925 57.9159ZM98.8439 64.8107C98.8439 65.1554 98.8439 65.1554 98.4971 65.5001L80.4624 17.237C80.8093 17.237 81.1561 17.237 81.5029 17.5817H81.8497L100.231 59.6396C100.231 59.9844 99.8844 60.6738 99.8844 61.0186C99.5376 62.3975 99.1908 63.7765 98.8439 64.8107ZM90.8671 20.3396C91.2139 20.3396 91.9075 20.6844 92.6012 20.6844L104.393 40.6791C104.393 41.3686 104.046 42.058 104.046 42.7475C104.046 43.0923 104.046 43.7817 103.699 44.1265L90.8671 20.3396ZM94.6821 21.7186C95.3757 22.0633 96.0694 22.0633 96.4162 22.408C96.763 22.408 97.1098 22.7528 97.4567 22.7528L104.74 34.4738C104.74 34.8186 104.74 35.1633 104.74 35.508C104.74 36.5423 104.393 37.5765 104.393 38.9554L94.6821 21.7186ZM103.006 25.5107C103.699 25.8554 104.046 26.2001 104.74 26.2001C104.74 26.2001 105.087 26.2001 105.087 26.5449C105.087 26.5449 105.087 26.5449 105.434 26.5449C105.434 26.8896 105.434 27.2344 105.434 27.5791C105.434 28.958 105.434 29.9923 105.087 31.3712C105.087 31.7159 105.087 31.7159 105.087 32.0607L99.8844 23.787C100.925 24.4765 101.965 24.8212 103.006 25.5107ZM17.341 50.3317C16.9942 48.9528 16.9942 47.9186 16.6474 46.5396C16.6474 46.1949 16.6474 46.1949 16.6474 45.8501L30.5202 19.6501C30.8671 19.6501 30.8671 19.6501 31.2139 19.3054C31.5607 19.3054 31.9075 18.9607 32.2543 18.9607L17.341 50.3317ZM16.3006 42.7475C16.3006 41.7133 15.9538 41.0238 15.9538 39.9896L27.052 21.0291C27.3988 21.0291 27.3988 21.0291 27.7457 20.6844C28.0925 20.6844 28.4393 20.6844 28.7861 20.3396L16.3006 43.7817C16.3006 43.437 16.3006 43.0923 16.3006 42.7475ZM14.5665 26.5449C14.9133 26.5449 14.9133 26.5449 14.5665 26.5449C14.9133 26.2001 15.2601 26.2001 15.6069 25.8554C16.3006 25.8554 16.9942 25.5107 17.341 25.1659C18.0347 24.8212 18.7283 24.4765 19.422 24.1317L14.9133 31.3712C14.9133 29.9923 14.9133 28.6133 14.5665 27.5791C14.9133 27.2344 14.9133 26.8896 14.5665 26.5449C14.9133 26.8896 14.9133 26.5449 14.5665 26.5449ZM15.2601 35.1633C15.2601 34.8186 15.2601 34.1291 15.2601 33.7844L21.8497 23.4423C22.5434 22.7528 23.5838 22.408 24.2775 22.0633C24.6243 22.0633 24.6243 22.0633 24.9711 21.7186L15.6069 37.9212C15.6069 36.887 15.2601 35.8528 15.2601 35.1633ZM18.0347 52.4001L34.3353 18.6159C34.6821 18.6159 35.0289 18.2712 35.3757 18.2712C35.7225 18.2712 35.7225 18.2712 36.0694 18.2712L19.0751 56.8817C18.7283 55.8475 18.7283 54.8133 18.3815 53.7791C18.0347 53.4344 18.0347 53.0896 18.0347 52.4001ZM19.7688 58.9501L37.4567 17.9265C37.8035 17.9265 38.4971 17.5817 38.8439 17.5817L21.5029 64.8107C21.1561 63.7765 20.8093 62.3975 20.4624 61.3633C20.1156 60.3291 19.7688 59.6396 19.7688 58.9501ZM22.1965 66.8791L40.578 17.237C40.9249 17.237 41.6185 16.8923 41.9653 16.8923L24.2775 72.7396C24.2775 72.3949 24.2775 72.3949 24.2775 72.3949C24.2775 72.0502 23.9306 71.7054 23.9306 71.3607C23.5838 70.3265 22.8902 69.2923 22.5434 67.9133C22.1965 67.5686 22.1965 67.2238 22.1965 66.8791ZM24.9711 74.4633L43.3526 16.5475C43.6994 16.5475 44.3931 16.5475 44.7399 16.2028L28.0925 80.6686C27.7457 79.6344 27.052 78.9449 26.7052 77.9107C26.0116 76.8765 25.6647 75.8423 24.9711 74.4633ZM31.5607 86.8738C30.8671 85.8396 30.1734 84.8054 29.8266 83.7712C29.4798 83.4265 29.1329 82.737 29.1329 82.3923L46.8208 16.2028C47.1676 16.2028 47.8613 16.2028 48.2081 15.858L32.948 88.2528C32.2543 87.908 31.9075 87.5633 31.5607 86.8738ZM35.7225 92.7344C35.0289 91.7001 34.3353 91.0107 33.6416 89.9765L49.5954 15.5133C49.9422 15.5133 50.289 15.5133 50.6358 15.5133H50.9827L38.1503 96.1817L37.8035 95.837C37.1098 94.8028 36.4162 93.7686 35.7225 92.7344ZM42.3121 101.008C41.6185 100.319 40.9249 99.2844 39.8844 98.5949C39.5376 98.2502 39.5376 97.9054 39.1908 97.9054L52.3699 15.858C52.7168 15.858 53.4104 15.858 53.7572 15.858L44.3931 103.421C43.6994 102.387 43.0058 101.698 42.3121 101.008ZM47.1676 105.834C46.474 105.49 46.1272 104.8 45.4335 104.455L54.7977 15.5133H54.4509C55.1445 15.5133 55.4913 15.5133 56.185 15.5133L51.3295 109.626C50.9827 109.282 50.289 108.937 49.9422 108.592C48.9017 107.558 48.2081 106.524 47.1676 105.834ZM55.4913 112.384C54.4509 111.695 53.7572 111.005 52.7168 110.316L57.5723 15.1686C57.9191 15.1686 57.9191 15.1686 58.2659 15.1686C58.6127 15.1686 58.6127 15.1686 58.9595 15.1686V114.798C58.6127 114.798 58.6127 114.453 58.2659 114.453C57.5723 113.763 56.5318 113.074 55.4913 112.384ZM61.3873 114.453C61.0405 114.453 61.0405 114.798 60.6936 114.798C60.6936 114.798 60.6936 114.798 60.3468 114.798V14.8238C60.6936 14.8238 61.3873 14.8238 61.7341 14.8238L66.5896 110.316C65.896 111.005 64.8555 111.35 64.1619 112.04C63.4682 113.074 62.4278 113.763 61.3873 114.453ZM70.0578 108.248C69.3642 108.592 68.6705 109.282 68.3237 109.626L63.1214 15.1686C63.815 15.1686 64.5087 15.1686 65.2023 15.1686H64.5087L73.8728 104.455C73.526 104.8 73.1792 105.145 72.4855 105.49C71.7919 106.869 71.0983 107.558 70.0578 108.248ZM78.0347 101.008C77.341 101.698 76.3006 102.732 75.6069 103.421L65.896 15.5133C66.2428 15.5133 66.5896 15.5133 66.9364 15.5133L80.1156 98.2502L79.7688 98.5949C79.422 99.2844 78.7283 100.319 78.0347 101.008ZM84.6243 93.0791C83.9306 94.1133 83.237 94.8028 82.5434 95.837C82.1965 96.1817 82.1965 96.5265 81.8497 96.5265L68.6705 15.5133C69.0173 15.5133 69.3642 15.5133 70.0578 15.5133L86.0116 90.6659C85.6647 91.3554 84.9711 92.3896 84.6243 93.0791ZM88.4393 87.2186C88.0925 87.908 87.7457 88.5975 87.052 89.287L71.7919 15.858C72.1387 15.858 72.8324 15.858 73.1792 16.2028L90.8671 83.0817C90.5202 83.4265 90.5202 83.7712 90.1734 84.1159C89.8266 85.1501 89.133 86.1844 88.4393 87.2186ZM93.6416 77.9107C93.2948 78.9449 92.6012 79.9791 92.2543 81.0133C92.2543 81.0133 92.2543 81.0133 92.2543 81.358L74.9133 16.5475C75.2601 16.5475 75.9538 16.5475 76.3006 16.8923L95.0289 75.4975C94.3353 76.187 93.9884 77.2212 93.6416 77.9107ZM96.4162 71.7054C96.4162 72.0501 96.0694 72.3949 96.0694 72.7396C96.0694 73.0844 95.7225 73.4291 95.7225 73.7738L77.6879 16.8923H78.0347C78.3815 16.8923 78.7283 16.8923 79.0751 17.237L97.8035 67.9133C97.8035 68.258 97.8035 68.258 97.4567 68.6028C97.1098 69.2923 96.763 70.3265 96.4162 71.7054Z" fill="#1CA6DA"/>
</g>
<defs>
<clipPath id="clip0_412_334">
<rect width="120" height="131" fill="white"/>
</clipPath>
</defs>
</svg>
