<svg width="88" height="88" viewBox="0 0 88 88" fill="none" xmlns="http://www.w3.org/2000/svg">
<path d="M44 22C42.8331 22 41.7139 22.4636 40.8887 23.2887C40.0636 24.1139 39.6 25.233 39.6 26.4V44C39.6 45.1669 40.0636 46.2861 40.8887 47.1113C41.7139 47.9364 42.8331 48.4 44 48.4C45.167 48.4 46.2861 47.9364 47.1113 47.1113C47.9364 46.2861 48.4 45.1669 48.4 44V26.4C48.4 25.233 47.9364 24.1139 47.1113 23.2887C46.2861 22.4636 45.167 22 44 22ZM48.048 59.928C47.9517 59.6476 47.8185 59.3813 47.652 59.136L47.124 58.476C46.5053 57.8654 45.7195 57.4519 44.866 57.2874C44.0124 57.123 43.1293 57.215 42.328 57.552C41.7948 57.7748 41.3037 58.0873 40.876 58.476C40.4682 58.8871 40.1456 59.3747 39.9266 59.9108C39.7077 60.4469 39.5967 61.0209 39.6 61.6C39.607 62.175 39.7266 62.743 39.952 63.272C40.1496 63.818 40.4649 64.3139 40.8755 64.7245C41.2861 65.1351 41.782 65.4504 42.328 65.648C42.8547 65.8808 43.4242 66.001 44 66.001C44.5758 66.001 45.1453 65.8808 45.672 65.648C46.218 65.4504 46.7139 65.1351 47.1245 64.7245C47.5351 64.3139 47.8504 63.818 48.048 63.272C48.2735 62.743 48.3931 62.175 48.4 61.6C48.4216 61.307 48.4216 61.0129 48.4 60.72C48.3243 60.4394 48.2055 60.1722 48.048 59.928V59.928ZM44 0C35.2976 0 26.7907 2.58055 19.5549 7.41534C12.3192 12.2501 6.67958 19.122 3.34932 27.1619C0.0190645 35.2019 -0.852282 44.0488 0.845467 52.584C2.54322 61.1191 6.73381 68.9592 12.8873 75.1127C19.0408 81.2662 26.8809 85.4568 35.416 87.1545C43.9512 88.8523 52.7981 87.9809 60.8381 84.6507C68.878 81.3204 75.7499 75.6808 80.5847 68.4451C85.4194 61.2093 88 52.7024 88 44C88 38.2218 86.8619 32.5002 84.6507 27.1619C82.4395 21.8236 79.1985 16.9731 75.1127 12.8873C71.0269 8.80152 66.1764 5.56051 60.8381 3.3493C55.4998 1.13809 49.7782 0 44 0V0ZM44 79.2C37.0381 79.2 30.2326 77.1355 24.4439 73.2677C18.6553 69.3999 14.1437 63.9024 11.4795 57.4704C8.81526 51.0385 8.11818 43.9609 9.47638 37.1328C10.8346 30.3047 14.187 24.0326 19.1099 19.1098C24.0327 14.187 30.3047 10.8346 37.1328 9.47636C43.961 8.11816 51.0385 8.81523 57.4705 11.4794C63.9024 14.1436 69.3999 18.6553 73.2677 24.4439C77.1356 30.2325 79.2 37.0381 79.2 44C79.2 53.3356 75.4914 62.2889 68.8902 68.8901C62.2889 75.4914 53.3356 79.2 44 79.2V79.2Z" fill="#34A853"/>
</svg>
