<svg width="45" height="45" viewBox="0 0 45 45" fill="none" xmlns="http://www.w3.org/2000/svg">
<g clip-path="url(#clip0_412_487)">
<path d="M43.7018 22.9328H35.9133V20.2339C39.8319 19.6097 42.8364 16.2071 42.8364 12.1156V10.3849C42.8364 9.66802 42.2552 9.0868 41.5383 9.0868C40.8215 9.0868 40.2403 9.66802 40.2403 10.3849V12.1156C40.2403 14.7704 38.3911 16.9999 35.9134 17.5878V16.4425C35.9134 15.2496 34.9429 14.2791 33.75 14.2791H32.4519V9.51957C32.4519 6.78916 30.4959 4.5077 27.9118 4.00066L28.8784 1.82571C29.1696 1.17067 28.8745 0.403469 28.2194 0.112375C27.5642 -0.178894 26.7972 0.116242 26.5061 0.771379L25.1179 3.89466H19.882L18.494 0.771203C18.2029 0.116154 17.4357 -0.178982 16.7806 0.112199C16.1256 0.403293 15.8305 1.17049 16.1216 1.82554L17.0882 4.00048C14.5042 4.50761 12.5482 6.7889 12.5482 9.5194V14.2789H11.2502C10.0572 14.2789 9.08676 15.2494 9.08676 16.4424V17.5876C6.60912 16.9999 4.7599 14.7702 4.7599 12.1154V10.3847C4.7599 9.66784 4.17868 9.08662 3.46184 9.08662C2.74501 9.08662 2.16379 9.66784 2.16379 10.3847V12.1154C2.16379 16.2069 5.16833 19.6094 9.08684 20.2337V22.9326H1.29824C0.581404 22.9326 0.000183105 23.5139 0.000183105 24.2307C0.000183105 24.9475 0.581404 25.5288 1.29824 25.5288H9.08667V28.2277C5.16815 28.8519 2.16361 32.2545 2.16361 36.346V38.0767C2.16361 38.7936 2.74483 39.3748 3.46167 39.3748C4.1785 39.3748 4.75972 38.7936 4.75972 38.0767V36.346C4.75972 33.6912 6.60894 31.4616 9.08658 30.8738V31.5864C9.08667 38.9827 15.1039 45 22.5 45C29.8961 45 35.9133 38.9827 35.9133 31.5866V30.8741C38.391 31.4619 40.2402 33.6914 40.2402 36.3463V38.077C40.2402 38.7938 40.8214 39.3751 41.5383 39.3751C42.2551 39.3751 42.8363 38.7938 42.8363 38.077V36.3463C42.8363 32.2548 39.8318 28.8523 35.9133 28.228V25.529H43.7017C44.4185 25.529 44.9997 24.9478 44.9997 24.231C44.9997 23.5141 44.4186 22.9328 43.7018 22.9328ZM15.1443 9.51948C15.1443 7.84939 16.503 6.49069 18.1731 6.49069H26.8269C28.497 6.49069 29.8557 7.84939 29.8557 9.51948V14.279H15.1443V9.51948ZM33.3172 31.5866C33.3172 37.5512 28.4646 42.4038 22.5 42.4038C16.5354 42.4038 11.6828 37.5512 11.6828 31.5866V16.8752H21.202V29.4232C21.202 30.14 21.7832 30.7213 22.5 30.7213C23.2168 30.7213 23.7981 30.14 23.7981 29.4232V16.8752H33.3172V31.5866Z" fill="black"/>
</g>
<defs>
<clipPath id="clip0_412_487">
<rect width="45" height="45" fill="white"/>
</clipPath>
</defs>
</svg>
