<svg width="45" height="45" viewBox="0 0 45 45" fill="none" xmlns="http://www.w3.org/2000/svg">
<path d="M20.35 22.0331C21.3667 22.0331 22.3417 21.6293 23.0606 20.9104C23.7795 20.1915 24.1833 19.2165 24.1833 18.1998C24.1833 17.1831 23.7795 16.2081 23.0606 15.4892C22.3417 14.7703 21.3667 14.3665 20.35 14.3665C19.3333 14.3665 18.3583 14.7703 17.6394 15.4892C16.9205 16.2081 16.5167 17.1831 16.5167 18.1998C16.5167 19.2165 16.9205 20.1915 17.6394 20.9104C18.3583 21.6293 19.3333 22.0331 20.35 22.0331ZM20.35 16.2998C20.8539 16.2998 21.3372 16.5 21.6935 16.8563C22.0498 17.2126 22.25 17.6959 22.25 18.1998C22.25 18.7037 22.0498 19.187 21.6935 19.5433C21.3372 19.8996 20.8539 20.0998 20.35 20.0998C19.8461 20.0998 19.3628 19.8996 19.0065 19.5433C18.6502 19.187 18.45 18.7037 18.45 18.1998C18.45 17.6959 18.6502 17.2126 19.0065 16.8563C19.3628 16.5 19.8461 16.2998 20.35 16.2998ZM28.2333 22.7498C28.8699 22.7498 29.4803 22.4969 29.9304 22.0468C30.3805 21.5968 30.6333 20.9863 30.6333 20.3498C30.6333 19.7133 30.3805 19.1028 29.9304 18.6527C29.4803 18.2026 28.8699 17.9498 28.2333 17.9498C27.5968 17.9498 26.9864 18.2026 26.5363 18.6527C26.0862 19.1028 25.8333 19.7133 25.8333 20.3498C25.8333 20.9863 26.0862 21.5968 26.5363 22.0468C26.9864 22.4969 27.5968 22.7498 28.2333 22.7498ZM28.2333 19.8831C28.3571 19.8831 28.4758 19.9323 28.5633 20.0198C28.6508 20.1073 28.7 20.226 28.7 20.3498C28.7 20.4736 28.6508 20.5923 28.5633 20.6798C28.4758 20.7673 28.3571 20.8165 28.2333 20.8165C28.1096 20.8165 27.9909 20.7673 27.9034 20.6798C27.8158 20.5923 27.7667 20.4736 27.7667 20.3498C27.7667 20.226 27.8158 20.1073 27.9034 20.0198C27.9909 19.9323 28.1096 19.8831 28.2333 19.8831ZM14.6167 26.3331C15.2532 26.3331 15.8636 26.0803 16.3137 25.6302C16.7638 25.1801 17.0167 24.5696 17.0167 23.9331C17.0167 23.2966 16.7638 22.6862 16.3137 22.2361C15.8636 21.786 15.2532 21.5331 14.6167 21.5331C13.9802 21.5331 13.3697 21.786 12.9196 22.2361C12.4695 22.6862 12.2167 23.2966 12.2167 23.9331C12.2167 24.5696 12.4695 25.1801 12.9196 25.6302C13.3697 26.0803 13.9802 26.3331 14.6167 26.3331ZM14.6167 23.4665C14.7404 23.4665 14.8591 23.5156 14.9467 23.6031C15.0342 23.6907 15.0833 23.8094 15.0833 23.9331C15.0833 24.0569 15.0342 24.1756 14.9467 24.2631C14.8591 24.3506 14.7404 24.3998 14.6167 24.3998C14.4929 24.3998 14.3742 24.3506 14.2867 24.2631C14.1992 24.1756 14.15 24.0569 14.15 23.9331C14.15 23.8094 14.1992 23.6907 14.2867 23.6031C14.3742 23.5156 14.4929 23.4665 14.6167 23.4665ZM18.6667 27.5165C18.6667 28.7232 19.146 29.8805 19.9993 30.7338C20.8526 31.5871 22.0099 32.0665 23.2167 32.0665C24.4234 32.0665 25.5807 31.5871 26.434 30.7338C27.2873 29.8805 27.7667 28.7232 27.7667 27.5165C27.7667 26.3097 27.2873 25.1524 26.434 24.2991C25.5807 23.4458 24.4234 22.9665 23.2167 22.9665C22.0099 22.9665 20.8526 23.4458 19.9993 24.2991C19.146 25.1524 18.6667 26.3097 18.6667 27.5165ZM25.8333 27.5165C25.8333 28.2104 25.5577 28.876 25.0669 29.3667C24.5762 29.8574 23.9107 30.1331 23.2167 30.1331C22.5227 30.1331 21.8571 29.8574 21.3664 29.3667C20.8757 28.876 20.6 28.2104 20.6 27.5165C20.6 26.8225 20.8757 26.1569 21.3664 25.6662C21.8571 25.1755 22.5227 24.8998 23.2167 24.8998C23.9107 24.8998 24.5762 25.1755 25.0669 25.6662C25.5577 26.1569 25.8333 26.8225 25.8333 27.5165Z" fill="black" stroke="black" stroke-width="0.5"/>
<mask id="path-2-outside-1_412_449" maskUnits="userSpaceOnUse" x="0.003479" y="0.00244141" width="45" height="45" fill="black">
<rect fill="white" x="0.003479" y="0.00244141" width="45" height="45"/>
<path d="M3.86684 25.3667C4.39898 25.3678 4.92064 25.2188 5.37184 24.9367C5.58398 24.7834 5.83831 24.6996 6.09998 24.6966C7.01874 24.7446 8.38256 24.8463 9.86391 25.0549C9.96711 25.5795 10.104 26.0962 10.2738 26.6029C9.26622 27.3897 8.22386 28.131 7.14989 28.8246C6.95993 28.9296 6.74218 28.9734 6.52639 28.95C5.78065 28.9121 5.04897 29.1629 4.48318 29.6502C4.03936 30.0306 3.72317 30.5382 3.57742 31.1043C3.43167 31.6703 3.46341 32.2675 3.66833 32.815C3.81336 33.2059 4.04192 33.5604 4.33807 33.8539C4.63421 34.1474 4.99082 34.3728 5.38302 34.5143C5.77522 34.6558 6.19356 34.7101 6.60889 34.6733C7.02421 34.6365 7.42651 34.5096 7.78773 34.3013C8.25619 34.0367 8.63915 33.6435 8.89139 33.1683C8.99818 32.9339 9.17304 32.7383 9.39306 32.605C10.0947 32.2467 11.8584 31.4727 12.8503 31.052C13.2014 31.4433 13.5755 31.8116 13.9718 32.1571C13.4902 33.349 12.9536 34.5179 12.3636 35.6601C12.2554 35.845 12.0906 35.9898 11.8935 36.0737C11.4694 36.2894 11.1054 36.6069 10.8343 36.9979C10.5631 37.3889 10.3931 37.841 10.3396 38.3138C10.2861 38.7866 10.3508 39.2653 10.5278 39.707C10.7048 40.1487 10.9887 40.5395 11.3539 40.8445C11.8704 41.2701 12.5185 41.5036 13.1878 41.5053C13.571 41.5042 13.9501 41.4264 14.3027 41.2765C14.6554 41.1267 14.9745 40.9078 15.2412 40.6327C15.508 40.3576 15.717 40.0319 15.8559 39.6748C15.9948 39.3177 16.0609 38.9364 16.0502 38.5533C16.025 38.2932 16.0795 38.0315 16.2064 37.803C16.7081 37.029 17.4806 35.8959 18.403 34.7163C18.9025 34.8869 19.4121 35.0259 19.9288 35.1327C20.0284 36.0106 20.2642 38.1427 20.3022 38.9647C20.3006 39.1761 20.2326 39.3816 20.1079 39.5524C19.8462 39.951 19.6877 40.4084 19.6468 40.8835C19.6058 41.3586 19.6837 41.8365 19.8733 42.274C20.063 42.7115 20.3585 43.095 20.7332 43.3899C21.108 43.6849 21.5502 43.8819 22.02 43.9634C22.1791 43.9885 22.3396 44.0007 22.5002 44C22.8769 44.0008 23.25 43.9273 23.5982 43.7835C23.9464 43.6397 24.2627 43.4286 24.5291 43.1623C24.7955 42.8959 25.0066 42.5795 25.1504 42.2313C25.2941 41.8832 25.3677 41.51 25.3668 41.1333C25.3688 40.593 25.2159 40.0635 24.9261 39.6075C24.7798 39.4024 24.7004 39.1571 24.6989 38.9052C24.7469 37.9857 24.8465 36.6233 25.0572 35.1413C25.5804 35.0331 26.0971 34.8919 26.6031 34.7184C27.3938 35.7311 28.1373 36.7797 28.8312 37.861C28.9366 38.0474 28.9796 38.2624 28.9538 38.4745C28.9285 38.9496 29.0215 39.4236 29.2245 39.8539C29.4274 40.2842 29.734 40.6575 30.1166 40.9402C30.4993 41.223 30.9461 41.4063 31.4171 41.4739C31.888 41.5415 32.3684 41.4912 32.8152 41.3275C33.2065 41.1825 33.5615 40.9538 33.8553 40.6574C34.149 40.3609 34.3746 40.0039 34.516 39.6113C34.6575 39.2186 34.7116 38.7998 34.6744 38.3841C34.6372 37.9684 34.5097 37.5659 34.3008 37.2046C34.0374 36.7418 33.6483 36.3631 33.1785 36.1124C32.9399 36.004 32.7399 35.8255 32.6052 35.6007C32.0309 34.4748 31.5049 33.3249 31.0285 32.1542C31.4254 31.807 31.8003 31.4352 32.1508 31.0412C33.8708 31.7873 35.1429 32.3663 35.6546 32.6337C35.8413 32.7426 35.9879 32.909 36.0724 33.1081C36.2863 33.5288 36.6003 33.8905 36.9869 34.1613C37.3735 34.4321 37.8207 34.6036 38.2892 34.6608C38.7578 34.718 39.2331 34.6592 39.6735 34.4894C40.1139 34.3196 40.5058 34.0441 40.8146 33.6872C41.0902 33.367 41.2916 32.99 41.4045 32.5829C41.5174 32.1759 41.5389 31.7489 41.4676 31.3326C41.3962 30.9162 41.2338 30.5208 40.9918 30.1746C40.7498 29.8284 40.4343 29.5399 40.0678 29.3298C39.5971 29.0566 39.0577 28.9248 38.5141 28.95C38.2685 28.9739 38.0215 28.92 37.8082 28.7959C36.7471 28.1147 35.7205 27.3811 34.7322 26.5979C34.8993 26.0929 35.0341 25.5777 35.1357 25.0556C36.4064 24.8777 37.6846 24.7581 38.9663 24.6973C39.1799 24.6987 39.3877 24.769 39.5583 24.898C39.9316 25.1425 40.357 25.2965 40.8004 25.3477C41.2438 25.3989 41.693 25.3459 42.1123 25.1928C42.5315 25.0397 42.9093 24.7908 43.2154 24.466C43.5215 24.1412 43.7475 23.7493 43.8755 23.3217C44.0034 22.8941 44.0297 22.4425 43.9524 22.0029C43.875 21.5634 43.696 21.1479 43.4297 20.7897C43.1634 20.4315 42.8172 20.1404 42.4185 19.9397C42.0199 19.7389 41.5799 19.634 41.1335 19.6333C40.6014 19.632 40.0797 19.7811 39.6285 20.0633C39.4149 20.2138 39.1612 20.2977 38.9004 20.3034C37.6414 20.2381 36.3858 20.1185 35.1372 19.9451C35.0339 19.4206 34.897 18.9032 34.7272 18.3963C35.7348 17.6098 36.7769 16.8685 37.8505 16.1747C38.0397 16.0693 38.2568 16.0256 38.4718 16.05C39.2177 16.0892 39.9497 15.838 40.5143 15.3491C40.9581 14.9687 41.2743 14.4611 41.4201 13.895C41.5658 13.3289 41.5341 12.7317 41.3292 12.1843C41.1836 11.7937 40.9548 11.4394 40.6585 11.1462C40.3622 10.853 40.0056 10.6278 39.6135 10.4864C39.2214 10.3449 38.8032 10.2906 38.388 10.3271C37.9727 10.3636 37.5704 10.4902 37.209 10.6979C36.7411 10.963 36.3585 11.356 36.1061 11.831C35.9993 12.0653 35.8244 12.261 35.6044 12.3943C34.9028 12.7526 33.1391 13.5266 32.1472 13.9473C31.7974 13.5564 31.4238 13.1876 31.0285 12.8429C31.5101 11.651 32.0468 10.482 32.6367 9.33983C32.7453 9.15537 32.91 9.01048 33.1068 8.92632C33.5653 8.69507 33.9532 8.34494 34.23 7.91252C34.5068 7.48011 34.6625 6.98127 34.6806 6.46815C34.6987 5.95502 34.5787 5.44645 34.3331 4.99556C34.0875 4.54467 33.7253 4.16802 33.2844 3.90498C32.8434 3.64193 32.3399 3.50214 31.8265 3.50021C31.313 3.49829 30.8085 3.63429 30.3656 3.89402C29.9227 4.15376 29.5577 4.52767 29.3087 4.97671C29.0597 5.42574 28.9359 5.9334 28.9502 6.44665C28.9753 6.70682 28.9208 6.96849 28.7939 7.197C28.2923 7.971 27.5204 9.10333 26.5974 10.283C26.0979 10.1125 25.5884 9.97344 25.0716 9.86658C24.972 8.98508 24.7355 6.84727 24.6982 6.03026C24.6996 5.82243 24.767 5.61961 24.8903 5.45191C25.1371 5.0792 25.2933 4.65393 25.3465 4.21007C25.3997 3.76621 25.3483 3.31607 25.1965 2.8956C25.0447 2.47514 24.7966 2.096 24.4722 1.78849C24.1477 1.48097 23.7558 1.2536 23.3279 1.12453C22.8999 0.995458 22.4476 0.968272 22.0072 1.04514C21.5669 1.12201 21.1506 1.3008 20.7916 1.56724C20.4327 1.83367 20.141 2.18037 19.9399 2.57962C19.7388 2.97887 19.6339 3.41962 19.6335 3.86665C19.6318 4.40601 19.7842 4.93463 20.0728 5.39028C20.2197 5.59668 20.3 5.84321 20.3014 6.09691C20.2606 6.88095 20.0499 8.79588 19.918 9.86443C19.4035 9.97129 18.8963 10.1106 18.3994 10.2815C17.6078 9.26955 16.8643 8.22086 16.1713 7.13895C16.0669 6.95299 16.0245 6.73861 16.0502 6.52691C16.0791 6.01417 15.9698 5.50307 15.7336 5.04705C15.4974 4.59103 15.143 4.20683 14.7075 3.93462C14.2721 3.6624 13.7714 3.51218 13.258 3.49964C12.7446 3.4871 12.2373 3.61272 11.789 3.86335C11.3408 4.11398 10.9681 4.48043 10.7099 4.92438C10.4518 5.36833 10.3176 5.87349 10.3215 6.38703C10.3253 6.90057 10.4671 7.40365 10.7319 7.84366C10.9967 8.28368 11.3749 8.64448 11.8269 8.88833C12.0655 8.99583 12.2655 9.175 12.4002 9.39932C12.9748 10.5253 13.5008 11.6754 13.9769 12.8465C13.5802 13.1935 13.2056 13.565 12.8553 13.9587C12.0454 13.6076 10.0832 12.749 9.35078 12.3663C9.16402 12.2573 9.01747 12.0909 8.93296 11.8919C8.73147 11.493 8.43961 11.1466 8.08064 10.8804C7.72166 10.6142 7.30549 10.4355 6.86526 10.3586C6.42503 10.2816 5.97291 10.3085 5.54491 10.4371C5.11692 10.5658 4.72487 10.7926 4.39999 11.0994C4.07512 11.4063 3.82639 11.7848 3.67363 12.2048C3.52086 12.6248 3.46828 13.0747 3.52007 13.5186C3.57186 13.9625 3.72658 14.3881 3.97193 14.7617C4.21727 15.1352 4.54645 15.4463 4.93324 15.6701C5.40409 15.9425 5.94374 16.0743 6.48698 16.05C6.73208 16.027 6.97861 16.0808 7.19146 16.2041C8.25295 16.8847 9.27934 17.6185 10.2667 18.4028C10.0997 18.9081 9.96568 19.4233 9.86391 19.9451C8.23994 20.1751 6.79514 20.2676 6.03404 20.3034C5.82039 20.3012 5.613 20.2309 5.44208 20.1027C5.06873 19.8579 4.64338 19.7037 4.19989 19.6523C3.75641 19.601 3.30706 19.6539 2.88766 19.8069C2.46825 19.96 2.09038 20.2088 1.78415 20.5337C1.47792 20.8585 1.2518 21.2504 1.12381 21.6781C0.99582 22.1058 0.969494 22.5575 1.04693 22.9972C1.12437 23.4369 1.30343 23.8524 1.56984 24.2107C1.83626 24.5689 2.18266 24.86 2.58145 25.0607C2.98024 25.2614 3.4204 25.3661 3.86684 25.3667ZM15.0038 37.0197C14.7145 37.4924 14.5792 38.0433 14.6168 38.5963C14.6254 38.8615 14.5595 39.1238 14.4248 39.3524C14.3124 39.5448 14.1567 39.7084 13.9701 39.8302C13.7835 39.952 13.571 40.0285 13.3496 40.0538C13.1282 40.0791 12.904 40.0524 12.6947 39.9759C12.4854 39.8994 12.2969 39.7751 12.144 39.6129C11.9911 39.4508 11.8782 39.2552 11.8141 39.0418C11.7501 38.8284 11.7367 38.6029 11.7749 38.3834C11.8132 38.1639 11.9022 37.9563 12.0347 37.7772C12.1673 37.598 12.3398 37.4523 12.5385 37.3515C13.0074 37.1332 13.3927 36.7685 13.6364 36.3123C14.1816 35.2581 14.6837 34.1822 15.1414 33.0873C15.7344 33.4994 16.3608 33.8612 17.0141 34.1688C16.3088 35.0937 15.6382 36.0447 15.0038 37.0197ZM31.3259 36.2521C31.5911 36.7394 32.001 37.1315 32.4991 37.3758C32.7246 37.4984 32.913 37.6793 33.0447 37.8995C33.1764 38.1198 33.2465 38.3714 33.2478 38.628C33.2491 38.8846 33.1814 39.1369 33.0519 39.3584C32.9224 39.58 32.7358 39.7627 32.5116 39.8875C32.2873 40.0123 32.0337 40.0746 31.7771 40.068C31.5206 40.0613 31.2706 39.9858 31.0531 39.8495C30.8357 39.7132 30.6589 39.521 30.5411 39.293C30.4233 39.065 30.3689 38.8095 30.3835 38.5533C30.4285 38.0383 30.3053 37.5225 30.0323 37.0834C29.392 36.0858 28.7111 35.1149 27.9913 34.1731C28.6438 33.8637 29.2691 33.4997 29.8603 33.0852C30.3091 34.1588 30.7979 35.2152 31.3259 36.2521ZM38.823 21.7324C39.3771 21.7474 39.9221 21.5888 40.3817 21.2788C40.6758 21.1063 41.0206 21.0412 41.3573 21.0947C41.694 21.1482 42.0017 21.3168 42.2279 21.5719C42.4558 21.8347 42.5804 22.1714 42.5784 22.5193C42.5764 22.8672 42.4479 23.2025 42.217 23.4626C41.986 23.7228 41.6683 23.8901 41.3232 23.9333C40.978 23.9765 40.6288 23.8927 40.3409 23.6975C39.9166 23.4028 39.4089 23.2521 38.8925 23.2675C38.1794 23.2998 36.865 23.3829 35.3536 23.58C35.4142 22.861 35.4142 22.1382 35.3536 21.4193C36.5057 21.5672 37.663 21.6717 38.823 21.7324ZM29.9965 7.98031C30.286 7.50731 30.4208 6.95692 30.3835 6.40365C30.3749 6.13848 30.4408 5.87618 30.5756 5.64756C30.6879 5.45512 30.8436 5.29153 31.0302 5.16977C31.2169 5.04801 31.4293 4.97145 31.6507 4.94616C31.8721 4.92087 32.0964 4.94755 32.3057 5.02408C32.5149 5.10062 32.7035 5.22489 32.8564 5.38704C33.0092 5.54919 33.1222 5.74474 33.1862 5.95818C33.2503 6.17161 33.2637 6.39704 33.2254 6.61656C33.1871 6.83608 33.0982 7.04366 32.9656 7.22279C32.8331 7.40192 32.6606 7.54768 32.4618 7.6485C31.9934 7.86723 31.6085 8.23182 31.3646 8.68767C30.8194 9.74127 30.3185 10.8172 29.8632 11.9127C29.2703 11.5005 28.6439 11.1388 27.9906 10.8312C28.6933 9.90533 29.3623 8.95441 29.9965 7.98031ZM13.6744 8.74787C13.4094 8.26109 12.9997 7.86866 12.502 7.62485C12.2763 7.50227 12.0877 7.32131 11.9559 7.10089C11.8241 6.88047 11.7539 6.62869 11.7528 6.37187C11.7516 6.11506 11.8194 5.86264 11.9492 5.64103C12.079 5.41941 12.2659 5.23673 12.4905 5.11209C12.715 4.98745 12.9689 4.92543 13.2256 4.93252C13.4823 4.93961 13.7324 5.01554 13.9498 5.15238C14.1671 5.28922 14.3437 5.48193 14.461 5.71037C14.5784 5.93881 14.6322 6.19459 14.6168 6.45095C14.5717 6.96551 14.6957 7.48152 14.968 7.92012C15.6081 8.9187 16.2895 9.89015 17.0105 10.8319C16.3576 11.1401 15.7313 11.5034 15.1393 11.9162C14.6918 10.8418 14.2031 9.78484 13.6744 8.74787ZM7.96976 14.9993C7.50742 14.7102 6.96486 14.5761 6.42104 14.6166C6.15034 14.6304 5.88152 14.5647 5.64776 14.4274C5.45576 14.3149 5.2926 14.1592 5.17121 13.9727C5.04981 13.7862 4.97351 13.574 4.94836 13.3529C4.92321 13.1317 4.94988 12.9078 5.02628 12.6988C5.10268 12.4898 5.2267 12.3014 5.38852 12.1486C5.55034 11.9959 5.74551 11.8829 5.95857 11.8186C6.17163 11.7543 6.39673 11.7405 6.61604 11.7784C6.83535 11.8162 7.04284 11.9045 7.22208 12.0364C7.40132 12.1683 7.54738 12.3402 7.64869 12.5383C7.86687 13.0092 8.23204 13.3965 8.68929 13.642C9.42889 14.0275 11.2564 14.8309 12.2798 15.2753C12.5585 15.3946 12.8679 15.4224 13.1634 15.3548C13.4589 15.2872 13.7254 15.1276 13.9245 14.899C15.5682 13.0415 17.771 11.7685 20.2011 11.272C20.5003 11.2143 20.7732 11.0628 20.9805 10.8395C21.1877 10.6161 21.3183 10.3326 21.3535 10.03C21.4775 8.94208 21.6918 6.99418 21.7341 6.17145C21.75 5.62027 21.5917 5.0781 21.2818 4.62201C21.1396 4.39587 21.065 4.13378 21.0668 3.86665C21.0677 3.64323 21.1207 3.42309 21.2218 3.22382C21.3228 3.02455 21.469 2.85166 21.6488 2.71894C21.8285 2.58623 22.0368 2.49737 22.257 2.45946C22.4771 2.42155 22.7031 2.43563 22.9169 2.50059C23.1307 2.56555 23.3263 2.67958 23.4882 2.83359C23.65 2.9876 23.7736 3.17731 23.8492 3.38758C23.9247 3.59786 23.95 3.82288 23.9231 4.04467C23.8961 4.26647 23.8178 4.4789 23.6941 4.66501C23.4006 5.0842 23.2498 5.58679 23.2641 6.09835C23.3021 6.92753 23.5193 8.91843 23.6454 10.0314C23.681 10.3335 23.8117 10.6165 24.0188 10.8394C24.2258 11.0623 24.4984 11.2136 24.7971 11.2712C27.2265 11.7672 29.4287 13.0397 31.0715 14.8969C31.2714 15.1255 31.5386 15.285 31.8347 15.3523C32.1309 15.4196 32.4407 15.3914 32.7198 15.2717C33.7232 14.8345 35.5148 14.0447 36.2559 13.6692C36.7363 13.4053 37.1237 12.9996 37.3653 12.5075C37.4921 12.271 37.6835 12.0746 37.9171 11.942C38.225 11.7629 38.5886 11.7047 38.937 11.779C39.2854 11.8533 39.5936 12.0546 39.8017 12.3438C40.0097 12.633 40.1026 12.9893 40.0622 13.3432C40.0219 13.6972 39.8512 14.0234 39.5834 14.2583C39.2981 14.5058 38.9286 14.6341 38.5514 14.6166C38.0345 14.5711 37.5168 14.6935 37.075 14.9657C35.9623 15.6822 34.8828 16.4491 33.84 17.264C33.6074 17.4493 33.4379 17.7021 33.3547 17.9876C33.2715 18.2731 33.2788 18.5774 33.3756 18.8586C34.1639 21.2215 34.1639 23.7757 33.3756 26.1385C33.2794 26.4194 33.2724 26.7232 33.3556 27.0083C33.4387 27.2933 33.6079 27.5457 33.84 27.7309C34.869 28.5348 35.9342 29.2915 37.032 29.9985C37.4943 30.2866 38.0354 30.4213 38.5793 30.3833C38.8502 30.369 39.119 30.4342 39.3526 30.5725C39.5446 30.685 39.7078 30.8407 39.8291 31.0273C39.9505 31.2138 40.0268 31.426 40.052 31.6471C40.0771 31.8682 40.0505 32.0922 39.9741 32.3012C39.8977 32.5102 39.7736 32.6986 39.6118 32.8513C39.45 33.0041 39.2548 33.1171 39.0418 33.1814C38.8287 33.2457 38.6036 33.2594 38.3843 33.2216C38.165 33.1838 37.9575 33.0954 37.7783 32.9635C37.599 32.8316 37.453 32.6598 37.3517 32.4617C37.1337 31.9908 36.7684 31.6037 36.3111 31.3587C35.5793 30.9767 33.7483 30.1712 32.7213 29.7254C32.4421 29.6053 32.132 29.577 31.8357 29.6446C31.5394 29.7123 31.2723 29.8723 31.0729 30.1017C29.3189 32.0894 26.9263 33.4029 24.3076 33.8154C23.9944 33.867 23.7515 34.1164 23.7085 34.4311C23.4882 35.8886 23.3403 37.3563 23.2656 38.8285C23.2486 39.3786 23.4061 39.92 23.7156 40.3751C23.859 40.6016 23.9349 40.8646 23.9335 41.1333C23.9345 41.3414 23.8901 41.5473 23.8034 41.7365C23.7168 41.9257 23.59 42.0938 23.4318 42.2291C23.1674 42.4507 22.832 42.5698 22.487 42.5646C22.142 42.5593 21.8104 42.4301 21.5528 42.2005C21.2952 41.9709 21.1288 41.6563 21.0841 41.3142C21.0393 40.972 21.1192 40.6252 21.3091 40.3371C21.6029 39.9157 21.7534 39.4112 21.7391 38.898C21.7004 38.0631 21.4839 36.078 21.3578 34.9693C21.322 34.6675 21.1912 34.3849 20.9844 34.1623C20.7775 33.9397 20.5052 33.7886 20.2068 33.7309C17.7771 33.2349 15.5746 31.9621 13.9317 30.1045C13.7961 29.9504 13.6294 29.8268 13.4424 29.7419C13.2555 29.657 13.0527 29.6128 12.8474 29.6122C12.6532 29.6122 12.4604 29.6523 12.2819 29.7297C11.2786 30.1669 9.48694 30.9567 8.74591 31.3322C8.26544 31.5961 7.87804 32.0018 7.63651 32.4939C7.51016 32.7311 7.31871 32.9273 7.08468 33.0594C6.77657 33.2418 6.41131 33.3024 6.0608 33.2291C5.71029 33.1558 5.39991 32.9539 5.19076 32.6633C4.98161 32.3726 4.88884 32.0142 4.93071 31.6585C4.97258 31.3029 5.14605 30.9758 5.41699 30.7417C5.70133 30.4941 6.07023 30.3657 6.44684 30.3833C6.96284 30.427 7.48028 30.3045 7.92246 30.0336C9.03546 29.3169 10.1152 28.5497 11.1582 27.7345C11.6348 27.3547 11.8204 26.7169 11.6226 26.1407C10.8343 23.7785 10.8343 21.2243 11.6226 18.8629C11.7195 18.5817 11.7269 18.2773 11.6439 17.9917C11.5609 17.706 11.3915 17.4531 11.1589 17.2676C10.1315 16.4626 9.0673 15.7057 7.96976 14.9993ZM2.45143 22.2513C2.49418 22.0176 2.594 21.7981 2.74202 21.6123C2.89004 21.4265 3.08168 21.2802 3.29989 21.1863C3.5181 21.0924 3.75613 21.0538 3.99282 21.0741C4.22952 21.0944 4.45753 21.1728 4.65661 21.3024C5.08016 21.5984 5.58828 21.7489 6.10499 21.7324C6.96499 21.6937 8.22561 21.6063 9.64318 21.4207C9.61379 21.779 9.59803 22.1374 9.59803 22.5C9.59803 22.8626 9.61451 23.2231 9.64389 23.5807C8.49178 23.4327 7.3345 23.3283 6.17451 23.2675C5.6206 23.2546 5.07621 23.413 4.61576 23.7212C4.32245 23.8936 3.97843 23.959 3.64233 23.9062C3.30622 23.8534 2.99882 23.6857 2.77249 23.4316C2.63545 23.2707 2.53583 23.0813 2.4808 22.8772C2.42578 22.6731 2.41672 22.4593 2.45429 22.2513H2.45143Z"/>
</mask>
<path d="M3.86684 25.3667C4.39898 25.3678 4.92064 25.2188 5.37184 24.9367C5.58398 24.7834 5.83831 24.6996 6.09998 24.6966C7.01874 24.7446 8.38256 24.8463 9.86391 25.0549C9.96711 25.5795 10.104 26.0962 10.2738 26.6029C9.26622 27.3897 8.22386 28.131 7.14989 28.8246C6.95993 28.9296 6.74218 28.9734 6.52639 28.95C5.78065 28.9121 5.04897 29.1629 4.48318 29.6502C4.03936 30.0306 3.72317 30.5382 3.57742 31.1043C3.43167 31.6703 3.46341 32.2675 3.66833 32.815C3.81336 33.2059 4.04192 33.5604 4.33807 33.8539C4.63421 34.1474 4.99082 34.3728 5.38302 34.5143C5.77522 34.6558 6.19356 34.7101 6.60889 34.6733C7.02421 34.6365 7.42651 34.5096 7.78773 34.3013C8.25619 34.0367 8.63915 33.6435 8.89139 33.1683C8.99818 32.9339 9.17304 32.7383 9.39306 32.605C10.0947 32.2467 11.8584 31.4727 12.8503 31.052C13.2014 31.4433 13.5755 31.8116 13.9718 32.1571C13.4902 33.349 12.9536 34.5179 12.3636 35.6601C12.2554 35.845 12.0906 35.9898 11.8935 36.0737C11.4694 36.2894 11.1054 36.6069 10.8343 36.9979C10.5631 37.3889 10.3931 37.841 10.3396 38.3138C10.2861 38.7866 10.3508 39.2653 10.5278 39.707C10.7048 40.1487 10.9887 40.5395 11.3539 40.8445C11.8704 41.2701 12.5185 41.5036 13.1878 41.5053C13.571 41.5042 13.9501 41.4264 14.3027 41.2765C14.6554 41.1267 14.9745 40.9078 15.2412 40.6327C15.508 40.3576 15.717 40.0319 15.8559 39.6748C15.9948 39.3177 16.0609 38.9364 16.0502 38.5533C16.025 38.2932 16.0795 38.0315 16.2064 37.803C16.7081 37.029 17.4806 35.8959 18.403 34.7163C18.9025 34.8869 19.4121 35.0259 19.9288 35.1327C20.0284 36.0106 20.2642 38.1427 20.3022 38.9647C20.3006 39.1761 20.2326 39.3816 20.1079 39.5524C19.8462 39.951 19.6877 40.4084 19.6468 40.8835C19.6058 41.3586 19.6837 41.8365 19.8733 42.274C20.063 42.7115 20.3585 43.095 20.7332 43.3899C21.108 43.6849 21.5502 43.8819 22.02 43.9634C22.1791 43.9885 22.3396 44.0007 22.5002 44C22.8769 44.0008 23.25 43.9273 23.5982 43.7835C23.9464 43.6397 24.2627 43.4286 24.5291 43.1623C24.7955 42.8959 25.0066 42.5795 25.1504 42.2313C25.2941 41.8832 25.3677 41.51 25.3668 41.1333C25.3688 40.593 25.2159 40.0635 24.9261 39.6075C24.7798 39.4024 24.7004 39.1571 24.6989 38.9052C24.7469 37.9857 24.8465 36.6233 25.0572 35.1413C25.5804 35.0331 26.0971 34.8919 26.6031 34.7184C27.3938 35.7311 28.1373 36.7797 28.8312 37.861C28.9366 38.0474 28.9796 38.2624 28.9538 38.4745C28.9285 38.9496 29.0215 39.4236 29.2245 39.8539C29.4274 40.2842 29.734 40.6575 30.1166 40.9402C30.4993 41.223 30.9461 41.4063 31.4171 41.4739C31.888 41.5415 32.3684 41.4912 32.8152 41.3275C33.2065 41.1825 33.5615 40.9538 33.8553 40.6574C34.149 40.3609 34.3746 40.0039 34.516 39.6113C34.6575 39.2186 34.7116 38.7998 34.6744 38.3841C34.6372 37.9684 34.5097 37.5659 34.3008 37.2046C34.0374 36.7418 33.6483 36.3631 33.1785 36.1124C32.9399 36.004 32.7399 35.8255 32.6052 35.6007C32.0309 34.4748 31.5049 33.3249 31.0285 32.1542C31.4254 31.807 31.8003 31.4352 32.1508 31.0412C33.8708 31.7873 35.1429 32.3663 35.6546 32.6337C35.8413 32.7426 35.9879 32.909 36.0724 33.1081C36.2863 33.5288 36.6003 33.8905 36.9869 34.1613C37.3735 34.4321 37.8207 34.6036 38.2892 34.6608C38.7578 34.718 39.2331 34.6592 39.6735 34.4894C40.1139 34.3196 40.5058 34.0441 40.8146 33.6872C41.0902 33.367 41.2916 32.99 41.4045 32.5829C41.5174 32.1759 41.5389 31.7489 41.4676 31.3326C41.3962 30.9162 41.2338 30.5208 40.9918 30.1746C40.7498 29.8284 40.4343 29.5399 40.0678 29.3298C39.5971 29.0566 39.0577 28.9248 38.5141 28.95C38.2685 28.9739 38.0215 28.92 37.8082 28.7959C36.7471 28.1147 35.7205 27.3811 34.7322 26.5979C34.8993 26.0929 35.0341 25.5777 35.1357 25.0556C36.4064 24.8777 37.6846 24.7581 38.9663 24.6973C39.1799 24.6987 39.3877 24.769 39.5583 24.898C39.9316 25.1425 40.357 25.2965 40.8004 25.3477C41.2438 25.3989 41.693 25.3459 42.1123 25.1928C42.5315 25.0397 42.9093 24.7908 43.2154 24.466C43.5215 24.1412 43.7475 23.7493 43.8755 23.3217C44.0034 22.8941 44.0297 22.4425 43.9524 22.0029C43.875 21.5634 43.696 21.1479 43.4297 20.7897C43.1634 20.4315 42.8172 20.1404 42.4185 19.9397C42.0199 19.7389 41.5799 19.634 41.1335 19.6333C40.6014 19.632 40.0797 19.7811 39.6285 20.0633C39.4149 20.2138 39.1612 20.2977 38.9004 20.3034C37.6414 20.2381 36.3858 20.1185 35.1372 19.9451C35.0339 19.4206 34.897 18.9032 34.7272 18.3963C35.7348 17.6098 36.7769 16.8685 37.8505 16.1747C38.0397 16.0693 38.2568 16.0256 38.4718 16.05C39.2177 16.0892 39.9497 15.838 40.5143 15.3491C40.9581 14.9687 41.2743 14.4611 41.4201 13.895C41.5658 13.3289 41.5341 12.7317 41.3292 12.1843C41.1836 11.7937 40.9548 11.4394 40.6585 11.1462C40.3622 10.853 40.0056 10.6278 39.6135 10.4864C39.2214 10.3449 38.8032 10.2906 38.388 10.3271C37.9727 10.3636 37.5704 10.4902 37.209 10.6979C36.7411 10.963 36.3585 11.356 36.1061 11.831C35.9993 12.0653 35.8244 12.261 35.6044 12.3943C34.9028 12.7526 33.1391 13.5266 32.1472 13.9473C31.7974 13.5564 31.4238 13.1876 31.0285 12.8429C31.5101 11.651 32.0468 10.482 32.6367 9.33983C32.7453 9.15537 32.91 9.01048 33.1068 8.92632C33.5653 8.69507 33.9532 8.34494 34.23 7.91252C34.5068 7.48011 34.6625 6.98127 34.6806 6.46815C34.6987 5.95502 34.5787 5.44645 34.3331 4.99556C34.0875 4.54467 33.7253 4.16802 33.2844 3.90498C32.8434 3.64193 32.3399 3.50214 31.8265 3.50021C31.313 3.49829 30.8085 3.63429 30.3656 3.89402C29.9227 4.15376 29.5577 4.52767 29.3087 4.97671C29.0597 5.42574 28.9359 5.9334 28.9502 6.44665C28.9753 6.70682 28.9208 6.96849 28.7939 7.197C28.2923 7.971 27.5204 9.10333 26.5974 10.283C26.0979 10.1125 25.5884 9.97344 25.0716 9.86658C24.972 8.98508 24.7355 6.84727 24.6982 6.03026C24.6996 5.82243 24.767 5.61961 24.8903 5.45191C25.1371 5.0792 25.2933 4.65393 25.3465 4.21007C25.3997 3.76621 25.3483 3.31607 25.1965 2.8956C25.0447 2.47514 24.7966 2.096 24.4722 1.78849C24.1477 1.48097 23.7558 1.2536 23.3279 1.12453C22.8999 0.995458 22.4476 0.968272 22.0072 1.04514C21.5669 1.12201 21.1506 1.3008 20.7916 1.56724C20.4327 1.83367 20.141 2.18037 19.9399 2.57962C19.7388 2.97887 19.6339 3.41962 19.6335 3.86665C19.6318 4.40601 19.7842 4.93463 20.0728 5.39028C20.2197 5.59668 20.3 5.84321 20.3014 6.09691C20.2606 6.88095 20.0499 8.79588 19.918 9.86443C19.4035 9.97129 18.8963 10.1106 18.3994 10.2815C17.6078 9.26955 16.8643 8.22086 16.1713 7.13895C16.0669 6.95299 16.0245 6.73861 16.0502 6.52691C16.0791 6.01417 15.9698 5.50307 15.7336 5.04705C15.4974 4.59103 15.143 4.20683 14.7075 3.93462C14.2721 3.6624 13.7714 3.51218 13.258 3.49964C12.7446 3.4871 12.2373 3.61272 11.789 3.86335C11.3408 4.11398 10.9681 4.48043 10.7099 4.92438C10.4518 5.36833 10.3176 5.87349 10.3215 6.38703C10.3253 6.90057 10.4671 7.40365 10.7319 7.84366C10.9967 8.28368 11.3749 8.64448 11.8269 8.88833C12.0655 8.99583 12.2655 9.175 12.4002 9.39932C12.9748 10.5253 13.5008 11.6754 13.9769 12.8465C13.5802 13.1935 13.2056 13.565 12.8553 13.9587C12.0454 13.6076 10.0832 12.749 9.35078 12.3663C9.16402 12.2573 9.01747 12.0909 8.93296 11.8919C8.73147 11.493 8.43961 11.1466 8.08064 10.8804C7.72166 10.6142 7.30549 10.4355 6.86526 10.3586C6.42503 10.2816 5.97291 10.3085 5.54491 10.4371C5.11692 10.5658 4.72487 10.7926 4.39999 11.0994C4.07512 11.4063 3.82639 11.7848 3.67363 12.2048C3.52086 12.6248 3.46828 13.0747 3.52007 13.5186C3.57186 13.9625 3.72658 14.3881 3.97193 14.7617C4.21727 15.1352 4.54645 15.4463 4.93324 15.6701C5.40409 15.9425 5.94374 16.0743 6.48698 16.05C6.73208 16.027 6.97861 16.0808 7.19146 16.2041C8.25295 16.8847 9.27934 17.6185 10.2667 18.4028C10.0997 18.9081 9.96568 19.4233 9.86391 19.9451C8.23994 20.1751 6.79514 20.2676 6.03404 20.3034C5.82039 20.3012 5.613 20.2309 5.44208 20.1027C5.06873 19.8579 4.64338 19.7037 4.19989 19.6523C3.75641 19.601 3.30706 19.6539 2.88766 19.8069C2.46825 19.96 2.09038 20.2088 1.78415 20.5337C1.47792 20.8585 1.2518 21.2504 1.12381 21.6781C0.99582 22.1058 0.969494 22.5575 1.04693 22.9972C1.12437 23.4369 1.30343 23.8524 1.56984 24.2107C1.83626 24.5689 2.18266 24.86 2.58145 25.0607C2.98024 25.2614 3.4204 25.3661 3.86684 25.3667ZM15.0038 37.0197C14.7145 37.4924 14.5792 38.0433 14.6168 38.5963C14.6254 38.8615 14.5595 39.1238 14.4248 39.3524C14.3124 39.5448 14.1567 39.7084 13.9701 39.8302C13.7835 39.952 13.571 40.0285 13.3496 40.0538C13.1282 40.0791 12.904 40.0524 12.6947 39.9759C12.4854 39.8994 12.2969 39.7751 12.144 39.6129C11.9911 39.4508 11.8782 39.2552 11.8141 39.0418C11.7501 38.8284 11.7367 38.6029 11.7749 38.3834C11.8132 38.1639 11.9022 37.9563 12.0347 37.7772C12.1673 37.598 12.3398 37.4523 12.5385 37.3515C13.0074 37.1332 13.3927 36.7685 13.6364 36.3123C14.1816 35.2581 14.6837 34.1822 15.1414 33.0873C15.7344 33.4994 16.3608 33.8612 17.0141 34.1688C16.3088 35.0937 15.6382 36.0447 15.0038 37.0197ZM31.3259 36.2521C31.5911 36.7394 32.001 37.1315 32.4991 37.3758C32.7246 37.4984 32.913 37.6793 33.0447 37.8995C33.1764 38.1198 33.2465 38.3714 33.2478 38.628C33.2491 38.8846 33.1814 39.1369 33.0519 39.3584C32.9224 39.58 32.7358 39.7627 32.5116 39.8875C32.2873 40.0123 32.0337 40.0746 31.7771 40.068C31.5206 40.0613 31.2706 39.9858 31.0531 39.8495C30.8357 39.7132 30.6589 39.521 30.5411 39.293C30.4233 39.065 30.3689 38.8095 30.3835 38.5533C30.4285 38.0383 30.3053 37.5225 30.0323 37.0834C29.392 36.0858 28.7111 35.1149 27.9913 34.1731C28.6438 33.8637 29.2691 33.4997 29.8603 33.0852C30.3091 34.1588 30.7979 35.2152 31.3259 36.2521ZM38.823 21.7324C39.3771 21.7474 39.9221 21.5888 40.3817 21.2788C40.6758 21.1063 41.0206 21.0412 41.3573 21.0947C41.694 21.1482 42.0017 21.3168 42.2279 21.5719C42.4558 21.8347 42.5804 22.1714 42.5784 22.5193C42.5764 22.8672 42.4479 23.2025 42.217 23.4626C41.986 23.7228 41.6683 23.8901 41.3232 23.9333C40.978 23.9765 40.6288 23.8927 40.3409 23.6975C39.9166 23.4028 39.4089 23.2521 38.8925 23.2675C38.1794 23.2998 36.865 23.3829 35.3536 23.58C35.4142 22.861 35.4142 22.1382 35.3536 21.4193C36.5057 21.5672 37.663 21.6717 38.823 21.7324ZM29.9965 7.98031C30.286 7.50731 30.4208 6.95692 30.3835 6.40365C30.3749 6.13848 30.4408 5.87618 30.5756 5.64756C30.6879 5.45512 30.8436 5.29153 31.0302 5.16977C31.2169 5.04801 31.4293 4.97145 31.6507 4.94616C31.8721 4.92087 32.0964 4.94755 32.3057 5.02408C32.5149 5.10062 32.7035 5.22489 32.8564 5.38704C33.0092 5.54919 33.1222 5.74474 33.1862 5.95818C33.2503 6.17161 33.2637 6.39704 33.2254 6.61656C33.1871 6.83608 33.0982 7.04366 32.9656 7.22279C32.8331 7.40192 32.6606 7.54768 32.4618 7.6485C31.9934 7.86723 31.6085 8.23182 31.3646 8.68767C30.8194 9.74127 30.3185 10.8172 29.8632 11.9127C29.2703 11.5005 28.6439 11.1388 27.9906 10.8312C28.6933 9.90533 29.3623 8.95441 29.9965 7.98031ZM13.6744 8.74787C13.4094 8.26109 12.9997 7.86866 12.502 7.62485C12.2763 7.50227 12.0877 7.32131 11.9559 7.10089C11.8241 6.88047 11.7539 6.62869 11.7528 6.37187C11.7516 6.11506 11.8194 5.86264 11.9492 5.64103C12.079 5.41941 12.2659 5.23673 12.4905 5.11209C12.715 4.98745 12.9689 4.92543 13.2256 4.93252C13.4823 4.93961 13.7324 5.01554 13.9498 5.15238C14.1671 5.28922 14.3437 5.48193 14.461 5.71037C14.5784 5.93881 14.6322 6.19459 14.6168 6.45095C14.5717 6.96551 14.6957 7.48152 14.968 7.92012C15.6081 8.9187 16.2895 9.89015 17.0105 10.8319C16.3576 11.1401 15.7313 11.5034 15.1393 11.9162C14.6918 10.8418 14.2031 9.78484 13.6744 8.74787ZM7.96976 14.9993C7.50742 14.7102 6.96486 14.5761 6.42104 14.6166C6.15034 14.6304 5.88152 14.5647 5.64776 14.4274C5.45576 14.3149 5.2926 14.1592 5.17121 13.9727C5.04981 13.7862 4.97351 13.574 4.94836 13.3529C4.92321 13.1317 4.94988 12.9078 5.02628 12.6988C5.10268 12.4898 5.2267 12.3014 5.38852 12.1486C5.55034 11.9959 5.74551 11.8829 5.95857 11.8186C6.17163 11.7543 6.39673 11.7405 6.61604 11.7784C6.83535 11.8162 7.04284 11.9045 7.22208 12.0364C7.40132 12.1683 7.54738 12.3402 7.64869 12.5383C7.86687 13.0092 8.23204 13.3965 8.68929 13.642C9.42889 14.0275 11.2564 14.8309 12.2798 15.2753C12.5585 15.3946 12.8679 15.4224 13.1634 15.3548C13.4589 15.2872 13.7254 15.1276 13.9245 14.899C15.5682 13.0415 17.771 11.7685 20.2011 11.272C20.5003 11.2143 20.7732 11.0628 20.9805 10.8395C21.1877 10.6161 21.3183 10.3326 21.3535 10.03C21.4775 8.94208 21.6918 6.99418 21.7341 6.17145C21.75 5.62027 21.5917 5.0781 21.2818 4.62201C21.1396 4.39587 21.065 4.13378 21.0668 3.86665C21.0677 3.64323 21.1207 3.42309 21.2218 3.22382C21.3228 3.02455 21.469 2.85166 21.6488 2.71894C21.8285 2.58623 22.0368 2.49737 22.257 2.45946C22.4771 2.42155 22.7031 2.43563 22.9169 2.50059C23.1307 2.56555 23.3263 2.67958 23.4882 2.83359C23.65 2.9876 23.7736 3.17731 23.8492 3.38758C23.9247 3.59786 23.95 3.82288 23.9231 4.04467C23.8961 4.26647 23.8178 4.4789 23.6941 4.66501C23.4006 5.0842 23.2498 5.58679 23.2641 6.09835C23.3021 6.92753 23.5193 8.91843 23.6454 10.0314C23.681 10.3335 23.8117 10.6165 24.0188 10.8394C24.2258 11.0623 24.4984 11.2136 24.7971 11.2712C27.2265 11.7672 29.4287 13.0397 31.0715 14.8969C31.2714 15.1255 31.5386 15.285 31.8347 15.3523C32.1309 15.4196 32.4407 15.3914 32.7198 15.2717C33.7232 14.8345 35.5148 14.0447 36.2559 13.6692C36.7363 13.4053 37.1237 12.9996 37.3653 12.5075C37.4921 12.271 37.6835 12.0746 37.9171 11.942C38.225 11.7629 38.5886 11.7047 38.937 11.779C39.2854 11.8533 39.5936 12.0546 39.8017 12.3438C40.0097 12.633 40.1026 12.9893 40.0622 13.3432C40.0219 13.6972 39.8512 14.0234 39.5834 14.2583C39.2981 14.5058 38.9286 14.6341 38.5514 14.6166C38.0345 14.5711 37.5168 14.6935 37.075 14.9657C35.9623 15.6822 34.8828 16.4491 33.84 17.264C33.6074 17.4493 33.4379 17.7021 33.3547 17.9876C33.2715 18.2731 33.2788 18.5774 33.3756 18.8586C34.1639 21.2215 34.1639 23.7757 33.3756 26.1385C33.2794 26.4194 33.2724 26.7232 33.3556 27.0083C33.4387 27.2933 33.6079 27.5457 33.84 27.7309C34.869 28.5348 35.9342 29.2915 37.032 29.9985C37.4943 30.2866 38.0354 30.4213 38.5793 30.3833C38.8502 30.369 39.119 30.4342 39.3526 30.5725C39.5446 30.685 39.7078 30.8407 39.8291 31.0273C39.9505 31.2138 40.0268 31.426 40.052 31.6471C40.0771 31.8682 40.0505 32.0922 39.9741 32.3012C39.8977 32.5102 39.7736 32.6986 39.6118 32.8513C39.45 33.0041 39.2548 33.1171 39.0418 33.1814C38.8287 33.2457 38.6036 33.2594 38.3843 33.2216C38.165 33.1838 37.9575 33.0954 37.7783 32.9635C37.599 32.8316 37.453 32.6598 37.3517 32.4617C37.1337 31.9908 36.7684 31.6037 36.3111 31.3587C35.5793 30.9767 33.7483 30.1712 32.7213 29.7254C32.4421 29.6053 32.132 29.577 31.8357 29.6446C31.5394 29.7123 31.2723 29.8723 31.0729 30.1017C29.3189 32.0894 26.9263 33.4029 24.3076 33.8154C23.9944 33.867 23.7515 34.1164 23.7085 34.4311C23.4882 35.8886 23.3403 37.3563 23.2656 38.8285C23.2486 39.3786 23.4061 39.92 23.7156 40.3751C23.859 40.6016 23.9349 40.8646 23.9335 41.1333C23.9345 41.3414 23.8901 41.5473 23.8034 41.7365C23.7168 41.9257 23.59 42.0938 23.4318 42.2291C23.1674 42.4507 22.832 42.5698 22.487 42.5646C22.142 42.5593 21.8104 42.4301 21.5528 42.2005C21.2952 41.9709 21.1288 41.6563 21.0841 41.3142C21.0393 40.972 21.1192 40.6252 21.3091 40.3371C21.6029 39.9157 21.7534 39.4112 21.7391 38.898C21.7004 38.0631 21.4839 36.078 21.3578 34.9693C21.322 34.6675 21.1912 34.3849 20.9844 34.1623C20.7775 33.9397 20.5052 33.7886 20.2068 33.7309C17.7771 33.2349 15.5746 31.9621 13.9317 30.1045C13.7961 29.9504 13.6294 29.8268 13.4424 29.7419C13.2555 29.657 13.0527 29.6128 12.8474 29.6122C12.6532 29.6122 12.4604 29.6523 12.2819 29.7297C11.2786 30.1669 9.48694 30.9567 8.74591 31.3322C8.26544 31.5961 7.87804 32.0018 7.63651 32.4939C7.51016 32.7311 7.31871 32.9273 7.08468 33.0594C6.77657 33.2418 6.41131 33.3024 6.0608 33.2291C5.71029 33.1558 5.39991 32.9539 5.19076 32.6633C4.98161 32.3726 4.88884 32.0142 4.93071 31.6585C4.97258 31.3029 5.14605 30.9758 5.41699 30.7417C5.70133 30.4941 6.07023 30.3657 6.44684 30.3833C6.96284 30.427 7.48028 30.3045 7.92246 30.0336C9.03546 29.3169 10.1152 28.5497 11.1582 27.7345C11.6348 27.3547 11.8204 26.7169 11.6226 26.1407C10.8343 23.7785 10.8343 21.2243 11.6226 18.8629C11.7195 18.5817 11.7269 18.2773 11.6439 17.9917C11.5609 17.706 11.3915 17.4531 11.1589 17.2676C10.1315 16.4626 9.0673 15.7057 7.96976 14.9993ZM2.45143 22.2513C2.49418 22.0176 2.594 21.7981 2.74202 21.6123C2.89004 21.4265 3.08168 21.2802 3.29989 21.1863C3.5181 21.0924 3.75613 21.0538 3.99282 21.0741C4.22952 21.0944 4.45753 21.1728 4.65661 21.3024C5.08016 21.5984 5.58828 21.7489 6.10499 21.7324C6.96499 21.6937 8.22561 21.6063 9.64318 21.4207C9.61379 21.779 9.59803 22.1374 9.59803 22.5C9.59803 22.8626 9.61451 23.2231 9.64389 23.5807C8.49178 23.4327 7.3345 23.3283 6.17451 23.2675C5.6206 23.2546 5.07621 23.413 4.61576 23.7212C4.32245 23.8936 3.97843 23.959 3.64233 23.9062C3.30622 23.8534 2.99882 23.6857 2.77249 23.4316C2.63545 23.2707 2.53583 23.0813 2.4808 22.8772C2.42578 22.6731 2.41672 22.4593 2.45429 22.2513H2.45143Z" fill="black"/>
<path d="M3.86684 25.3667C4.39898 25.3678 4.92064 25.2188 5.37184 24.9367C5.58398 24.7834 5.83831 24.6996 6.09998 24.6966C7.01874 24.7446 8.38256 24.8463 9.86391 25.0549C9.96711 25.5795 10.104 26.0962 10.2738 26.6029C9.26622 27.3897 8.22386 28.131 7.14989 28.8246C6.95993 28.9296 6.74218 28.9734 6.52639 28.95C5.78065 28.9121 5.04897 29.1629 4.48318 29.6502C4.03936 30.0306 3.72317 30.5382 3.57742 31.1043C3.43167 31.6703 3.46341 32.2675 3.66833 32.815C3.81336 33.2059 4.04192 33.5604 4.33807 33.8539C4.63421 34.1474 4.99082 34.3728 5.38302 34.5143C5.77522 34.6558 6.19356 34.7101 6.60889 34.6733C7.02421 34.6365 7.42651 34.5096 7.78773 34.3013C8.25619 34.0367 8.63915 33.6435 8.89139 33.1683C8.99818 32.9339 9.17304 32.7383 9.39306 32.605C10.0947 32.2467 11.8584 31.4727 12.8503 31.052C13.2014 31.4433 13.5755 31.8116 13.9718 32.1571C13.4902 33.349 12.9536 34.5179 12.3636 35.6601C12.2554 35.845 12.0906 35.9898 11.8935 36.0737C11.4694 36.2894 11.1054 36.6069 10.8343 36.9979C10.5631 37.3889 10.3931 37.841 10.3396 38.3138C10.2861 38.7866 10.3508 39.2653 10.5278 39.707C10.7048 40.1487 10.9887 40.5395 11.3539 40.8445C11.8704 41.2701 12.5185 41.5036 13.1878 41.5053C13.571 41.5042 13.9501 41.4264 14.3027 41.2765C14.6554 41.1267 14.9745 40.9078 15.2412 40.6327C15.508 40.3576 15.717 40.0319 15.8559 39.6748C15.9948 39.3177 16.0609 38.9364 16.0502 38.5533C16.025 38.2932 16.0795 38.0315 16.2064 37.803C16.7081 37.029 17.4806 35.8959 18.403 34.7163C18.9025 34.8869 19.4121 35.0259 19.9288 35.1327C20.0284 36.0106 20.2642 38.1427 20.3022 38.9647C20.3006 39.1761 20.2326 39.3816 20.1079 39.5524C19.8462 39.951 19.6877 40.4084 19.6468 40.8835C19.6058 41.3586 19.6837 41.8365 19.8733 42.274C20.063 42.7115 20.3585 43.095 20.7332 43.3899C21.108 43.6849 21.5502 43.8819 22.02 43.9634C22.1791 43.9885 22.3396 44.0007 22.5002 44C22.8769 44.0008 23.25 43.9273 23.5982 43.7835C23.9464 43.6397 24.2627 43.4286 24.5291 43.1623C24.7955 42.8959 25.0066 42.5795 25.1504 42.2313C25.2941 41.8832 25.3677 41.51 25.3668 41.1333C25.3688 40.593 25.2159 40.0635 24.9261 39.6075C24.7798 39.4024 24.7004 39.1571 24.6989 38.9052C24.7469 37.9857 24.8465 36.6233 25.0572 35.1413C25.5804 35.0331 26.0971 34.8919 26.6031 34.7184C27.3938 35.7311 28.1373 36.7797 28.8312 37.861C28.9366 38.0474 28.9796 38.2624 28.9538 38.4745C28.9285 38.9496 29.0215 39.4236 29.2245 39.8539C29.4274 40.2842 29.734 40.6575 30.1166 40.9402C30.4993 41.223 30.9461 41.4063 31.4171 41.4739C31.888 41.5415 32.3684 41.4912 32.8152 41.3275C33.2065 41.1825 33.5615 40.9538 33.8553 40.6574C34.149 40.3609 34.3746 40.0039 34.516 39.6113C34.6575 39.2186 34.7116 38.7998 34.6744 38.3841C34.6372 37.9684 34.5097 37.5659 34.3008 37.2046C34.0374 36.7418 33.6483 36.3631 33.1785 36.1124C32.9399 36.004 32.7399 35.8255 32.6052 35.6007C32.0309 34.4748 31.5049 33.3249 31.0285 32.1542C31.4254 31.807 31.8003 31.4352 32.1508 31.0412C33.8708 31.7873 35.1429 32.3663 35.6546 32.6337C35.8413 32.7426 35.9879 32.909 36.0724 33.1081C36.2863 33.5288 36.6003 33.8905 36.9869 34.1613C37.3735 34.4321 37.8207 34.6036 38.2892 34.6608C38.7578 34.718 39.2331 34.6592 39.6735 34.4894C40.1139 34.3196 40.5058 34.0441 40.8146 33.6872C41.0902 33.367 41.2916 32.99 41.4045 32.5829C41.5174 32.1759 41.5389 31.7489 41.4676 31.3326C41.3962 30.9162 41.2338 30.5208 40.9918 30.1746C40.7498 29.8284 40.4343 29.5399 40.0678 29.3298C39.5971 29.0566 39.0577 28.9248 38.5141 28.95C38.2685 28.9739 38.0215 28.92 37.8082 28.7959C36.7471 28.1147 35.7205 27.3811 34.7322 26.5979C34.8993 26.0929 35.0341 25.5777 35.1357 25.0556C36.4064 24.8777 37.6846 24.7581 38.9663 24.6973C39.1799 24.6987 39.3877 24.769 39.5583 24.898C39.9316 25.1425 40.357 25.2965 40.8004 25.3477C41.2438 25.3989 41.693 25.3459 42.1123 25.1928C42.5315 25.0397 42.9093 24.7908 43.2154 24.466C43.5215 24.1412 43.7475 23.7493 43.8755 23.3217C44.0034 22.8941 44.0297 22.4425 43.9524 22.0029C43.875 21.5634 43.696 21.1479 43.4297 20.7897C43.1634 20.4315 42.8172 20.1404 42.4185 19.9397C42.0199 19.7389 41.5799 19.634 41.1335 19.6333C40.6014 19.632 40.0797 19.7811 39.6285 20.0633C39.4149 20.2138 39.1612 20.2977 38.9004 20.3034C37.6414 20.2381 36.3858 20.1185 35.1372 19.9451C35.0339 19.4206 34.897 18.9032 34.7272 18.3963C35.7348 17.6098 36.7769 16.8685 37.8505 16.1747C38.0397 16.0693 38.2568 16.0256 38.4718 16.05C39.2177 16.0892 39.9497 15.838 40.5143 15.3491C40.9581 14.9687 41.2743 14.4611 41.4201 13.895C41.5658 13.3289 41.5341 12.7317 41.3292 12.1843C41.1836 11.7937 40.9548 11.4394 40.6585 11.1462C40.3622 10.853 40.0056 10.6278 39.6135 10.4864C39.2214 10.3449 38.8032 10.2906 38.388 10.3271C37.9727 10.3636 37.5704 10.4902 37.209 10.6979C36.7411 10.963 36.3585 11.356 36.1061 11.831C35.9993 12.0653 35.8244 12.261 35.6044 12.3943C34.9028 12.7526 33.1391 13.5266 32.1472 13.9473C31.7974 13.5564 31.4238 13.1876 31.0285 12.8429C31.5101 11.651 32.0468 10.482 32.6367 9.33983C32.7453 9.15537 32.91 9.01048 33.1068 8.92632C33.5653 8.69507 33.9532 8.34494 34.23 7.91252C34.5068 7.48011 34.6625 6.98127 34.6806 6.46815C34.6987 5.95502 34.5787 5.44645 34.3331 4.99556C34.0875 4.54467 33.7253 4.16802 33.2844 3.90498C32.8434 3.64193 32.3399 3.50214 31.8265 3.50021C31.313 3.49829 30.8085 3.63429 30.3656 3.89402C29.9227 4.15376 29.5577 4.52767 29.3087 4.97671C29.0597 5.42574 28.9359 5.9334 28.9502 6.44665C28.9753 6.70682 28.9208 6.96849 28.7939 7.197C28.2923 7.971 27.5204 9.10333 26.5974 10.283C26.0979 10.1125 25.5884 9.97344 25.0716 9.86658C24.972 8.98508 24.7355 6.84727 24.6982 6.03026C24.6996 5.82243 24.767 5.61961 24.8903 5.45191C25.1371 5.0792 25.2933 4.65393 25.3465 4.21007C25.3997 3.76621 25.3483 3.31607 25.1965 2.8956C25.0447 2.47514 24.7966 2.096 24.4722 1.78849C24.1477 1.48097 23.7558 1.2536 23.3279 1.12453C22.8999 0.995458 22.4476 0.968272 22.0072 1.04514C21.5669 1.12201 21.1506 1.3008 20.7916 1.56724C20.4327 1.83367 20.141 2.18037 19.9399 2.57962C19.7388 2.97887 19.6339 3.41962 19.6335 3.86665C19.6318 4.40601 19.7842 4.93463 20.0728 5.39028C20.2197 5.59668 20.3 5.84321 20.3014 6.09691C20.2606 6.88095 20.0499 8.79588 19.918 9.86443C19.4035 9.97129 18.8963 10.1106 18.3994 10.2815C17.6078 9.26955 16.8643 8.22086 16.1713 7.13895C16.0669 6.95299 16.0245 6.73861 16.0502 6.52691C16.0791 6.01417 15.9698 5.50307 15.7336 5.04705C15.4974 4.59103 15.143 4.20683 14.7075 3.93462C14.2721 3.6624 13.7714 3.51218 13.258 3.49964C12.7446 3.4871 12.2373 3.61272 11.789 3.86335C11.3408 4.11398 10.9681 4.48043 10.7099 4.92438C10.4518 5.36833 10.3176 5.87349 10.3215 6.38703C10.3253 6.90057 10.4671 7.40365 10.7319 7.84366C10.9967 8.28368 11.3749 8.64448 11.8269 8.88833C12.0655 8.99583 12.2655 9.175 12.4002 9.39932C12.9748 10.5253 13.5008 11.6754 13.9769 12.8465C13.5802 13.1935 13.2056 13.565 12.8553 13.9587C12.0454 13.6076 10.0832 12.749 9.35078 12.3663C9.16402 12.2573 9.01747 12.0909 8.93296 11.8919C8.73147 11.493 8.43961 11.1466 8.08064 10.8804C7.72166 10.6142 7.30549 10.4355 6.86526 10.3586C6.42503 10.2816 5.97291 10.3085 5.54491 10.4371C5.11692 10.5658 4.72487 10.7926 4.39999 11.0994C4.07512 11.4063 3.82639 11.7848 3.67363 12.2048C3.52086 12.6248 3.46828 13.0747 3.52007 13.5186C3.57186 13.9625 3.72658 14.3881 3.97193 14.7617C4.21727 15.1352 4.54645 15.4463 4.93324 15.6701C5.40409 15.9425 5.94374 16.0743 6.48698 16.05C6.73208 16.027 6.97861 16.0808 7.19146 16.2041C8.25295 16.8847 9.27934 17.6185 10.2667 18.4028C10.0997 18.9081 9.96568 19.4233 9.86391 19.9451C8.23994 20.1751 6.79514 20.2676 6.03404 20.3034C5.82039 20.3012 5.613 20.2309 5.44208 20.1027C5.06873 19.8579 4.64338 19.7037 4.19989 19.6523C3.75641 19.601 3.30706 19.6539 2.88766 19.8069C2.46825 19.96 2.09038 20.2088 1.78415 20.5337C1.47792 20.8585 1.2518 21.2504 1.12381 21.6781C0.99582 22.1058 0.969494 22.5575 1.04693 22.9972C1.12437 23.4369 1.30343 23.8524 1.56984 24.2107C1.83626 24.5689 2.18266 24.86 2.58145 25.0607C2.98024 25.2614 3.4204 25.3661 3.86684 25.3667ZM15.0038 37.0197C14.7145 37.4924 14.5792 38.0433 14.6168 38.5963C14.6254 38.8615 14.5595 39.1238 14.4248 39.3524C14.3124 39.5448 14.1567 39.7084 13.9701 39.8302C13.7835 39.952 13.571 40.0285 13.3496 40.0538C13.1282 40.0791 12.904 40.0524 12.6947 39.9759C12.4854 39.8994 12.2969 39.7751 12.144 39.6129C11.9911 39.4508 11.8782 39.2552 11.8141 39.0418C11.7501 38.8284 11.7367 38.6029 11.7749 38.3834C11.8132 38.1639 11.9022 37.9563 12.0347 37.7772C12.1673 37.598 12.3398 37.4523 12.5385 37.3515C13.0074 37.1332 13.3927 36.7685 13.6364 36.3123C14.1816 35.2581 14.6837 34.1822 15.1414 33.0873C15.7344 33.4994 16.3608 33.8612 17.0141 34.1688C16.3088 35.0937 15.6382 36.0447 15.0038 37.0197ZM31.3259 36.2521C31.5911 36.7394 32.001 37.1315 32.4991 37.3758C32.7246 37.4984 32.913 37.6793 33.0447 37.8995C33.1764 38.1198 33.2465 38.3714 33.2478 38.628C33.2491 38.8846 33.1814 39.1369 33.0519 39.3584C32.9224 39.58 32.7358 39.7627 32.5116 39.8875C32.2873 40.0123 32.0337 40.0746 31.7771 40.068C31.5206 40.0613 31.2706 39.9858 31.0531 39.8495C30.8357 39.7132 30.6589 39.521 30.5411 39.293C30.4233 39.065 30.3689 38.8095 30.3835 38.5533C30.4285 38.0383 30.3053 37.5225 30.0323 37.0834C29.392 36.0858 28.7111 35.1149 27.9913 34.1731C28.6438 33.8637 29.2691 33.4997 29.8603 33.0852C30.3091 34.1588 30.7979 35.2152 31.3259 36.2521ZM38.823 21.7324C39.3771 21.7474 39.9221 21.5888 40.3817 21.2788C40.6758 21.1063 41.0206 21.0412 41.3573 21.0947C41.694 21.1482 42.0017 21.3168 42.2279 21.5719C42.4558 21.8347 42.5804 22.1714 42.5784 22.5193C42.5764 22.8672 42.4479 23.2025 42.217 23.4626C41.986 23.7228 41.6683 23.8901 41.3232 23.9333C40.978 23.9765 40.6288 23.8927 40.3409 23.6975C39.9166 23.4028 39.4089 23.2521 38.8925 23.2675C38.1794 23.2998 36.865 23.3829 35.3536 23.58C35.4142 22.861 35.4142 22.1382 35.3536 21.4193C36.5057 21.5672 37.663 21.6717 38.823 21.7324ZM29.9965 7.98031C30.286 7.50731 30.4208 6.95692 30.3835 6.40365C30.3749 6.13848 30.4408 5.87618 30.5756 5.64756C30.6879 5.45512 30.8436 5.29153 31.0302 5.16977C31.2169 5.04801 31.4293 4.97145 31.6507 4.94616C31.8721 4.92087 32.0964 4.94755 32.3057 5.02408C32.5149 5.10062 32.7035 5.22489 32.8564 5.38704C33.0092 5.54919 33.1222 5.74474 33.1862 5.95818C33.2503 6.17161 33.2637 6.39704 33.2254 6.61656C33.1871 6.83608 33.0982 7.04366 32.9656 7.22279C32.8331 7.40192 32.6606 7.54768 32.4618 7.6485C31.9934 7.86723 31.6085 8.23182 31.3646 8.68767C30.8194 9.74127 30.3185 10.8172 29.8632 11.9127C29.2703 11.5005 28.6439 11.1388 27.9906 10.8312C28.6933 9.90533 29.3623 8.95441 29.9965 7.98031ZM13.6744 8.74787C13.4094 8.26109 12.9997 7.86866 12.502 7.62485C12.2763 7.50227 12.0877 7.32131 11.9559 7.10089C11.8241 6.88047 11.7539 6.62869 11.7528 6.37187C11.7516 6.11506 11.8194 5.86264 11.9492 5.64103C12.079 5.41941 12.2659 5.23673 12.4905 5.11209C12.715 4.98745 12.9689 4.92543 13.2256 4.93252C13.4823 4.93961 13.7324 5.01554 13.9498 5.15238C14.1671 5.28922 14.3437 5.48193 14.461 5.71037C14.5784 5.93881 14.6322 6.19459 14.6168 6.45095C14.5717 6.96551 14.6957 7.48152 14.968 7.92012C15.6081 8.9187 16.2895 9.89015 17.0105 10.8319C16.3576 11.1401 15.7313 11.5034 15.1393 11.9162C14.6918 10.8418 14.2031 9.78484 13.6744 8.74787ZM7.96976 14.9993C7.50742 14.7102 6.96486 14.5761 6.42104 14.6166C6.15034 14.6304 5.88152 14.5647 5.64776 14.4274C5.45576 14.3149 5.2926 14.1592 5.17121 13.9727C5.04981 13.7862 4.97351 13.574 4.94836 13.3529C4.92321 13.1317 4.94988 12.9078 5.02628 12.6988C5.10268 12.4898 5.2267 12.3014 5.38852 12.1486C5.55034 11.9959 5.74551 11.8829 5.95857 11.8186C6.17163 11.7543 6.39673 11.7405 6.61604 11.7784C6.83535 11.8162 7.04284 11.9045 7.22208 12.0364C7.40132 12.1683 7.54738 12.3402 7.64869 12.5383C7.86687 13.0092 8.23204 13.3965 8.68929 13.642C9.42889 14.0275 11.2564 14.8309 12.2798 15.2753C12.5585 15.3946 12.8679 15.4224 13.1634 15.3548C13.4589 15.2872 13.7254 15.1276 13.9245 14.899C15.5682 13.0415 17.771 11.7685 20.2011 11.272C20.5003 11.2143 20.7732 11.0628 20.9805 10.8395C21.1877 10.6161 21.3183 10.3326 21.3535 10.03C21.4775 8.94208 21.6918 6.99418 21.7341 6.17145C21.75 5.62027 21.5917 5.0781 21.2818 4.62201C21.1396 4.39587 21.065 4.13378 21.0668 3.86665C21.0677 3.64323 21.1207 3.42309 21.2218 3.22382C21.3228 3.02455 21.469 2.85166 21.6488 2.71894C21.8285 2.58623 22.0368 2.49737 22.257 2.45946C22.4771 2.42155 22.7031 2.43563 22.9169 2.50059C23.1307 2.56555 23.3263 2.67958 23.4882 2.83359C23.65 2.9876 23.7736 3.17731 23.8492 3.38758C23.9247 3.59786 23.95 3.82288 23.9231 4.04467C23.8961 4.26647 23.8178 4.4789 23.6941 4.66501C23.4006 5.0842 23.2498 5.58679 23.2641 6.09835C23.3021 6.92753 23.5193 8.91843 23.6454 10.0314C23.681 10.3335 23.8117 10.6165 24.0188 10.8394C24.2258 11.0623 24.4984 11.2136 24.7971 11.2712C27.2265 11.7672 29.4287 13.0397 31.0715 14.8969C31.2714 15.1255 31.5386 15.285 31.8347 15.3523C32.1309 15.4196 32.4407 15.3914 32.7198 15.2717C33.7232 14.8345 35.5148 14.0447 36.2559 13.6692C36.7363 13.4053 37.1237 12.9996 37.3653 12.5075C37.4921 12.271 37.6835 12.0746 37.9171 11.942C38.225 11.7629 38.5886 11.7047 38.937 11.779C39.2854 11.8533 39.5936 12.0546 39.8017 12.3438C40.0097 12.633 40.1026 12.9893 40.0622 13.3432C40.0219 13.6972 39.8512 14.0234 39.5834 14.2583C39.2981 14.5058 38.9286 14.6341 38.5514 14.6166C38.0345 14.5711 37.5168 14.6935 37.075 14.9657C35.9623 15.6822 34.8828 16.4491 33.84 17.264C33.6074 17.4493 33.4379 17.7021 33.3547 17.9876C33.2715 18.2731 33.2788 18.5774 33.3756 18.8586C34.1639 21.2215 34.1639 23.7757 33.3756 26.1385C33.2794 26.4194 33.2724 26.7232 33.3556 27.0083C33.4387 27.2933 33.6079 27.5457 33.84 27.7309C34.869 28.5348 35.9342 29.2915 37.032 29.9985C37.4943 30.2866 38.0354 30.4213 38.5793 30.3833C38.8502 30.369 39.119 30.4342 39.3526 30.5725C39.5446 30.685 39.7078 30.8407 39.8291 31.0273C39.9505 31.2138 40.0268 31.426 40.052 31.6471C40.0771 31.8682 40.0505 32.0922 39.9741 32.3012C39.8977 32.5102 39.7736 32.6986 39.6118 32.8513C39.45 33.0041 39.2548 33.1171 39.0418 33.1814C38.8287 33.2457 38.6036 33.2594 38.3843 33.2216C38.165 33.1838 37.9575 33.0954 37.7783 32.9635C37.599 32.8316 37.453 32.6598 37.3517 32.4617C37.1337 31.9908 36.7684 31.6037 36.3111 31.3587C35.5793 30.9767 33.7483 30.1712 32.7213 29.7254C32.4421 29.6053 32.132 29.577 31.8357 29.6446C31.5394 29.7123 31.2723 29.8723 31.0729 30.1017C29.3189 32.0894 26.9263 33.4029 24.3076 33.8154C23.9944 33.867 23.7515 34.1164 23.7085 34.4311C23.4882 35.8886 23.3403 37.3563 23.2656 38.8285C23.2486 39.3786 23.4061 39.92 23.7156 40.3751C23.859 40.6016 23.9349 40.8646 23.9335 41.1333C23.9345 41.3414 23.8901 41.5473 23.8034 41.7365C23.7168 41.9257 23.59 42.0938 23.4318 42.2291C23.1674 42.4507 22.832 42.5698 22.487 42.5646C22.142 42.5593 21.8104 42.4301 21.5528 42.2005C21.2952 41.9709 21.1288 41.6563 21.0841 41.3142C21.0393 40.972 21.1192 40.6252 21.3091 40.3371C21.6029 39.9157 21.7534 39.4112 21.7391 38.898C21.7004 38.0631 21.4839 36.078 21.3578 34.9693C21.322 34.6675 21.1912 34.3849 20.9844 34.1623C20.7775 33.9397 20.5052 33.7886 20.2068 33.7309C17.7771 33.2349 15.5746 31.9621 13.9317 30.1045C13.7961 29.9504 13.6294 29.8268 13.4424 29.7419C13.2555 29.657 13.0527 29.6128 12.8474 29.6122C12.6532 29.6122 12.4604 29.6523 12.2819 29.7297C11.2786 30.1669 9.48694 30.9567 8.74591 31.3322C8.26544 31.5961 7.87804 32.0018 7.63651 32.4939C7.51016 32.7311 7.31871 32.9273 7.08468 33.0594C6.77657 33.2418 6.41131 33.3024 6.0608 33.2291C5.71029 33.1558 5.39991 32.9539 5.19076 32.6633C4.98161 32.3726 4.88884 32.0142 4.93071 31.6585C4.97258 31.3029 5.14605 30.9758 5.41699 30.7417C5.70133 30.4941 6.07023 30.3657 6.44684 30.3833C6.96284 30.427 7.48028 30.3045 7.92246 30.0336C9.03546 29.3169 10.1152 28.5497 11.1582 27.7345C11.6348 27.3547 11.8204 26.7169 11.6226 26.1407C10.8343 23.7785 10.8343 21.2243 11.6226 18.8629C11.7195 18.5817 11.7269 18.2773 11.6439 17.9917C11.5609 17.706 11.3915 17.4531 11.1589 17.2676C10.1315 16.4626 9.0673 15.7057 7.96976 14.9993ZM2.45143 22.2513C2.49418 22.0176 2.594 21.7981 2.74202 21.6123C2.89004 21.4265 3.08168 21.2802 3.29989 21.1863C3.5181 21.0924 3.75613 21.0538 3.99282 21.0741C4.22952 21.0944 4.45753 21.1728 4.65661 21.3024C5.08016 21.5984 5.58828 21.7489 6.10499 21.7324C6.96499 21.6937 8.22561 21.6063 9.64318 21.4207C9.61379 21.779 9.59803 22.1374 9.59803 22.5C9.59803 22.8626 9.61451 23.2231 9.64389 23.5807C8.49178 23.4327 7.3345 23.3283 6.17451 23.2675C5.6206 23.2546 5.07621 23.413 4.61576 23.7212C4.32245 23.8936 3.97843 23.959 3.64233 23.9062C3.30622 23.8534 2.99882 23.6857 2.77249 23.4316C2.63545 23.2707 2.53583 23.0813 2.4808 22.8772C2.42578 22.6731 2.41672 22.4593 2.45429 22.2513H2.45143Z" stroke="black" mask="url(#path-2-outside-1_412_449)"/>
</svg>
