<svg width="38" height="47" viewBox="0 0 38 47" fill="none" xmlns="http://www.w3.org/2000/svg">
<path d="M18.9986 38.1479L18.9956 38.1488C11.0779 40.4738 2.73511 34.1746 2.85874 25.9032H2.85877V25.8995C2.85877 24.3748 3.48352 22.4047 4.48798 20.2337C5.48918 18.0697 6.85408 15.7341 8.3055 13.4874C11.0747 9.20094 14.1468 5.2561 15.5753 3.47304C17.865 6.33297 24.3495 14.7199 27.0787 21.2087L27.0787 21.2087L27.0808 21.2135C27.1931 21.4654 27.3996 21.6633 27.6561 21.7647C27.9125 21.8661 28.1985 21.8631 28.4527 21.7561C28.7069 21.6492 28.909 21.447 29.0159 21.1928C29.1227 20.9385 29.1257 20.6526 29.0242 20.3962L29.0243 20.3961L29.0222 20.3913C27.2944 16.282 24.2244 11.5743 21.5484 7.84712C18.8698 4.11627 16.5743 1.3517 16.385 1.12546L16.385 1.12546L16.3839 1.12407C16.2844 1.00683 16.1605 0.912647 16.021 0.848053C15.8814 0.783458 15.7295 0.75 15.5757 0.75C15.4219 0.75 15.27 0.783458 15.1305 0.848053C14.9909 0.912647 14.8671 1.00683 14.7676 1.12407L14.7663 1.12558C14.4788 1.46979 10.9829 5.68018 7.55755 10.7834C5.84506 13.3348 4.14671 16.1145 2.87557 18.7492C1.60813 21.3763 0.75 23.8898 0.75 25.8995L0.75 25.8996C0.75092 28.1869 1.28088 30.443 2.29844 32.4915C3.316 34.54 4.79359 36.3254 6.61568 37.708C8.43777 39.0907 10.555 40.0332 12.8018 40.4618C15.0486 40.8905 17.364 40.7936 19.5672 40.1788L19.5674 40.1787C19.8367 40.1033 20.065 39.924 20.2021 39.6802C20.3392 39.4365 20.3738 39.1483 20.2984 38.879C20.223 38.6097 20.0437 38.3814 19.7999 38.2443C19.5562 38.1072 19.2679 38.0725 18.9986 38.1479ZM30.2133 23.9799L30.2118 23.9778C30.114 23.8391 29.9842 23.726 29.8335 23.6479C29.6828 23.5698 29.5156 23.5291 29.3459 23.5291C29.1761 23.5291 29.0089 23.5698 28.8582 23.6479C28.7075 23.726 28.5777 23.8391 28.4799 23.9778L28.4785 23.9798C28.1168 24.5029 26.355 27.0819 24.6827 30.0256C23.8467 31.4972 23.0303 33.0646 22.4223 34.5146C21.8177 35.9567 21.406 37.3123 21.406 38.3501H21.4058L21.4062 38.3604C21.8405 48.8776 36.8496 48.8821 37.2847 38.3605L37.2849 38.3605V38.3501C37.2849 37.3123 36.8732 35.9567 36.2686 34.5146C35.6606 33.0646 34.8443 31.4972 34.0083 30.0256C32.3361 27.0819 30.5745 24.5029 30.2133 23.9799ZM29.3455 44.1816C27.7995 44.1797 26.3175 43.5647 25.2244 42.4715C24.1312 41.3782 23.5164 39.8959 23.5148 38.3499C23.5148 37.7458 23.7446 36.8888 24.144 35.8698C24.5405 34.858 25.0934 33.713 25.7161 32.5429C26.883 30.3505 28.2872 28.0852 29.3455 26.4711C30.4038 28.0852 31.8082 30.3505 32.9752 32.5429C33.5981 33.713 34.151 34.8581 34.5476 35.8698C34.947 36.8888 35.1769 37.7459 35.1769 38.3499C35.1753 39.896 34.5604 41.3784 33.4671 42.4717C32.3738 43.565 30.8916 44.1799 29.3455 44.1816Z" fill="black" stroke="black" stroke-width="0.5"/>
<path d="M20.1217 30.7582V30.7579V22.915V22.9147C20.1204 21.9422 19.7335 21.01 19.0459 20.3224C18.3583 19.6348 17.4261 19.248 16.4537 19.2466H16.4533L15.1467 19.2466L15.1463 19.2466C14.1739 19.248 13.2417 19.6348 12.5541 20.3224C11.8665 21.01 11.4796 21.9422 11.4783 22.9147V22.915V30.7579C11.4783 31.0376 11.5894 31.3058 11.7871 31.5035C11.9848 31.7012 12.253 31.8123 12.5327 31.8123C12.8123 31.8123 13.0805 31.7012 13.2782 31.5035C13.4759 31.3058 13.587 31.0376 13.587 30.7579V26.5834H18.013V30.7571C18.013 31.0368 18.1241 31.305 18.3218 31.5027C18.5195 31.7004 18.7877 31.8115 19.0674 31.8115C19.3468 31.8115 19.6148 31.7006 19.8125 31.5031C20.0103 31.3056 20.1215 31.0376 20.1217 30.7582ZM32.6143 36.2784C32.0408 36.2779 31.4908 36.0498 31.0852 35.6442C30.6796 35.2386 30.4515 34.6886 30.4509 34.115C30.4509 33.8355 30.3398 33.5674 30.1421 33.3697C29.9444 33.172 29.6762 33.0609 29.3966 33.0609C29.1169 33.0609 28.8487 33.172 28.651 33.3697C28.4533 33.5674 28.3422 33.8355 28.3422 34.115C28.3416 34.6885 28.1136 35.2383 27.7082 35.6439C27.3027 36.0495 26.753 36.2777 26.1795 36.2784C25.9 36.2785 25.6319 36.3896 25.4343 36.5873C25.2365 36.785 25.1255 37.0532 25.1255 37.3328C25.1255 37.6125 25.2365 37.8806 25.4343 38.0784C25.6319 38.276 25.9 38.3871 26.1795 38.3872C26.7528 38.388 27.3025 38.6161 27.7079 39.0215C28.1133 39.4269 28.3414 39.9765 28.3422 40.5499C28.3423 40.8294 28.4533 41.0975 28.651 41.2951C28.8487 41.4928 29.1169 41.6039 29.3966 41.6039C29.6762 41.6039 29.9444 41.4928 30.1421 41.2951C30.3398 41.0975 30.4509 40.8294 30.4509 40.5499C30.4517 39.9764 30.6799 39.4267 31.0855 39.0212C31.491 38.6158 32.0409 38.3878 32.6143 38.3872C32.8939 38.3871 33.162 38.2761 33.3597 38.0784C33.5574 37.8806 33.6685 37.6125 33.6685 37.3328C33.6685 37.0532 33.5574 36.785 33.3597 36.5873C33.162 36.3896 32.8939 36.2785 32.6143 36.2784ZM29.8066 37.3327C29.6609 37.46 29.5239 37.5968 29.3966 37.7424C29.2692 37.5968 29.1322 37.46 28.9865 37.3327C29.1322 37.2054 29.2692 37.0684 29.3966 36.9227C29.5239 37.0684 29.6609 37.2054 29.8066 37.3327ZM13.587 24.4747L13.587 22.9153C13.587 22.9153 13.587 22.9153 13.587 22.9153C13.5876 22.5017 13.7521 22.1053 14.0446 21.8129C14.337 21.5205 14.7334 21.3559 15.1469 21.3553H16.4532C16.8667 21.3559 17.2631 21.5205 17.5555 21.8129C17.8479 22.1053 18.0124 22.5018 18.013 22.9153V24.4747H13.587Z" fill="black" stroke="black" stroke-width="0.5"/>
</svg>
