<svg width="45" height="45" viewBox="0 0 45 45" fill="none" xmlns="http://www.w3.org/2000/svg">
<g clip-path="url(#clip0_412_462)">
<path d="M27.6301 30.5756C28.5878 31.2686 29.7716 31.6681 31.0509 31.6391C34.1242 31.5695 36.5934 28.9992 36.5451 25.9255C36.4969 22.8605 33.9973 20.3906 30.9208 20.3906C30.837 20.3906 29.4483 10.6297 28.6603 5.093C28.352 2.92702 26.4975 1.31836 24.3097 1.31836H20.6903C18.5025 1.31836 16.648 2.92702 16.3398 5.093C15.5517 10.6297 14.1631 20.3906 14.0792 20.3906C11.0027 20.3906 8.50308 22.8605 8.45492 25.9255C8.40667 28.9992 10.8759 31.5695 13.9491 31.6391C15.2285 31.6681 16.4123 31.2685 17.3699 30.5756M18.9844 40.0781L17.5781 43.6816M26.0156 40.0781L27.4219 43.6816M32.3438 37.2656L35.1563 40.0781M12.6563 37.2656L9.84377 40.0781" stroke="black" stroke-width="3" stroke-miterlimit="10" stroke-linecap="round" stroke-linejoin="round"/>
<path d="M16.1443 28.125C16.8728 30.9554 19.4421 33.0469 22.5 33.0469C25.5579 33.0469 28.1272 30.9554 28.8557 28.125" stroke="black" stroke-width="3" stroke-miterlimit="10" stroke-linecap="round" stroke-linejoin="round"/>
</g>
<defs>
<clipPath id="clip0_412_462">
<rect width="45" height="45" fill="white"/>
</clipPath>
</defs>
</svg>
